<svg viewBox="0 0 70 80" xmlns="http://www.w3.org/2000/svg">
<path d="M21.0001 54.6499C24.4761 52.304 26.7663 48.3292 26.7663 43.8295C26.7663 36.6363 20.9144 30.7844 13.7213 30.7844C6.5281 30.7844 0.676176 36.6363 0.676176 43.8295C0.676176 48.3292 2.96642 52.304 6.4424 54.6499C2.72831 55.7095 0 59.1316 0 63.1812V78.7171C0 79.4256 0.574399 80 1.2829 80H26.1596C26.8681 80 27.4425 79.4256 27.4425 78.7171V63.1812C27.4425 59.1316 24.7144 55.7095 21.0001 54.6499ZM16.6793 58.6491L15.1212 56.8746H18.2374L16.6793 58.6491ZM11.7066 56.8746L14.7986 60.3957L11.9041 62.5548L10.5087 56.8746H11.7066ZM21.1611 57.4338C21.3243 57.5077 21.4838 57.5877 21.6393 57.6746L21.1828 62.3521L18.5602 60.3957L21.1611 57.4338ZM3.24198 43.8295C3.24198 38.0511 7.94289 33.3502 13.7213 33.3502C19.4996 33.3502 24.2005 38.0511 24.2005 43.8295C24.2005 49.6079 19.4996 54.3088 13.7213 54.3088C7.94289 54.3088 3.24198 49.6079 3.24198 43.8295ZM2.56581 63.1812C2.56581 60.0394 4.87538 57.4274 7.88575 56.9522L9.87425 65.0462C9.97689 65.4639 10.2819 65.8022 10.6868 65.9476C10.8277 65.9982 10.9741 66.0231 11.1199 66.0231C11.3925 66.0231 11.6623 65.9362 11.887 65.7685L15.3964 63.1507V77.4342H8.90027V64.7171C8.90027 64.0086 8.32587 63.4342 7.61737 63.4342C6.90886 63.4342 6.33447 64.0086 6.33447 64.7171V77.4342H2.56581V63.1812ZM24.8767 77.4342H17.9624V63.1507L21.4717 65.7685C21.6972 65.9367 21.9669 66.0231 22.2389 66.0231C22.4146 66.0231 22.5912 65.987 22.7575 65.9134C23.1809 65.7263 23.4706 65.3255 23.5156 64.8647L23.9937 59.9674C24.5539 60.9092 24.8769 62.0079 24.8769 63.1812V77.4342H24.8767Z"/>
<path d="M20.8282 66.7835C20.6241 66.2997 20.1395 65.9788 19.6121 65.9924C19.0521 66.0067 18.559 66.3938 18.4081 66.9323C18.261 67.4569 18.477 68.0402 18.9312 68.3419C19.3804 68.6403 19.9881 68.6232 20.4176 68.2973C20.8757 67.9494 21.0538 67.316 20.8282 66.7835C20.7957 66.7065 20.8608 66.8605 20.8282 66.7835Z"/>
<path d="M13.2629 41.4416C13.0629 40.9683 12.5951 40.6497 12.0783 40.6497C11.5634 40.6497 11.0915 40.9682 10.8938 41.4416C10.683 41.9464 10.8281 42.5533 11.2451 42.9077C11.6693 43.2682 12.294 43.313 12.7641 43.015C13.2824 42.6867 13.5027 42.0099 13.2629 41.4416C13.2304 41.3648 13.2954 41.5188 13.2629 41.4416Z"/>
<path d="M19.2841 42.4238C19.4881 42.9068 19.9734 43.2284 20.5006 43.2149C21.0697 43.2004 21.575 42.7965 21.7127 42.2438C21.8355 41.7507 21.6473 41.2173 21.2428 40.9101C20.7984 40.5728 20.1657 40.566 19.7149 40.8947C19.2394 41.2415 19.0593 41.8798 19.2841 42.4238C19.3164 42.5006 19.2516 42.3451 19.2841 42.4238Z"/>
<path d="M52.3748 29.9625C52.5845 30.0961 52.824 30.1633 53.064 30.1633C53.2761 30.1633 53.4884 30.1108 53.681 30.0051C54.0915 29.7798 54.3469 29.3487 54.3469 28.8804V25.8967H55.6522C57.8497 25.8967 59.6376 24.1088 59.6376 21.9115V8.49932C59.6376 6.3018 57.8497 4.51394 55.6522 4.51394H42.3616V3.98555C42.3616 1.78785 40.5738 0 38.3761 0H14.8322C12.6345 0 10.8467 1.78803 10.8467 3.98555V17.3962C10.8467 19.5939 12.6347 21.3817 14.8322 21.3817H16.1374V24.3666C16.1374 24.835 16.3926 25.2662 16.8033 25.4915C16.9959 25.5972 17.2082 25.6495 17.4201 25.6495C17.6603 25.6495 17.8999 25.5821 18.1096 25.4485L24.491 21.3817H28.1226V21.9115C28.1226 24.109 29.9105 25.8967 32.1078 25.8967H45.9924L52.3748 29.9625ZM24.117 18.8159C23.8728 18.8159 23.6335 18.8857 23.4275 19.0169L18.7032 22.0278V20.0988C18.7032 19.3903 18.1288 18.8159 17.4203 18.8159H14.8322C14.0493 18.8159 13.4125 18.1791 13.4125 17.3962V3.98555C13.4125 3.20264 14.0495 2.56581 14.8322 2.56581H38.3761C39.1588 2.56581 39.7958 3.20281 39.7958 3.98555V4.51394H32.108C30.3706 4.51394 28.8903 5.63195 28.3462 7.18597H18.5562C17.8477 7.18597 17.2733 7.76037 17.2733 8.46888C17.2733 9.17738 17.8477 9.75178 18.5562 9.75178H28.1228V11.8968H18.5562C17.8477 11.8968 17.2733 12.4712 17.2733 13.1797C17.2733 13.8882 17.8477 14.4626 18.5562 14.4626H28.1228V18.8159H24.117ZM30.6884 21.9115V8.49932C30.6884 7.71658 31.3252 7.07975 32.1078 7.07975H55.652C56.4348 7.07975 57.0716 7.71658 57.0716 8.49932V21.9113C57.0716 22.6941 56.4348 23.3307 55.652 23.3307H53.0638C52.3551 23.3307 51.7809 23.9051 51.7809 24.6136V26.5419L47.0555 23.5315C46.8496 23.4003 46.6104 23.3307 46.3664 23.3307H32.108C31.3252 23.3309 30.6884 22.6941 30.6884 21.9115Z"/>
<path d="M35.8332 14.266H51.9268C52.6355 14.266 53.2097 13.6916 53.2097 12.9831C53.2097 12.2746 52.6355 11.7002 51.9268 11.7002H35.8332C35.1245 11.7002 34.5503 12.2746 34.5503 12.9831C34.5503 13.6916 35.1247 14.266 35.8332 14.266Z"/>
<path d="M53.2097 17.6935C53.2097 16.985 52.6355 16.4106 51.9268 16.4106H35.8332C35.1245 16.4106 34.5503 16.985 34.5503 17.6935C34.5503 18.4021 35.1245 18.9765 35.8332 18.9765H51.9268C52.6355 18.9765 53.2097 18.4021 53.2097 17.6935Z"/>
<path d="M62.9685 54.6499C66.4445 52.304 68.7348 48.3292 68.7348 43.8295C68.7348 36.6363 62.8828 30.7844 55.6897 30.7844C48.4965 30.7844 42.6444 36.6363 42.6444 43.8295C42.6444 48.3292 44.9347 52.304 48.4107 54.6499C44.6964 55.7095 41.9683 59.1316 41.9683 63.1812V78.7171C41.9683 79.4256 42.5425 80 43.2512 80H68.128C68.8367 80 69.4109 79.4256 69.4109 78.7171V63.1812C69.4109 59.1316 66.6828 55.7095 62.9685 54.6499ZM60.2635 56.8746C59.2888 58.4101 57.5761 59.3978 55.6893 59.3978C53.8026 59.3978 52.09 58.4101 51.1152 56.8746H60.2635ZM45.2104 43.8295C45.2104 38.0511 49.9113 33.3502 55.6899 33.3502C61.4681 33.3502 66.1691 38.0511 66.1691 43.8295C66.1691 49.6079 61.4682 54.3088 55.6899 54.3088C49.9113 54.3088 45.2104 49.6079 45.2104 43.8295ZM44.5342 63.1812C44.5342 60.5495 46.155 58.2902 48.4503 57.3465C49.7413 60.119 52.5558 61.9636 55.6895 61.9636C58.8232 61.9636 61.6377 60.1188 62.9287 57.3463C65.2242 58.2901 66.8453 60.5495 66.8453 63.1812V67.735H62.3514V64.7172C62.3514 64.0087 61.7771 63.4343 61.0685 63.4343C60.3598 63.4343 59.7856 64.0087 59.7856 64.7172V77.4344H44.5344V63.1812H44.5342ZM62.3512 77.4342V70.3006H66.8451V77.4342H62.3512Z"/>
<path d="M56.1476 42.4237C56.3739 42.9583 56.943 43.2886 57.521 43.2013C58.0283 43.1247 58.4493 42.7443 58.5762 42.2477C58.7095 41.7265 58.4896 41.1647 58.0446 40.8654C57.54 40.526 56.8564 40.6047 56.4247 41.0245C56.0667 41.3933 55.9505 41.9453 56.1476 42.4237C56.1803 42.5005 56.1153 42.345 56.1476 42.4237Z"/>
<path d="M50.2002 41.6813C50.1694 41.5168 50.0994 41.3602 50.0103 41.2195C49.363 40.2723 47.8463 40.6061 47.6746 41.7443C47.5184 42.7781 48.6639 43.5673 49.5748 43.0477C50.0495 42.7767 50.3097 42.2194 50.2002 41.6813C50.1848 41.5992 50.2171 41.7651 50.2002 41.6813Z"/>
<path d="M55.9422 46.3279C55.5416 45.9271 54.8914 45.9271 54.491 46.3279C54.148 46.6707 53.6922 46.8596 53.2074 46.8596C52.7226 46.8596 52.2668 46.6707 51.9238 46.3279C51.5232 45.9271 50.873 45.9271 50.4726 46.3279C50.0716 46.7287 50.0716 47.3785 50.4726 47.7793C51.2264 48.5333 52.217 48.9103 53.2074 48.9103C54.1978 48.9103 55.1884 48.5333 55.9422 47.7793C56.3432 47.3785 56.3432 46.7289 55.9422 46.3279Z"/>
</svg>
