<svg viewBox="0 0 112 102" xmlns="http://www.w3.org/2000/svg">
<path d="M29.227 67.6833C27.6261 66.4184 25.6197 65.7217 23.5774 65.7217C20.8019 65.7217 18.2172 66.9549 16.4861 69.1057C14.9724 70.9885 14.287 73.344 14.5572 75.7377C14.8276 78.1367 16.0244 80.2854 17.9264 81.7888C19.5273 83.0541 21.533 83.7508 23.575 83.7508C26.3526 83.7508 28.9376 82.5151 30.6673 80.3622C32.1797 78.4826 32.8643 76.1299 32.5952 73.7371C32.3254 71.3382 31.1294 69.1881 29.227 67.6833ZM27.4445 77.7714C26.5032 78.9436 25.0925 79.6162 23.575 79.6162C22.4437 79.6162 21.3769 79.2458 20.4907 78.5453C19.4601 77.7307 18.8123 76.5692 18.6658 75.2743C18.5204 73.9845 18.8905 72.7138 19.7075 71.698C20.6492 70.5278 22.0599 69.8566 23.5774 69.8566C24.7097 69.8566 25.7768 70.227 26.6627 70.9271C27.693 71.7417 28.3404 72.904 28.4862 74.1996C28.6312 75.4883 28.2619 76.7563 27.4445 77.7714Z"/>
<path d="M65.5827 46.508C66.9465 46.508 68.2652 46.2093 69.5053 45.6183C71.6975 44.5694 73.3442 42.7346 74.1412 40.4515C74.9341 38.1828 74.7914 35.7415 73.7405 33.5793C72.2371 30.4802 69.0264 28.4775 65.561 28.4775C64.1944 28.4775 62.873 28.7773 61.6332 29.369C59.4417 30.4144 57.7943 32.2479 56.996 34.5317C56.2017 36.8021 56.344 39.2437 57.3967 41.407C58.9049 44.5057 62.118 46.508 65.5827 46.508ZM60.8986 35.8965C61.3307 34.6612 62.2238 33.6682 63.4133 33.1007C64.0928 32.7768 64.815 32.6124 65.5606 32.6124C67.4527 32.6124 69.2031 33.7002 70.0204 35.3855C70.5873 36.5516 70.6641 37.8661 70.2375 39.088C69.8058 40.324 68.9116 41.3184 67.7235 41.8869C67.0464 42.2098 66.3259 42.3731 65.5824 42.3731C63.6886 42.3731 61.9347 41.2836 61.1139 39.5976C60.5478 38.4333 60.4713 37.1191 60.8986 35.8965Z"/>
<path d="M43.0838 31.8971C43.7488 32.0473 44.4293 32.1235 45.1064 32.1235C49.3626 32.1235 52.9989 29.2449 53.9499 25.1193C54.4843 22.78 54.0733 20.3718 52.7935 18.3374C51.5031 16.2872 49.4863 14.8621 47.1163 14.3252C46.4485 14.1736 45.7653 14.0964 45.0851 14.0964C40.8317 14.0964 37.1992 16.9781 36.2513 21.103C35.7123 23.4406 36.1207 25.8491 37.4007 27.8849C38.6922 29.9378 40.7111 31.363 43.0838 31.8971ZM40.281 22.0306C40.7948 19.7939 42.7706 18.2317 45.0851 18.2317C45.4569 18.2317 45.8321 18.274 46.2011 18.3578C47.494 18.6507 48.5921 19.4256 49.2937 20.5399C49.9849 21.6381 50.2068 22.9371 49.9194 24.1941C49.4126 26.3929 47.3882 27.9886 45.1061 27.9886C44.7353 27.9886 44.3615 27.9465 43.9935 27.8635C42.7003 27.5723 41.6021 26.7981 40.9009 25.6837C40.2111 24.5863 39.9909 23.2893 40.281 22.0306Z"/>
<path d="M26.6549 37.055C28.5549 35.5495 29.7495 33.3991 30.0197 30.9998C30.2888 28.6078 29.6055 26.255 28.0925 24.3719C26.3586 22.2221 23.7719 20.9893 20.9963 20.9893C18.9561 20.9893 16.9517 21.6839 15.3505 22.9468C13.4502 24.4477 12.2549 26.5948 11.9837 28.9923C11.7129 31.3874 12.3979 33.7443 13.9137 35.6305C15.6462 37.7827 18.2332 39.0173 21.0119 39.0173C23.0538 39.017 25.0582 38.3202 26.6549 37.055ZM17.1361 33.0383C16.3174 32.0197 15.947 30.7476 16.0931 29.4561C16.2392 28.1629 16.8863 27.0031 17.9131 26.1916C18.799 25.4928 19.8655 25.1234 20.9967 25.1234C22.5156 25.1234 23.9294 25.7954 24.8718 26.9638C25.6867 27.9789 26.0561 29.248 25.911 30.537C25.7652 31.834 25.1174 32.998 24.0875 33.8139C23.2057 34.5124 22.1421 34.8817 21.0122 34.8817C19.4916 34.8821 18.0788 34.2095 17.1361 33.0383Z"/>
<path d="M111.209 16.8237C110.852 16.4633 110.214 16.0336 109.209 16.0336C108.029 16.0336 104.896 16.0336 85.8672 32.2258C85.4848 32.5511 85.0988 32.8808 84.7115 33.213C81.3116 24.344 75.3381 16.4371 67.6407 10.7179C58.8148 4.16034 48.3053 0.69221 37.2494 0.689453C37.2459 0.689453 37.2435 0.689453 37.2408 0.689453C29.7794 0.689453 20.7095 3.29649 13.5696 7.49443C4.81747 12.6396 -0.0017224 19.5207 4.61784e-07 26.8694C0.00275705 35.7415 5.00665 39.4525 9.02747 42.4341C12.3061 44.8658 14.8955 46.7861 14.8969 50.9947C14.898 55.203 12.3099 57.1215 9.03298 59.5508C5.01354 62.5307 0.0106822 66.2396 0.0134388 75.1127C0.0155062 82.4604 4.8378 89.3433 13.5917 94.4929C20.7367 98.696 29.8114 101.309 37.2742 101.311C37.2794 101.311 37.2838 101.311 37.2887 101.311C50.8321 101.311 63.5637 96.0831 73.1394 86.5905C82.5931 77.2191 87.8509 64.7976 87.9891 51.5608C91.1992 47.908 94.3089 44.2772 97.1479 40.856C102.005 35.0031 105.74 30.1735 108.249 26.5021C111.572 21.6391 113.028 18.6565 111.209 16.8237ZM70.2288 83.654C61.4322 92.3745 49.7353 97.1757 37.289 97.1757C37.2852 97.1757 37.2797 97.1757 37.2759 97.1757C23.9385 97.172 4.1521 87.9057 4.14831 75.1114C4.14625 68.3209 7.71602 65.6742 11.4956 62.8721C15.0285 60.2527 19.0328 57.2838 19.0315 50.9933C19.0294 44.7038 15.0241 41.7333 11.4901 39.1128C7.70879 36.3083 4.13694 33.6596 4.13488 26.8684C4.13315 19.0118 11.3582 13.591 15.6653 11.0587C22.1081 7.2708 30.576 4.82398 37.2408 4.82398C37.2432 4.82398 37.2459 4.82398 37.248 4.82398C47.4098 4.82674 57.0668 8.01266 65.1749 14.0365C72.6529 19.5927 78.3611 27.3925 81.3678 36.106C72.4003 43.9361 62.6895 52.9639 55.4576 60.2193C43.4462 61.774 41.8098 69.7791 40.6134 75.6599C39.5949 80.6673 38.9336 83.0882 35.0686 83.3983C34.1162 83.4748 33.3405 84.1936 33.192 85.1374C33.0432 86.0808 33.5604 87.0036 34.4432 87.3692C34.6916 87.4719 40.6031 89.8873 47.5097 89.8877C47.5108 89.8877 47.5114 89.8877 47.5121 89.8877C52.3251 89.8877 56.4538 88.721 59.7831 86.4202C63.8855 83.5851 66.6673 79.0901 68.0652 73.0622C72.7904 68.2816 78.1895 62.5169 83.5283 56.5788C82.2995 66.8023 77.686 76.2615 70.2288 83.654ZM63.9114 72.6707C61.7206 81.3526 56.2081 85.7535 47.5118 85.7532C47.5118 85.7532 47.5104 85.7532 47.5097 85.7532C45.2166 85.7532 43.0206 85.4403 41.1744 85.0502C43.3797 82.8012 44.0685 79.4168 44.6649 76.4848C45.801 70.9 46.8754 65.6146 55.6647 64.359L63.9114 72.6707ZM92.4613 40.019C84.2657 49.7832 74.3454 60.7482 66.179 69.0851L64.9148 67.8109L59.3365 62.1885C66.7407 54.8181 76.2392 46.0297 85.1012 38.3385C86.1343 37.442 87.1608 36.5567 88.1724 35.6939C98.4569 26.9228 103.847 23.1056 106.596 21.4445C104.954 24.2103 101.172 29.6412 92.4613 40.019Z"/>
</svg>
