<svg viewBox="0 0 112 112" xmlns="http://www.w3.org/2000/svg">
	<path d="M112 23.1896C112 10.4029 99.4392 0 84 0C65.4901 0 51.744 14.8064 57.1947 29.8667H29.8667C20.8363 29.8824 13.1091 36.3533 11.508 45.2405C10.1211 44.6525 9.23627 44.8 5.6 44.8C2.50721 44.8 0 47.3072 0 50.4V89.6C0.0101353 95.0593 3.95117 99.7176 9.33333 100.632V106.4C9.33333 109.493 11.8405 112 14.9333 112H22.4C25.4928 112 28 109.493 28 106.4V100.8H84V106.4C84 109.493 86.5072 112 89.6 112H97.0667C100.159 112 102.667 109.493 102.667 106.4V100.632C108.049 99.7176 111.99 95.0593 112 89.6V50.4C112 47.3072 109.493 44.8 106.4 44.8C102.947 44.8 101.885 44.6488 100.485 45.2424C100.313 44.2614 100.063 43.2958 99.7379 42.3547C107.134 38.1752 112 31.1453 112 23.1896ZM84 3.73333C97.3803 3.73333 108.267 12.4619 108.267 23.1896C108.267 33.9173 97.3803 42.6459 84 42.6459C79.0272 42.6459 77.9091 41.5613 76.7051 42.2091L64.6315 48.6789L67.0133 38.3992C67.1698 37.7189 66.9336 37.0081 66.4011 36.5568C51.7459 24.1285 62.8805 3.73333 84 3.73333ZM54.1333 85.8667H16.8C15.7691 85.8667 14.9333 85.0309 14.9333 84V80.2667C14.9333 77.1739 17.4405 74.6667 20.5333 74.6667H48.5333C51.6261 74.6667 54.1333 77.1739 54.1333 80.2667V85.8667ZM24.2667 106.4C24.2667 107.431 23.4309 108.267 22.4 108.267H14.9333C13.9024 108.267 13.0667 107.431 13.0667 106.4V100.8H24.2667V106.4ZM98.9333 106.4C98.9333 107.431 98.0976 108.267 97.0667 108.267H89.6C88.5691 108.267 87.7333 107.431 87.7333 106.4V100.8H98.9333V106.4ZM102.667 48.5333H106.4C107.431 48.5333 108.267 49.3691 108.267 50.4V89.6C108.267 93.7237 104.924 97.0667 100.8 97.0667H11.2C7.07627 97.0667 3.73333 93.7237 3.73333 89.6V50.4C3.73333 49.3691 4.56907 48.5333 5.6 48.5333H9.33333C10.3643 48.5333 11.2 49.3691 11.2 50.4V84C11.2 87.0928 13.7072 89.6 16.8 89.6H95.2C98.2928 89.6 100.8 87.0928 100.8 84V50.4C100.8 49.3691 101.636 48.5333 102.667 48.5333ZM57.8667 85.8667V80.2667C57.8667 77.1739 60.3739 74.6667 63.4667 74.6667H91.4667C94.5595 74.6667 97.0667 77.1739 97.0667 80.2667V84C97.0667 85.0309 96.2309 85.8667 95.2 85.8667H57.8667ZM97.0667 72.8485C95.4606 71.6132 93.4929 70.9402 91.4667 70.9333H63.4667C60.5289 70.9333 57.7626 72.3165 56 74.6667C54.2374 72.3165 51.4711 70.9333 48.5333 70.9333H20.5333C18.5071 70.9402 16.5394 71.6132 14.9333 72.8485V48.5333C14.9426 40.2897 21.6231 33.6093 29.8667 33.6H58.9867C60.1248 35.4634 61.5163 37.1596 63.1213 38.64L60.0731 51.8467C59.9452 52.4002 60.0765 52.9819 60.4296 53.4269C60.7827 53.872 61.3193 54.132 61.8875 54.1333C62.5464 54.1333 61.3704 54.6616 77.8811 45.8136C84.0861 46.9824 90.4962 46.3429 96.348 43.9712C97.3336 47.0661 97.0667 46.3829 97.0667 72.8485Z"/>
	<path d="M83.9999 29.8667C87.0927 29.8667 89.5999 27.3595 89.5999 24.2667C89.5999 21.174 87.0927 18.6667 83.9999 18.6667C80.9071 18.6667 78.3999 21.174 78.3999 24.2667C78.3999 27.3595 80.9071 29.8667 83.9999 29.8667ZM83.9999 22.4001C85.0308 22.4001 85.8666 23.2358 85.8666 24.2667C85.8666 25.2977 85.0308 26.1334 83.9999 26.1334C82.969 26.1334 82.1332 25.2977 82.1332 24.2667C82.1332 23.2358 82.969 22.4001 83.9999 22.4001Z"/>
	<path d="M69.0668 29.8667C72.1596 29.8667 74.6668 27.3595 74.6668 24.2667C74.6668 21.174 72.1596 18.6667 69.0668 18.6667C65.974 18.6667 63.4668 21.174 63.4668 24.2667C63.4668 27.3595 65.974 29.8667 69.0668 29.8667ZM69.0668 22.4001C70.0977 22.4001 70.9335 23.2358 70.9335 24.2667C70.9335 25.2977 70.0977 26.1334 69.0668 26.1334C68.0359 26.1334 67.2001 25.2977 67.2001 24.2667C67.2001 23.2358 68.0359 22.4001 69.0668 22.4001Z"/>
	<path d="M98.9335 29.8667C102.026 29.8667 104.533 27.3595 104.533 24.2667C104.533 21.174 102.026 18.6667 98.9335 18.6667C95.8407 18.6667 93.3335 21.174 93.3335 24.2667C93.3335 27.3595 95.8407 29.8667 98.9335 29.8667ZM98.9335 22.4001C99.9644 22.4001 100.8 23.2358 100.8 24.2667C100.8 25.2977 99.9644 26.1334 98.9335 26.1334C97.9026 26.1334 97.0668 25.2977 97.0668 24.2667C97.0668 23.2358 97.9026 22.4001 98.9335 22.4001Z"/>
</svg>
