<svg width="46" height="43" viewBox="0 0 46 43" xmlns="http://www.w3.org/2000/svg">
<path fill-rule="evenodd" clip-rule="evenodd" d="M28.8737 27.5183L24.6561 25.4099L39.3696 18.8515L43.588 20.9582L28.8737 27.5183ZM38.6933 33.8325L23.7173 40.5088V26.541L28.5368 28.9478C28.638 28.998 28.7483 29.0231 28.857 29.0231C28.9565 29.0231 29.0551 29.0022 29.1471 28.962L38.6933 24.706V33.8325ZM22.9925 24.5864L8.35258 18.0607L13.8342 15.6171C17.3696 19.1567 21.9208 21.3152 22.1615 21.4272C22.2568 21.4724 22.3605 21.4941 22.4641 21.4941C22.567 21.4941 22.6706 21.4724 22.7668 21.4272C23.0142 21.3119 27.8479 19.0246 31.4227 15.2835L37.6424 18.0565L22.9925 24.5864ZM22.2878 40.5088L7.3126 33.8325V24.7185L16.8296 28.962C16.9223 29.0022 17.021 29.0231 17.1205 29.0231C17.2292 29.0231 17.3395 28.998 17.4398 28.9478L22.2878 26.5268V40.5088ZM2.38943 20.9582L6.60702 18.8515L21.3213 25.4099L17.1038 27.5183L2.38943 20.9582ZM2.38943 15.164L10.7586 11.4329C10.935 11.82 11.1314 12.2037 11.3655 12.5774C11.7885 13.2545 12.2742 13.8983 12.7992 14.5102L6.60702 17.2707L2.38943 15.164ZM12.0176 4.91718C12.8837 3.06211 14.4921 1.7588 16.2184 1.51719C16.6415 1.457 17.0419 1.43109 17.4206 1.43109C20.2989 1.43109 21.8881 2.95009 21.9609 3.02198C22.2401 3.29786 22.6899 3.29786 22.9691 3.02282C23.0544 2.94089 25.0808 1.00473 28.7115 1.51552C30.4379 1.75712 32.0463 3.0596 32.9124 4.91384C33.9306 7.09745 33.7267 9.61296 32.3514 11.8141C29.6194 16.1864 23.8477 19.2846 22.4641 19.9826C21.0797 19.2854 15.3114 16.1947 12.5777 11.82C11.2016 9.61714 10.9977 7.10247 12.0176 4.91718ZM34.3328 11.0275L43.6098 15.1631L39.3913 17.2707L32.41 14.1583C32.8255 13.6491 33.2184 13.1241 33.5636 12.5724C33.8771 12.0708 34.1221 11.5525 34.3328 11.0275ZM45.5819 20.3546L40.9981 18.0657L45.6036 15.7667C45.8519 15.643 46.0049 15.388 45.9999 15.1113C45.994 14.8346 45.8277 14.5863 45.5744 14.4743L34.7683 9.65643C35.1746 7.85319 34.999 6.00314 34.2082 4.30941C33.1398 2.02046 31.1108 0.406994 28.9097 0.0993486C25.6175 -0.36212 23.4046 0.895215 22.4658 1.58909C21.5253 0.895215 19.3016 -0.359612 16.0203 0.101021C13.8191 0.409502 11.7902 2.02297 10.7218 4.31276C9.86907 6.1394 9.73782 8.14746 10.2745 10.0828L0.424846 14.4743C0.172376 14.5863 0.00517722 14.8346 0.000161261 15.1113C-0.0056907 15.388 0.148132 15.643 0.395586 15.7667L4.99021 18.0607L0.395586 20.3546C0.148132 20.4775 -0.0056907 20.7333 0.000161261 21.0101C0.00517722 21.2859 0.172376 21.5351 0.424846 21.6479L5.88305 24.0815V34.2965C5.88305 34.5782 6.04858 34.8341 6.3069 34.9503L22.7124 42.2635C22.8044 42.3045 22.903 42.3254 23.0025 42.3254C23.102 42.3254 23.2007 42.3045 23.2935 42.2635L39.6982 34.9503C39.9565 34.8341 40.1228 34.5782 40.1228 34.2965V24.069L45.5526 21.6479C45.8051 21.5351 45.9715 21.2859 45.9773 21.0101C45.9832 20.7333 45.8293 20.4775 45.5819 20.3546Z"/>
<path fill-rule="evenodd" clip-rule="evenodd" d="M18.3815 14.6808C18.4768 14.7242 18.5779 14.746 18.6766 14.746C18.9474 14.746 19.2074 14.5905 19.327 14.328C19.4925 13.9702 19.3345 13.5455 18.9759 13.3808C18.7685 13.2855 13.9273 10.9957 14.974 6.37182C15.0626 5.98726 14.821 5.60354 14.4347 5.5166C14.0485 5.42798 13.6656 5.67209 13.5804 6.05665C12.2737 11.8217 18.3204 14.6532 18.3815 14.6808Z"/>
</svg>
