<svg width="24" height="24" viewBox="0 0 24 24" fill="none" xmlns="http://www.w3.org/2000/svg">
<path d="M23.0631 20.1499H18.6689L22.7843 16.0345C23.1765 15.6423 23.1765 15.0063 22.7843 14.6141L10.4404 2.27027C10.0482 1.87801 9.41224 1.87801 9.01997 2.27027L1.21571 10.0745C0.823444 10.4667 0.823444 11.1027 1.21571 11.4949L9.87053 20.1499H0.936939C0.419499 20.1499 0 20.5694 0 21.0868C0 21.6042 0.419499 22.0237 0.936939 22.0237H23.0631C23.5804 22.0237 24 21.6042 24 21.0868C24 20.5694 23.5806 20.1499 23.0631 20.1499ZM19.0017 13.6723L12.7193 12.3352L11.3822 6.05276L19.0017 13.6723ZM3.34637 10.7847L9.06744 5.0636L10.8454 13.4168C10.8877 13.6155 10.9864 13.7924 11.1243 13.9302C11.2621 14.0681 11.439 14.1668 11.6377 14.2091L19.9908 15.9871L15.8281 20.1499H12.7114L3.34637 10.7847Z" fill="#008AC4"/>
</svg>
