<svg viewBox="0 0 118 117" xmlns="http://www.w3.org/2000/svg">
<path d="M95.2917 70.6068L95.4958 69.1779C95.8622 66.6883 95.4129 64.1471 94.215 61.9341C93.0172 59.7212 91.1352 57.9554 88.8505 56.9009L76.5827 51.1758C75.6782 50.7551 74.864 50.1629 74.185 49.4321L68.9579 43.8121C67.7447 42.5084 66.42 41.3131 64.9989 40.2399L53.9851 31.9234L52.9307 20.327C52.7344 18.1834 51.7943 16.1761 50.2734 14.653L50.0406 14.4203C48.7678 13.1456 47.1485 12.2729 45.3839 11.9107C43.6193 11.5485 41.7871 11.7128 40.1151 12.383L37.2587 13.5256C36.8408 13.6933 36.4386 13.8978 36.057 14.1369L23.3627 1.4424C22.9994 1.0791 22.5066 0.875 21.9928 0.875C21.479 0.875 20.9862 1.0791 20.6228 1.4424L1.44159 20.6236C1.08931 20.9759 0.886237 21.4503 0.874557 21.9483C0.862876 22.4464 1.04348 22.9298 1.37886 23.2981L11.8867 34.8391L11.7171 35.0086C10.447 36.2813 9.7337 38.0059 9.7337 39.8039C9.7337 41.602 10.447 43.3265 11.7171 44.5992C12.3464 45.2293 13.094 45.7288 13.917 46.0691C14.7399 46.4093 15.6219 46.5837 16.5124 46.582C16.5367 46.582 16.5609 46.5806 16.5863 46.5803C16.5748 47.4829 16.7442 48.3786 17.0845 49.2147C17.4247 50.0508 17.9289 50.8102 18.5674 51.4483C19.1967 52.0784 19.9443 52.578 20.7672 52.9183C21.5901 53.2586 22.4722 53.433 23.3627 53.4313C23.3869 53.4313 23.4111 53.4299 23.4354 53.4296C23.4243 54.3262 23.5915 55.2159 23.9271 56.0473C24.2628 56.8787 24.7603 57.6351 25.3908 58.2726C26.0213 58.9101 26.7721 59.4159 27.5997 59.7608C28.4273 60.1057 29.3152 60.2827 30.2118 60.2816C30.236 60.2816 30.2602 60.2799 30.2856 60.2797C30.2732 61.4762 30.5775 62.6547 31.1678 63.6955C31.7581 64.7364 32.6132 65.6025 33.6465 66.206C34.6797 66.8095 35.8543 67.1288 37.0508 67.1316C38.2474 67.1343 39.4234 66.8204 40.4594 66.2217L43.2114 69.2442L43.4999 92.7015C43.4992 93.9468 43.8416 95.1682 44.4896 96.2317C45.1375 97.2951 46.0658 98.1595 47.1727 98.73C48.2797 99.3005 49.5223 99.5551 50.7644 99.4657C52.0065 99.3763 53.1999 98.9465 54.2138 98.2234C54.7026 99.0097 55.3474 99.6874 56.1083 100.215C56.8693 100.742 57.7303 101.108 58.6381 101.289C59.5459 101.471 60.4813 101.464 61.3866 101.27C62.2918 101.076 63.1477 100.699 63.9013 100.161C64.7807 101.574 66.1497 102.615 67.7471 103.084C69.3444 103.552 71.0585 103.417 72.5624 102.703V104.326C72.5634 105.86 73.0849 107.349 74.0416 108.549C74.9983 109.749 76.3337 110.588 77.8295 110.931C79.3253 111.274 80.8931 111.099 82.2767 110.435C83.6603 109.771 84.7779 108.658 85.4468 107.277L94.4351 116.346C94.6152 116.528 94.8298 116.672 95.0662 116.771C95.3026 116.87 95.5562 116.92 95.8124 116.92H95.8799C96.1471 116.911 96.4094 116.846 96.6504 116.731C96.8914 116.615 97.1058 116.451 97.2803 116.248L116.655 93.7609C116.978 93.3859 117.146 92.9015 117.123 92.407C117.1 91.9126 116.889 91.4456 116.533 91.1019L95.2917 70.6068ZM41.5544 15.9809C42.5223 15.5929 43.5829 15.4977 44.6044 15.7073C45.6259 15.9169 46.5634 16.422 47.3003 17.1599L47.5325 17.3924C48.4132 18.2743 48.9575 19.4365 49.0712 20.6777L49.7185 27.798L46.6856 24.7653L46.613 24.6926C46.3863 24.4659 46.1068 24.299 45.7996 24.207C45.4924 24.115 45.1672 24.1008 44.8532 24.1656H40.054C39.2054 24.1656 38.3833 23.8699 37.729 23.3296C37.0747 22.7892 36.629 22.0378 36.4685 21.2045C36.308 20.3712 36.4428 19.5081 36.8496 18.7633C37.2564 18.0186 37.9099 17.4388 38.6978 17.1236L41.5544 15.9809ZM14.4575 41.8579C13.9132 41.3124 13.6076 40.5734 13.6076 39.8028C13.6076 39.0323 13.9132 38.2932 14.4575 37.7477L21.3075 30.8975C21.8525 30.3524 22.5918 30.0462 23.3626 30.0462C24.1334 30.0462 24.8726 30.3524 25.4177 30.8975C25.9627 31.4425 26.2689 32.1818 26.2689 32.9526C26.2689 33.7234 25.9627 34.4626 25.4177 35.0076L18.5676 41.8582C18.0221 42.4023 17.283 42.7079 16.5125 42.7078C15.742 42.7078 15.0029 42.4021 14.4575 41.8579ZM21.3075 48.7082C20.7633 48.1627 20.4576 47.4236 20.4576 46.6531C20.4576 45.8826 20.7633 45.1435 21.3075 44.598L28.1578 37.748C28.7028 37.2029 29.4421 36.8967 30.2129 36.8967C30.9837 36.8967 31.7229 37.2029 32.2679 37.748C32.813 38.293 33.1192 39.0323 33.1192 39.8031C33.1192 40.5739 32.813 41.3131 32.2679 41.8582L25.4177 48.7082C24.8722 49.2524 24.1331 49.558 23.3626 49.558C22.5921 49.558 21.853 49.2524 21.3075 48.7082ZM30.2127 56.4097C29.6379 56.4098 29.076 56.2393 28.598 55.92C28.1201 55.6006 27.7475 55.1467 27.5276 54.6156C27.3076 54.0845 27.2501 53.5001 27.3623 52.9364C27.4744 52.3726 27.7513 51.8547 28.1578 51.4483L35.0078 44.5983C35.5529 44.0532 36.2921 43.747 37.0629 43.747C37.8337 43.747 38.5729 44.0532 39.118 44.5983C39.663 45.1433 39.9692 45.8825 39.9692 46.6533C39.9692 47.4242 39.663 48.1634 39.118 48.7084L32.2679 55.5585C31.9986 55.829 31.6782 56.0434 31.3255 56.1893C30.9727 56.3352 30.5945 56.4097 30.2127 56.4085V56.4097ZM37.0628 63.2598C36.488 63.2598 35.9261 63.0893 35.4482 62.7699C34.9703 62.4506 34.5978 61.9967 34.3779 61.4657C34.1579 60.9347 34.1004 60.3503 34.2125 59.7866C34.3246 59.2229 34.6014 58.705 35.0078 58.2986L41.8578 51.4483C42.4029 50.9033 43.1421 50.5971 43.9129 50.5971C44.6837 50.5971 45.423 50.9033 45.968 51.4483C46.513 51.9933 46.8192 52.7326 46.8192 53.5034C46.8192 54.2742 46.513 55.0134 45.968 55.5585L39.118 62.4085C38.8487 62.6792 38.5284 62.8938 38.1756 63.0399C37.8228 63.1859 37.4446 63.2606 37.0628 63.2595V63.2598ZM82.2499 104.327C82.2499 105.097 81.9437 105.837 81.3987 106.382C80.8536 106.927 80.1144 107.233 79.3436 107.233C78.5728 107.233 77.8336 106.927 77.2886 106.382C76.7436 105.837 76.4374 105.097 76.4374 104.327V85.9203C76.4374 85.4064 76.2333 84.9136 75.8699 84.5503C75.5065 84.1869 75.0137 83.9828 74.4999 83.9828C73.986 83.9828 73.4932 84.1869 73.1299 84.5503C72.7665 84.9136 72.5624 85.4064 72.5624 85.9203V96.5765C72.5624 97.3473 72.2562 98.0865 71.7112 98.6316C71.1661 99.1766 70.4269 99.4828 69.6561 99.4828C68.8853 99.4828 68.1461 99.1766 67.6011 98.6316C67.0561 98.0865 66.7499 97.3473 66.7499 96.5765V83.9828C66.7499 83.4689 66.5458 82.9761 66.1824 82.6128C65.819 82.2494 65.3262 82.0453 64.8124 82.0453C64.2985 82.0453 63.8057 82.2494 63.4424 82.6128C63.079 82.9761 62.8749 83.4689 62.8749 83.9828V94.639C62.8749 95.4098 62.5687 96.149 62.0237 96.6941C61.4786 97.2391 60.7394 97.5453 59.9686 97.5453C59.1978 97.5453 58.4586 97.2391 57.9136 96.6941C57.3686 96.149 57.0624 95.4098 57.0624 94.639V82.0453C57.0624 81.5314 56.8582 81.0386 56.4949 80.6753C56.1315 80.3119 55.6387 80.1078 55.1249 80.1078C54.611 80.1078 54.1182 80.3119 53.7549 80.6753C53.3915 81.0386 53.1874 81.5314 53.1874 82.0453V92.7015C53.1874 93.4723 52.8812 94.2115 52.3362 94.7566C51.7911 95.3016 51.0519 95.6078 50.2811 95.6078C49.5103 95.6078 48.7711 95.3016 48.2261 94.7566C47.6811 94.2115 47.3749 93.4723 47.3749 92.7015L47.0767 68.4557C47.0702 67.9826 46.8907 67.5283 46.5723 67.1784L43.358 63.6482L48.7069 58.2976C49.6601 57.3456 50.308 56.131 50.5677 54.8091C50.8274 53.4871 50.6873 52.1177 50.1651 50.8758C49.6429 49.6339 48.7624 48.5758 47.636 47.8367C46.5096 47.0975 45.1885 46.7109 43.8414 46.7261C43.8414 46.7019 43.8431 46.6777 43.8431 46.6535C43.8435 45.7569 43.6659 44.8692 43.3206 44.0418C42.9754 43.2144 42.4693 42.4638 41.8318 41.8334C41.1942 41.2031 40.4379 40.7056 39.6066 40.3697C38.7753 40.0339 37.8856 39.8665 36.9891 39.8771C37.0004 38.9744 36.831 38.0786 36.4907 37.2424C36.1505 36.4062 35.6463 35.6466 35.008 35.0082C34.3696 34.3699 33.61 33.8657 32.7738 33.5255C31.9376 33.1852 31.0418 33.0158 30.1391 33.027C30.1548 31.6797 29.7685 30.3582 29.0296 29.2315C28.2906 28.1047 27.2326 27.2238 25.9906 26.7013C24.7485 26.1788 23.379 26.0385 22.0568 26.2981C20.7346 26.5578 19.5198 27.2057 18.5676 28.1591L14.6311 32.0951L5.48975 22.0555L21.9936 5.55256L33.4145 16.9734C33.1916 17.3913 33.0084 17.8292 32.8671 18.2812C32.5171 19.4077 32.4367 20.6007 32.6325 21.7639C32.8283 22.9272 33.2948 24.0281 33.9943 24.978C34.6938 25.9278 35.6067 26.6999 36.6595 27.232C37.7123 27.7642 38.8754 28.0414 40.055 28.0414H44.4815L50.764 34.3237C50.8215 34.3804 50.8825 34.4335 50.9467 34.4826C50.9537 34.4881 50.9597 34.4947 50.9668 34.5L62.6654 43.3304C63.906 44.2674 65.0625 45.3109 66.1216 46.4491L71.3488 52.0693C72.3669 53.166 73.5882 54.0547 74.9448 54.6863L87.2116 60.4109C88.7411 61.1166 90.001 62.2984 90.8028 63.7797C91.6046 65.2611 91.9053 66.9622 91.6598 68.6286L91.5533 69.375H84.1874C83.6735 69.375 83.1807 69.5791 82.8174 69.9425C82.454 70.3058 82.2499 70.7987 82.2499 71.3125V104.327ZM95.7128 112.13L86.1249 102.456V73.251H92.4513L112.523 92.6177L95.7128 112.13Z"/>
<path d="M73.1295 36.1132C72.9496 36.2931 72.8069 36.5067 72.7095 36.7418C72.6121 36.9768 72.562 37.2288 72.562 37.4832C72.562 37.7377 72.6121 37.9896 72.7095 38.2247C72.8069 38.4598 72.9496 38.6734 73.1295 38.8533L78.942 44.6658C79.1219 44.8457 79.3355 44.9884 79.5706 45.0858C79.8057 45.1832 80.0576 45.2333 80.3121 45.2333C80.5665 45.2333 80.8185 45.1832 81.0536 45.0858C81.2886 44.9884 81.5022 44.8457 81.6821 44.6658C81.8621 44.4859 82.0048 44.2723 82.1021 44.0372C82.1995 43.8021 82.2496 43.5502 82.2496 43.2957C82.2496 43.0413 82.1995 42.7893 82.1021 42.5543C82.0048 42.3192 81.8621 42.1056 81.6821 41.9257L75.8696 36.1132C75.6897 35.9332 75.4761 35.7905 75.2411 35.6931C75.006 35.5958 74.754 35.5457 74.4996 35.5457C74.2451 35.5457 73.9932 35.5958 73.7581 35.6931C73.523 35.7905 73.3094 35.9332 73.1295 36.1132Z"/>
<path d="M65.3795 28.3632C65.1996 28.5431 65.0569 28.7567 64.9595 28.9918C64.8621 29.2268 64.812 29.4788 64.812 29.7332C64.812 29.9877 64.8621 30.2396 64.9595 30.4747C65.0569 30.7098 65.1996 30.9234 65.3795 31.1033L67.317 33.0408C67.4969 33.2207 67.7105 33.3634 67.9456 33.4608C68.1807 33.5582 68.4326 33.6083 68.6871 33.6083C68.9415 33.6083 69.1935 33.5582 69.4286 33.4608C69.6636 33.3634 69.8772 33.2207 70.0571 33.0408C70.2371 32.8609 70.3798 32.6473 70.4771 32.4122C70.5745 32.1771 70.6246 31.9252 70.6246 31.6707C70.6246 31.4163 70.5745 31.1643 70.4771 30.9293C70.3798 30.6942 70.2371 30.4806 70.0571 30.3007L68.1196 28.3632C67.9397 28.1832 67.7261 28.0405 67.4911 27.9431C67.256 27.8458 67.004 27.7957 66.7496 27.7957C66.4951 27.7957 66.2432 27.8458 66.0081 27.9431C65.773 28.0405 65.5594 28.1832 65.3795 28.3632Z"/>
</svg>
