<svg viewBox="0 0 98 86" xmlns="http://www.w3.org/2000/svg">
	<path d="M91.3326 14.3196H87.579C86.9148 12.3533 85.0538 10.933 82.8661 10.933H76.0929C73.9051 10.933 72.0442 12.3533 71.38 14.3196H65.8272V9.13389C65.8272 4.52386 62.0765 0.773193 57.4665 0.773193H40.5335C35.9235 0.773193 32.1728 4.52386 32.1728 9.13389V14.3196H26.62C25.9558 12.3533 24.0949 10.933 21.9071 10.933H15.1339C12.9462 10.933 11.0852 12.3533 10.421 14.3196H6.66739C2.99101 14.3196 0 17.3106 0 20.987V78.5594C0 82.2358 2.99101 85.2268 6.66739 85.2268H91.3326C95.009 85.2268 98 82.2358 98 78.5594V20.987C98 17.3106 95.009 14.3196 91.3326 14.3196ZM76.0929 14.108H82.8661C83.8582 14.108 84.6652 14.915 84.6652 15.9071C84.6652 16.8992 83.8582 17.7062 82.8661 17.7062H76.0929C75.1038 17.7062 74.2986 16.9034 74.2942 15.9154C74.2942 15.9126 74.2946 15.9099 74.2946 15.9071C74.2946 15.9044 74.2942 15.9016 74.2942 15.8988C74.2986 14.9108 75.1038 14.108 76.0929 14.108ZM21.9071 20.8812C24.0949 20.8812 25.9558 19.4609 26.62 17.4946H71.3802C72.0444 19.4609 73.9053 20.8812 76.0931 20.8812H77.8922V82.0518H20.108V20.8812H21.9071ZM35.3477 9.13389C35.3477 6.27432 37.6739 3.94814 40.5335 3.94814H57.4665C60.3261 3.94814 62.6523 6.27432 62.6523 9.13389V14.3196H35.3477V9.13389ZM15.1339 14.108H21.9071C22.8992 14.108 23.7063 14.915 23.7063 15.9071C23.7063 16.8992 22.8992 17.7062 21.9071 17.7062H15.1339C14.144 17.7062 13.3384 16.9023 13.335 15.9132C13.335 15.9111 13.3352 15.9092 13.3352 15.9071C13.3352 15.905 13.335 15.9031 13.335 15.901C13.3384 14.9119 14.144 14.108 15.1339 14.108ZM3.17495 78.5594V20.987C3.17495 19.0611 4.74146 17.4946 6.66739 17.4946H10.421C11.0852 19.4609 12.9462 20.8812 15.1339 20.8812H16.933V82.0518H6.66739C4.74146 82.0518 3.17495 80.4853 3.17495 78.5594ZM94.8251 78.5594C94.8251 80.4853 93.2585 82.0518 91.3326 82.0518H81.067V20.8812H82.8661C85.0538 20.8812 86.9148 19.4609 87.579 17.4946H91.3326C93.2585 17.4946 94.8251 19.0611 94.8251 20.987V78.5594Z"/>
	<path d="M33.7602 58.1338H40.6393V65.0129C40.6393 67.7556 42.8706 69.987 45.6133 69.987H52.3866C55.1293 69.987 57.3607 67.7556 57.3607 65.0129V58.1338H64.2397C66.9824 58.1338 69.2138 55.9025 69.2138 53.1598V46.3865C69.2138 43.6438 66.9824 41.4125 64.2397 41.4125H57.3607V34.5334C57.3607 31.7907 55.1293 29.5593 52.3866 29.5593H45.6133C42.8706 29.5593 40.6393 31.7907 40.6393 34.5334V41.4125H33.7602C31.0175 41.4125 28.7861 43.6438 28.7861 46.3865V53.1598C28.7861 55.9025 31.0175 58.1338 33.7602 58.1338ZM31.9611 46.3865C31.9611 45.3945 32.7682 44.5874 33.7602 44.5874H42.2267C43.1037 44.5874 43.8142 43.8769 43.8142 42.9999V34.5334C43.8142 33.5413 44.6213 32.7343 45.6133 32.7343H52.3866C53.3786 32.7343 54.1857 33.5413 54.1857 34.5334V42.9999C54.1857 43.8769 54.8963 44.5874 55.7732 44.5874H64.2397C65.2318 44.5874 66.0388 45.3945 66.0388 46.3865V53.1598C66.0388 54.1518 65.2318 54.9589 64.2397 54.9589H55.7732C54.8963 54.9589 54.1857 55.6694 54.1857 56.5464V65.0129C54.1857 66.005 53.3786 66.812 52.3866 66.812H45.6133C44.6213 66.812 43.8142 66.005 43.8142 65.0129V56.5464C43.8142 55.6694 43.1037 54.9589 42.2267 54.9589H33.7602C32.7682 54.9589 31.9611 54.1518 31.9611 53.1598V46.3865Z"/>
</svg>
