<svg width="24" height="24" viewBox="0 0 24 24" fill="none" xmlns="http://www.w3.org/2000/svg">
<rect width="24" height="24" rx="12" fill="#008AC4"/>
<path d="M18.9933 16.0487C19.023 16.2761 18.9537 16.4739 18.7858 16.6419L16.8147 18.5995C16.7257 18.6983 16.6097 18.7825 16.4664 18.8516C16.3231 18.9208 16.1824 18.9653 16.0441 18.9851C16.0342 18.9851 16.0045 18.9876 15.9551 18.9926C15.9057 18.9975 15.8415 19 15.7625 19C15.5747 19 15.2708 18.9679 14.8509 18.9036C14.431 18.8393 13.9172 18.6811 13.3096 18.429C12.7019 18.1769 12.0127 17.7987 11.2421 17.2945C10.4714 16.7903 9.65129 16.0982 8.7818 15.2182C8.09017 14.536 7.51709 13.8835 7.06259 13.2606C6.60808 12.6377 6.2425 12.0618 5.96585 11.5328C5.68917 11.0039 5.48168 10.5244 5.34335 10.0943C5.20502 9.66419 5.11116 9.29342 5.06175 8.98198C5.01235 8.67054 4.99259 8.42584 5.00247 8.24788C5.01235 8.06991 5.01729 7.97104 5.01729 7.95127C5.03705 7.81285 5.08151 7.67196 5.15068 7.5286C5.21984 7.38524 5.30383 7.26906 5.40263 7.18008L7.3738 5.20763C7.51213 5.06921 7.67022 5 7.84807 5C7.97652 5 8.09014 5.03708 8.18895 5.11123C8.28775 5.18538 8.37174 5.27684 8.4409 5.38559L10.0267 8.39618C10.1157 8.55437 10.1404 8.72739 10.1008 8.91525C10.0613 9.1031 9.97733 9.26129 9.84888 9.38982L9.12266 10.1165C9.1029 10.1363 9.08561 10.1684 9.07079 10.2129C9.05596 10.2574 9.04855 10.2945 9.04855 10.3241C9.08808 10.5318 9.177 10.7691 9.31533 11.036C9.4339 11.2733 9.61669 11.5625 9.8637 11.9036C10.1107 12.2447 10.4615 12.6377 10.916 13.0826C11.3606 13.5374 11.7558 13.8909 12.1016 14.143C12.4474 14.395 12.7365 14.5805 12.9687 14.6991C13.2009 14.8178 13.3787 14.8895 13.5022 14.9141L13.6874 14.9512C13.7072 14.9512 13.7394 14.9438 13.7838 14.929C13.8282 14.9141 13.8604 14.8968 13.8801 14.877L14.7249 14.0169C14.9029 13.8587 15.1102 13.7796 15.3474 13.7796C15.5154 13.7796 15.6487 13.8092 15.7475 13.8686H15.7623L18.6227 15.5593C18.8303 15.6879 18.9538 15.851 18.9933 16.0487Z" fill="white"/>
</svg>
