<svg width="24" height="24" viewBox="0 0 24 24" fill="none" xmlns="http://www.w3.org/2000/svg">
<rect width="24" height="24" rx="12" fill="#008AC4"/>
<path d="M7.76472 16.3175C8.30622 16.8395 8.95409 17.2651 9.70833 17.5552C10.4626 17.8453 11.3038 18 12.2128 18C13.2281 18 14.1661 17.8453 15.0073 17.5263C15.7712 17.2459 15.1137 15.8243 14.5528 16.0565C13.9341 16.3176 13.1797 16.453 12.319 16.453C11.6422 16.453 11.0234 16.3466 10.4818 16.1436C9.9403 15.9405 9.46649 15.6504 9.0797 15.2734C8.69291 14.8962 8.38348 14.4321 8.17075 13.9003C7.94835 13.3587 7.84198 12.7399 7.84198 12.063C7.84198 11.4249 7.94835 10.8157 8.16108 10.2742C8.37381 9.73267 8.6639 9.24919 9.05069 8.8624C9.42781 8.46595 9.89195 8.14685 10.4238 7.92445C10.9556 7.70205 11.5551 7.58601 12.2127 7.58601C12.822 7.58601 13.3827 7.67304 13.8856 7.82775C14.3788 7.98247 14.8043 8.22421 15.1619 8.5433C15.5197 8.8624 15.8001 9.24919 16.0032 9.71333C16.2064 10.1775 16.3031 10.719 16.3031 11.3378C16.3031 11.6956 16.2644 12.034 16.1869 12.3531C16.1097 12.6529 16.013 12.9235 15.8776 13.1364C15.7518 13.3395 15.6067 13.5038 15.4328 13.6199C15.2296 13.7552 14.9299 13.8326 14.6978 13.7552C14.4077 13.6585 14.4658 13.2524 14.4851 13.0107C14.5142 12.6819 14.6011 12.3725 14.6688 12.0534C14.7752 11.5312 14.8912 11.0187 14.9976 10.5062C15.0556 10.2258 15.1232 9.93573 15.1812 9.65531C15.2585 9.29753 14.9878 8.94943 14.6108 8.94943H14.1853C13.9242 8.94943 13.6921 9.12348 13.6244 9.37489C13.5954 9.49093 13.5663 9.58762 13.5663 9.58762C13.3537 8.93009 12.5704 8.74637 11.9515 8.75604C11.1392 8.76571 10.3947 9.1815 9.85318 9.77135C9.80483 9.82936 9.74681 9.88738 9.69846 9.9454C9.41804 10.2838 9.20531 10.6803 9.06026 11.0961C8.90555 11.5409 8.82819 11.9954 8.82819 12.4595C8.82819 12.8561 8.88621 13.2331 8.99258 13.5715C9.10861 13.9197 9.273 14.2194 9.48573 14.4708C9.69846 14.7223 9.96922 14.9253 10.2883 15.0703C10.6074 15.2153 10.9652 15.2927 11.352 15.2927C11.6421 15.2927 11.9128 15.2444 12.1546 15.1574C12.3866 15.0704 12.5994 14.964 12.7831 14.8383C12.9281 14.7416 13.0635 14.6256 13.1699 14.5191C13.2375 14.6449 13.3149 14.7512 13.4213 14.8576C13.6921 15.1477 14.1078 15.2927 14.6591 15.2927C15.0943 15.2927 15.5196 15.2058 15.9162 15.0317C16.3126 14.8576 16.6703 14.5868 16.9701 14.2388C17.2602 13.8906 17.5019 13.4652 17.676 12.9624C17.8501 12.4596 17.937 11.8794 17.937 11.2412C17.937 10.371 17.7727 9.59739 17.4536 8.94952C17.1345 8.30166 16.6993 7.75049 16.1579 7.31536C15.6261 6.88023 15.0072 6.56113 14.3207 6.33873C13.6439 6.10637 12.938 6 12.2128 6C11.3715 6 10.5689 6.15471 9.82436 6.45447C9.0798 6.7639 8.42226 7.18936 7.87108 7.72119C7.31024 8.25302 6.86544 8.90089 6.54634 9.62611C6.22724 10.3513 6.06285 11.1636 6.06285 12.0145C6.06285 12.875 6.2079 13.6873 6.50766 14.4126C6.79775 15.1475 7.22321 15.7857 7.76472 16.3175ZM12.9959 12.2562C12.9283 12.5173 12.8316 12.7687 12.6962 13.0008C12.5608 13.2232 12.3964 13.4068 12.1837 13.5519C11.9903 13.6873 11.7582 13.755 11.4681 13.755C11.2844 13.755 11.1393 13.7164 11.033 13.6486C10.9169 13.5712 10.8202 13.4745 10.7526 13.3488C10.6752 13.2134 10.6269 13.0684 10.5978 12.9234C10.5688 12.7686 10.5495 12.6236 10.5495 12.498C10.5495 12.2272 10.5882 11.9565 10.6655 11.6761C10.7429 11.4053 10.8493 11.1539 10.9943 10.9412C11.1393 10.7284 11.3037 10.5544 11.5068 10.419C11.6905 10.2933 11.8936 10.2353 12.1353 10.2353C12.3287 10.2353 12.4835 10.2643 12.5995 10.332C12.7155 10.3997 12.8122 10.4867 12.8799 10.5931C12.9572 10.7091 13.0056 10.8445 13.0442 10.9895C13.0829 11.1539 13.1023 11.328 13.1023 11.4923C13.0926 11.7341 13.0637 11.9855 12.9959 12.2562Z" fill="white"/>
</svg>
