<svg width="33" height="31" viewBox="0 0 33 31" fill="none" xmlns="http://www.w3.org/2000/svg">
<path d="M20.2119 2.09375C20.2119 2.09375 18.7436 2.60938 16.4375 2.60938C14.1314 2.60938 12.6631 2.09375 12.6631 2.09375C12.4311 2.09376 12.2008 2.13298 11.9819 2.20977L2 5.70312L3.07186 11.375L6.22232 11.7308C6.60814 11.7744 6.96342 11.9616 7.21763 12.2551C7.47184 12.5486 7.60638 12.9269 7.59453 13.315L7.15625 28.9062H25.7188L25.2805 13.315C25.2686 12.9269 25.4032 12.5486 25.6574 12.2551C25.9116 11.9616 26.2669 11.7744 26.6527 11.7308L29.8031 11.375L30.875 5.70312L20.8931 2.20977C20.6742 2.13298 20.4439 2.09376 20.2119 2.09375Z" stroke="#FA873D" stroke-width="2.5" stroke-linecap="round" stroke-linejoin="round"/>
<path d="M21.4198 4C21.1276 5.09839 20.4806 6.06943 19.5795 6.76213C18.6783 7.45484 17.5736 7.83039 16.437 7.83039C15.3004 7.83039 14.1956 7.45484 13.2945 6.76213C12.3934 6.06943 11.7464 5.09839 11.4541 4" stroke="#FA873D" stroke-width="2.5" stroke-linecap="round" stroke-linejoin="round"/>
</svg>
