<svg width="33" height="33" viewBox="0 0 33 33" fill="none" xmlns="http://www.w3.org/2000/svg">
<path d="M26.125 9.625H22V8.25C22 6.79131 21.4205 5.39236 20.3891 4.36091C19.3576 3.32946 17.9587 2.75 16.5 2.75C15.0413 2.75 13.6424 3.32946 12.6109 4.36091C11.5795 5.39236 11 6.79131 11 8.25V9.625H6.875C6.51033 9.625 6.16059 9.76987 5.90273 10.0277C5.64487 10.2856 5.5 10.6353 5.5 11V26.125C5.5 27.219 5.9346 28.2682 6.70818 29.0418C7.48177 29.8154 8.53098 30.25 9.625 30.25H23.375C24.469 30.25 25.5182 29.8154 26.2918 29.0418C27.0654 28.2682 27.5 27.219 27.5 26.125V11C27.5 10.6353 27.3551 10.2856 27.0973 10.0277C26.8394 9.76987 26.4897 9.625 26.125 9.625ZM13.75 8.25C13.75 7.52065 14.0397 6.82118 14.5555 6.30546C15.0712 5.78973 15.7707 5.5 16.5 5.5C17.2293 5.5 17.9288 5.78973 18.4445 6.30546C18.9603 6.82118 19.25 7.52065 19.25 8.25V9.625H13.75V8.25ZM24.75 26.125C24.75 26.4897 24.6051 26.8394 24.3473 27.0973C24.0894 27.3551 23.7397 27.5 23.375 27.5H9.625C9.26033 27.5 8.91059 27.3551 8.65273 27.0973C8.39487 26.8394 8.25 26.4897 8.25 26.125V12.375H11V13.75C11 14.1147 11.1449 14.4644 11.4027 14.7223C11.6606 14.9801 12.0103 15.125 12.375 15.125C12.7397 15.125 13.0894 14.9801 13.3473 14.7223C13.6051 14.4644 13.75 14.1147 13.75 13.75V12.375H19.25V13.75C19.25 14.1147 19.3949 14.4644 19.6527 14.7223C19.9106 14.9801 20.2603 15.125 20.625 15.125C20.9897 15.125 21.3394 14.9801 21.5973 14.7223C21.8551 14.4644 22 14.1147 22 13.75V12.375H24.75V26.125Z" fill="#FA873D"/>
</svg>
