<svg width="34" height="33" viewBox="0 0 34 33" fill="none" xmlns="http://www.w3.org/2000/svg">
<path d="M15.9352 0L0.000976562 7.64596V11.6231H33.0018V7.62403L15.9352 0ZM30.8017 9.43065H2.20103V9.02285L15.9675 2.41759L30.8017 9.04477V9.43065Z" fill="#FA873D"/>
<path d="M2.2002 26.9707H30.8009V29.1632H2.2002V26.9707Z" fill="#FA873D"/>
<path d="M0 30.8076H33.0008V33.0001H0V30.8076Z" fill="#FA873D"/>
<path d="M2.75 13.8157H4.95005V24.7781H2.75V13.8157Z" fill="#FA873D"/>
<path d="M28.0508 13.8157H30.2508V24.7781H28.0508V13.8157Z" fill="#FA873D"/>
<path d="M21.4502 13.8157H23.6502V24.7781H21.4502V13.8157Z" fill="#FA873D"/>
<path d="M9.35059 13.8157H11.5506V24.7781H9.35059V13.8157Z" fill="#FA873D"/>
<path d="M15.4004 13.8157H17.6004V24.7781H15.4004V13.8157Z" fill="#FA873D"/>
</svg>
