<svg width="23" height="29" viewBox="0 0 23 29" fill="none" xmlns="http://www.w3.org/2000/svg">
<path d="M18.375 6.25H15.625V3.5H18.375C18.7397 3.5 19.0894 3.35513 19.3473 3.09727C19.6051 2.83941 19.75 2.48967 19.75 2.125C19.75 1.76033 19.6051 1.41059 19.3473 1.15273C19.0894 0.894866 18.7397 0.75 18.375 0.75H7.375C5.55164 0.75 3.80295 1.47433 2.51364 2.76364C1.22433 4.05295 0.5 5.80164 0.5 7.625V26.875C0.5 27.2397 0.644866 27.5894 0.902728 27.8473C1.16059 28.1051 1.51033 28.25 1.875 28.25C2.23967 28.25 2.58941 28.1051 2.84727 27.8473C3.10513 27.5894 3.25 27.2397 3.25 26.875V7.625C3.25 6.53098 3.6846 5.48177 4.45818 4.70818C5.23177 3.9346 6.28098 3.5 7.375 3.5H12.875V6.25H10.125C9.03098 6.25 7.98177 6.6846 7.20818 7.45818C6.4346 8.23177 6 9.28098 6 10.375V17.1538C5.99975 17.8342 6.16785 18.5042 6.48933 19.104C6.81081 19.7038 7.27567 20.2147 7.8425 20.5913L10.125 22.1175V22.75C10.125 23.4793 10.4147 24.1788 10.9305 24.6945C11.4462 25.2103 12.1457 25.5 12.875 25.5V26.875C12.875 27.2397 13.0199 27.5894 13.2777 27.8473C13.5356 28.1051 13.8853 28.25 14.25 28.25C14.6147 28.25 14.9644 28.1051 15.2223 27.8473C15.4801 27.5894 15.625 27.2397 15.625 26.875V25.5C16.3543 25.5 17.0538 25.2103 17.5695 24.6945C18.0853 24.1788 18.375 23.4793 18.375 22.75V22.1175L20.6575 20.5913C21.2243 20.2147 21.6892 19.7038 22.0107 19.104C22.3321 18.5042 22.5003 17.8342 22.5 17.1538V10.375C22.5 9.28098 22.0654 8.23177 21.2918 7.45818C20.5182 6.6846 19.469 6.25 18.375 6.25ZM17 13.125H19.75V14.5H18.375C18.0103 14.5 17.6606 14.6449 17.4027 14.9027C17.1449 15.1606 17 15.5103 17 15.875C17 16.2397 17.1449 16.5894 17.4027 16.8473C17.6606 17.1051 18.0103 17.25 18.375 17.25H19.75C19.7353 17.4587 19.6732 17.6614 19.5683 17.8425C19.4635 18.0236 19.3187 18.1783 19.145 18.295L16.2575 20.2337C16.0658 20.3567 15.9077 20.5254 15.7973 20.7246C15.6869 20.9238 15.6277 21.1473 15.625 21.375V22.75H12.875V21.375C12.8738 21.1485 12.8167 20.9259 12.7088 20.7268C12.6008 20.5277 12.4454 20.3583 12.2563 20.2337L9.36875 18.295C9.1796 18.1704 9.02415 18.0011 8.91621 17.802C8.80826 17.6029 8.75117 17.3802 8.75 17.1538V10.375C8.75 10.0103 8.89487 9.66059 9.15273 9.40273C9.41059 9.14487 9.76033 9 10.125 9H18.375C18.7397 9 19.0894 9.14487 19.3473 9.40273C19.6051 9.66059 19.75 10.0103 19.75 10.375H17C16.6353 10.375 16.2856 10.5199 16.0277 10.7777C15.7699 11.0356 15.625 11.3853 15.625 11.75C15.625 12.1147 15.7699 12.4644 16.0277 12.7223C16.2856 12.9801 16.6353 13.125 17 13.125Z" fill="#FA873D"/>
</svg>
