<?xml version="1.0" encoding="utf-8"?><svg width="40" height="40" fill="none" xmlns="http://www.w3.org/2000/svg" viewBox="0 0 40 40"><rect width="40" height="40" rx="20" fill="#fff"/><path d="M24.623 10.004L22.225 10c-2.695 0-4.436 1.932-4.436 4.922v2.27h-2.412c-.208 0-.377.182-.377.407v3.288c0 .226.169.408.377.408h2.412v8.297c0 .225.168.408.377.408h3.146c.209 0 .378-.183.378-.408v-8.297h2.82c.208 0 .377-.182.377-.408V17.6a.426.426 0 00-.11-.288.363.363 0 00-.267-.12h-2.82v-1.924c0-.924.203-1.394 1.317-1.394h1.616c.208 0 .377-.183.377-.408v-3.053c0-.225-.169-.408-.377-.408z" fill="#008AC4"/></svg>