<?xml version="1.0" encoding="utf-8"?><svg width="24" height="24" fill="none" xmlns="http://www.w3.org/2000/svg" viewBox="0 0 24 24"><rect width="24" height="24" rx="12" fill="#414F91"/><path d="M14.774 6.003L13.335 6c-1.617 0-2.662 1.16-2.662 2.953v1.362H9.226c-.125 0-.226.11-.226.245v1.973c0 .135.101.244.226.244h1.447v4.978c0 .136.101.245.227.245h1.887c.125 0 .227-.11.227-.245v-4.978h1.692c.125 0 .226-.11.226-.244V10.56a.256.256 0 00-.066-.173.218.218 0 00-.16-.072h-1.692V9.16c0-.555.122-.837.79-.837h.97c.125 0 .226-.11.226-.245V6.247c0-.135-.101-.244-.226-.244z" fill="#fff"/></svg>