<?xml version="1.0" encoding="utf-8"?><svg width="24" height="24" fill="none" xmlns="http://www.w3.org/2000/svg" viewBox="0 0 24 24"><path d="M23.063 20.15H18.67l4.115-4.115a1.004 1.004 0 000-1.42L10.44 2.27a1.004 1.004 0 00-1.42 0l-7.804 7.805a1.004 1.004 0 000 1.42L9.87 20.15H.937a.937.937 0 000 1.874h22.126a.937.937 0 000-1.874zm-4.061-6.478l-6.283-1.337-1.337-6.282 7.62 7.62zM3.346 10.785l5.721-5.721 1.778 8.353a1.027 1.027 0 00.793.792l8.353 1.778-4.163 4.163h-3.117l-9.365-9.365z" fill="#008AC4"/></svg>