<?xml version="1.0" encoding="utf-8"?><svg width="46" height="42" xmlns="http://www.w3.org/2000/svg" viewBox="0 0 46 42"><path fill-rule="evenodd" clip-rule="evenodd" d="M43.728 33.88H36.663a.715.715 0 000 1.43h6.335c.459 0 .837.378.837.837a.839.839 0 01-.837.837h-6.335a.715.715 0 00-.714.715c0 .4.32.72.714.72h4.874a.834.834 0 010 1.669H28.094c-1.125 0-2.127-.624-2.58-1.643a.713.713 0 00-.651-.426H12.407l3.722-6.442c.229.576.554 1.36 1.018 2.405.592 1.344 1.376 2.144 2.336 2.384 1.173.293 2.08-.374 2.18-.454a.702.702 0 00.256-.73c-.005-.038-.634-2.704-.714-5.114h2.815a.72.72 0 00.65-.426c.017-.027 1.185-2.57 3.52-3.19.581-.154 1.2-.426 1.824-.762 0-.005.005-.005.01-.005 0 0 0-.005.006-.005 1.893-1.03 3.807-2.661 4.634-3.402a1.1 1.1 0 01.309.496c.128.495-.107 1.173-.683 1.962-1.802 2.458-2.362 3.034-2.426 3.098a.715.715 0 00.539 1.27h9.864a.837.837 0 010 1.674l-5.604-.006a.72.72 0 00-.714.72c0 .394.32.714.714.714h7.065c.464 0 .838.379.838.837a.839.839 0 01-.838.838zM9.16 37.929a.852.852 0 01.08-.635h.006v-.005l2.8-4.847a.716.716 0 00-1.242-.715l-2.8 4.848c0 .005-.006.005-.006.005l-.725 1.264a.83.83 0 01-1.141.303.815.815 0 01-.39-.506.828.828 0 01.08-.635l.326-.56L9.35 30.89a.704.704 0 00-.261-.976.706.706 0 00-.976.262l-3.167 5.481a.806.806 0 01-.507.39.825.825 0 01-1.024-.592.814.814 0 01.086-.63l.73-1.269v-.005l2.437-4.212a.718.718 0 00-.266-.982.712.712 0 00-.976.267L2.99 32.836a.833.833 0 01-.507.394.848.848 0 01-.634-.085.83.83 0 01-.304-1.141l6.719-11.64c.565-.976 1.62-1.531 2.703-1.414a.701.701 0 00.704-.352l6.164-10.68 3.914 6.777a68.646 68.646 0 00-2.592-.32c-1.46-.16-2.543.118-3.231.827-.842.869-.715 1.994-.699 2.117.038.282.24.512.507.592.032.01 2.42.725 4.49 1.78l-1.243 2.15a.72.72 0 00.038.783c.021.022 1.642 2.288 1.002 4.64-.634 2.34.08 6.249.384 7.694a1.09 1.09 0 01-.576.021c-.496-.128-.97-.672-1.37-1.573-1.216-2.757-1.44-3.546-1.467-3.652a.698.698 0 00-.138-.315.712.712 0 00-.859-.23.703.703 0 00-.378.385L10.69 38.13a.835.835 0 01-1.53-.202zm11.283-15.746l1.024-1.776c.405.267.768.544 1.056.827 1.664 1.68 4 1.892 5.087 1.892h.117l.939 1.632c-.288.128-.576.24-.843.31-2.373.629-3.743 2.67-4.239 3.567h-2.346c.037-.358.09-.693.17-.992.646-2.373-.442-4.58-.965-5.46zM20.24 5.876h.005l2.8 4.847a.714.714 0 00.975.266.722.722 0 00.262-.98L21.488 5.16c-.006 0-.006-.005-.006-.005l-.73-1.27a.814.814 0 01-.086-.629.855.855 0 01.39-.511c.4-.23.911-.091 1.14.309l.326.554v.006l.043.069v.005l3.167 5.482a.716.716 0 00.976.261.706.706 0 00.261-.976L23.807 2.98v-.01a.835.835 0 01.304-1.142c.4-.229.912-.09 1.141.31l.73 1.263L28.42 7.62a.716.716 0 00.98.262.715.715 0 00.262-.976L27.23 2.692l-.005-.005v-.005a.837.837 0 011.45-.832l6.72 11.64c.559.976.522 2.154-.102 3.013l-.032.043c-.022.026-.027.058-.043.085-.027.053-.059.107-.07.165-.005.016 0 .032-.005.043a.708.708 0 00.08.485l5.973 10.345h-7.322a85.53 85.53 0 001.573-2.085c.864-1.179 1.168-2.261.896-3.216-.325-1.162-1.365-1.61-1.482-1.658a.697.697 0 00-.763.144c-.032.027-2.085 1.962-4.17 3.231l-1.173-2.053c-.026-.042-.064-.069-.096-.106-.026-.032-.047-.07-.085-.096-.037-.032-.09-.053-.139-.075-.037-.016-.069-.043-.106-.053-.053-.016-.112-.01-.166-.016-.037 0-.069-.01-.106-.01-.027 0-2.805.271-4.522-1.451-1.706-1.723-5.444-3.061-6.852-3.52a1.08 1.08 0 01.272-.506c.357-.368 1.067-.507 2.048-.4 2.954.32 3.77.517 3.887.55a.752.752 0 00.405.037.725.725 0 00.576-.651.741.741 0 00-.15-.496l-4.926-8.532a.835.835 0 01.304-1.14.832.832 0 011.14.309zM46 33.044c0-1.04-.704-1.92-1.658-2.187a2.258 2.258 0 00-1.434-3.082l-6.229-10.798c.725-1.263.725-2.868-.048-4.207L29.913 1.135a2.267 2.267 0 00-3.797-.202 2.268 2.268 0 00-3.578.533 2.283 2.283 0 00-2.197.042c-.523.304-.901.79-1.056 1.376a2.223 2.223 0 00-.01 1.152 2.222 2.222 0 00-.89.293 2.232 2.232 0 00-1.11 1.696l-6.623 11.47c-1.466 0-2.858.816-3.63 2.154L.301 31.284a2.274 2.274 0 00.827 3.098c.283.165.586.261.896.299a2.258 2.258 0 001.066 2.522c.363.213.741.336 1.19.304a2.267 2.267 0 003.85 1.541 2.284 2.284 0 001.833.933c.518 0 1.019-.198 1.424-.528H24.42c.73 1.269 2.133 2.069 3.674 2.069h13.443a2.272 2.272 0 002.074-3.189 2.27 2.27 0 001.653-2.186c0-.432-.117-.837-.33-1.184A2.26 2.26 0 0046 33.043z"/></svg>