<?xml version="1.0" encoding="utf-8"?><svg width="24" height="24" fill="none" xmlns="http://www.w3.org/2000/svg" viewBox="0 0 24 24"><rect width="24" height="24" rx="12" fill="#008AC4"/><path d="M7.765 16.317c.541.523 1.19.948 1.943 1.238a6.95 6.95 0 002.505.445c1.015 0 1.953-.155 2.794-.474.764-.28.107-1.702-.454-1.47-.619.262-1.373.397-2.234.397a5.23 5.23 0 01-1.837-.31 4 4 0 01-1.402-.87 3.964 3.964 0 01-.91-1.373c-.222-.541-.328-1.16-.328-1.837 0-.638.106-1.247.32-1.789.212-.541.502-1.025.889-1.412a4.033 4.033 0 011.373-.938 4.608 4.608 0 011.789-.338c.609 0 1.17.087 1.673.242.493.154.918.396 1.276.715.358.32.638.706.841 1.17.203.465.3 1.006.3 1.625 0 .358-.039.696-.116 1.015-.077.3-.174.57-.31.783-.125.204-.27.368-.444.484-.203.135-.503.213-.735.135-.29-.097-.232-.503-.213-.744.03-.33.116-.638.184-.958.106-.522.222-1.034.329-1.547.058-.28.125-.57.183-.85a.583.583 0 00-.57-.707h-.426a.58.58 0 00-.56.426 5.21 5.21 0 01-.059.213c-.212-.658-.996-.842-1.615-.832-.812.01-1.556.425-2.098 1.015-.048.058-.106.116-.155.174a3.73 3.73 0 00-.638 1.151c-.154.445-.232.9-.232 1.364 0 .396.058.773.165 1.111.116.349.28.648.493.9.212.251.483.454.802.6.32.144.677.222 1.064.222.29 0 .56-.049.803-.136.232-.087.444-.193.628-.319.145-.096.28-.212.387-.319.068.126.145.232.251.339.271.29.687.435 1.238.435.435 0 .86-.087 1.257-.261a2.979 2.979 0 001.054-.793c.29-.348.532-.774.706-1.277.174-.502.261-1.083.261-1.72 0-.871-.164-1.645-.483-2.292a4.79 4.79 0 00-1.296-1.635 5.588 5.588 0 00-1.837-.976A6.452 6.452 0 0012.213 6c-.841 0-1.644.155-2.389.454a6.245 6.245 0 00-1.953 1.267 5.868 5.868 0 00-1.808 4.293c0 .861.145 1.673.445 2.399.29.735.715 1.373 1.257 1.904zm5.23-4.06a2.927 2.927 0 01-.299.744c-.135.222-.3.406-.512.55-.194.136-.426.204-.716.204a.802.802 0 01-.435-.106.834.834 0 01-.28-.3 1.412 1.412 0 01-.155-.426 2.391 2.391 0 01-.049-.425c0-.27.04-.541.117-.822.077-.27.183-.522.328-.735.145-.213.31-.387.513-.522.184-.126.387-.184.628-.184.194 0 .348.03.465.097a.81.81 0 01.28.261c.077.116.126.252.164.396.039.165.058.339.058.503-.01.242-.038.493-.106.764z" fill="#fff"/></svg>