<?xml version="1.0" encoding="utf-8"?><svg viewBox="0 0 70 80" xmlns="http://www.w3.org/2000/svg" width="70" height="80"><path d="M21 54.65c3.476-2.346 5.766-6.32 5.766-10.82 0-7.194-5.852-13.046-13.045-13.046S.676 36.636.676 43.83c0 4.5 2.29 8.474 5.766 10.82C2.728 55.71 0 59.132 0 63.18v15.536C0 79.426.574 80 1.283 80H26.16c.708 0 1.282-.574 1.282-1.283V63.181c0-4.05-2.728-7.471-6.442-8.531zm-4.32 4l-1.559-1.775h3.116l-1.558 1.774zm-4.973-1.775l3.092 3.52-2.895 2.16-1.395-5.68h1.198zm9.454.559c.163.074.323.154.478.24l-.456 4.678-2.623-1.956 2.601-2.962zM3.242 43.83c0-5.779 4.7-10.48 10.48-10.48 5.778 0 10.479 4.701 10.479 10.48 0 5.778-4.701 10.479-10.48 10.479-5.778 0-10.479-4.701-10.479-10.48zM2.566 63.18c0-3.142 2.31-5.754 5.32-6.229l1.988 8.094a1.283 1.283 0 002.013.722l3.51-2.617v14.283H8.9V64.717a1.283 1.283 0 00-2.566 0v12.717H2.566V63.181zm22.31 14.253h-6.914V63.151l3.51 2.617a1.282 1.282 0 002.044-.903l.478-4.898c.56.942.883 2.04.883 3.214v14.253z"/><path d="M20.828 66.784a1.294 1.294 0 00-1.216-.792 1.294 1.294 0 00-1.204.94 1.295 1.295 0 00.523 1.41c.45.298 1.057.281 1.487-.045a1.29 1.29 0 00.41-1.513zM13.263 41.442a1.295 1.295 0 00-1.185-.792c-.515 0-.986.318-1.184.792a1.295 1.295 0 00.351 1.466c.424.36 1.049.405 1.52.107a1.291 1.291 0 00.498-1.573zM19.284 42.424c.204.483.69.804 1.217.79a1.295 1.295 0 001.212-.97 1.297 1.297 0 00-.47-1.334 1.293 1.293 0 00-1.528-.015 1.293 1.293 0 00-.43 1.529c.031.077-.033-.079 0 0zM52.375 29.962a1.282 1.282 0 001.972-1.082v-2.983h1.305a3.99 3.99 0 003.986-3.985V8.498a3.99 3.99 0 00-3.986-3.985h-13.29v-.528A3.99 3.99 0 0038.376 0H14.832a3.99 3.99 0 00-3.985 3.986v13.41a3.99 3.99 0 003.985 3.986h1.305v2.985a1.283 1.283 0 001.973 1.081l6.381-4.066h3.632v.53a3.99 3.99 0 003.985 3.985h13.884l6.383 4.066zM24.117 18.816c-.244 0-.483.07-.69.2l-4.724 3.012v-1.93c0-.708-.574-1.282-1.283-1.282h-2.588c-.783 0-1.42-.637-1.42-1.42V3.986c0-.783.637-1.42 1.42-1.42h23.544c.783 0 1.42.637 1.42 1.42v.528h-7.688a3.991 3.991 0 00-3.762 2.672h-9.79a1.283 1.283 0 000 2.566h9.567v2.145h-9.567a1.283 1.283 0 000 2.566h9.567v4.353h-4.006zm6.571 3.096V8.498c0-.782.637-1.42 1.42-1.42h23.544c.783 0 1.42.638 1.42 1.42v13.412c0 .783-.637 1.42-1.42 1.42h-2.588c-.709 0-1.283.574-1.283 1.283v1.928l-4.725-3.01a1.283 1.283 0 00-.69-.201H32.108a1.42 1.42 0 01-1.42-1.42z"/><path d="M35.833 14.266h16.094a1.283 1.283 0 100-2.566H35.833a1.283 1.283 0 100 2.566zM53.21 17.694c0-.709-.575-1.283-1.283-1.283H35.833a1.283 1.283 0 100 2.566h16.094c.709 0 1.283-.575 1.283-1.284zM62.968 54.65c3.477-2.346 5.767-6.32 5.767-10.82 0-7.194-5.852-13.046-13.045-13.046-7.194 0-13.046 5.852-13.046 13.046 0 4.5 2.29 8.474 5.767 10.82-3.715 1.06-6.443 4.482-6.443 8.531v15.536c0 .709.574 1.283 1.283 1.283h24.877c.709 0 1.283-.574 1.283-1.283V63.181c0-4.05-2.728-7.471-6.443-8.531zm-2.705 2.225a5.43 5.43 0 01-4.574 2.523 5.43 5.43 0 01-4.574-2.523h9.148zM45.21 43.83c0-5.779 4.701-10.48 10.48-10.48 5.778 0 10.48 4.701 10.48 10.48 0 5.778-4.702 10.479-10.48 10.479-5.779 0-10.48-4.701-10.48-10.48zm-.676 19.351a6.315 6.315 0 013.916-5.834 8.007 8.007 0 007.24 4.617 8.007 8.007 0 007.239-4.618 6.316 6.316 0 013.916 5.835v4.554h-4.494v-3.018a1.283 1.283 0 10-2.565 0v12.717H44.534V63.181zm17.817 14.253v-7.133h4.494v7.133h-4.494z"/><path d="M56.148 42.424c.226.534.795.865 1.373.777a1.296 1.296 0 001.055-.953 1.296 1.296 0 00-.531-1.383 1.3 1.3 0 00-1.62.16c-.358.368-.474.92-.277 1.399.032.077-.033-.079 0 0zM50.2 41.681c-.03-.164-.1-.32-.19-.462-.647-.947-2.164-.613-2.335.525-.157 1.034.989 1.823 1.9 1.304a1.292 1.292 0 00.625-1.367zM55.942 46.328c-.4-.4-1.05-.4-1.451 0a1.804 1.804 0 01-1.284.532c-.484 0-.94-.19-1.283-.532a1.026 1.026 0 10-1.451 1.451 3.855 3.855 0 002.734 1.131c.99 0 1.981-.377 2.735-1.13.401-.401.401-1.051 0-1.452z"/></svg>