<?xml version="1.0" encoding="utf-8"?><svg viewBox="0 0 160 115" xmlns="http://www.w3.org/2000/svg" width="160" height="115"><path d="M152.647 0c-4.055 0-7.354 3.3-7.354 7.354V20.04H14.708V7.354c0-4.055-3.3-7.354-7.354-7.354C3.299 0 0 3.3 0 7.354V110.06a4.854 4.854 0 004.849 4.849h5.01a4.854 4.854 0 004.848-4.849V97.374h130.585v12.687a4.854 4.854 0 004.849 4.849h5.01a4.854 4.854 0 004.849-4.849V7.354C160 3.299 156.701 0 152.647 0zM10.02 110.061a.161.161 0 01-.161.161h-5.01a.161.161 0 01-.161-.161v-5.171h5.332v5.171zm0-9.859H4.688V7.354a2.67 2.67 0 012.666-2.666 2.67 2.67 0 012.666 2.666v92.848zm94.869-75.474h10.343v57.938h-10.343V24.728zm-15.03 0h10.343v57.938H89.859V24.728zm-15.03 0h10.343v57.938H74.829V24.728zm-15.03 0H70.14v57.938H59.8V24.728zm-15.03 0H55.11v57.938H44.768V24.728zm-30.061 0H25.05v45.251a2.344 2.344 0 104.688 0V24.728H40.08v57.938H29.738v-2.665a2.344 2.344 0 00-4.688 0v2.665H14.707V24.728zm130.584 67.959H14.708v-5.333h130.584v5.333zm-10.342-10.02V37.414a2.344 2.344 0 10-4.688 0v45.251H119.92V24.728h10.342v2.665a2.344 2.344 0 004.688 0v-2.665h10.343v57.938H134.95zm20.363 27.394a.16.16 0 01-.161.161h-5.01a.161.161 0 01-.162-.161v-5.171h5.333v5.171zm0-9.859h-5.333V7.354a2.67 2.67 0 012.667-2.666 2.67 2.67 0 012.666 2.666v92.848z"/></svg>