<?xml version="1.0" encoding="utf-8"?><svg viewBox="0 0 98 86" xmlns="http://www.w3.org/2000/svg" width="98" height="86"><path d="M91.333 14.32h-3.754a4.982 4.982 0 00-4.713-3.387h-6.773a4.982 4.982 0 00-4.713 3.387h-5.553V9.134c0-4.61-3.75-8.36-8.36-8.36H40.532c-4.61 0-8.36 3.75-8.36 8.36v5.186H26.62a4.982 4.982 0 00-4.713-3.387h-6.773a4.982 4.982 0 00-4.713 3.387H6.667A6.675 6.675 0 000 20.987v57.572a6.675 6.675 0 006.667 6.668h84.666A6.675 6.675 0 0098 78.559V20.987a6.675 6.675 0 00-6.667-6.667zm-15.24-.212h6.773c.992 0 1.8.807 1.8 1.8 0 .991-.808 1.798-1.8 1.798h-6.773c-.99 0-1.794-.803-1.799-1.79v-.009-.008c.005-.988.81-1.791 1.799-1.791zm-54.186 6.773a4.982 4.982 0 004.713-3.386h44.76a4.982 4.982 0 004.713 3.386h1.8v61.17H20.107v-61.17h1.8zm13.44-11.747a5.191 5.191 0 015.186-5.186h16.934a5.191 5.191 0 015.185 5.186v5.186H35.348V9.134zm-20.213 4.974h6.773c.992 0 1.8.807 1.8 1.8 0 .991-.808 1.798-1.8 1.798h-6.773c-.99 0-1.796-.804-1.799-1.793v-.006-.006a1.801 1.801 0 011.799-1.793zM3.174 78.559V20.987a3.496 3.496 0 013.493-3.492h3.754a4.982 4.982 0 004.713 3.386h1.799v61.17H6.667a3.496 3.496 0 01-3.492-3.492zm91.651 0a3.496 3.496 0 01-3.492 3.493H81.067v-61.17h1.8a4.982 4.982 0 004.712-3.387h3.754a3.496 3.496 0 013.492 3.492v57.572z"/><path d="M33.76 58.134h6.88v6.879a4.98 4.98 0 004.973 4.974h6.774a4.98 4.98 0 004.974-4.974v-6.88h6.879a4.98 4.98 0 004.974-4.973v-6.773a4.98 4.98 0 00-4.974-4.974h-6.88v-6.88a4.98 4.98 0 00-4.973-4.974h-6.774a4.98 4.98 0 00-4.974 4.974v6.88H33.76a4.98 4.98 0 00-4.974 4.974v6.773a4.98 4.98 0 004.974 4.974zm-1.799-11.748c0-.992.807-1.799 1.8-1.799h8.466c.877 0 1.587-.71 1.587-1.587v-8.467c0-.992.807-1.799 1.8-1.799h6.773c.992 0 1.799.807 1.799 1.8V43c0 .877.71 1.587 1.587 1.587h8.467c.992 0 1.799.807 1.799 1.8v6.773c0 .992-.807 1.799-1.8 1.799h-8.466c-.877 0-1.587.71-1.587 1.587v8.467c0 .992-.807 1.799-1.8 1.799h-6.773c-.992 0-1.799-.807-1.799-1.8v-8.466c0-.877-.71-1.587-1.587-1.587H33.76c-.992 0-1.799-.807-1.799-1.8v-6.773z"/></svg>