<?xml version="1.0" encoding="utf-8"?><svg width="46" height="32" xmlns="http://www.w3.org/2000/svg" viewBox="0 0 46 32"><path fill-rule="evenodd" clip-rule="evenodd" d="M35.11 30.823a1.874 1.874 0 00-1.016-2.46l-8.44-3.507.593-.564a7.47 7.47 0 00.23-.229l.257-.269 11.68 4.854c1.317.547 2.763.108 3.225-.98.461-1.086-.234-2.415-1.55-2.962L28.71 19.977l.545-1.283 13.376 5.558c1.317.547 2.764.108 3.225-.98.462-1.086-.234-2.415-1.55-2.962L30.86 14.724l.08-.424c.018-.102.034-.202.049-.304l.098-.689 11.133 4.626c1.316.547 2.763.108 3.225-.978.461-1.087-.235-2.416-1.551-2.963L35.8 10.63 29.6 12.76c-.048.133-.29.715-.377.834l-2.908 4.673a1.093 1.093 0 01-.717.433 1.099 1.099 0 01-1.207-.72 1.078 1.078 0 01.152-.993l.905-1.542s-1.827.71-2.28.863l-5.826 1.972c-.572.194-1.171-.032-1.335-.505-.163-.472.17-1.014.742-1.208l4.84-1.639-.165-.245a3.019 3.019 0 01-.07-.11l-.097-.156-5.845 1.979c-.573.193-1.171-.033-1.335-.506-.163-.472.17-1.014.742-1.208l5.815-1.97-.193-.557-4.946 1.675c-.573.193-1.171-.033-1.335-.506-.164-.472.17-1.014.742-1.208l5.078-1.72.005-.156c.001-.046.004-.09.007-.136l.027-.344-3.67 1.242a.808.808 0 01-1.021-.495.795.795 0 01.5-1.011l6.03-2.042a97.986 97.986 0 013.279-1.038l.002-.001a2.16 2.16 0 01-.032-.012l4.042-1.313a2.587 2.587 0 001.843-1.513 2.545 2.545 0 00-.985-3.142 2.592 2.592 0 00-1.95-.352L15.514 3.808c-.342.073-1.693.726-1.987.884L6.025 1.575 0 15.76l7.804 3.244c.592 1.677 1.809 3.09 3.488 3.787l.033.016c.022.01 3.64 1.685 7.429 3.26l13.868 5.762a1.91 1.91 0 002.487-1.005z"/><path fill-rule="evenodd" clip-rule="evenodd" d="M21.858 7.455l-6.03 2.041a.795.795 0 00-.5 1.012.808.808 0 001.022.495l3.669-1.242-.027.344a2.92 2.92 0 00-.007.136l-.005.156-5.078 1.72c-.573.194-.905.736-.742 1.208.164.473.762.7 1.335.506l4.946-1.675.194.558-5.816 1.969c-.573.194-.905.736-.742 1.208.164.473.762.7 1.335.506l5.845-1.98.096.157.071.11.165.245-4.84 1.639c-.572.193-.905.736-.742 1.208.164.472.763.7 1.335.505l5.826-1.972c.453-.153 2.28-.862 2.28-.862l-.905 1.541a1.078 1.078 0 00.24 1.517c.236.17.526.24.815.196.29-.045.544-.198.717-.433l2.908-4.673c.088-.119.329-.702.377-.834l6.201-2.132-5.306-2.205c-.991-.412-4.976-1.87-5.356-2.008h-.002c-.01.003-1.632.482-3.28 1.04z" fill="#FEFEFE"/></svg>