<?xml version="1.0" encoding="utf-8"?><svg viewBox="0 0 133 111" xmlns="http://www.w3.org/2000/svg" width="133" height="111"><path d="M131.19 76.488a6.168 6.168 0 00-8.546-.2 83.138 83.138 0 01-15.084 10.988l-4.47-12.945a14.644 14.644 0 01.433-10.68c2.495-5.41 3.047-11.535 1.554-17.247-.048-.184-.148-.567-1.129-3.108a4.79 4.79 0 012.55-6.12 4.776 4.776 0 016.13 2.074l.809 1.465a6.684 6.684 0 004.119 3.24 6.682 6.682 0 005.194-.692c4.326-2.545 5.957-8.054 3.712-12.543l-6.296-12.591a21.473 21.473 0 00-5.995-7.31l-.018-.014a4.736 4.736 0 01-1.825-3.603l-.135-4.562a2.198 2.198 0 00-3.39-1.782L98.122 7.762c-8.984 5.807-15.302 15.16-17.335 25.662l-.56 2.894a5.57 5.57 0 01-7.268 4.215l-9.153-3.12a24.36 24.36 0 00-12.25-.897l-.148.028a5.009 5.009 0 01-5.312-2.517c-3.406-6.199-9.048-10.605-15.887-12.408-6.84-1.802-13.92-.748-19.94 2.966L7.445 26.33a2.198 2.198 0 00-1.033 2.089l.263 2.63a22.51 22.51 0 0013.673 18.519 2.198 2.198 0 002.868-1.15l3.144-7.228a4.644 4.644 0 016.09-2.408 4.592 4.592 0 012.517 2.668 4.593 4.593 0 01-.209 3.662 25.345 25.345 0 00-1.942 17.362 5.748 5.748 0 01-.802 4.6 5.748 5.748 0 01-3.927 2.523l-4.3.685a2.198 2.198 0 00-1.755 1.52L18.59 82.92a83.322 83.322 0 01-8.232-6.632 6.168 6.168 0 00-8.546.2 6.128 6.128 0 00-1.81 4.505 6.253 6.253 0 002.02 4.453 94.97 94.97 0 0028.527 18.043c11.45 4.647 23.547 7.004 35.952 7.004 12.406 0 24.501-2.357 35.952-7.004a94.967 94.967 0 0028.526-18.043 6.25 6.25 0 002.02-4.453 6.128 6.128 0 00-1.809-4.505zM22.42 85.41l3.406-11.002 2.95-.47a10.232 10.232 0 006.9-4.434 10.233 10.233 0 001.408-8.079 20.943 20.943 0 011.605-14.348 8.947 8.947 0 00.407-7.134 8.947 8.947 0 00-4.905-5.197c-4.561-1.97-9.883.134-11.864 4.69l-2.225 5.118a18.117 18.117 0 01-9.053-13.943l-.127-1.263 1.657-1.023c4.983-3.076 10.846-3.948 16.51-2.455 5.663 1.492 10.335 5.14 13.155 10.274a9.397 9.397 0 009.968 4.721l.145-.027a19.948 19.948 0 0110.032.735l9.152 3.12a9.966 9.966 0 0013.002-7.54l.561-2.894c1.807-9.333 7.421-17.645 15.405-22.805l7.406-4.787.02.664a9.122 9.122 0 003.519 6.943l.022.017a17.053 17.053 0 014.759 5.803l6.296 12.59a5.201 5.201 0 01-2.009 6.79c-.55.322-1.19.408-1.805.24a2.323 2.323 0 01-1.432-1.126l-.809-1.465a9.151 9.151 0 00-11.745-3.972 9.178 9.178 0 00-4.884 11.727c.826 2.14.961 2.578.977 2.637 1.237 4.73.777 9.806-1.294 14.295l-.041.092a19.02 19.02 0 00-.554 13.863l4.699 13.61a82.422 82.422 0 01-6.025 2.71l-9.664-20.678a7.05 7.05 0 00-7.086-4.005 69.103 69.103 0 01-25.38-2.053 2.198 2.198 0 00-2.416.914l-3.205 4.881a14.631 14.631 0 01-3.676 3.842 14.667 14.667 0 01-4.8 2.285 19.133 19.133 0 00-10.536 7.263l-2.95 4.085a82.67 82.67 0 01-5.668-3.269l.192.06zm71.057 8.216A83.178 83.178 0 0166.5 98.111a83.02 83.02 0 01-34.6-7.528l2.51-3.474a14.726 14.726 0 018.11-5.59c2.242-.601 4.34-1.6 6.235-2.967a19.015 19.015 0 004.777-4.993l2.34-3.564a73.494 73.494 0 0025.443 1.78 2.62 2.62 0 012.647 1.493l9.515 20.359zm34.532-11.422a90.58 90.58 0 01-27.21 17.211c-10.923 4.434-22.463 6.682-34.299 6.682-11.836 0-23.376-2.248-34.299-6.682a90.578 90.578 0 01-27.21-17.21 1.812 1.812 0 01-.595-1.308 1.77 1.77 0 01.523-1.302 1.798 1.798 0 011.275-.531c.427 0 .854.154 1.192.464 16.162 14.818 37.156 22.978 59.114 22.978s42.952-8.16 59.114-22.978a1.78 1.78 0 012.467.067c.348.348.534.81.523 1.302a1.812 1.812 0 01-.595 1.307z"/></svg>