<?xml version="1.0" encoding="utf-8"?><svg width="24" height="24" fill="none" xmlns="http://www.w3.org/2000/svg" viewBox="0 0 24 24"><path d="M11.79 23.406h0a52.405 52.405 0 01-4.136-5.375c-.983-1.473-1.95-3.107-2.668-4.733-.722-1.631-1.178-3.219-1.178-4.606C3.808 4.175 7.483.5 12 .5s8.192 3.675 8.192 8.192c0 1.387-.456 2.975-1.178 4.606-.719 1.626-1.685 3.26-2.668 4.732a52.402 52.402 0 01-4.136 5.376h0a.283.283 0 01-.42 0zM7.127 8.692A4.878 4.878 0 0012 13.565a4.878 4.878 0 004.873-4.873A4.878 4.878 0 0012 3.819a4.878 4.878 0 00-4.873 4.873z" fill="#008AC4" stroke="#008AC4"/></svg>