<?xml version="1.0" encoding="utf-8"?><svg viewBox="0 0 118 117" xmlns="http://www.w3.org/2000/svg" width="118" height="117"><path d="M95.292 70.607l.204-1.43a11.653 11.653 0 00-6.645-12.276l-12.268-5.725a7.713 7.713 0 01-2.398-1.744l-5.227-5.62a30.593 30.593 0 00-3.96-3.572l-11.013-8.317-1.054-11.596a9.22 9.22 0 00-2.658-5.674l-.232-.233a9.193 9.193 0 00-9.926-2.037l-2.856 1.143a7.58 7.58 0 00-1.202.61L23.363 1.443a1.937 1.937 0 00-2.74 0L1.442 20.624a1.938 1.938 0 00-.063 2.674L11.887 34.84l-.17.17a6.789 6.789 0 000 9.59 6.76 6.76 0 004.795 1.983l.074-.002a6.76 6.76 0 001.981 4.868 6.76 6.76 0 004.796 1.983l.072-.001a6.77 6.77 0 006.777 6.852l.074-.002a6.781 6.781 0 0010.173 5.942l2.752 3.022.289 23.457a6.777 6.777 0 0010.714 5.522 6.778 6.778 0 004.424 3.066 6.768 6.768 0 005.263-1.128 6.78 6.78 0 008.661 2.542v1.623a6.782 6.782 0 0012.885 2.951l8.988 9.069a1.943 1.943 0 001.377.574h.068a1.942 1.942 0 001.4-.672l19.375-22.487a1.937 1.937 0 00-.122-2.66L95.292 70.608zM41.554 15.98A5.322 5.322 0 0147.3 17.16l.233.232a5.338 5.338 0 011.538 3.286l.648 7.12-3.033-3.033-.073-.072a1.936 1.936 0 00-1.76-.527h-4.799a3.652 3.652 0 01-1.356-7.042l2.856-1.143zM14.457 41.858a2.91 2.91 0 010-4.11l6.85-6.85a2.906 2.906 0 114.11 4.11l-6.85 6.85a2.91 2.91 0 01-4.11 0zm6.85 6.85a2.91 2.91 0 010-4.11l6.85-6.85a2.906 2.906 0 114.11 4.11l-6.85 6.85a2.91 2.91 0 01-4.11 0zm8.906 7.702a2.906 2.906 0 01-2.055-4.962l6.85-6.85a2.906 2.906 0 114.11 4.11l-6.85 6.85a2.887 2.887 0 01-2.055.85v.002zm6.85 6.85a2.906 2.906 0 01-2.055-4.961l6.85-6.85a2.907 2.907 0 014.11 4.11l-6.85 6.85a2.888 2.888 0 01-2.055.85zm45.187 41.067a2.908 2.908 0 01-4.961 2.055 2.908 2.908 0 01-.852-2.055V85.92a1.937 1.937 0 10-3.875 0v10.656a2.907 2.907 0 01-5.812 0V83.983a1.937 1.937 0 10-3.875 0v10.656a2.907 2.907 0 01-5.813 0V82.045a1.938 1.938 0 00-3.875 0v10.656a2.907 2.907 0 01-5.812 0l-.298-24.245a1.937 1.937 0 00-.505-1.278l-3.214-3.53 5.349-5.35a6.777 6.777 0 00-4.866-11.572l.002-.072a6.773 6.773 0 00-6.854-6.777 6.765 6.765 0 00-6.85-6.85 6.777 6.777 0 00-11.571-4.868l-3.937 3.936-9.141-10.04L21.994 5.553l11.42 11.42a7.527 7.527 0 006.64 11.068h4.428l6.282 6.283c.057.056.118.11.183.159l.02.017 11.698 8.83a26.71 26.71 0 013.457 3.12l5.227 5.62a11.57 11.57 0 003.596 2.616l12.267 5.725a7.798 7.798 0 014.448 8.218l-.107.746h-7.366a1.937 1.937 0 00-1.937 1.938v33.014zm13.463 7.803l-9.588-9.674V73.251h6.326l20.072 19.367-16.81 19.512z"/><path d="M73.13 36.113a1.938 1.938 0 000 2.74l5.812 5.813a1.938 1.938 0 002.74-2.74l-5.812-5.813a1.937 1.937 0 00-2.74 0zM65.38 28.363a1.938 1.938 0 000 2.74l1.937 1.938a1.938 1.938 0 002.74-2.74l-1.937-1.938a1.937 1.937 0 00-2.74 0z"/></svg>