<?xml version="1.0" encoding="utf-8"?><svg viewBox="0 0 32 45" xmlns="http://www.w3.org/2000/svg" width="32" height="45"><path d="M3.8 10.08c-.8.2-1.54.06-2.22-.42C.9 9.14.56 8.46.56 7.62v-1.8c0-1 .3-1.88.9-2.64.64-.8 1.44-1.28 2.4-1.44C7.98.98 11.92.6 15.68.6c4.92 0 8.76.98 11.52 2.94s4.14 4.52 4.14 7.68c0 1.48-.2 2.8-.6 3.96-.36 1.16-.98 2.22-1.86 3.18-.84.96-1.58 1.7-2.22 2.22-.6.48-1.52 1.14-2.76 1.98-1.04.76-1.8 1.32-2.28 1.68-.48.32-1.06.84-1.74 1.56-.68.68-1.2 1.36-1.56 2.04-1.12 2.16-2.54 3.24-4.26 3.24h-2.58c-.96 0-1.76-.34-2.4-1.02-.64-.68-.84-1.46-.6-2.34.36-1.36 1-2.66 1.92-3.9.92-1.28 1.74-2.22 2.46-2.82.72-.64 1.76-1.46 3.12-2.46 1.08-.8 1.88-1.44 2.4-1.92.56-.48 1.08-1.08 1.56-1.8s.72-1.46.72-2.22c0-2.64-2.16-3.96-6.48-3.96-3.16 0-6.62.48-10.38 1.44zM10.94 36h3.6c.92 0 1.72.34 2.4 1.02.68.68 1.02 1.48 1.02 2.4v2.16c0 .92-.34 1.72-1.02 2.4-.68.68-1.48 1.02-2.4 1.02h-3.6c-.92 0-1.72-.34-2.4-1.02-.64-.68-.96-1.48-.96-2.4v-2.16c0-.92.32-1.72.96-2.4.68-.68 1.48-1.02 2.4-1.02z"/></svg>