<?xml version="1.0" encoding="utf-8"?><svg width="34" height="34" xmlns="http://www.w3.org/2000/svg" viewBox="0 0 34 34"><path d="M20.972 7.708c.272.592.499 1.232.64 1.91 4.634.76 7.91 2.63 7.91 4.816 0 2.86-5.606 5.178-12.522 5.178S4.477 17.294 4.477 14.434c0-2.186 3.277-4.056 7.911-4.816a8.958 8.958 0 01.64-1.91C5.555 8.85 0 13.138 0 18.255 0 24.245 7.611 29.1 17 29.1s17-4.856 17-10.845c0-5.117-5.555-9.405-13.028-10.547z"/><path d="M17 17.357s3.214-2.788 3.214-6.228S17 4.9 17 4.9s-3.214 2.788-3.214 6.229c0 3.44 3.214 6.228 3.214 6.228z"/></svg>