<?xml version="1.0" encoding="utf-8"?><svg width="24" height="24" fill="none" xmlns="http://www.w3.org/2000/svg" viewBox="0 0 24 24"><rect width="24" height="24" rx="12" fill="#008AC4"/><path d="M18.993 16.049a.677.677 0 01-.207.593l-1.971 1.957a1.11 1.11 0 01-.349.253c-.143.069-.284.113-.422.133l-.089.008c-.05.005-.114.007-.193.007-.187 0-.491-.032-.911-.096-.42-.065-.934-.223-1.541-.475-.608-.252-1.297-.63-2.068-1.134-.77-.505-1.59-1.197-2.46-2.077a16.245 16.245 0 01-1.72-1.957 13.944 13.944 0 01-1.096-1.728 9.306 9.306 0 01-.623-1.439c-.138-.43-.232-.8-.281-1.112a3.676 3.676 0 01-.06-.734c.01-.178.015-.277.015-.297.02-.138.065-.279.134-.422.069-.144.153-.26.252-.349l1.97-1.972A.653.653 0 017.849 5c.129 0 .242.037.341.111.099.074.183.166.252.275l1.586 3.01a.721.721 0 01.074.52.924.924 0 01-.252.474l-.726.726a.248.248 0 00-.052.097.366.366 0 00-.022.111c.04.208.128.445.266.712.119.237.302.527.549.868.247.34.597.734 1.052 1.179.445.454.84.808 1.186 1.06.345.252.634.438.867.556.232.119.41.19.533.215l.185.037c.02 0 .052-.007.097-.022a.248.248 0 00.096-.052l.845-.86a.908.908 0 01.622-.237c.168 0 .302.03.4.089h.015l2.86 1.69c.208.129.332.292.371.49z" fill="#fff"/></svg>