<?xml version="1.0" encoding="utf-8"?><svg width="46" height="43" xmlns="http://www.w3.org/2000/svg" viewBox="0 0 46 43"><path fill-rule="evenodd" clip-rule="evenodd" d="M28.874 27.518l-4.218-2.108 14.714-6.558 4.218 2.106-14.714 6.56zm9.82 6.315l-14.977 6.676V26.54l4.82 2.407a.722.722 0 00.61.014l9.546-4.256v9.127zm-15.702-9.247l-14.64-6.525 5.482-2.444c3.536 3.54 8.087 5.698 8.328 5.81a.706.706 0 00.605 0c.247-.115 5.08-2.402 8.656-6.143l6.22 2.772-14.65 6.53zm-.704 15.923L7.313 33.833v-9.114l9.517 4.243a.73.73 0 00.61-.014l4.848-2.421v13.982zM2.389 20.959l4.218-2.107 14.714 6.558-4.217 2.108-14.715-6.56zm0-5.795l8.37-3.731c.176.387.372.77.607 1.144.423.678.908 1.321 1.433 1.933l-6.192 2.76-4.218-2.106zm9.629-10.247c.866-1.855 2.474-3.158 4.2-3.4.424-.06.824-.086 1.203-.086 2.878 0 4.467 1.52 4.54 1.591a.718.718 0 001.008 0c.085-.081 2.112-2.017 5.742-1.506 1.727.241 3.335 1.544 4.201 3.398 1.019 2.183.815 4.699-.56 6.9-2.733 4.372-8.504 7.47-9.888 8.169-1.384-.698-7.153-3.788-9.886-8.163-1.376-2.203-1.58-4.718-.56-6.903zm22.315 6.11l9.277 4.136-4.219 2.108-6.981-3.113c.416-.509.808-1.034 1.154-1.586.313-.501.558-1.02.769-1.544zm11.249 9.328l-4.584-2.29 4.606-2.298a.714.714 0 00-.03-1.292L34.768 9.655c.407-1.803.231-3.653-.56-5.347C33.14 2.02 31.111.407 28.91.1c-3.293-.461-5.505.796-6.444 1.49C21.526.895 19.302-.36 16.02.101c-2.2.309-4.23 1.922-5.298 4.212-.853 1.826-.984 3.834-.447 5.77l-9.85 4.391a.713.713 0 00-.03 1.293L4.99 18.06.396 20.355a.715.715 0 00.029 1.293l5.458 2.433v10.216c0 .281.166.537.424.653l16.405 7.313a.712.712 0 00.582 0l16.404-7.313a.718.718 0 00.425-.654V24.07l5.43-2.421a.715.715 0 00.03-1.293z"/><path fill-rule="evenodd" clip-rule="evenodd" d="M18.381 14.68a.714.714 0 10.595-1.3c-.207-.095-5.049-2.384-4.002-7.008a.713.713 0 00-.54-.855.712.712 0 00-.854.54c-1.306 5.765 4.74 8.596 4.801 8.624z"/></svg>