<?xml version="1.0" encoding="utf-8"?><svg width="44" height="32" xmlns="http://www.w3.org/2000/svg" viewBox="0 0 44 32"><g clip-path="url(#jclip0)" fill-rule="evenodd" clip-rule="evenodd"><path d="M29.56 4.103c-.625 0-1.136.504-1.136 1.121v5.405l-.45-.196-.183-.067-.214-.083V2.808c0-.843-.58-1.528-1.288-1.528-.717 0-1.297.685-1.297 1.528v7.287h-.838V1.528c0-.843-.58-1.528-1.296-1.528-.71 0-1.289.685-1.289 1.528v8.612l-.252.052-.183.046-.404.105V3.214c0-.843-.58-1.528-1.296-1.528-.71 0-1.289.685-1.289 1.528v8.582c0 .354.03 1.302.069 2.108l-.572.564-2.104-2.439a1.544 1.544 0 00-1.274-.655c-.312 0-.617.098-.884.279-.336.233-.564.58-.633.986-.076.399.015.805.252 1.137l6.039 7.234c.122.173.8.752.953.88V32h9.302V21.695c.8-.708 1.304-1.702 1.304-2.77v-.023c0-.015.099-2.371.099-4.795V5.224c0-.617-.51-1.121-1.136-1.121z"/><path d="M29.018 15.394v-.045c0-1.227-1.044-2.228-2.317-2.228-.58 0-1.137.21-1.564.587-.13.113-.244.233-.335.369a2.25 2.25 0 00-.343-.37 2.365 2.365 0 00-1.563-.586c-1.274 0-2.318 1-2.318 2.228v.045c-.016.73.297 1.513.907 2.25.694.844 1.746 1.62 3.126 2.304l.19.098.184-.098c1.388-.685 2.44-1.46 3.126-2.303.61-.745.923-1.52.907-2.251z" fill="#FEFEFE"/><path d="M43.132 3.132a.846.846 0 00-.854.835v4.05l-.335-.143c-.046-.023-.092-.038-.138-.053l-.16-.06v-5.6c0-.633-.434-1.145-.968-1.145-.534-.007-.968.512-.968 1.144v5.458h-.626V1.197c0-.632-.434-1.144-.968-1.144s-.968.512-.968 1.144v6.451l-.191.038c-.046.015-.092.022-.137.037l-.305.076V2.462c0-.633-.435-1.145-.969-1.145s-.968.512-.968 1.145V8.89c0 .264.03.979.053 1.581l-.427.421-1.578-1.829a1.155 1.155 0 00-.953-.489c-.236 0-.465.075-.663.21-.252.174-.42.437-.473.738-.054.302.015.603.19.851l4.522 5.42c.091.128.602.565.717.662v7.942h6.969v-8.092c.595-.527.976-1.272.976-2.078v-.015c0-.007.068-1.776.068-3.59V3.966a.844.844 0 00-.846-.835z"/><path d="M42.347 11.585v-.03c0-.926-.778-1.671-1.731-1.671-.435 0-.854.158-1.175.444-.099.083-.183.173-.251.27a2.14 2.14 0 00-.252-.27 1.764 1.764 0 00-1.174-.444c-.953 0-1.738.745-1.738 1.67v.031c-.008.55.22 1.137.678 1.686.519.632 1.312 1.212 2.349 1.732l.137.067.137-.067c1.037-.52 1.83-1.1 2.349-1.732.457-.557.686-1.136.67-1.686z" fill="#FEFEFE"/><path d="M12.633 3.132a.844.844 0 00-.846.835v4.05l-.344-.143a.662.662 0 00-.13-.053l-.16-.06v-5.6c0-.633-.434-1.145-.968-1.145-.533-.007-.968.512-.968 1.144v5.458h-.633V1.197c0-.632-.434-1.144-.968-1.144s-.969.512-.969 1.144v6.451l-.19.038c-.038.015-.084.022-.13.037l-.305.076V2.462c0-.633-.434-1.145-.968-1.145s-.968.512-.968 1.145V8.89c0 .264.022.979.053 1.581l-.435.421-1.57-1.829a1.166 1.166 0 00-1.617-.278 1.139 1.139 0 00-.48.737c-.054.302.015.603.19.851l4.53 5.42c.091.128.594.565.716.662v7.942h6.962v-8.092c.602-.527.976-1.272.976-2.078v-.015c.007-.007.076-1.776.076-3.59V3.966a.846.846 0 00-.854-.835z"/><path d="M11.855 11.585v-.03c0-.926-.778-1.671-1.739-1.671-.427 0-.846.158-1.174.444a1.644 1.644 0 00-.244.27 1.778 1.778 0 00-1.426-.715c-.96 0-1.738.746-1.738 1.672v.03c-.015.55.221 1.137.679 1.686.518.632 1.303 1.212 2.34 1.732l.145.067.137-.067c1.037-.52 1.823-1.1 2.349-1.732.45-.557.686-1.136.67-1.686z" fill="#FEFEFE"/></g><defs><clipPath id="jclip0"><path fill="#fff" d="M0 0h44v32H0z"/></clipPath></defs></svg>