<?xml version="1.0" encoding="utf-8"?><svg width="54" height="52" xmlns="http://www.w3.org/2000/svg" viewBox="0 0 54 52"><path d="M16.496 21.112c.506.193 1.238.418 2.004.652l.016.005.08.025c.61.188 1.239.383 1.79.572.578.199 1.063.39 1.35.559h.001l.393.239c.434.265.81.495 1.212.617.407.123.838.133 1.383-.026.3-.089.52-.225.677-.398.157-.173.245-.377.29-.591.088-.422.009-.9-.057-1.296v-.005a8.763 8.763 0 00-.009-.053c-.024-.155-.044-.285-.044-.377 0-.097-.027-.229-.07-.381a6.972 6.972 0 00-.187-.546 24.27 24.27 0 00-.622-1.45c-.603-1.3-1.383-2.822-1.825-3.57-.359-.608-.627-1.366-.833-2.198-.212-.856-.359-1.775-.475-2.682-.137-1.064-.435-1.67-.89-2.045-.454-.375-.976-.461-1.565-.558l-.014-.003c-.685-.114-1.448.164-2.137.553-.648.362-1.253.829-1.683 1.164-.374.294-.878.563-1.458.871-.621.329-1.32.699-2.046 1.206-.728.504-1.363 1.009-1.843 1.746-.478.737-.777 1.677-.833 3.03-.018.442.107 1.05.547 1.642.312.42.787.836 1.479 1.183 1.132.566 3.091 1.28 4.402 1.759l.004.001c.37.133.686.249.963.355zm0 0l.036-.094m-.036.094l.036-.094m0 0a51.527 51.527 0 00-.965-.355m.965.355c.502.193 1.232.416 2 .652l.014.004.08.025c1.245.384 2.58.797 3.162 1.14l-6.221-2.176m0 0c-1.313-.479-3.269-1.192-4.396-1.755-.68-.341-1.14-.748-1.443-1.154-.426-.573-.544-1.158-.527-1.579.055-1.339.35-2.26.817-2.978m5.549 7.466l-5.549-7.466m0 0c.47-.72 1.09-1.216 1.816-1.72l-1.816 1.72zm.136 3.017c-.01.244.064.599.34.973.222.295.57.6 1.101.867 1.07.534 2.998 1.238 4.299 1.712l.974.358h.002c.466.179 1.118.38 1.818.597l.136.042-.03.096.03-.096c.656.202 1.343.413 1.952.625.608.21 1.144.424 1.495.63h.001l.407.244c.685.42 1.102.67 1.748.481.148-.044.218-.173.233-.389.016-.216-.026-.478-.067-.722a3.589 3.589 0 01-.069-.596.965.965 0 00-.055-.226 7.222 7.222 0 00-.164-.438 29.2 29.2 0 00-.56-1.272c-.589-1.27-1.349-2.754-1.777-3.476-.418-.708-.718-1.564-.947-2.48-.221-.896-.374-1.857-.495-2.805-.103-.797-.286-1.172-.516-1.362a1.162 1.162 0 00-.444-.21c-.182-.05-.392-.085-.628-.124l-8.784 7.57zm0 0c.048-1.156.29-1.92.664-2.499.375-.577.915-1.003 1.561-1.454l-2.225 3.953zM26.41 20.622l-.005-.011c-.4-1.016-.872-2.21-1.096-2.84-.08-.224-.249-.633-.454-1.129-.53-1.27-1.296-3.119-1.533-4.248a25.27 25.27 0 01-.51-3.588c-.058-1.008-.022-1.934.154-2.643l3.444 14.46zm0 0l-.094.037-.005-.014c-.4-1.014-.871-2.21-1.096-2.84a30.865 30.865 0 00-.453-1.124c-.527-1.266-1.299-3.126-1.538-4.266a25.381 25.381 0 01-.512-3.603c-.058-1.012-.023-1.95.157-2.673l6.797 16.402a2.22 2.22 0 01-.488.268 1.79 1.79 0 01-1.213.053 1.935 1.935 0 01-.992-.748 2.746 2.746 0 01-.313-.585l-.344-.87.094-.037zm-1.824-14.84a2.565 2.565 0 00-.492.336c-.12.11-.183.204-.201.278-.151.604-.181 1.43-.128 2.356.065 1.096.25 2.312.491 3.447.217 1.033.958 2.821 1.475 4.068l.004.01c.21.502.383.92.474 1.175m-1.623-11.67l1.529 11.704m-1.53-11.704h.002c.46-.255 1.085-.474 1.819-.61m-1.82.61l1.82-.61m-.197 12.28l-.095.034m.095-.034l-.095.034m.095-.034c.231.64.697 1.822 1.091 2.821l.341.871m-1.526-3.658c.232.64.698 1.826 1.092 2.824l.341.87m.093-.036l-.093.037m.093-.037c.055.14.121.258.192.36.135.188.29.302.449.353.155.05.329.043.51-.03h.002a1.26 1.26 0 00.261-.143c.062-.044.147-.156.252-.343.102-.183.214-.422.334-.705.24-.566.504-1.296.764-2.066a117.941 117.941 0 001.271-4.075l.003-.008.104-.356c.157-.524.538-1.682.934-2.888l.097-.297c.468-1.431.936-2.861 1.06-3.32a.958.958 0 00.04-.36.53.53 0 00-.12-.272c-.104-.134-.268-.281-.506-.46a17.636 17.636 0 00-.927-.632c-.632-.41-1.552-.658-2.526-.78-1.26-.161-2.572-.108-3.43.05m1.236 15.972l-.093.037m0 0c.058.147.128.273.203.382.145.2.317.33.5.389a.843.843 0 00.579-.032c.094-.036.188-.089.283-.154.651-.466 2.153-5.535 2.659-7.242l.003-.01-5.37-9.343m7.565 2.482c.082-.307.065-.515-.097-.72-.224-.288-.691-.617-1.458-1.115-.65-.421-1.588-.673-2.567-.796-1.27-.162-2.592-.109-3.46.05l7.582 2.58zM38.22 7.12a1.931 1.931 0 00-.648-.21c-.391-.055-.817 0-1.197.17a2.04 2.04 0 00-.963.888 2.214 2.214 0 00-.236.737c-.067.464-.3 1.218-.606 2.084-.303.86-.674 1.822-1.014 2.704l-.004.01v.001c-.172.442-.334.861-.5 1.31-.299.798-.875 2.06-1.446 3.312-.377.83-.752 1.654-1.048 2.35-.295.692-.517 1.268-.582 1.594-.089.448-.065.796.07 1.052.137.26.378.403.678.463.209.041.448.021.7-.037.253-.058.525-.155.803-.274.556-.239 1.146-.568 1.663-.858.298-.167.572-.318.791-.428.581-.29 1.48-.789 2.392-1.308a109.972 109.972 0 003.088-1.828M38.22 7.12c.476.255 1.682 1.168 2.722 2.077.4.35.781.705 1.095 1.03.312.325.563.625.698.865.125.221.255.438.393.665l.003.005c.288.482.606 1.013.828 1.499.11.244.2.48.249.697.048.216.06.42.006.595-.22.72-.772 1.46-1.407 2.127-.917.96-2.046 1.8-2.645 2.172M38.22 7.12l-.047.088.047-.088zm1.942 11.732l-.053-.085.053.085zM37.44 7.856l-.014.099c.11.015.21.046.295.092.41.222 1.532 1.071 2.526 1.941.366.321.71.639.987.922.28.285.485.528.582.699.105.185.253.433.408.691l.01.016c.242.406.504.842.696 1.208.097.186.175.35.224.482.024.065.04.12.048.163a.184.184 0 01.004.076c-.163.529-.613 1.13-1.162 1.707a14.134 14.134 0 01-2.44 2.005c-.54.338-1.813 1.096-3.053 1.804a53.42 53.42 0 01-2.335 1.282c-.218.107-.48.254-.763.412l-.075.042.048.087-.048-.087c-.458.255-.97.541-1.425.752-.227.106-.437.191-.616.244a1.105 1.105 0 01-.36.06v-.004c0-.052.01-.139.038-.273.05-.254.252-.773.539-1.442a118.4 118.4 0 011.016-2.27l.072-.158c.544-1.199 1.088-2.4 1.398-3.225l.495-1.298.021-.054c.344-.892.718-1.863 1.026-2.742.314-.894.563-1.701.64-2.233.02-.15.062-.278.12-.384l.001-.001a.98.98 0 01.463-.428c.196-.086.416-.115.62-.086l.014-.1zm0 0c-.222-.032-.462 0-.675.094l3.547 1.963c-.993-.87-2.122-1.726-2.543-1.953a.971.971 0 00-.329-.104zm-1.023-.685a2.105 2.105 0 011.142-.162l-2.283 1.71a1.94 1.94 0 011.141-1.547zM45.027 17.218c.486-.131 1.036-.24 1.597-.06.574.186 1.093.65 1.498 1.6.373.878.72 2.065.934 3.224.192 1.04.279 2.076.178 2.867l-.1-.013c-.23 1.804-1.356 1.787-2.296 1.773l-1.811-9.391zm0 0c-.28.076-.863.32-1.595.646-.715.319-1.58.718-2.46 1.125l-.078.036-1.77.815A71.712 71.712 0 0034 22.474c-.647.37-1.233.728-1.692 1.045-.23.159-.427.308-.586.444-.157.135-.28.261-.353.374-.354.547-.469 1.042-.237 1.5.209.41.675.683 1.392.86.136.032.383.057.712.076.331.019.752.033 1.24.042.973.02 2.212.021 3.526.014a599.38 599.38 0 007.254-.101l1.383-.022.197.003-1.809-9.491zm1.275.946c.277.089.572.355.85 1.005.342.812.667 1.917.869 3.004.176.954.253 1.875.168 2.544-.063.497-.259.722-.49.83-.243.116-.544.113-.845.108h-.002c-.538 0-1.071.01-1.606.02h-.006c-1.683.031-4.58.084-7.168.102-1.295.009-2.512.009-3.461-.007-.475-.008-.882-.02-1.198-.037a4.39 4.39 0 01-.64-.063l-.024.097.023-.097a2.707 2.707 0 01-.505-.165c-.12-.057-.175-.109-.195-.148-.007-.014-.014-.052.015-.135.028-.08.083-.184.165-.312a1.25 1.25 0 01.248-.24c.128-.103.297-.223.498-.357.403-.267.933-.586 1.527-.925a71.65 71.65 0 015.038-2.59l1.772-.815.088-.04c.86-.398 1.701-.787 2.39-1.095.717-.32 1.26-.548 1.491-.613.358-.097.708-.165.998-.071zM8.185 19.508c-.345.133-.7.413-1.037.805a6.755 6.755 0 00-.947 1.504c-.479 1.014-.866 2.314-1.022 3.77-.132 1.21-.1 2.182.007 2.95.17 1.226.537 1.946.75 2.273.553.845 1.633 1.15 3.035 1.133 1.293-.017 2.92-.302 4.738-.706 1.84-.41 3.935-1.064 5.72-1.757a27.217 27.217 0 002.388-1.048c.679-.344 1.227-.678 1.571-.98.378-.33.567-.65.594-.964.028-.314-.108-.596-.325-.845-.35-.394-.942-.663-1.41-.874a4.595 4.595 0 01-.478-.234l-.002-.001c-.376-.234-2.127-1.079-4.053-1.955-1.52-.692-3.17-1.41-4.367-1.874l-.247-.096-.027-.011c-1.286-.5-2.243-.87-3.003-1.068-.768-.2-1.352-.227-1.885-.022zm0 0l.036.094m-.036-.094l.036.094m0 0c-.648.249-1.366 1.068-1.93 2.258l6.752-1.166c-2.59-1.005-3.814-1.48-4.822-1.092zm-1.066 2.666c-.432.915-.785 2.099-.929 3.432l.93-3.432zm0 0c.232-.492.481-.898.725-1.202.246-.305.48-.498.681-.576.32-.121.75-.088 1.417.104.664.19 1.541.53 2.742.996l.247.097c1.163.451 2.795 1.163 4.313 1.852.948.433 1.847.853 2.552 1.192.706.34 1.211.595 1.378.698.169.106.378.2.604.301l.018.008c.194.09.402.184.588.286.194.105.353.211.443.314.022.025.03.05.018.09-.016.05-.066.127-.185.23-.286.25-.774.547-1.406.863-.63.316-1.398.649-2.24.974-1.746.678-3.784 1.317-5.568 1.713-1.767.394-3.323.667-4.525.682-.545.006-1.005-.04-1.367-.147-.361-.107-.617-.274-.768-.507-.158-.24-.448-.809-.591-1.845m.924-6.123l-.924 6.123m0 0c-.096-.687-.125-1.574-.005-2.69l.005 2.69z"/><path d="M15.201 30.435c.2-.006.627-.074 1.193-.18.562-.105 1.252-.245 1.973-.391.867-.176 1.78-.361 2.578-.506.796-.144 1.485-.25 1.905-.267m-7.649 1.344l-6.685 7.79c-.957-1.178-1.769-2.178-1.769-2.869 0-.503.1-1.013.476-1.528.351-.479.94-.948 1.927-1.4m6.051-1.993c-.542.018-1.59.276-2.717.63l2.717-.63zm7.65-1.344c.334-.015.598.03.798.123.32.15.48.4.51.707.021.228-.044.467-.158.7-.218.443-.649.936-1.025 1.312-.373.371-1.283 1.4-2.24 2.482l-.084.093-.026.03c-1.004 1.135-2.04 2.307-2.55 2.832l-.071-.07.071.07c-.51.525-1.207 1.412-1.855 2.236-.588.747-1.139 1.447-1.497 1.805l-.063.063-.01.01c-.415.415-.896.896-1.437 1.112-.277.11-.572.153-.884.08-.31-.07-.628-.254-.953-.578-.274-.276-.668-.818-1.12-1.444l-.066-.089c-.353-.485-.74-1.017-1.126-1.503l-.614-.758-.015-.02c-.475-.583-.917-1.128-1.242-1.614-.325-.487-.547-.934-.547-1.314 0-.518.103-1.05.496-1.587m15.707-4.678l.005.1-.004-.1zM7.143 33.769l.08.06-.08-.06zm0 0c.364-.497.97-.975 1.966-1.432m0 0l.041.091m-.041-.09c.952-.438 2.226-.91 3.375-1.272L9.15 32.428m-.041-.09l.041.09m.12 5.21l.62.767h.001a45.663 45.663 0 011.219 1.631c.438.604.805 1.108 1.013 1.316l-2.854-3.713zm0 0l-.027-.031c-.42-.517-.804-.99-1.086-1.385a4.765 4.765 0 01-.338-.528c-.08-.153-.116-.265-.116-.338 0-.33.062-.652.29-.963.257-.35.725-.717 1.555-1.098.899-.413 2.128-.869 3.25-1.221a22.912 22.912 0 011.459-.416c.425-.103.765-.164.975-.17.254-.007.724-.081 1.307-.19.582-.107 1.284-.25 2.016-.398l.018-.003.02-.005c.847-.171 1.731-.35 2.5-.491.776-.142 1.427-.244 1.8-.26L9.268 37.64zm3.291 3.945c-.14-.015-.287-.08-.438-.231l10.939-11.21a.991.991 0 01-.007.016c-.15.305-.498.7-.827 1.03-.39.389-1.362 1.49-2.364 2.625l-.152.171c-.953 1.076-1.909 2.153-2.39 2.65-.555.57-1.256 1.46-1.902 2.28l-.03.039c-.57.728-1.096 1.394-1.412 1.71l-.001.001-.062.064c-.289.29-.596.597-.908.754a.81.81 0 01-.446.1zM25.616 30.709c.348-.016.666.092.889.399.107.153.18.338.209.566.06.476-.052 1.236-.214 2.025-.163.792-.383 1.628-.55 2.264v.004a114.647 114.647 0 00-.212.815 1.88 1.88 0 00-.012.053l-.002.011a1.8 1.8 0 01-.04.336c-.026.136-.062.3-.104.488l-.004.017-.011.053c-.173.796-.444 2.043-.463 3.126-.01.55.017 1.151.043 1.727v.007c.027.606.053 1.188.03 1.685-.022.495-.093.925-.271 1.213a8.92 8.92 0 00-.165.293l-.003.006c-.19.347-.406.74-.747 1.041-.349.307-.821.512-1.516.497-.426-.01-1.22-.162-2.114-.427-.896-.265-1.902-.647-2.75-1.126-.585-.33-1.107-.713-1.485-1.147-.379-.435-.617-.926-.625-1.467l10.117-12.46zm0 0c-.262.013-.537.103-.796.224m.796-.224l-.796.224m-7.828 10.19c-.331.772-.447 1.48-.44 2.03.004.294.162.591.444.885.282.292.677.572 1.13.828.772.435 1.683.785 2.494 1.028.813.244 1.517.379 1.875.388.384.008.644-.121.841-.307.202-.19.341-.443.478-.69.061-.113.125-.225.194-.338a.852.852 0 00.088-.308c.02-.145.031-.325.035-.532.006-.406-.015-.907-.038-1.438v-.03a29.3 29.3 0 01-.044-1.788c.022-1.231.316-2.571.495-3.385v-.007c.038-.169.07-.313.092-.42a5.566 5.566 0 00.034-.178c-.001-.09.03-.244.074-.434.046-.196.11-.444.186-.728l-7.938 5.425zm0 0a6.88 6.88 0 011.275-1.941c.76-.82 2.58-2.803 4.125-4.493a157.267 157.267 0 001.991-2.195l-.077-.063.077.064a2 2 0 01.329-.28 3.7 3.7 0 01.553-.33c.157-.072.295-.118.394-.123a.669.669 0 01.008.042c.022.176.009.43-.031.737-.04.306-.105.657-.183 1.025a48.396 48.396 0 01-.513 2.092l-.01.04-7.938 5.426zm-.97-.414c-.392.914-.533 1.777-.523 2.458l.523-2.458zm0 0c.312-.73.785-1.5 1.47-2.24.92-1 2.782-3.025 4.124-4.49a186.831 186.831 0 001.958-2.159l-7.552 8.889zm8.798-9.776a4.563 4.563 0 00-.756.457c-.219.162-.399.322-.49.43l1.246-.887z"/><path d="M26.977 33.81c.181-.519.355-.99.531-1.32.134-.25.287-.453.465-.58a.716.716 0 01.62-.113l.058.015h.004c.235.06.677.173 1.101.55.428.38.827 1.017.993 2.109.127.849.484 2.038.92 3.25.54 1.508 1.2 3.044 1.689 4.005.307.6.573 1.062.797 1.45l.003.005.012.02c.462.801.767 1.33.8 2.006v.005c.021.496.036.848-.197 1.218-.217.34-.599.58-1.284.866-.369.153-1.042.307-1.831.432a23.26 23.26 0 01-2.573.26c-.686.03-1.35.017-1.908-.053-.553-.069-1.02-.197-1.298-.413-.553-.433-.94-.854-1.136-1.42-.192-.552-.183-1.197.017-2.064l2.217-10.228zm0 0c-.22.64-.677 1.992-1.05 3.25-.242.814-.461 1.619-.573 2.217m1.623-5.467l-1.623 5.467m-.258 2.178l-.003.032c-.074.872-.149 1.752-.333 2.551l.336-2.582zm0 0c.063-.74.126-1.478.258-2.178m-.258 2.178l.258-2.178m3.114-6.423c.156.043.382.123.602.33.257.242.517.669.635 1.445.137.917.517 2.177.972 3.447.56 1.556 1.238 3.136 1.739 4.127.308.607.592 1.098.83 1.506.204.355.367.637.482.887.115.248.178.457.188.662.007.17.013.302.009.406-.005.107-.02.167-.042.2-.032.051-.098.112-.23.189a4.96 4.96 0 01-.57.268c-.308.128-.91.265-1.644.379a22.3 22.3 0 01-2.396.235c-.594.025-1.152.023-1.6-.017a3.83 3.83 0 01-.577-.088.928.928 0 01-.337-.14c-.42-.326-.676-.604-.792-.933-.118-.34-.109-.792.052-1.483.205-.893.285-1.826.36-2.732.06-.729.12-1.439.24-2.071.103-.546.312-1.315.549-2.11a82.694 82.694 0 011.036-3.207c.162-.475.317-.886.465-1.169l-.088-.046.117-.085zM36.224 33.21c.296.196 1.44.832 2.64 1.496l.1.055c.68.379 1.37.763 1.931 1.08.584.332 1.036.597 1.186.71.324.242.841.771 1.175 1.342l-7.032-4.683zm0 0a39.362 39.362 0 00-3.153-1.78m3.153 1.78l-3.153-1.78m8.65 11.447c-.667.667-1.36 1.271-2.006 1.711-.602.412-1.184.69-1.693.74-.49.052-.987-.175-1.422-.487-.619-.446-1.17-1.101-1.389-1.398-.108-.149-.387-.64-.743-1.306a69.36 69.36 0 01-1.22-2.404l.09-.044 8.384 3.188zm0 0a6.747 6.747 0 001.375-1.969c.285-.623.422-1.18.503-1.596m-1.877 3.565l1.877-3.565m-11.405-4.903l.048.125c.197.516.4 1.044.574 1.549l-.622-1.674zm0 0a47.465 47.465 0 01-.596-1.61 6.515 6.515 0 01-.271-.977c.31.096.768.3 1.278.554a36.672 36.672 0 013.043 1.72c.333.215 1.498.863 2.702 1.532l.228.127c.629.349 1.256.698 1.767.986.577.326.996.57 1.105.651.237.18.637.59.898 1.035.079.134.142.265.18.385.039.12.05.223.035.303a5.622 5.622 0 01-1.59 3.014c-.63.633-1.274 1.194-1.854 1.588m-6.925-9.308l6.925 9.308m0 0c-.485.33-.9.532-1.204.564a.646.646 0 01-.31-.069 2.244 2.244 0 01-.39-.23c-.506-.361-.968-.91-1.153-1.163m3.057.898l-3.057-.898m0 0c-.09-.122-.347-.576-.69-1.221a72.245 72.245 0 01-1.175-2.322c-.55-1.143-1.08-2.328-1.38-3.193l3.245 6.736zM33.07 31.43c-.4-.198-.788-.374-1.13-.503m1.13.504l-1.13-.504m0 0c-.337-.127-.638-.21-.863-.217m.864.217l-.864-.217m0 0c-.264-.01-.472.063-.614.222-.14.156-.2.38-.207.641l.1.003c-.021.648.442 1.857.936 3.144l.012.03.067.175-.294-4.215zm0 0l-.003.1.003-.1zm12.52 8.603c.092-.468-.081-.973-.342-1.419l.343 1.419zM34.326 30.798c.644.395 1.519.646 2.432.905l.016.005c.81.233 1.65.474 2.404.84l-4.852-1.75zm0 0c-.495-.301-1.168-.814-1.59-1.366-.197-.256-.324-.502-.347-.711-.016-.16.035-.32.203-.475.185-.171.495-.337.967-.483.04-.012.128-.025.265-.035.133-.01.304-.019.503-.025.4-.012.909-.017 1.453-.015.819.003 1.708.021 2.43.044.725.023 1.272.051 1.414.073.08.012.246.019.467.023.224.003.513.004.842.003.61-.002 1.365-.011 2.12-.02l.18-.002.089-.002c.742-.009 1.468-.018 2.025-.022a52.516 52.516 0 01.918.002c.026 0 .045.002.06.003l.015.001.102.024h.002c.178.04.576.127.845.569.27.444.425 1.274.034 2.838-.364 1.456-.89 2.432-1.44 3.08-.774.917-1.58 1.166-2.016 1.184-.071.003-.188-.03-.35-.106a5.326 5.326 0 01-.563-.318 32.191 32.191 0 01-1.453-1.006m-7.175-3.258l7.175 3.258m0 0l-.025-.018m.026.018l-.026-.018m-5.007-1.318c-.96-.275-1.916-.549-2.692-1.021-.571-.35-1.363-.954-1.879-1.628-.294-.383-.51-.806-.557-1.24-.054-.488.098-.957.537-1.36.305-.282.753-.525 1.373-.714l.03.096m3.188 5.867l-2.267-6.062c-.222.01-.419.022-.579.038a2.08 2.08 0 00-.372.061l.03.096m3.188 5.867c.783.223 1.572.448 2.247.777.599.291 1.37.845 2.14 1.395l.03.023-4.417-2.195zm-3.188-5.867c-.612.186-1.045.423-1.335.691m1.335-.691l-1.335.691m0 0c-.416.382-.556.82-.505 1.277.043.408.249.815.536 1.19l-.031-2.467zm9.53 6.494c-.792-.568-1.614-1.157-2.298-1.49l2.298 1.49zm-3.187-7.356a89.101 89.101 0 00-2.508-.045l8.126 9.802.004.1c.656-.028 1.776-.369 2.778-1.553.647-.766 1.253-1.888 1.657-3.51.505-2.017.245-3.165-.238-3.825-.48-.658-1.162-.806-1.438-.866l-.002-.001-.068-.015h-.003a3.39 3.39 0 00-.432-.028 31.578 31.578 0 00-.777-.006c-.6 0-1.358.01-2.126.02h-.04l-.21.003c-.726.009-1.446.017-2.025.02-.318.002-.593.002-.803 0a4.268 4.268 0 01-.401-.017c-.167-.025-.75-.055-1.494-.079z"/><path d="M3.403 28.371l-.1.01c.103 1.055.411 3.372 1.426 6.159 1.016 2.79 2.745 6.059 5.685 9.009.273.275.567.52.873.745.306.22.626.42.95.606l1.366.77v.001h.002c2.408 1.37 4.23 2.406 6.407 3.08 2.18.675 4.71.985 8.539.915 4.41-.082 7.268-.739 9.616-2.019 2.344-1.276 4.132-3.145 6.43-5.644 1.965-2.138 3.075-3.86 3.756-5.378.68-1.516.93-2.825 1.18-4.13l.002-.006.039-.201c.079-.404.157-.807.25-1.208.376-1.631.718-4.066.924-6.39.19-2.189.262-4.305.123-5.583-.15-1.386-1-2.973-2.182-4.633-1.16-1.633-2.645-3.348-4.124-5.028-2.653-3.008-6.796-5.025-8.786-5.993l-.7-.345c-.418-.214-1.053-.359-1.792-.457-.742-.098-1.6-.15-2.47-.173M3.403 28.37L26.332 2.633l-.004-.1c1.023-.04 2.786-.101 4.489-.055M3.403 28.37l-.1.01c-.155-1.614.09-4.3.514-6.998.472-3 1.167-6.055 1.79-7.706L3.403 28.37zM30.817 2.478l-.003.1.003-.1zm-18.91 40.96c.27.196.555.375.847.54l1.369.777c2.345 1.333 4.099 2.329 6.19 2.977 2.09.647 4.521.948 8.222.88 4.237-.077 6.942-.697 9.127-1.89 2.19-1.193 3.911-2.99 6.157-5.434 1.872-2.036 2.922-3.665 3.564-5.092.642-1.427.878-2.657 1.116-3.905.09-.471.182-.947.296-1.447.364-1.575.7-3.956.9-6.244.188-2.146.258-4.186.126-5.381-.125-1.165-.89-2.587-1.992-4.136l.082-.058-.082.058c-1.12-1.577-2.587-3.27-4.057-4.939L11.907 43.438zm0 0a6.18 6.18 0 01-.747-.633c-2.811-2.823-4.465-5.95-5.44-8.624a24.446 24.446 0 01-1.369-5.9c-.146-1.514.094-4.1.507-6.737.462-2.942 1.14-5.913 1.734-7.497m5.315 29.391L6.592 14.047m0 0c.163-.434.527-1.018 1.15-1.709m-1.15 1.709l1.15-1.709m0 0c.537-.592 1.258-1.255 2.199-1.96.898-.67 2.32-1.441 3.86-2.176a63.72 63.72 0 015.71-2.375L7.741 12.338zm11.416-7.504l.034.094-.034-.094zm15.44-.79v.001l.046-.09-.046.09z"/><path d="M10.823 6.308a40.18 40.18 0 015.388-3.086c2.136-1.001 3.82-1.51 4.816-1.681 5.124-.88 7.022-.676 9.336-.426l.024.002c1 .108 2.075.225 3.524.26 4.503.11 6.855 2.132 9.621 4.51l.012.01 1.012.865-.064.076c1.806 1.518 4.055 3.762 5.776 5.97l-39.445-6.5zm0 0c-2.325 1.57-4.192 2.985-5.67 4.562-1.494 1.596-2.578 3.347-3.32 5.576-.786 2.36-1.117 5.984-.832 9.822.253 3.364.98 6.915 2.298 9.955l.002.005.005.008c.07.156 1.87 4 5.672 7.839 3.867 3.903 9.813 7.806 18.122 7.806 6.42 0 11.465-2.146 15.307-5.045M10.823 6.308l31.584 40.528m0 0c6.087-4.595 9.153-11.102 9.885-13.98.541-2.126.856-4.841.985-7.449l-10.87 21.43zM5.923 11.59a13.63 13.63 0 00-3.09 5.188c-.741 2.224-1.056 5.694-.779 9.41.244 3.263.943 6.692 2.207 9.604l.005.011.016.034.062.128c.055.112.138.275.248.481.221.414.554 1.003 1.002 1.71a31.217 31.217 0 004.118 5.168c3.717 3.754 9.42 7.498 17.388 7.498 6.159 0 10.993-2.051 14.672-4.83 5.86-4.42 8.8-10.66 9.497-13.397.525-2.056.829-4.696.957-7.237.15-3.024.053-5.89-.219-7.46v-.001c-.102-.6-.396-1.307-.832-2.076-.434-.767-1.006-1.592-1.658-2.427-1.683-2.153-3.878-4.346-5.638-5.827-.414-.348-.722-.612-1.022-.871-2.645-2.275-4.847-4.164-8.97-4.267l.003-.1c-1.51-.036-2.604-.154-3.614-.262L5.923 11.59zm0 0c1.401-1.498 3.212-2.866 5.49-4.406m-5.49 4.406l5.49-4.406m0 0c1.943-1.31 3.718-2.291 5.244-3.007m-5.243 3.007l5.243-3.007m0 0c2.045-.958 3.63-1.437 4.546-1.595l-4.546 1.595z"/></svg>