<?xml version="1.0" encoding="utf-8"?><svg viewBox="0 0 112 112" xmlns="http://www.w3.org/2000/svg" width="112" height="112"><path d="M112 23.19C112 10.403 99.44 0 84 0 65.49 0 51.744 14.806 57.195 29.867H29.867A18.687 18.687 0 0011.508 45.24c-1.387-.587-2.272-.44-5.908-.44A5.6 5.6 0 000 50.4v39.2a11.211 11.211 0 009.333 11.032v5.768a5.6 5.6 0 005.6 5.6H22.4a5.6 5.6 0 005.6-5.6v-5.6h56v5.6a5.6 5.6 0 005.6 5.6h7.467a5.6 5.6 0 005.6-5.6v-5.768A11.21 11.21 0 00112 89.6V50.4a5.6 5.6 0 00-5.6-5.6c-3.453 0-4.515-.151-5.915.442a18.774 18.774 0 00-.747-2.887C107.134 38.175 112 31.145 112 23.19zM84 3.733c13.38 0 24.267 8.729 24.267 19.457 0 10.727-10.887 19.456-24.267 19.456-4.973 0-6.09-1.085-7.295-.437l-12.073 6.47 2.381-10.28a1.867 1.867 0 00-.612-1.842C51.746 24.128 62.881 3.733 84 3.733zM54.133 85.867H16.8A1.867 1.867 0 0114.933 84v-3.733a5.6 5.6 0 015.6-5.6h28a5.6 5.6 0 015.6 5.6v5.6zM24.267 106.4a1.867 1.867 0 01-1.867 1.867h-7.467a1.867 1.867 0 01-1.866-1.867v-5.6h11.2v5.6zm74.666 0a1.867 1.867 0 01-1.866 1.867H89.6a1.867 1.867 0 01-1.867-1.867v-5.6h11.2v5.6zm3.734-57.867h3.733c1.031 0 1.867.836 1.867 1.867v39.2a7.467 7.467 0 01-7.467 7.467H11.2A7.467 7.467 0 013.733 89.6V50.4c0-1.03.836-1.867 1.867-1.867h3.733c1.031 0 1.867.836 1.867 1.867V84a5.6 5.6 0 005.6 5.6h78.4a5.6 5.6 0 005.6-5.6V50.4c0-1.03.836-1.867 1.867-1.867zm-44.8 37.334v-5.6a5.6 5.6 0 015.6-5.6h28a5.6 5.6 0 015.6 5.6V84c0 1.03-.836 1.867-1.867 1.867H57.867zm39.2-13.019a9.237 9.237 0 00-5.6-1.915h-28A9.333 9.333 0 0056 74.667a9.333 9.333 0 00-7.467-3.734h-28a9.237 9.237 0 00-5.6 1.915V48.534c.01-8.243 6.69-14.924 14.934-14.933h29.12a23.57 23.57 0 004.134 5.04l-3.048 13.207a1.866 1.866 0 001.815 2.286c.658 0-.518.529 15.993-8.32a32.934 32.934 0 0018.467-1.842c.986 3.095.719 2.412.719 28.878z"/><path d="M84 29.867a5.6 5.6 0 100-11.2 5.6 5.6 0 000 11.2zm0-7.467a1.867 1.867 0 110 3.733 1.867 1.867 0 010-3.733zM69.067 29.867a5.6 5.6 0 100-11.2 5.6 5.6 0 000 11.2zm0-7.467a1.867 1.867 0 110 3.733 1.867 1.867 0 010-3.733zM98.933 29.867a5.6 5.6 0 100-11.2 5.6 5.6 0 000 11.2zm0-7.467a1.867 1.867 0 110 3.733 1.867 1.867 0 010-3.733z"/></svg>