<?xml version="1.0" encoding="utf-8"?><svg viewBox="0 0 112 102" xmlns="http://www.w3.org/2000/svg" width="112" height="102"><path d="M29.227 67.683a9.15 9.15 0 00-5.65-1.961 9.056 9.056 0 00-7.09 3.384 8.917 8.917 0 00-1.93 6.632 8.94 8.94 0 003.37 6.05 9.146 9.146 0 005.648 1.963 9.05 9.05 0 007.092-3.389 8.908 8.908 0 001.928-6.625 8.944 8.944 0 00-3.368-6.054zm-1.782 10.088a4.935 4.935 0 01-3.87 1.845 4.927 4.927 0 01-3.084-1.07 4.837 4.837 0 01-1.825-3.272 4.81 4.81 0 011.041-3.576 4.94 4.94 0 013.87-1.841c1.133 0 2.2.37 3.086 1.07a4.835 4.835 0 011.823 3.273 4.8 4.8 0 01-1.041 3.571zM65.583 46.508a9.046 9.046 0 003.922-.89 8.972 8.972 0 004.636-5.166 8.9 8.9 0 00-.4-6.873c-1.504-3.099-4.715-5.102-8.18-5.102a9.05 9.05 0 00-3.928.892 8.961 8.961 0 00-4.637 5.163 8.892 8.892 0 00.4 6.875c1.509 3.099 4.722 5.101 8.187 5.101zm-4.684-10.611a4.857 4.857 0 012.514-2.796 4.953 4.953 0 012.148-.489c1.892 0 3.642 1.088 4.46 2.773a4.795 4.795 0 01.216 3.703 4.866 4.866 0 01-2.513 2.799 4.937 4.937 0 01-2.142.486c-1.893 0-3.647-1.09-4.468-2.775a4.79 4.79 0 01-.215-3.701zM43.084 31.897c.665.15 1.345.227 2.022.227 4.257 0 7.893-2.88 8.844-7.005a8.921 8.921 0 00-1.157-6.782 9.015 9.015 0 00-5.677-4.012 9.189 9.189 0 00-2.03-.229c-4.254 0-7.887 2.882-8.835 7.007a8.9 8.9 0 001.15 6.782 9.002 9.002 0 005.683 4.012zm-2.803-9.866c.514-2.237 2.49-3.8 4.804-3.8.372 0 .747.043 1.116.127a4.908 4.908 0 013.093 2.182 4.807 4.807 0 01.625 3.654c-.506 2.199-2.53 3.795-4.813 3.795-.37 0-.745-.043-1.113-.126a4.896 4.896 0 01-3.092-2.18 4.795 4.795 0 01-.62-3.652zM26.655 37.055A8.954 8.954 0 0030.02 31a8.916 8.916 0 00-1.927-6.628 9.071 9.071 0 00-7.097-3.383c-2.04 0-4.044.695-5.645 1.958a8.932 8.932 0 00-3.367 6.045 8.924 8.924 0 001.93 6.638 9.065 9.065 0 007.098 3.387 9.124 9.124 0 005.643-1.962zm-9.519-4.017a4.816 4.816 0 01-1.043-3.582 4.827 4.827 0 011.82-3.264 4.932 4.932 0 013.084-1.069c1.519 0 2.932.672 3.875 1.84a4.811 4.811 0 011.039 3.574 4.846 4.846 0 01-1.824 3.277 4.905 4.905 0 01-3.075 1.068 4.946 4.946 0 01-3.876-1.844z"/><path d="M111.209 16.824c-.357-.36-.995-.79-2-.79-1.18 0-4.313 0-23.342 16.192l-1.156.987c-3.4-8.869-9.373-16.776-17.07-22.495C58.815 4.16 48.305.692 37.249.689h-.008c-7.462 0-16.532 2.607-23.671 6.805C4.817 12.64-.002 19.521 0 26.87c.003 8.873 5.007 12.584 9.027 15.565 3.28 2.432 5.869 4.352 5.87 8.56.001 4.209-2.587 6.127-5.864 8.557C5.013 62.53.011 66.24.013 75.113c.003 7.347 4.825 14.23 13.579 19.38 7.145 4.203 16.22 6.816 23.682 6.818h.015c13.543 0 26.275-5.228 35.85-14.72 9.454-9.372 14.712-21.793 14.85-35.03 3.21-3.653 6.32-7.284 9.159-10.705 4.857-5.853 8.592-10.683 11.101-14.354 3.323-4.863 4.779-7.845 2.96-9.678zm-40.98 66.83c-8.797 8.72-20.494 13.522-32.94 13.522h-.013c-13.338-.004-33.124-9.27-33.128-22.065-.002-6.79 3.568-9.437 7.348-12.239 3.532-2.62 7.537-5.588 7.536-11.879-.003-6.29-4.008-9.26-7.542-11.88-3.781-2.805-7.353-5.453-7.355-12.245-.002-7.856 7.223-13.277 11.53-15.81 6.443-3.787 14.911-6.234 21.576-6.234h.007c10.162.003 19.819 3.189 27.927 9.213 7.478 5.556 13.186 13.355 16.193 22.069-8.968 7.83-18.678 16.858-25.91 24.113-12.012 1.555-13.648 9.56-14.845 15.44-1.018 5.008-1.68 7.43-5.544 7.74a2.067 2.067 0 00-.626 3.97c.249.103 6.16 2.518 13.067 2.519h.002c4.813 0 8.942-1.167 12.271-3.468 4.102-2.835 6.884-7.33 8.282-13.358 4.725-4.78 10.124-10.545 15.463-16.483-1.229 10.223-5.842 19.682-13.3 27.075zM63.91 72.671c-2.19 8.682-7.703 13.082-16.4 13.082h-.001c-2.293 0-4.49-.313-6.336-.703 2.206-2.249 2.895-5.633 3.49-8.565 1.137-5.585 2.211-10.87 11-12.126l8.247 8.312zm28.55-32.652c-8.195 9.764-18.116 20.73-26.282 29.066l-1.264-1.274-5.579-5.623c7.405-7.37 16.903-16.158 25.765-23.85 1.033-.896 2.06-1.781 3.071-2.644 10.285-8.771 15.675-12.588 18.424-14.25-1.642 2.766-5.424 8.197-14.135 18.575z"/></svg>