<?xml version="1.0" encoding="utf-8"?><svg viewBox="0 0 120 128" xmlns="http://www.w3.org/2000/svg" width="120" height="128"><path d="M60 32.93a2.042 2.042 0 002.043-2.042V2.043a2.042 2.042 0 10-4.085 0v28.845c0 1.129.914 2.043 2.042 2.043zM68.181 32.93a2.042 2.042 0 002.043-2.042V2.043a2.042 2.042 0 10-4.086 0v28.845c0 1.129.915 2.043 2.043 2.043z"/><path d="M53.861 37.542V7.976a2.042 2.042 0 10-4.085 0v31.456c0 1.128.914 2.043 2.042 2.043 5.288 0 9.59 4.302 9.59 9.59a2.042 2.042 0 104.085 0c0-6.846-5.057-12.534-11.632-13.523zM76.362 8.9a2.042 2.042 0 00-2.043 2.043v34.22c0 5.096-2.743 9.85-7.16 12.405a2.043 2.043 0 102.046 3.536c.163-.095.325-.192.485-.292v65.145a2.043 2.043 0 104.085 0v-68.6a18.459 18.459 0 004.63-12.194v-34.22a2.042 2.042 0 00-2.043-2.042zM52.84 57.568a14.375 14.375 0 01-7.16-12.405V22.884a2.042 2.042 0 10-4.085 0v22.279c0 6.148 3.106 11.907 8.18 15.305v65.489a2.043 2.043 0 104.085 0V59.336c0-.73-.388-1.403-1.02-1.768zM19.094 66.302a2.043 2.043 0 002.042-2.043V35.414a2.042 2.042 0 10-4.085 0v28.845c0 1.128.915 2.043 2.043 2.043zM27.275 66.302a2.042 2.042 0 002.043-2.043V35.414a2.042 2.042 0 10-4.086 0v28.845c0 1.128.915 2.043 2.043 2.043z"/><path d="M12.956 70.913V41.347a2.042 2.042 0 10-4.086 0v31.456c0 1.128.915 2.043 2.043 2.043 5.288 0 9.59 4.302 9.59 9.59a2.042 2.042 0 104.085 0c0-6.846-5.058-12.534-11.633-13.523zM35.456 42.272a2.042 2.042 0 00-2.042 2.042v34.22c0 5.096-2.744 9.85-7.16 12.404a2.043 2.043 0 102.045 3.537c.164-.095.325-.193.485-.292v31.774a2.043 2.043 0 104.085 0V90.729a18.459 18.459 0 004.63-12.195v-34.22a2.043 2.043 0 00-2.043-2.042zM11.935 90.939a14.376 14.376 0 01-7.16-12.405V56.255a2.042 2.042 0 10-4.086 0v22.279c0 6.148 3.106 11.907 8.18 15.305v32.118a2.043 2.043 0 104.086 0v-33.25c0-.73-.389-1.403-1.02-1.768zM100.906 49.961a2.042 2.042 0 002.042-2.042V19.073a2.042 2.042 0 10-4.085 0V47.92c0 1.128.915 2.042 2.043 2.042zM92.725 17.03a2.042 2.042 0 00-2.043 2.043V47.92a2.042 2.042 0 104.085 0V19.073a2.042 2.042 0 00-2.042-2.043z"/><path d="M111.129 56.463V25.007a2.042 2.042 0 10-4.085 0v29.566c-6.575.989-11.632 6.677-11.632 13.523a2.042 2.042 0 104.085 0c0-5.288 4.302-9.59 9.59-9.59a2.043 2.043 0 002.042-2.043zM93.747 74.598a14.376 14.376 0 01-7.16-12.404v-34.22a2.042 2.042 0 10-4.086 0v34.22c0 4.542 1.697 8.872 4.63 12.194v51.569a2.043 2.043 0 104.085 0V77.843c.16.099.321.196.485.291a2.042 2.042 0 102.046-3.536zM117.268 37.872a2.042 2.042 0 00-2.043 2.043v22.278c0 5.097-2.744 9.85-7.16 12.405a2.043 2.043 0 00-1.02 1.768v49.591a2.043 2.043 0 104.085 0V77.498c5.074-3.398 8.18-9.157 8.18-15.305V39.915a2.042 2.042 0 00-2.042-2.043z"/></svg>