<?xml version="1.0" encoding="utf-8"?><svg width="46" height="43" xmlns="http://www.w3.org/2000/svg" viewBox="0 0 46 43"><path d="M45.999 29.702l.001-.03v-.006a.633.633 0 00-.003-.047l-.002-.023-.006-.041-.006-.03-.009-.03-.011-.038-.01-.024a.622.622 0 00-.017-.042l-.003-.006-7.881-16.209v-2.124h.05c.849 0 1.54-.646 1.54-1.44v-.11c0-.71-.545-1.308-1.295-1.421L25.335 6.118V4.871a2.809 2.809 0 00.795-1.946C26.13 1.312 24.726 0 23 0s-3.13 1.312-3.13 2.925c0 .747.301 1.428.795 1.946v1.18L7.645 8.078c-.745.116-1.286.713-1.286 1.42v.113c0 .794.69 1.44 1.54 1.44h.05v2.124L.066 29.384l-.003.007a.704.704 0 00-.018.042l-.009.024a.577.577 0 00-.011.037l-.009.032-.005.029c-.003.014-.006.027-.007.04l-.002.024a.69.69 0 00-.003.047v.007l.001.029.001.023c.047 2.865 3.846 5.102 8.691 5.102 4.845 0 8.645-2.236 8.691-5.101l.002-.024v-.03-.006a.633.633 0 00-.002-.047l-.002-.023-.007-.041-.005-.03-.01-.03-.01-.038-.01-.024a.678.678 0 00-.017-.042l-.003-.006-7.881-16.209v-2.124h11.226v15.133c-.473.246-.794.718-.794 1.259v10.261l-4.72 1.379c-.98.286-1.639 1.123-1.639 2.083v1.136c0 .385.333.697.745.697h17.486c.412 0 .745-.312.745-.697v-1.136c0-.96-.658-1.797-1.638-2.083l-4.72-1.379V27.444c0-.541-.322-1.013-.795-1.259V11.052h11.227v2.124L28.68 29.385l-.003.006a.74.74 0 00-.017.042l-.01.024a.518.518 0 00-.01.037l-.01.032-.005.029-.007.04-.002.024a.685.685 0 00-.002.047V29.702c0 .008 0 .016.002.023.046 2.865 3.846 5.102 8.69 5.102 4.846 0 8.645-2.236 8.692-5.101v-.024zM8.693 15.01l6.791 13.966H1.902l6.791-13.965zm0 18.424c-3.45 0-6.427-1.345-7.073-3.065h14.147c-.646 1.72-3.623 3.065-7.074 3.065zm15.946-5.99V37.52h-3.278V27.444c0-.026.022-.047.05-.047h3.179c.027 0 .05.021.05.047zm-2.483-1.44V5.742a3.322 3.322 0 001.689 0v20.262h-1.69zM23 1.394c.904 0 1.64.687 1.64 1.531 0 .845-.736 1.533-1.64 1.533-.904 0-1.64-.688-1.64-1.533 0-.844.736-1.532 1.64-1.532zM7.9 9.658c-.028 0-.05-.021-.05-.047V9.5c0-.023.017-.042.041-.046l12.775-1.99v2.196H7.9zm23.099 31.508v.44H15.002v-.44c0-.347.238-.65.593-.754l5.134-1.5h4.542l5.134 1.5c.355.104.593.407.593.754zM25.335 7.529l12.774 1.927a.047.047 0 01.042.046v.11c0 .026-.022.047-.05.047H25.336v-2.13zm11.972 7.482l6.79 13.965H30.517l6.79-13.965zm0 18.423c-3.45 0-6.428-1.345-7.074-3.065H44.38c-.646 1.72-3.623 3.065-7.073 3.065z"/></svg>