<?xml version="1.0" encoding="utf-8"?><svg width="40" height="40" fill="none" xmlns="http://www.w3.org/2000/svg" viewBox="0 0 40 40"><rect width="40" height="40" rx="20" fill="#fff"/><path d="M24.48 10h-8.96A5.526 5.526 0 0010 15.519v8.961A5.525 5.525 0 0015.52 30h8.96A5.526 5.526 0 0030 24.48V15.52a5.526 5.526 0 00-5.52-5.52zm3.746 14.48a3.75 3.75 0 01-3.745 3.745h-8.962a3.749 3.749 0 01-3.745-3.745V15.52a3.749 3.749 0 013.745-3.745h8.962a3.75 3.75 0 013.744 3.745v8.961z" fill="#008AC4"/><path d="M20 15c-2.757 0-5 2.243-5 5s2.243 5 5 5 5-2.243 5-5-2.243-5-5-5zm0 8.278A3.282 3.282 0 0116.722 20 3.282 3.282 0 0120 16.72 3.282 3.282 0 0123.278 20 3.282 3.282 0 0120 23.278z" fill="#008AC4"/><path d="M25 13.333c-.437 0-.867.177-1.177.488-.31.309-.489.74-.489 1.179 0 .438.179.868.49 1.178.308.31.739.488 1.177.488.439 0 .868-.178 1.178-.488.311-.31.488-.74.488-1.178 0-.44-.177-.87-.488-1.18-.309-.31-.739-.487-1.178-.487z" fill="#008AC4"/></svg>