<?xml version="1.0" encoding="utf-8"?><svg width="24" height="24" fill="none" xmlns="http://www.w3.org/2000/svg" viewBox="0 0 24 24"><rect width="24" height="24" rx="12" fill="#E1306C"/><rect width="24" height="24" rx="12" fill="#E1306C"/><path d="M14.688 6H9.311A3.315 3.315 0 006 9.312v5.376A3.315 3.315 0 009.312 18h5.376A3.315 3.315 0 0018 14.688V9.312A3.315 3.315 0 0014.688 6zm2.247 8.688a2.25 2.25 0 01-2.247 2.247H9.311a2.25 2.25 0 01-2.246-2.247V9.312a2.25 2.25 0 012.247-2.247h5.376a2.25 2.25 0 012.247 2.247v5.376z" fill="#fff"/><path d="M12 9c-1.654 0-3 1.346-3 3s1.346 3 3 3 3-1.346 3-3-1.346-3-3-3zm0 4.967A1.97 1.97 0 0110.033 12 1.97 1.97 0 0112 10.033 1.97 1.97 0 0113.967 12 1.97 1.97 0 0112 13.967z" fill="#fff"/><path d="M15 8a1.004 1.004 0 00-1 1c0 .263.107.52.294.707.185.186.443.293.706.293.264 0 .52-.107.707-.293.187-.186.293-.444.293-.707 0-.264-.106-.522-.293-.707A1.004 1.004 0 0015 8z" fill="#fff"/><defs><linearGradient id="qpaint0_linear" x1="1.5" y1="24" x2="22.5" y2="0" gradientUnits="userSpaceOnUse"><stop offset=".144" stop-color="#FE833E"/><stop offset=".505" stop-color="#E3407D"/><stop offset=".851" stop-color="#6934C4"/></linearGradient></defs></svg>