<?xml version="1.0" encoding="utf-8"?><svg width="23" height="29" fill="none" xmlns="http://www.w3.org/2000/svg" viewBox="0 0 23 29"><path d="M18.375 6.25h-2.75V3.5h2.75a1.375 1.375 0 000-2.75h-11A6.875 6.875 0 00.5 7.625v19.25a1.375 1.375 0 002.75 0V7.625A4.125 4.125 0 017.375 3.5h5.5v2.75h-2.75A4.125 4.125 0 006 10.375v6.779a4.125 4.125 0 001.843 3.437l2.282 1.526v.633a2.75 2.75 0 002.75 2.75v1.375a1.375 1.375 0 002.75 0V25.5a2.75 2.75 0 002.75-2.75v-.633l2.282-1.526a4.126 4.126 0 001.843-3.437v-6.779a4.125 4.125 0 00-4.125-4.125zM17 13.125h2.75V14.5h-1.375a1.375 1.375 0 000 2.75h1.375a1.375 1.375 0 01-.605 1.045l-2.887 1.939a1.375 1.375 0 00-.633 1.141v1.375h-2.75v-1.375a1.376 1.376 0 00-.619-1.141L9.37 18.295a1.375 1.375 0 01-.619-1.141v-6.779A1.375 1.375 0 0110.125 9h8.25a1.375 1.375 0 011.375 1.375H17a1.375 1.375 0 000 2.75z" fill="#FA873D"/></svg>