<?xml version="1.0" encoding="utf-8"?><svg width="34" height="33" fill="none" xmlns="http://www.w3.org/2000/svg" viewBox="0 0 34 33"><path d="M15.935 0L.001 7.646v3.977h33V7.624L15.936 0zm14.867 9.43H2.2v-.407l13.766-6.605 14.835 6.627v.386zM2.2 26.97h28.6v2.193H2.2v-2.192zM0 30.808h33V33H0v-2.192zM2.75 13.816h2.2v10.962h-2.2V13.816zM28.05 13.816h2.2v10.962h-2.2V13.816zM21.45 13.816h2.2v10.962h-2.2V13.816zM9.35 13.816h2.2v10.962h-2.2V13.816zM15.4 13.816h2.2v10.962h-2.2V13.816z" fill="#FA873D"/></svg>