<?xml version="1.0" encoding="utf-8"?><svg width="33" height="33" fill="none" xmlns="http://www.w3.org/2000/svg" viewBox="0 0 33 33"><path d="M26.125 9.625H22V8.25a5.5 5.5 0 00-11 0v1.375H6.875A1.375 1.375 0 005.5 11v15.125a4.125 4.125 0 004.125 4.125h13.75a4.125 4.125 0 004.125-4.125V11a1.375 1.375 0 00-1.375-1.375zM13.75 8.25a2.75 2.75 0 115.5 0v1.375h-5.5V8.25zm11 17.875a1.375 1.375 0 01-1.375 1.375H9.625a1.375 1.375 0 01-1.375-1.375v-13.75H11v1.375a1.375 1.375 0 002.75 0v-1.375h5.5v1.375a1.375 1.375 0 002.75 0v-1.375h2.75v13.75z" fill="#FA873D"/></svg>