<?xml version="1.0" encoding="utf-8"?><svg width="40" height="40" fill="none" xmlns="http://www.w3.org/2000/svg" viewBox="0 0 40 40"><rect width="40" height="40" rx="20" fill="#fff"/><path d="M31.542 25.375a1.6 1.6 0 00-.08-.152c-.404-.73-1.178-1.627-2.32-2.69l-.024-.024-.012-.012-.012-.012h-.013c-.518-.495-.846-.828-.983-.998-.252-.324-.308-.653-.17-.986.096-.251.461-.782 1.093-1.594.332-.43.595-.774.79-1.034 1.4-1.866 2.008-3.058 1.822-3.577l-.073-.121c-.048-.073-.174-.14-.376-.201-.203-.06-.462-.07-.778-.03l-3.499.024a.454.454 0 00-.243.006l-.158.037-.06.03-.049.037a.54.54 0 00-.134.127.836.836 0 00-.12.213c-.382.982-.815 1.894-1.3 2.738-.3.503-.576.939-.827 1.308-.251.369-.462.64-.632.815a4.42 4.42 0 01-.462.42c-.137.105-.242.15-.315.134a8.775 8.775 0 01-.207-.05.808.808 0 01-.273-.297 1.337 1.337 0 01-.14-.475 5.234 5.234 0 01-.042-.493c-.004-.137-.003-.332.006-.584.008-.251.012-.422.012-.51 0-.309.006-.644.018-1.005l.03-.857c.009-.211.012-.434.012-.67 0-.235-.014-.42-.042-.553a1.901 1.901 0 00-.127-.39.656.656 0 00-.25-.292 1.402 1.402 0 00-.406-.164c-.43-.097-.976-.15-1.64-.158-1.507-.016-2.475.081-2.904.292-.17.09-.324.211-.462.365-.145.178-.166.276-.06.292.485.073.83.247 1.032.523l.073.146c.057.106.114.292.17.56.057.268.093.564.11.888.04.592.04 1.1 0 1.521-.041.422-.08.75-.116.986a1.98 1.98 0 01-.164.571 2.423 2.423 0 01-.146.268.21.21 0 01-.06.06.907.907 0 01-.328.062c-.114 0-.252-.057-.414-.17a2.92 2.92 0 01-.504-.47 6.27 6.27 0 01-.589-.833 14.552 14.552 0 01-.68-1.265l-.195-.353a30.403 30.403 0 01-.498-.991c-.21-.435-.397-.854-.559-1.26a.801.801 0 00-.291-.39l-.06-.036a.832.832 0 00-.195-.103 1.292 1.292 0 00-.28-.08l-3.328.025c-.34 0-.571.077-.693.231l-.048.073a.394.394 0 00-.037.195c0 .09.024.199.073.328a40.189 40.189 0 001.585 3.31c.571 1.063 1.067 1.919 1.488 2.567.422.65.85 1.262 1.288 1.837.438.576.727.945.869 1.108.142.162.253.284.334.365l.304.292c.194.194.48.428.856.7.377.271.794.539 1.252.803.457.263.99.478 1.597.644a5.517 5.517 0 001.774.201h1.397c.283-.024.498-.114.644-.268l.048-.06a.805.805 0 00.091-.225c.029-.102.043-.213.043-.335a4.016 4.016 0 01.079-.943c.06-.28.13-.49.206-.633a1.556 1.556 0 01.468-.535.798.798 0 01.097-.042c.195-.065.423-.002.687.188.263.191.51.426.74.706.232.28.51.594.833.943.324.349.607.608.85.779l.243.146c.162.097.373.186.632.267.26.082.486.102.68.061l3.11-.048c.308 0 .547-.051.717-.152.17-.102.271-.214.304-.335a.945.945 0 00.006-.414 1.524 1.524 0 00-.085-.322z" fill="#008AC4"/></svg>