<?xml version="1.0" encoding="utf-8"?><svg width="24" height="24" fill="none" xmlns="http://www.w3.org/2000/svg" viewBox="0 0 24 24"><rect width="24" height="24" rx="12" fill="#E90000"/><path fill-rule="evenodd" clip-rule="evenodd" d="M18.755 15.495c-.171.796-.78 1.382-1.513 1.47-1.736.207-3.493.208-5.243.207-1.75.001-3.506 0-5.242-.207-.733-.088-1.342-.674-1.513-1.47C5 14.362 5 13.125 5 11.959c0-1.167.003-2.404.247-3.537.171-.795.78-1.382 1.513-1.47 1.736-.207 3.493-.208 5.243-.207 1.749-.001 3.506 0 5.242.207.733.088 1.342.674 1.513 1.47.244 1.133.242 2.37.242 3.537 0 1.166 0 2.403-.245 3.536zm-8.562-1.215l4.451-2.465-4.45-2.482v4.947z" fill="#fff"/></svg>