<svg width="40" height="40" viewBox="0 0 40 40" fill="none" xmlns="http://www.w3.org/2000/svg">
<rect width="40" height="40" rx="20" fill="white"/>
<path d="M24.6234 10.0039L22.2249 9.99976C19.5302 9.99976 17.7888 11.9317 17.7888 14.9218V17.1912H15.3771C15.1688 17.1912 15 17.3738 15 17.5992V20.8873C15 21.1126 15.1689 21.2951 15.3771 21.2951H17.7888V29.5919C17.7888 29.8173 17.9575 29.9998 18.1659 29.9998H21.3124C21.5208 29.9998 21.6896 29.8171 21.6896 29.5919V21.2951H24.5093C24.7177 21.2951 24.8865 21.1126 24.8865 20.8873L24.8876 17.5992C24.8876 17.491 24.8478 17.3874 24.7772 17.3108C24.7066 17.2342 24.6103 17.1912 24.5103 17.1912H21.6896V15.2674C21.6896 14.3427 21.8933 13.8733 23.0073 13.8733L24.623 13.8727C24.8312 13.8727 25 13.69 25 13.4649V10.4117C25 10.1868 24.8314 10.0043 24.6234 10.0039Z" fill="#008AC4"/>
</svg>
