<svg width="46" height="42" viewBox="0 0 46 42" xmlns="http://www.w3.org/2000/svg">
<path fill-rule="evenodd" clip-rule="evenodd" d="M43.7285 33.8807H43.0832H42.9979H36.6632C36.2686 33.8807 35.9487 34.2007 35.9487 34.5952C35.9487 34.9898 36.2686 35.3098 36.6632 35.3098H42.9979C43.4565 35.3098 43.8351 35.6884 43.8351 36.1469C43.8351 36.6108 43.4565 36.9841 42.9979 36.9841H41.5369H36.6632C36.2686 36.9841 35.9487 37.304 35.9487 37.6986C35.9487 38.0985 36.2686 38.4185 36.6632 38.4185H41.5369C41.9955 38.4185 42.3687 38.7917 42.3687 39.2503C42.3687 39.7142 41.9955 40.0875 41.5369 40.0875H28.0942C26.9691 40.0875 25.9666 39.4636 25.5134 38.4451C25.4014 38.1892 25.1455 38.0186 24.8629 38.0186H12.4067L16.1286 31.5772C16.3579 32.1531 16.6832 32.9369 17.1471 33.982C17.7389 35.3258 18.5228 36.1256 19.4826 36.3656C20.6557 36.6588 21.5622 35.9923 21.6635 35.9123C21.8875 35.7417 21.9888 35.4537 21.9195 35.1818C21.9141 35.1445 21.2849 32.4783 21.2049 30.0681H24.0204C24.2976 30.0681 24.5589 29.8975 24.6709 29.6416C24.6869 29.6149 25.8547 27.0714 28.1902 26.4529C28.7714 26.2982 29.39 26.0263 30.0138 25.6903C30.0138 25.685 30.0192 25.685 30.0245 25.685C30.0245 25.685 30.0245 25.6797 30.0298 25.6797C31.9228 24.6506 33.8371 23.0189 34.6636 22.2777C34.7862 22.395 34.9142 22.5603 34.9729 22.7736C35.1008 23.2695 34.8662 23.9467 34.2903 24.7359C32.488 27.194 31.9281 27.7699 31.8641 27.8339C31.7842 27.8979 31.7202 27.9779 31.6722 28.0739C31.5229 28.3778 31.6029 28.7457 31.8695 28.9537C32.0241 29.0763 32.2214 29.1297 32.4027 29.103H42.2674C42.726 29.103 43.0992 29.4763 43.0992 29.9402C43.0992 30.3987 42.726 30.7773 42.2674 30.7773L36.6632 30.772C36.2686 30.772 35.9487 31.0973 35.9487 31.4919C35.9487 31.8864 36.2686 32.2064 36.6632 32.2064H42.2674H43.7285C44.1924 32.2064 44.5656 32.585 44.5656 33.0435C44.5656 33.5021 44.1924 33.8807 43.7285 33.8807ZM9.15932 37.9279C9.10067 37.7146 9.13266 37.4907 9.23931 37.2934H9.24464C9.24464 37.288 9.24464 37.288 9.24464 37.288L12.0441 32.441C12.2414 32.0997 12.1241 31.6625 11.7828 31.4652C11.4415 31.2679 10.999 31.3799 10.8017 31.7265L8.00222 36.5735C8.00222 36.5788 7.99689 36.5788 7.99689 36.5788L7.2717 37.8426C7.04241 38.2425 6.53051 38.3812 6.13059 38.1465C5.93863 38.0399 5.79999 37.8586 5.74134 37.64C5.68268 37.4267 5.70934 37.2027 5.82132 37.0054L6.14659 36.4455L9.35128 30.8893C9.55391 30.548 9.4366 30.1055 9.09 29.9135C8.74874 29.7109 8.31149 29.8282 8.1142 30.1748L4.94683 35.6564C4.83485 35.8537 4.65355 35.9923 4.44026 36.0456C4.22697 36.1043 3.99768 36.0776 3.80572 35.9656C3.61376 35.8537 3.47512 35.6724 3.41646 35.4537C3.35781 35.2404 3.3898 35.0165 3.50178 34.8245L4.2323 33.5554C4.2323 33.5501 4.2323 33.5501 4.2323 33.5501L6.66915 29.3376C6.86645 28.9964 6.74914 28.5538 6.40254 28.3565C6.06127 28.1592 5.62403 28.2765 5.42673 28.6231L2.98988 32.8356C2.8779 33.0329 2.69661 33.1715 2.48332 33.2302C2.26469 33.2835 2.04074 33.2568 1.84878 33.1449C1.44886 32.9156 1.31022 32.4037 1.54484 32.0038L8.2635 20.3634C8.82872 19.3876 9.88451 18.833 10.967 18.9503C11.2656 18.9877 11.5269 18.8437 11.6708 18.5984L17.8349 7.91788L21.7488 14.6952C21.1356 14.6045 20.2931 14.4979 19.1573 14.3753C17.6963 14.2153 16.6138 14.4926 15.926 15.2018C15.0835 16.0709 15.2115 17.196 15.2274 17.3187C15.2648 17.6013 15.4674 17.8306 15.734 17.9106C15.766 17.9212 18.1549 18.6357 20.2238 19.6915L18.9814 21.8404C18.8374 22.0857 18.8534 22.395 19.0187 22.6243C19.04 22.6456 20.661 24.9118 20.0212 27.2634C19.3866 29.6042 20.1011 33.5128 20.4051 34.9578C20.2398 35.0058 20.0425 35.0325 19.8292 34.9792C19.3333 34.8512 18.8587 34.3073 18.4588 33.4061C17.243 30.6494 17.0191 29.8602 16.9924 29.7535C16.9711 29.6416 16.9284 29.5296 16.8538 29.4389C16.6565 29.1723 16.3046 29.0763 15.9953 29.2096C15.8193 29.2843 15.686 29.4229 15.6167 29.5936L10.6897 38.1305C10.4604 38.5251 9.9485 38.6691 9.54858 38.4345C9.35662 38.3225 9.21798 38.1412 9.15932 37.9279ZM20.4424 22.1817L21.4662 20.4061C21.8715 20.6727 22.2341 20.95 22.522 21.2326C24.1857 22.9122 26.5212 23.1255 27.609 23.1255C27.657 23.1255 27.6836 23.1255 27.7263 23.1255L28.6648 24.7572C28.3768 24.8852 28.0889 24.9971 27.8223 25.0665C25.4494 25.6957 24.079 27.7379 23.5831 28.6338H21.2369C21.2742 28.2765 21.3276 27.9406 21.4076 27.642C22.0528 25.2691 20.965 23.0615 20.4424 22.1817ZM20.2398 5.87561H20.2451L23.0446 10.7227C23.1725 10.9519 23.4178 11.0852 23.6631 11.0852C23.7857 11.0852 23.9084 11.0533 24.0204 10.9893C24.3616 10.7866 24.4789 10.3494 24.2816 10.0081L21.4875 5.16109C21.4822 5.16109 21.4822 5.15576 21.4822 5.15576L20.7517 3.88668C20.6397 3.69472 20.6077 3.47076 20.6664 3.25747C20.725 3.03885 20.8637 2.86288 21.0556 2.74557C21.4555 2.51628 21.9674 2.65492 22.1967 3.05484L22.522 3.6094V3.61473L22.5647 3.68405C22.5647 3.68405 22.5647 3.68405 22.5647 3.68938L25.732 9.17096C25.8653 9.40025 26.1053 9.52822 26.3506 9.52822C26.4732 9.52822 26.5959 9.50156 26.7078 9.43224C27.0544 9.23495 27.1717 8.7977 26.9691 8.45644L23.8071 2.98019C23.8071 2.97486 23.8071 2.97486 23.8071 2.96953C23.5778 2.56961 23.7111 2.05771 24.111 1.82842C24.5109 1.59913 25.0228 1.73777 25.2521 2.13769L25.9826 3.40144L28.4195 7.61927C28.5528 7.84856 28.7928 7.97653 29.038 7.97653C29.1607 7.97653 29.2833 7.94987 29.4006 7.88055C29.7419 7.68326 29.8592 7.24601 29.6619 6.90474L27.2304 2.69225C27.2251 2.68692 27.2251 2.68692 27.2251 2.68692V2.68158C26.9958 2.28166 27.1344 1.7751 27.529 1.54581C27.9343 1.31119 28.4408 1.44983 28.6754 1.84975L35.3941 13.4901C35.954 14.4659 35.9167 15.6443 35.2928 16.5028L35.2608 16.5455C35.2395 16.5722 35.2341 16.6041 35.2181 16.6308C35.1915 16.6841 35.1595 16.7375 35.1488 16.7961C35.1435 16.8121 35.1488 16.8281 35.1435 16.8388C35.1168 17.0041 35.1328 17.1694 35.2235 17.324L41.1956 27.6686H33.8744C34.2583 27.178 34.7702 26.5062 35.4474 25.5837C36.3113 24.4053 36.6152 23.3228 36.3433 22.3683C36.018 21.2059 34.9782 20.758 34.8609 20.71C34.5996 20.598 34.301 20.6567 34.0984 20.854C34.0664 20.8806 32.0134 22.8162 29.9285 24.0853L28.7554 22.0324C28.7288 21.9897 28.6914 21.9631 28.6594 21.9258C28.6328 21.8938 28.6115 21.8564 28.5741 21.8298C28.5368 21.7978 28.4835 21.7765 28.4355 21.7551C28.3982 21.7391 28.3662 21.7125 28.3288 21.7018C28.2755 21.6858 28.2169 21.6911 28.1635 21.6858C28.1262 21.6858 28.0942 21.6751 28.0569 21.6751C28.0302 21.6751 25.2521 21.9471 23.5351 20.2248C21.8288 18.5024 18.0909 17.164 16.6832 16.7055C16.7205 16.5455 16.8005 16.3589 16.9551 16.1989C17.3124 15.831 18.0216 15.6923 19.0027 15.799C21.9568 16.1189 22.7726 16.3162 22.8899 16.3482C23.0179 16.3962 23.1619 16.4122 23.2952 16.3855C23.6098 16.3215 23.8444 16.0549 23.8711 15.735C23.8817 15.5537 23.8284 15.3777 23.7218 15.2391L18.7947 6.70745C18.5655 6.30753 18.6988 5.79563 19.0987 5.56634C19.4986 5.33706 20.0105 5.47036 20.2398 5.87561ZM46 33.0435C46 32.0038 45.2961 31.1239 44.3417 30.8573C44.4643 30.5747 44.5336 30.2654 44.5336 29.9402C44.5336 28.911 43.8458 28.0525 42.9073 27.7753L36.6792 16.9774C37.4044 15.7137 37.4044 14.1086 36.6312 12.7702L29.9125 1.13522C29.2887 0.04744 27.9023 -0.320487 26.8145 0.303389C26.5319 0.46869 26.2972 0.681981 26.1159 0.932597C25.4068 0.23407 24.2923 0.0687691 23.3965 0.586C23.0179 0.804623 22.73 1.11389 22.538 1.46582C21.8715 1.11923 21.045 1.10323 20.3411 1.50848C19.8185 1.81242 19.4399 2.29766 19.2853 2.88421C19.1787 3.26813 19.1787 3.66272 19.2746 4.03598C18.9707 4.06797 18.6668 4.16396 18.3842 4.32926C17.7389 4.69718 17.355 5.33706 17.275 6.02492L10.6524 17.4946C9.18598 17.4946 7.79426 18.3105 7.02108 19.6489L0.302417 31.2839C-0.321459 32.3717 0.0518002 33.7581 1.12892 34.382C1.41153 34.5472 1.71547 34.6432 2.02474 34.6806C1.92876 35.0485 1.92876 35.4431 2.03007 35.827C2.19004 36.4135 2.5633 36.8988 3.0912 37.2027C3.45379 37.416 3.83238 37.5387 4.28029 37.5067C4.28562 37.6773 4.31229 37.8479 4.35494 38.0132C4.51491 38.5998 4.88817 39.085 5.41073 39.389C6.31189 39.9062 7.421 39.7409 8.13019 39.0477C8.31682 39.3036 8.55144 39.5116 8.83405 39.6769C9.18598 39.8795 9.57524 39.9808 9.9645 39.9808C10.4817 39.9808 10.983 39.7835 11.3882 39.4529H24.4203C25.1508 40.722 26.5532 41.5219 28.0942 41.5219H41.5369C42.7846 41.5219 43.8031 40.5034 43.8031 39.2503C43.8031 38.925 43.7338 38.6158 43.6111 38.3332C44.5656 38.0666 45.2641 37.1867 45.2641 36.1469C45.2641 35.715 45.1468 35.3098 44.9335 34.9632C45.5734 34.5632 46 33.8541 46 33.0435Z"/>
</svg>
