<svg viewBox="0 0 160 115" xmlns="http://www.w3.org/2000/svg">
	<path d="M152.647 0C148.592 0 145.293 3.29907 145.293 7.35377V20.0404H14.7075V7.35377C14.7075 3.29876 11.4085 0 7.35376 0C3.29907 0 0 3.29907 0 7.35377V110.061C0 112.735 2.175 114.91 4.84876 114.91H9.85877C12.5325 114.91 14.7075 112.735 14.7075 110.061V97.3743H145.292V110.061C145.292 112.735 147.467 114.91 150.141 114.91H155.151C157.825 114.91 160 112.735 160 110.061V7.35377C160 3.29907 156.701 0 152.647 0ZM10.02 110.061C10.02 110.15 9.94783 110.222 9.85877 110.222H4.84876C4.7597 110.222 4.68751 110.15 4.68751 110.061V104.89H10.02V110.061ZM10.02 100.202H4.68751V7.35377C4.68751 5.88376 5.88376 4.68751 7.35376 4.68751C8.82408 4.68751 10.02 5.88376 10.02 7.35377V100.202ZM104.889 24.7279H115.232V82.6664H104.889V24.7279ZM89.8589 24.7279H100.202V82.6664H89.8589V24.7279ZM74.8289 24.7279H85.1717V82.6664H74.8289V24.7279ZM59.7986 24.7279H70.1414V82.6664H59.7986V24.7279ZM44.7682 24.7279H55.111V82.6664H44.7682V24.7279ZM14.7075 24.7279H25.0504V69.9792C25.0504 71.2736 26.0997 72.323 27.3941 72.323C28.6885 72.323 29.7379 71.2736 29.7379 69.9792V24.7279H40.0807V82.6664H29.7379V80.0011C29.7379 78.7067 28.6885 77.6573 27.3941 77.6573C26.0997 77.6573 25.0504 78.7067 25.0504 80.0011V82.6664H14.7075V24.7279ZM145.292 92.6868H14.7075V87.3542H145.292V92.6868ZM134.95 82.6664V37.4151C134.95 36.1207 133.901 35.0713 132.606 35.0713C131.312 35.0713 130.262 36.1207 130.262 37.4151V82.6664H119.92V24.7279H130.262V27.3932C130.262 28.6876 131.312 29.7369 132.606 29.7369C133.901 29.7369 134.95 28.6876 134.95 27.3932V24.7279H145.293V82.6664H134.95ZM155.313 110.061C155.313 110.15 155.241 110.222 155.152 110.222H150.142C150.052 110.222 149.98 110.15 149.98 110.061V104.89H155.313V110.061ZM155.313 100.202H149.98V7.35377C149.98 5.88345 151.177 4.68751 152.647 4.68751C154.117 4.68751 155.313 5.88376 155.313 7.35377V100.202Z"/>
</svg>
