<svg width="54" height="52" viewBox="0 0 54 52" xmlns="http://www.w3.org/2000/svg">
<path d="M16.4959 21.1118C17.0017 21.3054 17.7338 21.5296 18.5002 21.7643L18.5162 21.7692L18.5165 21.7693L18.5967 21.7941C19.2058 21.9824 19.8347 22.1768 20.3865 22.3664C20.9644 22.5649 21.449 22.7554 21.7367 22.9249C21.7369 22.925 21.7371 22.9251 21.7373 22.9252L22.13 23.1637L22.1303 23.1639L22.1304 23.164C22.5639 23.4294 22.9396 23.6594 23.3416 23.7808C23.7493 23.9038 24.1796 23.9144 24.7248 23.7547L24.725 23.7547C25.0247 23.6664 25.2451 23.5299 25.402 23.357C25.5589 23.1841 25.6473 22.9804 25.692 22.7658C25.7798 22.3441 25.7009 21.8666 25.6353 21.4695L25.6346 21.4651C25.6346 21.4649 25.6345 21.4647 25.6345 21.4645C25.6318 21.4467 25.6291 21.4292 25.6264 21.4121C25.6025 21.2565 25.5825 21.1266 25.5825 21.0354C25.5825 20.9384 25.5553 20.8065 25.5117 20.6538C25.4673 20.4988 25.4035 20.3139 25.3248 20.1076C25.1674 19.6947 24.9488 19.1907 24.7029 18.6578L24.7028 18.6577C24.1001 17.3578 23.32 15.8361 22.8776 15.0874C22.5194 14.4801 22.2515 13.7216 22.0447 12.8898C21.8333 12.0344 21.6864 11.115 21.5705 10.2077L21.5705 10.2076C21.4335 9.14356 21.1347 8.53891 20.6791 8.16302C20.2257 7.78815 19.7043 7.70197 19.1147 7.60453L19.1014 7.60232C19.1014 7.60232 19.1014 7.60232 19.1013 7.60231C18.416 7.4877 17.6532 7.76567 16.9639 8.15537C16.3157 8.51737 15.7107 8.98356 15.2805 9.31947L15.2804 9.31962C14.9068 9.61279 14.4031 9.88169 13.8228 10.1901C13.2017 10.5187 12.5028 10.8888 11.7767 11.3955C11.0488 11.9002 10.4142 12.4049 9.93419 13.1422L9.93415 13.1422C9.45553 13.8788 9.15702 14.8185 9.10085 16.1714L9.10085 16.1715C9.08306 16.6137 9.20764 17.2215 9.64759 17.814L9.64764 17.814C9.96015 18.2341 10.4346 18.6499 11.1265 18.997L11.1266 18.9971C12.2586 19.5631 14.2184 20.2777 15.529 20.7556L15.5327 20.757L15.5331 20.7571C15.9028 20.89 16.2188 21.0058 16.4959 21.1118ZM16.4959 21.1118L16.5317 21.0184M16.4959 21.1118C16.4959 21.1118 16.4959 21.1118 16.496 21.1118L16.5317 21.0184M16.5317 21.0184C16.2536 20.912 15.9369 20.796 15.5669 20.663M16.5317 21.0184C17.0342 21.2108 17.7638 21.4342 18.5327 21.6697L18.5457 21.6737L18.6269 21.6988C19.8712 22.0834 21.206 22.496 21.7881 22.8391L15.5669 20.663M15.5669 20.663C14.254 20.1843 12.298 19.471 11.1713 18.9077C10.4919 18.5667 10.0301 18.1605 9.72787 17.7543C9.30233 17.1813 9.18384 16.5962 9.20077 16.1755C9.25638 14.836 9.55135 13.9148 10.018 13.1967M15.5669 20.663L10.018 13.1967M10.018 13.1967C10.4871 12.4762 11.1084 11.9805 11.8338 11.4776L10.018 13.1967ZM10.1542 16.2135L10.1542 16.2139C10.1432 16.4583 10.2178 16.8129 10.4947 17.1868C10.7162 17.4821 11.0636 17.787 11.5955 18.0542C12.6652 18.5878 14.593 19.2916 15.8938 19.7664L15.894 19.7664L16.8684 20.1243L16.8696 20.1247C17.3361 20.3027 17.988 20.5045 18.6878 20.7211C18.7331 20.7351 18.7787 20.7492 18.8244 20.7633L18.7948 20.8589L18.8242 20.7633C19.4802 20.9651 20.1675 21.1765 20.7763 21.3879C21.3835 21.5986 21.9201 21.8117 22.2714 22.0178L22.2724 22.0183L22.6786 22.2625L22.6793 22.2629C23.3636 22.6819 23.781 22.9321 24.4268 22.7431C24.5748 22.6994 24.6446 22.5703 24.6605 22.3542C24.6764 22.1382 24.6337 21.8758 24.5933 21.632L24.5931 21.6312C24.5899 21.6107 24.5867 21.5903 24.5834 21.57C24.5533 21.3805 24.5242 21.1971 24.5242 21.0354C24.5242 21.0047 24.5084 20.9315 24.4689 20.8104C24.4309 20.6943 24.3753 20.546 24.3051 20.3723C24.1649 20.0251 23.9686 19.5813 23.7453 19.0996C23.156 17.8293 22.396 16.3457 21.968 15.6245L21.9679 15.6243C21.5501 14.9164 21.2498 14.0599 21.0213 13.1435L21.0213 13.1434C20.7999 12.2482 20.647 11.2865 20.5259 10.3394C20.4226 9.54181 20.2403 9.16695 20.0102 8.97737L20.0096 8.97684C19.8982 8.88353 19.7506 8.8189 19.566 8.76778C19.3835 8.71725 19.1735 8.68208 18.9376 8.64256L10.1542 16.2135ZM10.1542 16.2135C10.202 15.0581 10.4431 14.2935 10.8175 13.7154C11.193 13.1381 11.7326 12.7122 12.3794 12.2609L10.1542 16.2135Z"/>
<path d="M26.4095 20.6221L26.4051 20.6109C26.0046 19.5954 25.5334 18.4002 25.3093 17.7714C25.2295 17.5466 25.0603 17.138 24.8548 16.6423C24.3253 15.3729 23.5588 13.5233 23.3219 12.3942C23.0728 11.2191 22.8818 9.95454 22.8117 8.80606C22.7537 7.79782 22.79 6.8718 22.9665 6.16337L26.4095 20.6221ZM26.4095 20.6221L26.3164 20.6588L26.3112 20.6455C25.9113 19.6313 25.4397 18.4353 25.2151 17.805L25.2151 17.8049C25.1364 17.5832 24.9685 17.1778 24.7624 16.6807C24.2346 15.4153 23.4634 13.5554 23.224 12.4148C22.9742 11.2361 22.7824 9.96661 22.7119 8.81216L22.7119 8.81181C22.6536 7.7996 22.6894 6.86198 22.8694 6.13925L29.6663 22.5411C29.6663 22.5411 29.6664 22.541 29.6664 22.541C29.5084 22.6539 29.3439 22.7452 29.1779 22.8091C28.7709 22.9693 28.3533 22.9854 27.9653 22.862C27.5825 22.7412 27.2387 22.4876 26.9734 22.1137L26.9733 22.1135C26.8527 21.9427 26.7449 21.7471 26.6597 21.529C26.6597 21.529 26.6597 21.529 26.6596 21.5289L26.3164 20.6588L26.4095 20.6221ZM24.5859 5.78209L24.5859 5.78209C24.3777 5.89568 24.2121 6.00976 24.0937 6.1176C23.9734 6.22723 23.9111 6.32212 23.8928 6.39556C23.7417 6.99975 23.712 7.82671 23.765 8.7519C23.83 9.84819 24.0152 11.0641 24.2563 12.1993L24.2563 12.1995C24.4733 13.232 25.2143 15.0202 25.731 16.267L25.7352 16.2773C25.9451 16.7791 26.118 17.1977 26.2086 17.4523M24.5859 5.78209L26.1145 17.4861M24.5859 5.78209L24.5865 5.78178C25.0466 5.52695 25.6717 5.30757 26.4058 5.17126M24.5859 5.78209L26.4058 5.17126M26.2086 17.4523C26.2086 17.4524 26.2087 17.4525 26.2087 17.4526L26.1145 17.4861M26.2086 17.4523C26.2086 17.4523 26.2085 17.4522 26.2085 17.4521L26.1145 17.4861M26.2086 17.4523C26.4402 18.0915 26.906 19.2744 27.3003 20.2735L27.3004 20.2737L27.6413 21.144M26.1145 17.4861C26.3466 18.1269 26.8132 19.3116 27.2073 20.3102L27.5483 21.1806M27.6413 21.144L27.5483 21.1806M27.6413 21.144C27.6962 21.2834 27.7623 21.4021 27.8331 21.5049C27.9682 21.6916 28.1231 21.8064 28.282 21.8566L28.2827 21.8568C28.4368 21.9068 28.611 21.8998 28.7928 21.8276L28.7938 21.8271C28.8785 21.7946 28.9654 21.7459 29.055 21.6839C29.1166 21.6396 29.2021 21.5277 29.3065 21.341C29.4086 21.1584 29.5214 20.9186 29.6411 20.6356C29.8806 20.0699 30.1448 19.34 30.4051 18.5697C30.9235 17.0351 31.4236 15.3474 31.676 14.4955L31.6787 14.4865L31.6788 14.4862L31.7826 14.1311L31.7829 14.1304C31.9405 13.6065 32.3206 12.4492 32.7169 11.2435C32.7493 11.1445 32.7818 11.0451 32.8143 10.9458C33.2823 9.51486 33.7499 8.08504 33.8735 7.62685C33.9129 7.47953 33.926 7.36479 33.914 7.26657C33.9023 7.17065 33.8658 7.08417 33.7948 6.99414L33.7945 6.99381C33.6903 6.86047 33.5259 6.71263 33.2875 6.5338C33.0498 6.35557 32.744 6.15044 32.361 5.90152C31.7291 5.49285 30.8085 5.24395 29.8351 5.12138L29.835 5.12135C28.5751 4.96057 27.2629 5.0137 26.4058 5.17126M27.6413 21.144L27.6414 21.1441L27.5483 21.1806M27.5483 21.1806C27.6063 21.3281 27.6764 21.4538 27.7513 21.5626C27.8964 21.7633 28.0681 21.8939 28.2519 21.9519C28.4308 22.0099 28.629 22.0003 28.8297 21.9205C28.924 21.8842 29.0183 21.831 29.1126 21.7657C29.7642 21.3 31.266 16.2312 31.7718 14.5243L31.7746 14.5146L26.4058 5.17126M33.9701 7.65277C34.0523 7.34571 34.0353 7.13775 33.8733 6.93223C33.6485 6.64451 33.1818 6.31569 32.4154 5.81761C31.765 5.3969 30.8269 5.14547 29.8476 5.02216C28.5783 4.86016 27.2557 4.91335 26.3877 5.07292L33.9701 7.65277Z"/>
<path d="M38.2192 7.11971C38.0213 7.0118 37.7994 6.94331 37.5718 6.91044L37.5716 6.91041C37.1808 6.85457 36.7555 6.91037 36.3755 7.08011L36.3752 7.08026C35.9873 7.25518 35.6386 7.54997 35.412 7.96754L35.4115 7.96845C35.2975 8.18394 35.214 8.42951 35.176 8.70477C35.1087 9.1688 34.8752 9.92263 34.5699 10.7888C34.2669 11.6488 33.8963 12.6105 33.5565 13.4927L33.5522 13.5038C33.5522 13.5039 33.5522 13.5039 33.5521 13.504C33.3805 13.9464 33.2183 14.3652 33.0512 14.8131C32.753 15.6117 32.177 16.8747 31.6057 18.1262L31.6056 18.1264C31.2286 18.9554 30.8539 19.7798 30.5577 20.4757C30.2631 21.168 30.0415 21.7436 29.9762 22.0699L29.9762 22.07C29.887 22.5182 29.9113 22.8665 30.046 23.1215C30.1831 23.3811 30.4243 23.5253 30.7245 23.5851L30.7246 23.5851C30.933 23.6264 31.1719 23.6062 31.4237 23.5484C31.6765 23.4903 31.9488 23.3929 32.2269 23.2737C32.7826 23.0355 33.3725 22.7057 33.8901 22.4161L33.8902 22.4161C34.1878 22.2492 34.4615 22.0979 34.6815 21.9879C35.2622 21.6988 36.1614 21.1994 37.0727 20.6797L37.0728 20.6796C38.3111 19.971 39.6009 19.2039 40.1613 18.8522M38.2192 7.11971C38.6946 7.37485 39.901 8.28816 40.9406 9.19723C41.3409 9.54658 41.7221 9.9016 42.036 10.2274C42.3483 10.5515 42.5994 10.8522 42.7342 11.0925C42.8591 11.3134 42.989 11.5299 43.1267 11.757L43.127 11.7575L43.1296 11.7618C43.4183 12.2442 43.7357 12.7746 43.9575 13.2609C44.0689 13.505 44.1578 13.7415 44.2067 13.9581C44.2553 14.1735 44.2665 14.3781 44.2127 14.5534C43.993 15.2724 43.4406 16.0139 42.8065 16.6796L42.8064 16.6798C41.8885 17.6391 40.76 18.4807 40.1613 18.8522M38.2192 7.11971C38.2191 7.11965 38.219 7.1196 38.2189 7.11954L38.1716 7.20766L38.2195 7.11987C38.2194 7.11982 38.2193 7.11976 38.2192 7.11971ZM40.1613 18.8522C40.1613 18.8522 40.1614 18.8521 40.1615 18.8521L40.1083 18.7674L40.161 18.8524C40.1611 18.8523 40.1612 18.8523 40.1613 18.8522ZM37.439 7.85566L37.4249 7.95465C37.5343 7.97028 37.6358 8.00111 37.7197 8.04723L37.7203 8.04759C38.1302 8.26899 39.2519 9.11811 40.2455 9.98847L40.2456 9.9885C40.612 10.3091 40.9557 10.627 41.2332 10.9099C41.5127 11.1948 41.7184 11.4377 41.8153 11.609C41.92 11.7941 42.0683 12.0419 42.2228 12.3002L42.2228 12.3003L42.2324 12.3163C42.4755 12.7224 42.7367 13.1585 42.9288 13.5242C43.0261 13.7097 43.1042 13.8741 43.1529 14.0055C43.1773 14.0713 43.1933 14.1261 43.2013 14.1694C43.2096 14.2151 43.2069 14.2376 43.2046 14.2448L43.2043 14.2457C43.0423 14.7735 42.5921 15.3759 42.0428 15.9517C41.1959 16.8393 40.151 17.6152 39.6032 17.9572L39.6032 17.9572C39.0631 18.2948 37.7902 19.0533 36.5505 19.7613L36.5503 19.7614C35.6388 20.2836 34.7561 20.7732 34.215 21.0425C33.997 21.1504 33.7342 21.2972 33.452 21.4548C33.4271 21.4687 33.4019 21.4828 33.3767 21.4969L33.4254 21.5842L33.3767 21.4969C32.9189 21.7524 32.4061 22.0382 31.9519 22.2491C31.7248 22.3545 31.5151 22.44 31.3363 22.4934C31.1831 22.5393 31.0625 22.5585 30.9761 22.5532C30.9761 22.552 30.9761 22.5507 30.9761 22.5493C30.9758 22.4974 30.9862 22.4101 31.0137 22.2764L31.0138 22.2759C31.0645 22.0224 31.2662 21.5028 31.5528 20.8345C31.8376 20.1705 32.201 19.3712 32.5686 18.5647L32.5687 18.5645C32.5927 18.5116 32.6167 18.4587 32.6407 18.4058C33.1846 17.2071 33.7293 16.0067 34.0388 15.1808C34.0388 15.1807 34.0388 15.1806 34.0389 15.1805L34.5342 13.883L34.5343 13.8827L34.5551 13.8287C34.8987 12.9372 35.2729 11.966 35.5813 11.0873C35.8951 10.193 36.1437 9.38593 36.2203 8.85394L36.2204 8.85322C36.2406 8.70452 36.2831 8.57628 36.3419 8.46968L36.3423 8.46883C36.4494 8.27007 36.6155 8.12738 36.8053 8.04121C37.0007 7.95472 37.221 7.92584 37.425 7.95467L37.439 7.85566ZM37.439 7.85566C37.2166 7.82422 36.9772 7.85566 36.7644 7.94995L40.3114 9.91324C39.3177 9.04282 38.1886 8.18688 37.7679 7.95961C37.6711 7.90641 37.5575 7.87258 37.439 7.85566ZM36.4163 7.17142C36.779 7.00942 37.1852 6.95622 37.5575 7.00941L35.275 8.71881C35.3113 8.45527 35.3911 8.22076 35.4999 8.01524C35.7151 7.61871 36.0464 7.33825 36.4163 7.17142Z"/>
<path d="M45.027 17.218L45.0272 17.218C45.5133 17.0867 46.0626 16.9777 46.6241 17.1589L46.6242 17.1589C47.1983 17.3443 47.7172 17.808 48.1216 18.7575L48.1216 18.7575C48.4949 19.6358 48.8426 20.8229 49.0564 21.9822C49.2482 23.0212 49.3348 24.058 49.2338 24.8491C49.2338 24.8491 49.2338 24.8491 49.2338 24.8491L49.1346 24.8364C48.9049 26.6401 47.7782 26.6232 46.8376 26.6087L45.027 17.218ZM45.027 17.218C44.7471 17.2942 44.1637 17.5386 43.4316 17.8645C42.7171 18.1825 41.8523 18.5821 40.9714 18.9892L40.8938 19.025L40.8937 19.025L39.1243 19.8397C39.1242 19.8397 39.1242 19.8397 39.1241 19.8397C37.8038 20.443 35.6711 21.5178 34 22.4744C33.3533 22.8438 32.7666 23.202 32.3081 23.5193C32.0789 23.6779 31.8805 23.8271 31.7221 23.963C31.565 24.0979 31.4421 24.2241 31.3689 24.3372C31.015 24.8842 30.9001 25.379 31.1316 25.8366L31.1317 25.8369C31.3406 26.2466 31.8075 26.52 32.5243 26.6962L32.5244 26.6962C32.6595 26.7292 32.9075 26.7538 33.2357 26.7728C33.567 26.792 33.9882 26.8059 34.4751 26.8154C35.4489 26.8345 36.6884 26.8364 38.0022 26.8287C40.6298 26.8133 43.5572 26.7595 45.2557 26.728C45.2557 26.728 45.2557 26.728 45.2558 26.728L46.6395 26.7063L46.8361 26.7087L46.8364 26.7087L45.027 17.218ZM46.3016 18.164L46.3018 18.1641C46.5786 18.2528 46.874 18.5189 47.1518 19.1694C47.4942 19.9813 47.8187 21.0863 48.0207 22.1732C48.1966 23.127 48.2743 24.0484 48.1891 24.7174C48.1259 25.2141 47.9304 25.4385 47.6997 25.5476C47.4563 25.6627 47.1553 25.6602 46.8538 25.6552V25.6552H46.8521C46.3139 25.6552 45.7806 25.6648 45.246 25.6745L45.2401 25.6746L45.24 25.6746C43.5571 25.706 40.6605 25.7592 38.0717 25.777C36.7772 25.7859 35.5602 25.786 34.6108 25.7701C34.1359 25.7622 33.7288 25.7502 33.4125 25.7335C33.0929 25.7166 32.8749 25.6951 32.7725 25.6701L32.7489 25.7673L32.7725 25.6701C32.5518 25.6164 32.3852 25.5615 32.2672 25.5053C32.1464 25.4478 32.0916 25.396 32.0717 25.3572C32.0649 25.3433 32.0584 25.305 32.0874 25.2217C32.1153 25.1414 32.1696 25.038 32.2524 24.9102C32.2877 24.8559 32.3687 24.7752 32.4997 24.6701C32.6282 24.5671 32.7967 24.447 32.9982 24.3132C33.4011 24.0457 33.9308 23.7272 34.5248 23.3879C36.1831 22.4417 38.2791 21.3841 39.5628 20.7977L39.563 20.7976L41.3353 19.9828L41.3354 19.9827L41.4227 19.9424C42.2825 19.5452 43.124 19.1565 43.8135 18.8484C44.5298 18.5283 45.0728 18.2996 45.3045 18.2355C45.6616 18.1383 46.0116 18.0703 46.3016 18.164Z"/>
<path d="M8.18485 19.5082C7.83977 19.6408 7.48538 19.9211 7.14844 20.3128C6.81058 20.7056 6.48561 21.2158 6.20088 21.817L6.20083 21.8171C5.72201 22.831 5.33467 24.1305 5.17877 25.5871C5.04741 26.7961 5.07879 27.7691 5.18641 28.5372C5.35525 29.7629 5.72307 30.4829 5.93671 30.8097C6.48862 31.6554 7.56873 31.9601 8.97146 31.9431L8.97157 31.9431C10.2641 31.926 11.8902 31.6411 13.7091 31.2371L13.7092 31.2371C15.5499 30.8273 17.6437 30.1729 19.4297 29.4798L19.4298 29.4798C20.3181 29.1344 21.1361 28.7771 21.8167 28.4322C22.4958 28.0881 23.0439 27.7536 23.3884 27.4526L23.3884 27.4526C23.7662 27.122 23.9546 26.8016 23.9822 26.4885C24.0099 26.1742 23.8736 25.892 23.6566 25.6433L23.6562 25.6428C23.3079 25.2488 22.7152 24.9796 22.2467 24.7692C22.0349 24.6732 21.8579 24.5924 21.7692 24.5347L21.7692 24.5347L21.7674 24.5336C21.3907 24.2997 19.6401 23.4552 17.7135 22.5788C16.1947 21.8871 14.5437 21.1681 13.3466 20.7052C13.3465 20.7052 13.3464 20.7052 13.3463 20.7051L13.1002 20.6086L13.0998 20.6084L13.0729 20.598C11.7869 20.0989 10.8304 19.7276 10.0698 19.5299C9.30234 19.3303 8.71847 19.3027 8.18485 19.5082ZM8.18485 19.5082L8.22072 19.6015M8.18485 19.5082C8.18482 19.5082 8.1848 19.5082 8.18478 19.5082L8.22072 19.6015M8.22072 19.6015C7.57274 19.8506 6.85462 20.6703 6.29126 21.8598L13.0433 20.6938C10.4532 19.6885 9.22874 19.2133 8.22072 19.6015ZM7.15542 22.2676L7.1554 22.2676C6.72275 23.1831 6.37022 24.3667 6.22629 25.7004L7.15542 22.2676ZM7.15542 22.2676C7.38747 21.776 7.6362 21.3697 7.88034 21.0663C8.12603 20.761 8.36038 20.5682 8.56125 20.4904C8.88025 20.3688 9.31039 20.402 9.97782 20.5935C10.6424 20.7841 11.5191 21.1242 12.7203 21.5903C12.7203 21.5903 12.7204 21.5904 12.7204 21.5904L12.9667 21.6869L12.967 21.6871C14.1297 22.1382 15.762 22.8505 17.28 23.5394C18.2285 23.9719 19.1273 24.3923 19.8317 24.7311C20.5385 25.071 21.0434 25.3258 21.2097 25.4288C21.3787 25.5347 21.5885 25.6294 21.8141 25.7302L21.8321 25.7384C22.026 25.8271 22.2345 25.9224 22.4204 26.0236C22.6144 26.1291 22.7726 26.2352 22.8629 26.3383L22.863 26.3384C22.8849 26.3633 22.8933 26.3884 22.8805 26.4288C22.8648 26.4786 22.8153 26.5545 22.6958 26.6589C22.4096 26.9089 21.9221 27.2047 21.29 27.5212C20.6598 27.8368 19.8922 28.1698 19.0504 28.4954L19.0503 28.4955C17.3038 29.1733 15.2656 29.8124 13.4821 30.2077L13.4819 30.2077C11.715 30.6017 10.1594 30.8752 8.95695 30.8896C8.41181 30.8956 7.95215 30.8504 7.59033 30.7429C7.22894 30.6356 6.97327 30.4686 6.82245 30.2364L6.82215 30.2359C6.66415 29.9955 6.37397 29.4271 6.23076 28.3912L6.23075 28.3912M7.15542 22.2676L6.23075 28.3912M6.23075 28.3912C6.13527 27.7037 6.10618 26.8174 6.22628 25.7004L6.23075 28.3912Z"/>
<path d="M15.2015 30.4351L15.2018 30.4351C15.4015 30.4293 15.8281 30.3611 16.3937 30.2554C16.9559 30.1504 17.6459 30.0103 18.3667 29.864C19.2345 29.6876 20.1465 29.503 20.9446 29.3583C21.7407 29.214 22.4303 29.1081 22.8505 29.0908M15.2015 30.4351L8.51551 38.2241C7.55906 37.0466 6.74707 36.0469 6.74707 35.3562C6.74707 34.8533 6.84622 34.3432 7.22341 33.8282C7.574 33.3494 8.16394 32.8804 9.15042 32.4282M15.2015 30.4351C14.6587 30.4526 13.6115 30.7109 12.4837 31.0659L15.2015 30.4351ZM22.8505 29.0908C23.1846 29.0759 23.4485 29.1202 23.649 29.2138L23.6493 29.2139C23.9694 29.3646 24.1284 29.6132 24.1584 29.9209L24.1584 29.9211C24.1801 30.1492 24.1145 30.3883 24.0012 30.6201L24.0011 30.6203C23.7831 31.0638 23.3524 31.5571 22.9763 31.9332L22.976 31.9334C22.6029 32.3042 21.6932 33.3321 20.7351 34.4147L20.6521 34.5085L20.652 34.5086L20.6264 34.5375C19.6224 35.6734 18.5866 36.8451 18.0763 37.3699L18.0046 37.3002L18.0763 37.3699C17.5658 37.8947 16.8685 38.7818 16.2215 39.6057L16.2214 39.6058L16.2209 39.6064C15.6332 40.353 15.0824 41.0529 14.7241 41.4111L14.6613 41.474L14.6504 41.4848C14.2363 41.8989 13.7548 42.3805 13.2137 42.596C12.9372 42.7061 12.6417 42.7485 12.3302 42.6768C12.0195 42.6053 11.7019 42.4224 11.3767 42.0978L11.3763 42.0975C11.1035 41.8221 10.7087 41.2797 10.2566 40.6544C10.235 40.6248 10.2133 40.595 10.1915 40.565C9.83839 40.0802 9.45057 39.5477 9.06511 39.0624C9.06503 39.0623 9.06494 39.0622 9.06486 39.0621L8.4514 38.3038L8.45127 38.3036L8.43566 38.2844C7.96145 37.7006 7.51881 37.1556 7.19406 36.67C6.86864 36.1834 6.64707 35.7361 6.64707 35.3562C6.64707 34.8382 6.74982 34.3056 7.14273 33.7691M22.8505 29.0908C22.8504 29.0908 22.8503 29.0908 22.8503 29.0908L22.8547 29.1907L22.8506 29.0908C22.8506 29.0908 22.8505 29.0908 22.8505 29.0908ZM7.14273 33.7691L7.22326 33.8281L7.14273 33.7691C7.14273 33.7691 7.14273 33.7691 7.14273 33.7691ZM7.14273 33.7691C7.50677 33.272 8.11294 32.7938 9.10869 32.3374M9.10869 32.3374L9.15042 32.4282M9.10869 32.3374C10.0613 31.9 11.3347 31.4271 12.4836 31.0659L9.15042 32.4282M9.10869 32.3374C9.10871 32.3374 9.10874 32.3373 9.10876 32.3373L9.15042 32.4282M9.26912 37.6385L9.26919 37.6386L9.89059 38.405L9.89124 38.4058C10.2982 38.9186 10.6941 39.4637 11.0509 39.9551C11.0707 39.9824 11.0904 40.0095 11.11 40.0364L11.11 40.0365C11.5484 40.6404 11.9145 41.1439 12.1225 41.3519L9.26912 37.6385ZM9.26912 37.6385L9.24339 37.6068C8.82346 37.0899 8.43859 36.6162 8.1567 36.2223C8.01288 36.0213 7.89779 35.8438 7.81902 35.6939C7.7385 35.5406 7.703 35.4291 7.703 35.3562C7.703 35.0268 7.76525 34.704 7.99318 34.3926C8.24969 34.0422 8.71833 33.6763 9.54759 33.2952L9.54762 33.2952C10.447 32.8816 11.6759 32.4261 12.7975 32.0739L12.7977 32.0739C13.3306 31.9051 13.833 31.7613 14.2567 31.6583C14.6825 31.5548 15.0218 31.4942 15.2316 31.4885L15.2318 31.4885C15.4864 31.481 15.9561 31.4068 16.5394 31.2989C17.1207 31.1914 17.8232 31.0488 18.555 30.9003L18.5733 30.8966L18.5733 30.8966L18.5935 30.8925C19.44 30.7208 20.3244 30.5414 21.0926 30.4007C21.869 30.2585 22.5196 30.1572 22.8924 30.1418L9.26912 37.6385ZM12.5614 41.5827C12.4203 41.5684 12.2735 41.5022 12.1225 41.3519L23.062 30.1428C23.0597 30.1478 23.0573 30.1528 23.0548 30.158C22.9057 30.4628 22.5568 30.8584 22.2279 31.1873C21.8382 31.577 20.8657 32.6782 19.8639 33.8128C19.8132 33.8699 19.7624 33.9272 19.7117 33.9845C18.7587 35.0596 17.8035 36.1372 17.3211 36.6333L17.3211 36.6333C16.7669 37.2043 16.0659 38.0942 15.4204 38.9136L15.3897 38.9526L15.3895 38.9528C14.8193 39.6808 14.2944 40.3467 13.9783 40.6628L13.9783 40.6628L13.9769 40.6642L13.9153 40.7283C13.9151 40.7284 13.9149 40.7286 13.9147 40.7288C13.6262 41.0185 13.3191 41.3246 13.0066 41.482C12.8525 41.5596 12.7041 41.5971 12.5614 41.5827Z"/>
<path d="M25.6161 30.7086L25.6166 30.7086C25.9637 30.6929 26.2824 30.8013 26.5047 31.1076L26.5057 31.1089L26.5057 31.1089C26.6124 31.2611 26.6856 31.446 26.714 31.6738L26.7141 31.6738C26.7732 32.1495 26.6622 32.9104 26.4997 33.699C26.3365 34.4907 26.1175 35.3269 25.9509 35.9631L25.9499 35.9669L25.9499 35.9672C25.8834 36.2187 25.826 36.436 25.7853 36.594C25.765 36.673 25.7489 36.7368 25.7379 36.7823C25.7324 36.8052 25.7284 36.8228 25.7258 36.8353L25.7237 36.8461C25.7252 36.9333 25.7089 37.0481 25.6837 37.182C25.6581 37.3181 25.6216 37.4823 25.5798 37.6705L25.5762 37.6868C25.5724 37.7041 25.5686 37.7218 25.5647 37.7396C25.3917 38.5357 25.1208 39.7826 25.1021 40.8661V40.8661C25.0925 41.4161 25.1189 42.0174 25.1455 42.5933L25.1455 42.5936L25.1458 42.6002C25.1723 43.2057 25.1977 43.7879 25.1751 44.285C25.1527 44.7797 25.0825 45.2098 24.9037 45.4982C24.8543 45.5806 24.7975 45.6847 24.7393 45.7914L24.7392 45.7916L24.736 45.7974C24.5459 46.1442 24.3302 46.5376 23.9886 46.8383C23.6405 47.1448 23.1678 47.3503 22.4733 47.3353L22.4728 47.3353C22.0474 47.3241 21.2528 47.173 20.359 46.9084C19.4631 46.6432 18.4575 46.261 17.6099 45.7823C17.0239 45.4526 16.5021 45.0694 16.1239 44.635C15.7452 44.2001 15.5068 43.7092 15.4991 43.1676L25.6161 30.7086ZM25.6161 30.7086C25.3539 30.7216 25.0794 30.8118 24.8196 30.933M25.6161 30.7086L24.8196 30.933M16.9918 41.1237L16.9918 41.1238C16.661 41.8948 16.5455 42.6039 16.5526 43.1527L16.5526 43.1529C16.5558 43.4469 16.714 43.744 16.9962 44.0377C17.2775 44.3304 17.6727 44.6096 18.1266 44.8658C18.8979 45.3011 19.8087 45.6509 20.6201 45.8944C21.4334 46.1384 22.1369 46.2725 22.4946 46.2819C22.8792 46.2897 23.1389 46.1608 23.3362 45.9748C23.5383 45.7844 23.6775 45.5324 23.8143 45.2845C23.8752 45.1724 23.9388 45.0598 24.0076 44.9469L24.008 44.9462C24.0438 44.8883 24.0743 44.7871 24.0955 44.639C24.1164 44.4936 24.1271 44.3138 24.1305 44.1068C24.1373 43.7006 24.1161 43.2005 24.0935 42.6693L24.0922 42.6387C24.0657 42.0564 24.0389 41.4417 24.0486 40.8506L24.0486 40.8505C24.0706 39.6195 24.3648 38.2796 24.5435 37.4659L24.5442 37.4627L24.5442 37.4627L24.5449 37.4595C24.5821 37.2902 24.6138 37.1463 24.6362 37.0393C24.6474 36.9855 24.6562 36.9418 24.6621 36.9093C24.6677 36.8788 24.6695 36.8646 24.6699 36.8612C24.6699 36.8607 24.67 36.8604 24.67 36.8604C24.6689 36.7703 24.6991 36.6167 24.7437 36.4271C24.7897 36.2315 24.8547 35.9835 24.9296 35.6987L16.9918 41.1237ZM16.9918 41.1237C17.2606 40.4958 17.6703 39.8309 18.267 39.1816C19.0265 38.3616 20.8472 36.3789 22.3921 34.6889C23.4273 33.5572 24.2649 32.6396 24.3833 32.494L24.3058 32.4309L24.3829 32.4945C24.4312 32.4359 24.5495 32.3314 24.7116 32.215C24.8716 32.1003 25.0669 31.9792 25.2645 31.8856C25.4219 31.8128 25.5597 31.7673 25.6594 31.7621C25.662 31.7739 25.6646 31.7877 25.6671 31.8039C25.6888 31.98 25.6756 32.2339 25.6357 32.5409C25.596 32.8468 25.5309 33.1984 25.4526 33.5658C25.2995 34.2842 25.0973 35.0573 24.9402 35.6579L24.9296 35.6986L16.9918 41.1237ZM16.0222 40.7089C15.6299 41.6234 15.4892 42.4859 15.4991 43.1675L16.0222 40.7089ZM16.0222 40.7089C16.3337 39.9781 16.8065 39.2092 17.4913 38.4681C18.4124 37.4697 20.274 35.4436 21.6159 33.9785C22.6299 32.8701 23.4449 31.9731 23.574 31.8201L16.0222 40.7089ZM24.8196 30.933C24.5521 31.0575 24.2852 31.227 24.0644 31.3899C23.8451 31.5519 23.665 31.712 23.5741 31.82L24.8196 30.933Z"/>
<path d="M26.9774 33.8103L26.9775 33.81C27.1584 33.2913 27.3324 32.8197 27.5084 32.4902L27.5084 32.4901C27.6423 32.2397 27.7945 32.0368 27.9733 31.9109C28.1562 31.7821 28.3639 31.7363 28.5935 31.7973L28.6508 31.8116L28.6513 31.8117L28.6513 31.8117L28.6546 31.8126C28.8899 31.8726 29.3323 31.9855 29.7565 32.3618C30.184 32.7411 30.5831 33.3786 30.7492 34.471L30.7492 34.4713C30.8758 35.3195 31.2333 36.5087 31.6681 37.7212L31.6681 37.7213C32.2085 39.2292 32.8694 40.7653 33.3579 41.7256C33.6646 42.3269 33.9306 42.7875 34.1547 43.1754L34.1582 43.1814L34.1582 43.1814L34.1699 43.2018C34.6318 44.0022 34.9368 44.531 34.9694 45.2068L34.9694 45.2073L34.9696 45.2124C34.991 45.7078 35.0063 46.0603 34.7727 46.4304L34.7725 46.4307C34.5563 46.7708 34.1744 47.0103 33.4887 47.2962L33.4884 47.2963C33.12 47.4487 32.4468 47.603 31.6576 47.7282C30.8656 47.8539 29.9478 47.9516 29.0854 47.9881C28.3991 48.0172 27.7355 48.0052 27.1774 47.9354C26.6242 47.8662 26.1569 47.7382 25.879 47.5222L25.8787 47.522C25.3259 47.0891 24.9386 46.6683 24.7433 46.1026C24.5509 45.5504 24.5595 44.9053 24.7597 44.0382L26.9774 33.8103ZM26.9774 33.8103C26.7572 34.4491 26.2997 35.8023 25.9267 37.0592C25.6848 37.8744 25.4659 38.6789 25.3537 39.2767M26.9774 33.8103L25.3537 39.2767M25.096 41.4555L25.0933 41.4872C25.0191 42.3587 24.9442 43.2389 24.7597 44.0382L25.096 41.4555ZM25.096 41.4555C25.1588 40.7142 25.222 39.9765 25.3537 39.2767M25.096 41.4555L25.3537 39.2767M28.4675 32.8541C28.6244 32.8972 28.8499 32.9766 29.07 33.184C29.3269 33.4261 29.5868 33.8528 29.7052 34.6291C29.8421 35.546 30.2221 36.8059 30.6771 38.0764L30.6771 38.0766C31.2367 39.6319 31.9153 41.2122 32.4155 42.203L32.4157 42.2032C32.7241 42.8103 33.0082 43.3008 33.2452 43.7095C33.4502 44.0637 33.6132 44.3465 33.7281 44.5958C33.8426 44.8442 33.9061 45.0529 33.9161 45.2576L33.9161 45.2577C33.9234 45.4271 33.9291 45.5597 33.9245 45.6642C33.9198 45.7712 33.9046 45.8306 33.8833 45.8638L33.8829 45.8645C33.8512 45.9151 33.7847 45.9759 33.6528 46.0528C33.5224 46.1288 33.3382 46.215 33.083 46.3209C32.7748 46.4489 32.1737 46.5859 31.439 46.6995C30.7074 46.8126 29.8528 46.9011 29.0431 46.9348L29.043 46.9348C28.4493 46.9601 27.8913 46.9581 27.4426 46.9181C27.2181 46.8982 27.0232 46.8689 26.8659 46.8295C26.7065 46.7897 26.5949 46.7417 26.5293 46.6901L26.5288 46.6897C26.1097 46.364 25.8533 46.0862 25.7374 45.7565C25.6188 45.4163 25.628 44.9653 25.7887 44.2744L25.7888 44.2741C25.9938 43.3811 26.074 42.4481 26.1488 41.5423C26.2094 40.8134 26.2695 40.1031 26.3892 39.4709L26.3892 39.4708C26.4922 38.925 26.7012 38.1555 26.938 37.3604L26.9381 37.3604C27.3219 36.0689 27.7638 34.7624 27.974 34.1536L27.9741 34.1533C28.1361 33.6795 28.2911 33.2679 28.4394 32.9853C28.4394 32.9853 28.4395 32.9852 28.4395 32.9851L28.351 32.9386L28.4675 32.8541Z"/>
<path d="M36.2242 33.2103L36.2248 33.2107C36.5203 33.4061 37.6635 34.0416 38.8632 34.7057L38.8634 34.7058L38.9631 34.7612C39.6442 35.1399 40.3345 35.5236 40.8951 35.8417C41.4792 36.1731 41.9314 36.4381 42.0809 36.5508C42.4053 36.7929 42.9222 37.3225 43.2556 37.8931L36.2242 33.2103ZM36.2242 33.2103C35.7861 32.9256 34.3272 32.0532 33.0709 31.4299M36.2242 33.2103L33.0709 31.4299M41.7218 42.8765L41.7216 42.8767C41.0541 43.5442 40.3602 44.1483 39.7151 44.5882C39.1133 45 38.5308 45.2771 38.0223 45.3281C37.5314 45.3802 37.0348 45.1529 36.5998 44.8408L36.5996 44.8407C35.981 44.3946 35.4299 43.74 35.2114 43.443L35.2111 43.4426C35.1033 43.2942 34.8235 42.8029 34.4681 42.1367C34.1109 41.4671 33.6733 40.613 33.2483 39.7329C33.2483 39.7329 33.2483 39.7328 33.2483 39.7328L33.3384 39.6893L41.7218 42.8765ZM41.7218 42.8765C42.3813 42.2145 42.811 41.5322 43.0959 40.9084C43.3807 40.2848 43.518 39.7277 43.5987 39.312M41.7218 42.8765L43.5987 39.312M32.1938 34.4092L32.1938 34.4093C32.2097 34.4508 32.2257 34.4925 32.2416 34.5342C32.4392 35.0503 32.6412 35.578 32.8163 36.083L32.1938 34.4092ZM32.1938 34.4092C31.9736 33.8345 31.7604 33.2779 31.5979 32.7996C31.4628 32.4017 31.3657 32.0659 31.327 31.8216C31.6379 31.918 32.0954 32.1229 32.6049 32.3755C33.8246 32.9805 35.233 33.8223 35.648 34.0957L35.6487 34.0962C35.9812 34.3114 37.1464 34.9594 38.3504 35.6277C38.4263 35.6699 38.5023 35.7122 38.5784 35.7545C39.2066 36.1037 39.8343 36.4526 40.3454 36.7411C40.9223 37.0668 41.3409 37.3103 41.4505 37.3925C41.6871 37.5711 42.0867 37.982 42.3481 38.4271L42.3481 38.4271C42.4268 38.561 42.4895 38.6919 42.528 38.8117C42.5667 38.9325 42.5783 39.0346 42.5633 39.1145C42.4942 39.4747 42.3752 39.9523 42.1379 40.4697L42.1378 40.4699C41.9005 40.9895 41.5396 41.5645 40.9735 42.1282L40.9732 42.1285C40.3423 42.7618 39.6993 43.3229 39.1189 43.7169L39.1187 43.717M32.1938 34.4092L39.1187 43.717M39.1187 43.717C38.6342 44.0473 38.2193 44.2493 37.9149 44.2805C37.8329 44.2888 37.7287 44.2664 37.6051 44.2124C37.4829 44.1591 37.3501 44.0787 37.2143 43.9819C36.7091 43.6206 36.2473 43.0715 36.0617 42.8193M39.1187 43.717L36.0617 42.8193M36.0617 42.8193C35.9724 42.6967 35.7152 42.2433 35.3728 41.5979C35.0321 40.9558 34.6114 40.1319 34.1973 39.2759C33.6464 38.133 33.1166 36.9477 32.8163 36.083L36.0617 42.8193ZM33.0709 31.4299C32.6704 31.2308 32.2827 31.0545 31.9419 30.9263M33.0709 31.4299L31.9419 30.9263M31.9419 30.9263C31.6041 30.7991 31.3027 30.7152 31.0785 30.7086M31.9419 30.9263L31.0785 30.7086M31.0785 30.7086C30.8141 30.6995 30.6057 30.7718 30.4638 30.9313C30.3249 31.0875 30.2648 31.3107 30.2572 31.5721L30.3572 31.575C30.3356 32.2227 30.7995 33.4321 31.2933 34.7192L31.305 34.7497C31.3271 34.8077 31.3493 34.8658 31.3716 34.924L31.0785 30.7086ZM31.0785 30.7086C31.0785 30.7086 31.0786 30.7086 31.0787 30.7086L31.0753 30.8086L31.0782 30.7086L31.0785 30.7086ZM43.5987 39.312C43.6903 38.8438 43.5166 38.3388 43.2557 37.8932L43.5987 39.312Z"/>
<path d="M34.3263 30.7978L34.3267 30.798C34.9702 31.1931 35.845 31.4435 36.7582 31.7034L36.7584 31.7035L36.7744 31.708C37.5849 31.9406 38.4241 32.1815 39.1779 32.5486L34.3263 30.7978ZM34.3263 30.7978C33.8314 30.4965 33.1585 29.9843 32.7362 29.4322L32.7361 29.432C32.5394 29.1761 32.4124 28.9304 32.3887 28.7208C32.3729 28.5613 32.4243 28.4007 32.5916 28.2463L32.5918 28.2461C32.7767 28.0746 33.0868 27.9085 33.5588 27.7631C33.599 27.751 33.687 27.7385 33.8235 27.7278C33.9569 27.7174 34.1278 27.7092 34.3273 27.703C34.7261 27.6907 35.2356 27.6865 35.7803 27.6877C36.5989 27.6913 37.4877 27.7094 38.2092 27.7324C38.9348 27.7554 39.482 27.7832 39.6244 27.805L39.6246 27.805C39.7044 27.8171 39.8704 27.8238 40.0914 27.8276C40.3155 27.8314 40.6036 27.8321 40.9331 27.8309C41.5435 27.8287 42.2978 27.8197 43.053 27.8107C43.1132 27.81 43.1734 27.8093 43.2336 27.8086L43.2337 27.8086L43.3218 27.8075C44.064 27.7982 44.7902 27.7891 45.3473 27.785C45.6368 27.7829 45.8802 27.7821 46.0562 27.7834C46.1442 27.7841 46.2147 27.7852 46.2654 27.7869C46.2909 27.7878 46.3104 27.7887 46.3244 27.7898C46.3354 27.7906 46.3396 27.7912 46.3396 27.7912L46.3404 27.7914L46.4419 27.8155L46.4419 27.8155L46.4437 27.8159C46.6216 27.8548 47.0202 27.9424 47.2888 28.3835C47.5596 28.8282 47.7135 29.6579 47.3231 31.2216C46.9585 32.6776 46.4326 33.6542 45.8834 34.3027L45.8834 34.3028C45.1095 35.2186 44.3034 35.4678 43.8667 35.486C43.7958 35.4886 43.6795 35.456 43.5164 35.3798C43.3573 35.3055 43.1672 35.1964 42.9543 35.0619C42.5284 34.793 42.0209 34.4292 41.5015 34.0564L41.5015 34.0563M34.3263 30.7978L41.5015 34.0563M41.5015 34.0563L41.476 34.0381M41.5015 34.0563L41.476 34.0381M36.4689 32.7202L36.4688 32.7202L36.4685 32.7201C35.5095 32.4454 34.5527 32.1713 33.7774 31.6988L33.7773 31.6987C33.2057 31.3494 32.4136 30.7446 31.898 30.0712C31.6042 29.6885 31.3874 29.2651 31.3412 28.8314C31.287 28.3427 31.4392 27.8739 31.8782 27.4706C32.1828 27.1889 32.6307 26.9459 33.2515 26.757L33.2806 26.8526M36.4689 32.7202L34.2019 26.6584C33.9797 26.6675 33.7834 26.6797 33.6233 26.6956C33.4653 26.7112 33.3358 26.7309 33.2511 26.7571L33.2806 26.8526M36.4689 32.7202C37.2518 32.9432 38.0407 33.1682 38.7156 33.4973L38.7157 33.4973C39.3145 33.7885 40.0864 34.3417 40.8552 34.8925L40.8868 34.9152L36.4689 32.7202ZM33.2806 26.8526C32.6689 27.0388 32.2361 27.2758 31.9459 27.5441M33.2806 26.8526L31.9459 27.5441M31.9459 27.5441C31.5301 27.9262 31.3898 28.3638 31.4406 28.8208C31.4841 29.2294 31.6897 29.6356 31.9774 30.0104L31.9459 27.5441ZM41.476 34.0381C40.6838 33.4702 39.8619 32.8809 39.178 32.5487L41.476 34.0381ZM38.2888 26.682C37.5414 26.6578 36.6235 26.639 35.781 26.6366L43.907 36.4394L43.9112 36.5393C43.9112 36.5393 43.9113 36.5393 43.9113 36.5393C44.5674 36.5115 45.6865 36.1702 46.6889 34.9856L46.6889 34.9856C47.3363 34.22 47.9421 33.0982 48.3465 31.4756C48.8505 29.4594 48.5907 28.3115 48.1081 27.6505C47.6281 26.9931 46.9462 26.8446 46.6702 26.7845L46.6677 26.7839L46.6673 26.7839L46.5996 26.7694L46.5996 26.7694L46.5975 26.7689C46.5213 26.7544 46.3672 26.7461 46.1646 26.7412C45.9584 26.7361 45.6929 26.7344 45.3875 26.7348C44.7871 26.7357 44.0299 26.7451 43.2617 26.7546L43.2215 26.7551C43.2215 26.7551 43.2215 26.7551 43.2215 26.7551C43.1514 26.7559 43.0812 26.7568 43.0111 26.7576C42.2864 26.7665 41.5663 26.7753 40.9869 26.7783C40.6692 26.78 40.3943 26.7799 40.1844 26.7772C39.9708 26.7744 39.833 26.7688 39.7829 26.7611L39.7826 26.761C39.6157 26.7357 39.0323 26.7061 38.2888 26.682Z"/>
<path d="M3.40321 28.3713L3.30368 28.3809C3.40574 29.4356 3.71408 31.7535 4.72852 34.5396L4.72853 34.5396C5.74543 37.3306 7.47386 40.5985 10.4143 43.5486C10.687 43.8237 10.9812 44.0688 11.2865 44.2936L11.2874 44.2942C11.5931 44.5143 11.9129 44.7144 12.2368 44.8995L12.2372 44.8997L13.603 45.6709L13.6033 45.671L13.6047 45.6718C16.0127 47.0413 17.8346 48.0774 20.012 48.7513C22.1916 49.4259 24.7219 49.7363 28.5506 49.6661C32.9601 49.5837 35.8188 48.927 38.1665 47.6471C40.5115 46.3711 42.2991 44.5016 44.5971 42.0031L44.5971 42.0031C46.5623 39.8646 47.6722 38.1433 48.3533 36.625C49.0334 35.1093 49.2838 33.8003 49.5336 32.4943L49.5347 32.4888C49.5478 32.4218 49.5609 32.3548 49.5739 32.2877C49.6525 31.8844 49.7312 31.4805 49.8241 31.0801L49.8241 31.08C50.2003 29.449 50.5418 27.014 50.7475 24.6905L50.7475 24.6904C50.9386 22.5014 51.0096 20.3847 50.8706 19.1074C50.7202 17.7214 49.8701 16.1343 48.6887 14.4736C47.5295 12.8415 46.0441 11.126 44.5647 9.44603L44.5646 9.44597C41.9116 6.43791 37.7685 4.42103 35.7787 3.4527C35.7786 3.45265 35.7785 3.4526 35.7784 3.45256L35.079 3.1077C35.0788 3.10758 35.0786 3.10747 35.0783 3.10735C34.6609 2.89378 34.026 2.74901 33.287 2.65119C32.5447 2.55293 31.6868 2.50081 30.817 2.47779M3.40321 28.3713L26.3316 2.63336L26.3276 2.53344C26.3276 2.53344 26.3277 2.53344 26.3277 2.53344C27.3508 2.49232 29.1137 2.43176 30.817 2.47779M3.40321 28.3713L3.30367 28.3809C3.14762 26.7667 3.39378 24.0817 3.817 21.3828L3.81701 21.3827C4.28878 18.3827 4.98393 15.3282 5.60655 13.6767L3.40321 28.3713ZM30.817 2.47779C30.817 2.47779 30.817 2.47779 30.817 2.47779L30.8143 2.57776L30.817 2.47779ZM11.9074 43.4381L11.9075 43.4382C12.1772 43.6339 12.4616 43.8132 12.7539 43.9785L12.754 43.9785L14.1225 44.7547L14.1226 44.7547C16.4684 46.088 18.2216 47.0837 20.3127 47.7316C22.4022 48.3789 24.8344 48.6802 28.5349 48.6126C32.772 48.5354 35.4766 47.9154 37.6621 46.722L37.6622 46.722C39.8528 45.5294 41.5734 43.7312 43.8188 41.2875L43.8188 41.2875C45.6908 39.2515 46.7413 37.6228 47.3833 36.1958C48.0253 34.7688 48.2612 33.5389 48.4993 32.2913C48.5888 31.8197 48.681 31.3443 48.795 30.8443L48.7951 30.844C49.1587 29.269 49.4943 26.8877 49.6948 24.6004C49.8833 22.454 49.9525 20.4145 49.8207 19.2186L49.8207 19.2184C49.6955 18.0542 48.9312 16.6316 47.8294 15.0828L47.9109 15.0248L47.8294 15.0828C46.7085 13.5064 45.2419 11.8127 43.7715 10.144L11.9074 43.4381ZM11.9074 43.4381C11.6405 43.2451 11.3884 43.0333 11.1604 42.8054C8.34873 39.9817 6.69454 36.8543 5.71914 34.181C4.74373 31.5028 4.45003 29.2873 4.35141 28.2818C4.20526 26.7675 4.44501 24.1818 4.85841 21.5443C5.31989 18.6015 5.99806 15.6307 6.59165 14.0469M11.9074 43.4381L6.59165 14.0469M6.59165 14.0469C6.75491 13.6132 7.11857 13.0291 7.74239 12.338M6.59165 14.0469L7.74239 12.338M7.74239 12.338C8.27914 11.7462 8.99961 11.0831 9.94059 10.3779C10.839 9.70717 12.2604 8.93694 13.8018 8.20245C15.8102 7.24653 17.9999 6.36055 19.5102 5.82736C19.5103 5.82734 19.5103 5.82733 19.5103 5.82732L7.74239 12.338ZM19.1585 4.83359C19.1584 4.8336 19.1584 4.83361 19.1584 4.83363L19.1917 4.92789L19.1585 4.83359ZM34.5985 4.04487C34.5985 4.0449 34.5986 4.04494 34.5987 4.04497L34.6442 3.95591L34.5983 4.04476C34.5983 4.0448 34.5984 4.04483 34.5985 4.04487Z"/>
<path d="M10.823 6.30771L10.823 6.30769C12.8051 4.97016 14.6327 3.96178 16.2114 3.22213C18.3469 2.22103 20.0312 1.71219 21.0266 1.54099L21.0266 1.54098C26.151 0.661489 28.0487 0.864714 30.363 1.11458L30.363 1.11458L30.3874 1.11722C31.3861 1.22526 32.4625 1.3417 33.9114 1.37757C38.4139 1.48716 40.7658 3.50863 43.5322 5.88639L43.5439 5.89646C43.9041 6.20589 44.2738 6.52242 44.5564 6.76153C44.5564 6.76154 44.5564 6.76155 44.5564 6.76157L44.4918 6.83791C46.2979 8.35631 48.5465 10.6001 50.268 12.8075L10.823 6.30771ZM10.823 6.30771C8.49782 7.87799 6.63097 9.29263 5.15306 10.8702L5.15303 10.8702C3.65903 12.4664 2.57541 14.2173 1.83323 16.4462C1.04662 18.8061 0.715586 22.4303 1.00146 26.2679L1.00147 26.2679C1.25352 29.6319 1.98071 33.1832 3.29913 36.2231L3.29899 36.2231L3.30149 36.2281L3.30565 36.2364C3.37632 36.3916 5.17527 40.2361 8.9779 44.0745C12.8454 47.9783 18.7908 51.8808 27.1003 51.8808C33.5195 51.8808 38.5645 49.7349 42.4074 46.8363L42.4074 46.8363M10.823 6.30771L42.4074 46.8363M42.4074 46.8363C48.4944 42.2413 51.5595 35.7335 52.292 32.8568C52.8335 30.7298 53.1483 28.0145 53.2766 25.4071L42.4074 46.8363ZM5.92285 11.5896L5.92281 11.5896C4.53237 13.0737 3.52455 14.703 2.83294 16.7778C2.09153 19.0021 1.77692 22.4716 2.05441 26.1877C2.29801 29.4509 2.99729 32.8796 4.26089 35.7922C4.26124 35.793 4.26288 35.7965 4.26606 35.8034L4.28184 35.8369C4.29575 35.8662 4.31645 35.9092 4.34401 35.9651C4.39912 36.0767 4.48164 36.2396 4.59211 36.4464C4.81305 36.8601 5.14573 37.4492 5.59442 38.1552C6.49192 39.5673 7.85301 41.4462 9.71178 43.3235C13.4291 47.0779 19.1329 50.8224 27.1003 50.8224C33.2588 50.8224 38.093 48.7709 41.7719 45.9924L41.7719 45.9924C47.6316 41.5712 50.5725 35.3322 51.2688 32.5947L51.2689 32.5946C51.7936 30.5389 52.0978 27.8988 52.2258 25.3584C52.3755 22.334 52.2785 19.4678 52.0071 17.8972L52.007 17.897C51.9047 17.2968 51.6105 16.5903 51.1754 15.8214C50.7409 15.0536 50.1692 14.2291 49.5171 13.3938C47.8342 11.2408 45.639 9.04788 43.8786 7.56724L43.8786 7.5672C43.4647 7.21869 43.1573 6.95488 42.8573 6.696C40.2124 4.42102 38.0096 2.53161 33.8871 2.42859C33.8871 2.42859 33.8871 2.42859 33.8871 2.42859L33.8896 2.32862C32.3804 2.29252 31.2858 2.17495 30.2765 2.06655L5.92285 11.5896ZM5.92285 11.5896C7.32449 10.0918 9.13502 8.72354 11.4137 7.18431M5.92285 11.5896L11.4137 7.18431M11.4137 7.18431C13.3558 5.87426 15.1308 4.89278 16.6566 4.17693M11.4137 7.18431L16.6566 4.17693M16.6566 4.17693C18.7017 3.21948 20.2862 2.73952 21.2032 2.58192L16.6566 4.17693Z"/>
</svg>
