<svg width="24" height="24" viewBox="0 0 24 24" fill="none" xmlns="http://www.w3.org/2000/svg">
<path d="M11.7897 23.4063L11.7897 23.4063C11.6312 23.2298 9.62148 20.9747 7.65443 18.0305C6.6709 16.5584 5.70473 14.9239 4.98592 13.2984C4.26437 11.6666 3.80809 10.0793 3.80809 8.69184C3.80809 4.1753 7.48339 0.5 12 0.5C16.5165 0.5 20.1918 4.17529 20.1919 8.69184C20.1919 10.0793 19.7356 11.6666 19.014 13.2984C18.2952 14.9239 17.3291 16.5584 16.3455 18.0305C14.3785 20.9747 12.3688 23.2298 12.2103 23.4063L12.2103 23.4063C12.0982 23.5311 11.9018 23.5312 11.7897 23.4063ZM7.12692 8.69184C7.12692 11.3793 9.31249 13.565 12 13.565C14.6874 13.565 16.873 11.3794 16.873 8.69189C16.873 6.00442 14.6874 3.81878 12 3.81878C9.31255 3.81878 7.12692 6.00435 7.12692 8.69184Z" fill="#008AC4" stroke="#008AC4"/>
</svg>
