<svg viewBox="0 0 133 111" xmlns="http://www.w3.org/2000/svg">
	<path d="M131.19 76.4877C128.839 74.1374 125.085 74.05 122.644 76.2884C118.002 80.544 112.939 84.2169 107.56 87.2764L103.09 74.3314C101.885 70.8387 102.036 67.0503 103.523 63.6511C106.018 58.2409 106.57 52.1157 105.077 46.4039C105.029 46.2202 104.929 45.8372 103.948 43.2957C103.022 40.8982 104.143 38.2103 106.498 37.1764C108.784 36.1723 111.42 37.0635 112.628 39.2498L113.437 40.7145C114.324 42.3199 115.787 43.4701 117.556 43.9542C119.325 44.4384 121.17 44.1928 122.75 43.2629C127.076 40.7183 128.707 35.2088 126.462 30.72L120.166 18.1289C118.749 15.2936 116.676 12.7665 114.171 10.8194L114.153 10.8054C113.035 9.93233 112.37 8.61942 112.328 7.20247L112.193 2.63982C112.17 1.8468 111.721 1.12793 111.019 0.75867C110.317 0.389414 109.47 0.427805 108.803 0.85831L98.1219 7.76222C89.1382 13.5686 82.8201 22.9222 80.7874 33.424L80.2271 36.318C79.9208 37.8999 78.9458 39.2709 77.552 40.0791C76.1582 40.8877 74.4843 41.0527 72.9592 40.5331L63.8063 37.4126C59.8773 36.0733 55.6426 35.7629 51.5561 36.5161L51.4084 36.5436C49.2753 36.939 47.1406 35.9279 46.0961 34.0268C42.6902 27.828 37.0479 23.4216 30.2088 21.6193C23.3699 19.8169 16.2884 20.8705 10.2699 24.5853L7.44359 26.3299C6.72823 26.7716 6.32733 27.5825 6.41114 28.4188L6.67402 31.0488C7.49576 39.2668 12.7348 46.3629 20.3467 49.5678C21.4565 50.0352 22.7352 49.5227 23.2155 48.4184L26.3586 41.1895C27.3755 38.8509 30.1074 37.7704 32.4486 38.7817C33.6308 39.2922 34.5247 40.2394 34.966 41.4495C35.4074 42.6592 35.3332 43.9598 34.7574 45.1118C32.0732 50.4795 31.3837 56.6458 32.815 62.4745C33.2071 64.0708 32.9222 65.704 32.0132 67.0735C31.1041 68.4426 29.7094 69.3391 28.0861 69.5973L23.7852 70.2816C22.9588 70.4132 22.2783 71.0025 22.0309 71.8023L18.5898 82.9201C15.7255 80.8962 12.9733 78.6863 10.3575 76.2879C7.916 74.0495 4.16191 74.1368 1.81157 76.4871C0.607677 77.691 -0.0347109 79.2914 0.0025077 80.9935C0.0391402 82.6804 0.7756 84.303 2.02257 85.4457C10.4278 93.147 20.0255 99.2175 30.549 103.489C41.9995 108.136 54.0955 110.493 66.501 110.493C78.9066 110.493 91.0023 108.136 102.453 103.489C112.976 99.2177 122.574 93.147 130.979 85.4457C132.226 84.303 132.963 82.6804 132.999 80.9935C133.036 79.292 132.394 77.6916 131.19 76.4877ZM22.4201 85.4111L25.8258 74.4085L28.7766 73.939C31.5868 73.4921 34.1012 71.8758 35.6752 69.5053C37.2493 67.1344 37.7627 64.1897 37.084 61.4262C35.9009 56.6095 36.4709 51.514 38.6891 47.078C39.8112 44.8343 39.9554 42.3005 39.0958 39.9437C38.2363 37.5869 36.4943 35.7412 34.1912 34.7469C29.63 32.7769 24.308 34.8814 22.3272 39.4376L20.1023 44.555C15.0418 41.6698 11.637 36.4985 11.0485 30.6118L10.9222 29.3493L12.5792 28.3265C17.5624 25.2503 23.425 24.3778 29.089 25.8707C34.7521 27.363 39.4238 31.0115 42.2439 36.1445C44.2039 39.7116 48.2097 41.6089 52.2117 40.8663L52.3568 40.8393C55.7012 40.2227 59.1701 40.4768 62.3885 41.574L71.5414 44.6942C74.2698 45.6247 77.2645 45.3287 79.7582 43.8824C82.2518 42.4362 83.9958 39.9839 84.5439 37.1538L85.1042 34.2598C86.9106 24.927 92.5253 16.6147 100.509 11.4545L107.915 6.66764L107.935 7.33171C108.015 10.0607 109.296 12.5895 111.454 14.2749L111.476 14.2919C113.464 15.8366 115.109 17.8435 116.235 20.0948L122.531 32.6858C123.745 35.1153 122.863 38.0969 120.522 39.4742C119.972 39.7972 119.332 39.8828 118.717 39.7146C118.102 39.5463 117.593 39.1466 117.285 38.5886L116.476 37.1239C114.162 32.9358 109.113 31.2278 104.731 33.1518C100.219 35.1326 98.0741 40.2834 99.8471 44.8786C100.673 47.0191 100.808 47.4572 100.824 47.5161C102.061 52.2455 101.601 57.3216 99.5303 61.8113L99.489 61.903C97.5651 66.3033 97.3684 71.2264 98.9354 75.7656L103.634 89.3765C101.663 90.3618 99.6514 91.2618 97.6093 92.0855L87.9445 71.4075C86.6929 68.7292 83.8332 67.0946 80.8586 67.4031C78.4763 67.6537 76.0483 67.7809 73.642 67.7809C67.51 67.7809 61.3989 66.963 55.4785 65.3497C54.5606 65.0997 53.5856 65.4687 53.0634 66.264L49.8579 71.1452C48.8703 72.6472 47.6335 73.9399 46.1823 74.987C44.7214 76.0411 43.1061 76.8098 41.3817 77.2719C37.1511 78.4046 33.4093 80.9841 30.8462 84.5349L27.8951 88.6201C25.9664 87.6079 24.0765 86.5168 22.2276 85.3513L22.4201 85.4111ZM93.4772 93.627C84.8818 96.5717 75.7825 98.1109 66.5005 98.1109C54.4208 98.1109 42.6509 95.5059 31.9 90.583L34.4101 87.1085C36.383 84.3754 39.2629 82.3902 42.5191 81.5184C44.7616 80.9176 46.8596 79.9195 48.7548 78.5518C50.6415 77.1902 52.2484 75.5112 53.5317 73.5595L55.872 69.9953C61.6831 71.4436 67.6528 72.1771 73.6417 72.1771C76.201 72.1771 78.784 72.042 81.3149 71.7756C81.4087 71.7659 81.5039 71.761 81.5983 71.761C82.6061 71.761 83.5337 72.3529 83.9618 73.269L93.4772 93.627ZM128.009 82.2053C119.991 89.552 110.836 95.3426 100.799 99.4164C89.8761 103.85 78.3363 106.098 66.5002 106.098C54.6638 106.098 43.1242 103.85 32.2013 99.4164C22.164 95.3426 13.0094 89.552 4.99127 82.2053C4.61849 81.8636 4.4072 81.3997 4.39636 80.8983C4.38551 80.4065 4.57131 79.9441 4.91917 79.5962C5.27231 79.2428 5.73359 79.0649 6.19369 79.0649C6.62127 79.0649 7.04825 79.2188 7.38615 79.5288C23.5484 94.3465 44.5423 102.507 66.5002 102.507C88.458 102.507 109.452 94.3465 125.614 79.5288C126.316 78.8852 127.4 78.9148 128.081 79.5962C128.429 79.9441 128.615 80.4065 128.604 80.8983C128.593 81.3994 128.382 81.8636 128.009 82.2053Z"/>
</svg>
