<svg width="46" height="43" viewBox="0 0 46 43" xmlns="http://www.w3.org/2000/svg">
<path d="M45.9988 29.7019C45.9989 29.6921 46 29.6825 46 29.6728C46 29.6706 45.9997 29.6685 45.9996 29.6663C45.9995 29.6505 45.9983 29.6347 45.997 29.6188C45.9964 29.6111 45.996 29.6034 45.9951 29.5958C45.9935 29.5821 45.991 29.5686 45.9885 29.5549C45.9867 29.5452 45.9852 29.5353 45.9829 29.5257C45.9804 29.5152 45.9772 29.5048 45.9743 29.4943C45.9707 29.4817 45.9673 29.4692 45.963 29.457C45.9603 29.4491 45.9568 29.4411 45.9537 29.4331C45.9481 29.4189 45.9425 29.4048 45.9359 29.3911C45.9349 29.389 45.9342 29.3867 45.9331 29.3845L38.0519 13.1763V11.0518H38.1015C38.9507 11.0518 39.6415 10.4061 39.6415 9.61231V9.50198C39.6415 8.79169 39.097 8.19405 38.3469 8.08084L25.3348 6.11798V4.87079C25.8287 4.3534 26.1296 3.67181 26.1296 2.92549C26.1296 1.31238 24.7257 0 23.0001 0C21.2744 0 19.8705 1.31238 19.8705 2.92549C19.8705 3.67181 20.1714 4.3534 20.6653 4.87079V6.05028L7.64532 8.0788C6.89979 8.19498 6.35862 8.79215 6.35862 9.49873V9.61231C6.35862 10.4061 7.04941 11.0518 7.89857 11.0518H7.94825V13.1763L0.0668638 29.3845C0.0657709 29.3866 0.0650754 29.389 0.0640819 29.3911C0.0576241 29.4048 0.051961 29.4189 0.0463973 29.433C0.043218 29.441 0.0398401 29.449 0.0369589 29.457C0.0326868 29.4692 0.0292094 29.4817 0.0257321 29.4943C0.0227516 29.5048 0.0195723 29.5152 0.0170885 29.5257C0.0149028 29.5353 0.0133131 29.5452 0.0115248 29.5549C0.00904102 29.5686 0.00645787 29.5821 0.00486824 29.5958C0.00397407 29.6034 0.00367602 29.6112 0.00298056 29.6189C0.00168898 29.6347 0.000596111 29.6505 0.000397407 29.6662C0.000397407 29.6684 0 29.6706 0 29.6727C0 29.6825 0.00109287 29.6921 0.00119222 29.7019C0.00158963 29.7097 0.00149028 29.7176 0.00218574 29.7254C0.0486824 32.5905 3.84849 34.8272 8.69339 34.8272C13.5383 34.8272 17.3381 32.5905 17.3845 29.7255C17.3852 29.7177 17.3851 29.7098 17.3855 29.7019C17.3856 29.6922 17.3867 29.6826 17.3867 29.6729C17.3867 29.6707 17.3864 29.6686 17.3863 29.6664C17.3862 29.6506 17.385 29.6348 17.3837 29.6189C17.3831 29.6112 17.3827 29.6035 17.3818 29.5959C17.3802 29.5822 17.3776 29.5687 17.3751 29.555C17.3734 29.5453 17.3719 29.5354 17.3696 29.5258C17.3671 29.5153 17.3639 29.5049 17.3609 29.4944C17.3574 29.4818 17.354 29.4693 17.3497 29.4571C17.3469 29.4491 17.3435 29.4412 17.3404 29.4332C17.3348 29.419 17.3291 29.4049 17.3226 29.3912C17.3216 29.3891 17.3209 29.3868 17.3198 29.3846L9.43852 13.1763V11.0518H20.6653V26.185C20.1919 26.4308 19.8705 26.9027 19.8705 27.4438V37.705L15.1503 39.0838C14.1704 39.3702 13.512 40.2073 13.512 41.1671V42.3035C13.512 42.6881 13.8455 43 14.2571 43H31.743C32.1546 43 32.4882 42.6881 32.4882 42.3035V41.167C32.4882 40.2072 31.8297 39.3701 30.8498 39.0837L26.1296 37.705V27.4438C26.1296 26.9027 25.8082 26.4308 25.3348 26.185V11.0518H36.5616V13.1763L28.6802 29.3846C28.6791 29.3867 28.6784 29.3891 28.6774 29.3912C28.671 29.4048 28.6653 29.419 28.6597 29.4331C28.6565 29.4411 28.6532 29.4491 28.6503 29.4571C28.646 29.4693 28.6425 29.4818 28.6391 29.4944C28.6361 29.5049 28.6329 29.5153 28.6304 29.5258C28.6282 29.5354 28.6266 29.5453 28.6249 29.555C28.6224 29.5687 28.6198 29.5822 28.6182 29.5959C28.6173 29.6035 28.617 29.6113 28.6163 29.619C28.615 29.6348 28.6139 29.6506 28.6137 29.6663C28.6137 29.6685 28.6133 29.6706 28.6133 29.6728C28.6133 29.6826 28.6144 29.6922 28.6145 29.702C28.6149 29.7098 28.6148 29.7177 28.6155 29.7255C28.662 32.5905 32.4618 34.8272 37.3067 34.8272C42.1516 34.8272 45.9514 32.5905 45.9978 29.7255C45.9985 29.7176 45.9984 29.7097 45.9988 29.7019ZM8.69339 15.0105L15.4843 28.9762H1.90249L8.69339 15.0105ZM8.69339 33.4341C5.24309 33.4341 2.26612 32.0891 1.62013 30.3693H15.7667C15.1207 32.0891 12.1437 33.4341 8.69339 33.4341ZM24.6394 27.4438V37.5205H21.3607V27.4438C21.3607 27.4182 21.3831 27.3974 21.4104 27.3974H24.5897C24.617 27.3974 24.6394 27.4182 24.6394 27.4438ZM22.1556 26.0043V5.74185C22.4244 5.81243 22.7075 5.85097 23.0001 5.85097C23.2926 5.85097 23.5757 5.81243 23.8445 5.74185V26.0043H22.1556ZM23.0001 1.39309C23.904 1.39309 24.6394 2.08053 24.6394 2.92549C24.6394 3.77044 23.904 4.45788 23.0001 4.45788C22.0961 4.45788 21.3607 3.77044 21.3607 2.92549C21.3607 2.08053 22.0961 1.39309 23.0001 1.39309ZM7.89857 9.65875C7.87125 9.65875 7.84889 9.63794 7.84889 9.61231V9.49873C7.84889 9.47588 7.86638 9.45666 7.89042 9.45294L20.6653 7.46268V9.65875H7.89857ZM30.9979 41.167V41.6069H15.0022V41.167C15.0022 40.8198 15.2404 40.517 15.5949 40.4135L20.7294 38.9136H25.2708L30.4053 40.4135C30.7597 40.5171 30.9979 40.8198 30.9979 41.167ZM25.3348 7.52918L38.1094 9.45619C38.1336 9.45981 38.1512 9.47913 38.1512 9.50207V9.6124C38.1512 9.63804 38.1289 9.65884 38.1015 9.65884H25.3348V7.52918ZM37.3067 15.0105L44.0976 28.9762H30.5158L37.3067 15.0105ZM37.3067 33.4341C33.8564 33.4341 30.8794 32.0891 30.2335 30.3693H44.3801C43.734 32.0891 40.757 33.4341 37.3067 33.4341Z"/>
</svg>
