<svg viewBox="0 0 120 128" xmlns="http://www.w3.org/2000/svg">
<path d="M60.0001 32.9309C61.1284 32.9309 62.0426 32.0163 62.0426 30.8883V2.04255C62.0426 0.914519 61.1284 0 60.0001 0C58.8718 0 57.9575 0.914519 57.9575 2.04255V30.8883C57.9575 32.0166 58.8718 32.9309 60.0001 32.9309Z"/>
<path d="M68.181 32.9309C69.3093 32.9309 70.2235 32.0163 70.2235 30.8883V2.04255C70.2235 0.914519 69.3093 0 68.181 0C67.0527 0 66.1384 0.914519 66.1384 2.04255V30.8883C66.1384 32.0166 67.0527 32.9309 68.181 32.9309Z"/>
<path d="M53.861 37.542V7.97615C53.861 6.84811 52.9467 5.93359 51.8184 5.93359C50.6901 5.93359 49.7759 6.84811 49.7759 7.97615V39.4323C49.7759 40.5603 50.6901 41.4748 51.8184 41.4748C57.1062 41.4748 61.4084 45.7773 61.4084 51.0656C61.4084 52.1936 62.3226 53.1081 63.4509 53.1081C64.5792 53.1081 65.4935 52.1936 65.4935 51.0656C65.4935 44.2187 60.4361 38.5308 53.861 37.542Z"/>
<path d="M76.362 8.90063C75.2337 8.90063 74.3194 9.81515 74.3194 10.9432V45.1628C74.3194 50.2591 71.5756 55.0125 67.1588 57.5676C66.1824 58.1324 65.8485 59.3822 66.4136 60.3585C66.7925 61.013 67.4782 61.3787 68.1836 61.3787C68.5305 61.3787 68.8824 61.2899 69.2046 61.1039C69.3683 61.0092 69.5298 60.9117 69.6896 60.8123V125.957C69.6896 127.085 70.6039 128 71.7322 128C72.8605 128 73.7747 127.085 73.7747 125.957V57.3579C76.7076 54.0351 78.4045 49.7057 78.4045 45.1628V10.9432C78.4045 9.81515 77.4903 8.90063 76.362 8.90063Z"/>
<path d="M52.8407 57.5675C48.4239 55.0124 45.6801 50.2592 45.6801 45.1626V22.8841C45.6801 21.7561 44.7658 20.8416 43.6375 20.8416C42.5092 20.8416 41.595 21.7561 41.595 22.8841V45.1626C41.595 51.3107 44.701 57.0696 49.7753 60.4682V125.957C49.7753 127.085 50.6895 128 51.8178 128C52.9461 128 53.8604 127.085 53.8604 125.957V59.3358C53.8604 58.6065 53.4717 57.9327 52.8407 57.5675Z"/>
<path d="M19.0938 66.302C20.2221 66.302 21.1364 65.3874 21.1364 64.2594V35.4136C21.1364 34.2856 20.2221 33.3711 19.0938 33.3711C17.9655 33.3711 17.0513 34.2856 17.0513 35.4136V64.2594C17.0513 65.3874 17.9655 66.302 19.0938 66.302Z"/>
<path d="M27.275 66.302C28.4033 66.302 29.3175 65.3874 29.3175 64.2594V35.4136C29.3175 34.2856 28.4033 33.3711 27.275 33.3711C26.1467 33.3711 25.2324 34.2856 25.2324 35.4136V64.2594C25.2324 65.3874 26.1467 66.302 27.275 66.302Z"/>
<path d="M12.9555 70.9128V41.3472C12.9555 40.2192 12.0412 39.3047 10.9129 39.3047C9.78461 39.3047 8.87036 40.2192 8.87036 41.3472V72.8031C8.87036 73.9311 9.78461 74.8456 10.9129 74.8456C16.2007 74.8456 20.5028 79.1481 20.5028 84.4364C20.5028 85.5644 21.4171 86.4789 22.5454 86.4789C23.6737 86.4789 24.5879 85.5644 24.5879 84.4364C24.5879 77.5898 19.5303 71.9019 12.9555 70.9128Z"/>
<path d="M35.4565 42.2715C34.3281 42.2715 33.4139 43.186 33.4139 44.314V78.5336C33.4139 83.6299 30.6701 88.3833 26.2533 90.9384C25.2769 91.5033 24.943 92.7528 25.5081 93.7294C25.887 94.3838 26.5727 94.7496 27.2781 94.7496C27.625 94.7496 27.9769 94.6608 28.2991 94.4745C28.4627 94.3797 28.6242 94.2822 28.7841 94.1828V125.957C28.7841 127.085 29.6984 128 30.8267 128C31.955 128 32.8692 127.085 32.8692 125.957V90.7285C35.8021 87.4059 37.499 83.0762 37.499 78.5336V44.314C37.499 43.186 36.5845 42.2715 35.4565 42.2715Z"/>
<path d="M11.935 90.9388C7.51814 88.3834 4.77432 83.6303 4.77432 78.534V56.2554C4.77432 55.1274 3.86007 54.2129 2.73176 54.2129C1.60346 54.2129 0.689209 55.1274 0.689209 56.2554V78.534C0.689209 84.6818 3.79525 90.4407 8.8695 93.8392V125.957C8.8695 127.085 9.78375 128 10.9121 128C12.0404 128 12.9546 127.085 12.9546 125.957V92.7066C12.9546 91.9775 12.566 91.3037 11.935 90.9388Z"/>
<path d="M100.906 49.9614C102.034 49.9614 102.948 49.0469 102.948 47.9188V19.0731C102.948 17.945 102.034 17.0305 100.906 17.0305C99.7773 17.0305 98.863 17.945 98.863 19.0731V47.9188C98.863 49.0469 99.7776 49.9614 100.906 49.9614Z"/>
<path d="M92.7247 17.0305C91.5964 17.0305 90.6821 17.945 90.6821 19.0731V47.9188C90.6821 49.0469 91.5964 49.9614 92.7247 49.9614C93.853 49.9614 94.7672 49.0469 94.7672 47.9188V19.0731C94.7672 17.945 93.853 17.0305 92.7247 17.0305Z"/>
<path d="M111.129 56.4628V25.0069C111.129 23.8789 110.215 22.9644 109.087 22.9644C107.958 22.9644 107.044 23.8789 107.044 25.0069V54.5727C100.469 55.5616 95.4116 61.2497 95.4116 68.0963C95.4116 69.2244 96.3259 70.1389 97.4542 70.1389C98.5825 70.1389 99.4967 69.2244 99.4967 68.0963C99.4967 62.808 103.799 58.5056 109.087 58.5056C110.215 58.5053 111.129 57.5908 111.129 56.4628Z"/>
<path d="M93.7467 74.5983C89.3299 72.043 86.5861 67.2898 86.5861 62.1935V27.9739C86.5861 26.8459 85.6718 25.9314 84.5435 25.9314C83.4152 25.9314 82.501 26.8459 82.501 27.9739V62.1935C82.501 66.7361 84.1979 71.0658 87.1308 74.3884V125.957C87.1308 127.085 88.045 128 89.1733 128C90.3016 128 91.2159 127.085 91.2159 125.957V77.8425C91.376 77.9419 91.5372 78.0394 91.7009 78.1341C92.0231 78.3207 92.3749 78.4092 92.7219 78.4092C93.4273 78.4092 94.113 78.0434 94.4918 77.389C95.057 76.4127 94.7231 75.1632 93.7467 74.5983Z"/>
<path d="M117.268 37.8721C116.139 37.8721 115.225 38.7866 115.225 39.9146V62.1932C115.225 67.2895 112.481 72.0429 108.065 74.598C107.434 74.9629 107.045 75.6367 107.045 76.366V125.957C107.045 127.085 107.959 128 109.087 128C110.216 128 111.13 127.085 111.13 125.957V77.4984C116.204 74.0999 119.31 68.341 119.31 62.1932V39.9146C119.31 38.7866 118.396 37.8721 117.268 37.8721Z"/>
</svg>
