<svg viewBox="0 0 32 45" xmlns="http://www.w3.org/2000/svg">
	<path d="M3.8 10.08C3 10.28 2.26 10.14 1.58 9.66C0.9 9.14 0.56 8.46 0.56 7.62V5.82C0.56 4.82 0.86 3.94 1.46 3.18C2.1 2.38 2.9 1.9 3.86 1.74C7.98 0.979999 11.92 0.599999 15.68 0.599999C20.6 0.599999 24.44 1.58 27.2 3.54C29.96 5.5 31.34 8.06 31.34 11.22C31.34 12.7 31.14 14.02 30.74 15.18C30.38 16.34 29.76 17.4 28.88 18.36C28.04 19.32 27.3 20.06 26.66 20.58C26.06 21.06 25.14 21.72 23.9 22.56C22.86 23.32 22.1 23.88 21.62 24.24C21.14 24.56 20.56 25.08 19.88 25.8C19.2 26.48 18.68 27.16 18.32 27.84C17.2 30 15.78 31.08 14.06 31.08H11.48C10.52 31.08 9.72 30.74 9.08 30.06C8.44 29.38 8.24 28.6 8.48 27.72C8.84 26.36 9.48 25.06 10.4 23.82C11.32 22.54 12.14 21.6 12.86 21C13.58 20.36 14.62 19.54 15.98 18.54C17.06 17.74 17.86 17.1 18.38 16.62C18.94 16.14 19.46 15.54 19.94 14.82C20.42 14.1 20.66 13.36 20.66 12.6C20.66 9.96 18.5 8.64 14.18 8.64C11.02 8.64 7.56 9.12 3.8 10.08ZM10.94 36H14.54C15.46 36 16.26 36.34 16.94 37.02C17.62 37.7 17.96 38.5 17.96 39.42V41.58C17.96 42.5 17.62 43.3 16.94 43.98C16.26 44.66 15.46 45 14.54 45H10.94C10.02 45 9.22 44.66 8.54 43.98C7.9 43.3 7.58 42.5 7.58 41.58V39.42C7.58 38.5 7.9 37.7 8.54 37.02C9.22 36.34 10.02 36 10.94 36Z"/>
</svg>
