<svg width="40" height="40" viewBox="0 0 40 40" fill="none" xmlns="http://www.w3.org/2000/svg">
<rect width="40" height="40" rx="20" fill="white"/>
<path d="M24.4806 9.99976H15.5192C12.4759 9.99976 10 12.4758 10 15.519V24.4805C10 27.5239 12.4759 29.9998 15.5192 29.9998H24.4806C27.5241 29.9998 30 27.5237 30 24.4805V15.519C30.0001 12.4758 27.5241 9.99976 24.4806 9.99976ZM28.2256 24.4805C28.2256 26.5454 26.5456 28.2253 24.4807 28.2253H15.5192C13.4544 28.2254 11.7745 26.5454 11.7745 24.4805V15.519C11.7745 13.4542 13.4544 11.7743 15.5192 11.7743H24.4806C26.5455 11.7743 28.2255 13.4542 28.2255 15.519V24.4805H28.2256Z" fill="#008AC4"/>
<path d="M20 14.9998C17.243 14.9998 15 17.2428 15 19.9999C15 22.7569 17.243 24.9998 20 24.9998C22.757 24.9998 25 22.7569 25 19.9999C25 17.2428 22.757 14.9998 20 14.9998ZM20 23.278C18.1924 23.278 16.7216 21.8074 16.7216 19.9998C16.7216 18.192 18.1923 16.7213 20 16.7213C21.8077 16.7213 23.2784 18.192 23.2784 19.9998C23.2784 21.8074 21.8076 23.278 20 23.278Z" fill="#008AC4"/>
<path d="M25.0007 13.333C24.5628 13.333 24.1326 13.5103 23.8234 13.8209C23.5126 14.13 23.334 14.5603 23.334 14.9997C23.334 15.4377 23.5128 15.8679 23.8234 16.1785C24.1325 16.4876 24.5628 16.6663 25.0007 16.6663C25.44 16.6663 25.8688 16.4876 26.1794 16.1785C26.49 15.8679 26.6673 15.4376 26.6673 14.9997C26.6673 14.5603 26.49 14.13 26.1794 13.8209C25.8703 13.5103 25.44 13.333 25.0007 13.333Z" fill="#008AC4"/>
</svg>
