<?xml version="1.0" encoding="UTF-8"?>
<!DOCTYPE svg PUBLIC "-//W3C//DTD SVG 1.1//EN" "http://www.w3.org/Graphics/SVG/1.1/DTD/svg11.dtd">
<!-- Creator: CorelDRAW 2018 (64-Bit Оценочная версия) -->
<svg xmlns="http://www.w3.org/2000/svg" xml:space="preserve" width="501px" height="261px" version="1.1" style="shape-rendering:geometricPrecision; text-rendering:geometricPrecision; image-rendering:optimizeQuality; fill-rule:evenodd; clip-rule:evenodd"
viewBox="0 0 16636 8669"
 xmlns:xlink="http://www.w3.org/1999/xlink">
 <defs>
  <style type="text/css">
   <![CDATA[
    .fil0 {fill:#FA873D}
    .fil2 {fill:#008AC4;fill-rule:nonzero}
    .fil1 {fill:#FA873D;fill-rule:nonzero}
   ]]>
  </style>
 </defs>
 <g id="Слой_x0020_1">
  <metadata id="CorelCorpID_0Corel-Layer"/>
  <g id="_377733502288">
   <path class="fil0" d="M4492 1495c-1494,-191 -2859,864 -3051,2358 -99,778 140,1522 604,2082 187,-183 512,-497 574,-534 89,-52 166,-110 166,-110 0,0 -36,-214 21,-463 57,-248 112,-319 123,-397 14,-107 22,-334 -21,-433 -52,-119 -66,-207 15,-266 81,-59 234,41 303,200 68,159 61,216 61,216 0,0 71,-282 154,-440 83,-157 185,-389 225,-488 39,-100 82,-211 189,-205 107,6 218,68 127,279 -90,211 -104,270 -119,345 -15,74 -67,367 -79,392 -12,24 17,32 29,20 12,-13 165,-205 257,-314 93,-108 267,-297 303,-343 36,-46 120,-179 227,-173 107,6 158,100 139,186 -19,87 -87,162 -131,213 -44,50 -197,312 -225,354 -28,41 -183,274 -183,274l21 37c0,0 182,-110 256,-157 73,-46 383,-303 456,-330 126,-48 266,107 181,218 -76,101 -176,178 -212,212 -37,33 -220,214 -297,269 -77,54 -174,192 -158,219 13,22 148,33 230,5 115,-40 416,-119 475,-104 83,22 134,158 53,225 -81,68 -244,125 -289,146 -44,22 -341,131 -341,131 0,0 -226,135 -340,243 -38,67 -204,312 -321,386 -65,42 -123,72 -123,72 0,0 -111,254 -163,314 -92,174 -257,412 -417,626 187,68 383,117 588,143 1494,192 2860,-864 3051,-2358 191,-1493 -865,-2859 -2358,-3050z"/>
   <path class="fil1" d="M5772 355c0,0 -55,200 -111,400 -64,202 -129,404 -129,404l0 2c-46,144 -201,224 -345,177 -145,-46 -224,-200 -178,-345 6,-20 16,-40 26,-58 0,0 105,-174 210,-348 100,-182 200,-364 200,-364l0 -1c47,-86 155,-117 241,-70 74,40 108,125 86,203z"/>
   <path class="fil1" d="M2681 8039c0,0 45,-199 90,-399 57,-206 113,-411 113,-411 40,-147 192,-233 338,-193 147,40 233,191 193,338 -5,21 -13,41 -23,59l-11 19c0,0 -94,171 -188,342 -90,183 -180,365 -180,365 -43,88 -150,125 -238,81 -75,-37 -112,-120 -95,-198l1 -3z"/>
   <path class="fil1" d="M7975 5829c0,0 -50,-13 -124,-31 -18,-5 -39,-10 -60,-15 -21,-5 -45,-14 -70,-22 -49,-16 -101,-33 -153,-50 -48,-16 -96,-33 -142,-48 -45,-16 -85,-27 -120,-38 -70,-21 -116,-35 -116,-35l-9 -3c-142,-44 -222,-195 -179,-337 44,-143 195,-223 337,-179 20,6 40,15 57,25 0,0 47,27 116,67 34,21 76,44 116,69 41,26 84,53 127,80 41,25 81,49 118,72 20,12 36,23 56,33 20,10 38,20 55,29 68,35 113,59 113,59l1 0c85,44 119,149 74,235 -38,73 -121,108 -197,89z"/>
   <path class="fil1" d="M402 2649c0,0 45,9 114,23 34,7 74,16 116,24 42,7 87,16 132,24 48,11 96,21 141,31 45,10 87,23 123,33 72,20 120,34 120,34 146,41 231,193 190,340 -42,146 -194,231 -340,190 -23,-7 -45,-16 -64,-27l-10 -6c0,0 -37,-22 -92,-55 -28,-16 -60,-37 -96,-55 -36,-19 -75,-39 -114,-59 -42,-20 -85,-40 -125,-59 -41,-19 -76,-37 -107,-53 -63,-31 -104,-52 -104,-52 -88,-44 -124,-151 -80,-239 37,-73 118,-110 195,-94l1 0z"/>
   <path class="fil1" d="M7483 1775c0,0 -35,34 -87,85 -53,51 -122,118 -192,186 -149,132 -298,265 -298,265 -113,100 -287,90 -388,-23 -101,-113 -90,-287 23,-388 17,-15 35,-28 55,-38l2 -1c0,0 168,-87 336,-174 84,-48 168,-97 231,-133 63,-36 105,-61 105,-61 85,-49 194,-20 243,65 42,72 27,161 -30,217l0 0z"/>
   <path class="fil1" d="M759 6510c0,0 35,-37 86,-92 13,-14 27,-29 42,-45 15,-16 28,-32 43,-50 29,-34 60,-71 92,-108 36,-40 72,-80 106,-117 32,-38 71,-70 100,-99 61,-57 102,-95 102,-95 111,-104 286,-98 389,13 104,111 98,286 -13,389 -16,15 -33,28 -51,38l-17 9c0,0 -39,22 -98,55 -29,18 -64,34 -100,60 -37,25 -76,51 -115,78 -42,30 -85,61 -125,90 -19,14 -39,29 -57,41 -18,12 -35,23 -51,33 -63,42 -104,70 -104,70 -82,54 -193,32 -247,-50 -46,-70 -37,-160 18,-219l0 -1z"/>
   <path class="fil1" d="M6685 7398c0,0 -144,-144 -288,-288 -142,-156 -284,-312 -284,-312 -103,-112 -95,-286 17,-388 112,-103 286,-95 388,17 15,16 27,33 38,51l6 12c0,0 95,172 190,344 106,174 212,348 212,348 51,83 24,193 -60,244 -71,43 -161,30 -218,-26l-1 -2z"/>
   <path class="fil1" d="M1672 839c0,0 39,36 96,91 29,27 63,59 99,90 36,32 74,66 113,100 41,39 81,77 119,112 39,35 72,74 102,105 59,64 98,107 98,107 103,112 96,286 -16,389 -112,103 -286,95 -389,-16 -14,-16 -26,-32 -35,-49l-10 -16c0,0 -23,-42 -59,-104 -18,-31 -36,-68 -64,-107 -26,-39 -54,-80 -82,-122 -31,-45 -63,-89 -92,-130 -31,-42 -56,-80 -78,-113 -43,-66 -73,-111 -73,-111 -54,-81 -32,-191 50,-246 70,-46 162,-36 220,19l1 1z"/>
   <path class="fil1" d="M8263 3694c0,0 -49,12 -122,31 -18,5 -38,10 -59,16 -20,6 -45,10 -70,15 -50,9 -103,20 -156,30 -50,9 -99,18 -145,27 -48,8 -88,17 -124,24 -71,15 -118,25 -118,25l-7 1c-149,31 -294,-65 -325,-213 -31,-149 65,-294 214,-325 21,-5 44,-6 65,-6 0,0 52,2 131,5 38,2 86,2 132,5 47,3 98,6 148,9 47,2 93,5 137,7 22,1 42,3 64,2 22,-1 42,-1 61,-1 76,-1 126,-2 126,-2 99,-2 179,76 181,175 1,83 -55,154 -133,175z"/>
   <path class="fil1" d="M122 4666l107 -35c32,-11 71,-23 109,-38 20,-7 40,-14 60,-21 21,-8 42,-15 62,-23 46,-14 92,-29 136,-43 43,-13 84,-22 119,-32 71,-18 118,-30 118,-30 148,-37 297,52 335,200 37,148 -52,297 -200,335 -24,6 -48,8 -71,8l-11 0c0,0 -42,-1 -104,-2 -31,0 -68,-3 -107,-1 -40,2 -82,3 -124,5 -46,4 -91,7 -134,11 -44,4 -83,5 -117,7 -67,4 -112,6 -112,6 -98,5 -182,-70 -188,-168 -4,-82 48,-154 122,-179z"/>
   <path class="fil1" d="M4808 8164c0,0 -14,-47 -34,-116 -19,-70 -46,-163 -72,-257 -46,-194 -92,-388 -92,-388 -35,-148 56,-296 204,-331 148,-35 296,56 331,204 5,22 8,45 7,67l0 7c0,0 -3,187 -6,375 2,96 5,193 7,265 2,73 4,121 4,121 3,98 -75,180 -173,183 -83,2 -154,-52 -176,-129l0 -1z"/>
   <path class="fil1" d="M3577 119c0,0 17,46 41,114 6,18 13,36 20,56 7,21 16,38 24,57 9,19 18,39 27,59 9,21 18,39 27,62 20,49 39,99 57,145 10,23 17,46 23,69 7,23 12,45 18,65 22,81 36,136 36,136 39,147 -48,298 -195,337 -147,39 -298,-48 -337,-195 -6,-22 -9,-44 -10,-65l0 -25c0,0 -1,-41 -2,-103 0,-15 0,-32 0,-50 0,-18 -1,-37 -4,-58 -5,-41 -11,-85 -16,-129 -9,-51 -18,-103 -26,-151 -4,-24 -9,-49 -10,-69 -2,-20 -4,-40 -6,-58 -7,-73 -11,-121 -11,-121 -10,-98 62,-185 160,-194 83,-8 158,42 184,117l0 1z"/>
   <path class="fil2" d="M10322 3524c-69,484 -474,630 -875,506 1,-4 2,-8 2,-13 19,-380 33,-760 39,-1140 452,-85 911,110 834,647zm-252 -1567c64,334 -301,499 -578,539 1,-269 -3,-539 -12,-809 254,-71 529,-43 590,270zm365 780c-70,-74 -151,-129 -238,-169 175,-165 277,-392 237,-679 -81,-583 -705,-714 -1176,-519 -48,19 -80,52 -99,89 -35,30 -57,76 -55,137 29,801 12,1603 -27,2404 -87,78 -108,226 25,291 347,170 719,240 1077,62 286,-141 465,-461 508,-766 44,-310 -35,-620 -252,-850z"/>
   <path class="fil2" d="M11507 2841c155,-114 491,-161 442,119 -55,318 -384,400 -655,327 -18,-5 -35,-6 -51,-6 37,-176 127,-340 264,-440zm789 1313c165,-174 -98,-439 -264,-264 -283,297 -668,176 -779,-198 -4,-11 -6,-23 -9,-34 472,102 981,-119 1071,-636 93,-531 -422,-756 -861,-574 -523,217 -697,888 -546,1393 187,629 948,776 1388,313z"/>
   <path class="fil2" d="M13000 3991c-6,-1 -11,-2 -16,-3 13,-400 6,-800 -13,-1201 914,-337 1059,1543 29,1204zm-98 1049c29,-223 49,-446 63,-669 682,183 1170,-328 1127,-1019 -20,-314 -150,-634 -404,-830 -292,-225 -652,-178 -967,-32 -31,14 -53,33 -69,54 -38,30 -63,77 -59,142 42,786 36,1572 -64,2354 -31,238 343,235 373,0z"/>
   <path class="fil2" d="M15744 4027c-519,180 -317,-1017 -198,-1298 743,-183 832,1078 198,1298zm-1091 206c12,-239 28,-480 38,-721 119,-16 239,-14 359,-1 14,603 254,1147 942,818 960,-460 588,-2308 -584,-1950 -38,12 -67,32 -87,57 -35,13 -65,40 -87,83 -76,152 -136,378 -165,622 -124,-12 -247,-14 -370,-4 -1,-203 -11,-405 -37,-607 -31,-235 -405,-238 -373,0 73,564 19,1138 -10,1703 -12,241 361,240 374,0z"/>
   <path class="fil2" d="M11601 5214c-18,419 -44,837 -59,1255 -6,3 -13,4 -19,8 -341,174 -593,171 -681,-233 -71,-328 -11,-703 69,-1024 59,-234 -301,-333 -360,-99 -110,442 -178,963 -18,1401 172,474 602,503 998,356 -3,234 -2,467 8,700 10,240 383,241 373,0 -33,-789 28,-1576 62,-2364 11,-241 -363,-240 -373,0z"/>
   <path class="fil2" d="M13447 5939c3,-240 -371,-240 -373,0 -6,441 28,881 17,1321 -2,2 -4,3 -6,4 -126,105 -287,181 -446,101 -156,-79 -147,-311 -153,-457 -14,-307 7,-625 57,-928 39,-235 -321,-336 -360,-99 -40,240 -60,482 -70,725 -9,236 -29,535 67,756 174,397 546,468 882,336 -22,185 -69,376 -179,503 -145,168 -381,117 -474,-65 -110,-215 -432,-26 -323,188 266,520 954,412 1201,-61 168,-320 173,-751 181,-1103 9,-407 -26,-814 -21,-1221z"/>
   <path class="fil2" d="M14611 7205c-65,146 -168,225 -330,192 -189,-39 -220,-348 -232,-498 -37,-432 134,-935 647,-681 19,10 38,15 56,18 -1,399 -68,803 -141,969zm-775 -2192c-203,128 -16,451 188,323 443,-278 639,41 703,495 -609,-202 -1039,251 -1057,905 -9,303 52,610 240,852 178,228 535,236 768,104 247,-141 337,-468 387,-725 83,-420 93,-868 21,-1290 -111,-658 -642,-1046 -1250,-664z"/>
   <path class="fil2" d="M9747 7250c-73,279 -397,174 -471,-40 -46,-130 -62,-271 -56,-411 47,-1 95,-5 141,-13 11,1 23,1 35,0 292,-28 422,195 351,464zm-178 -1173c226,-64 18,246 -56,298 -71,50 -154,70 -238,76 10,-32 19,-64 30,-95 46,-129 130,-242 264,-279zm262 479c75,-74 137,-166 181,-274 130,-322 -186,-590 -480,-548 -637,92 -698,946 -621,1439 84,543 756,838 1101,329 223,-329 101,-745 -181,-946z"/>
   <path class="fil2" d="M16037 7333c-230,236 -401,-194 -436,-359 -50,-241 -32,-672 197,-826 21,-14 37,-31 50,-49 2,0 3,1 5,0 553,-11 446,965 184,1234zm-184 -1607c-63,1 -110,29 -140,68 -32,-2 -68,7 -103,31 -682,461 -430,2364 564,1868 718,-358 592,-1986 -321,-1967z"/>
  </g>
 </g>
</svg>
