<svg width="40" height="40" viewBox="0 0 40 40" fill="none" xmlns="http://www.w3.org/2000/svg">
<rect width="40" height="40" rx="20" fill="white"/>
<path d="M31.5416 25.3747C31.5134 25.3137 31.487 25.2631 31.4626 25.2226C31.0577 24.4924 30.2841 23.596 29.1422 22.5334L29.118 22.5091L29.1059 22.4971L29.0937 22.4849H29.0815C28.5632 21.9901 28.235 21.6573 28.0976 21.487C27.8461 21.1625 27.7898 20.8341 27.9272 20.5013C28.0243 20.2498 28.389 19.7188 29.0206 18.9075C29.3528 18.4776 29.6159 18.133 29.8102 17.8733C31.2114 16.0075 31.8189 14.8153 31.6326 14.2961L31.5602 14.1748C31.5115 14.1017 31.386 14.0349 31.1838 13.9739C30.981 13.9131 30.722 13.9031 30.406 13.9436L26.9073 13.9678C26.8506 13.9477 26.7697 13.9496 26.6642 13.9739C26.5589 13.9983 26.5062 14.0106 26.5062 14.0106L26.4453 14.041L26.397 14.0776C26.3565 14.1018 26.3119 14.1444 26.2633 14.2053C26.2149 14.2659 26.1745 14.3371 26.1421 14.4182C25.7612 15.3997 25.3281 16.3123 24.8421 17.1558C24.5424 17.6588 24.2672 18.0948 24.0158 18.4639C23.7648 18.8329 23.5542 19.1047 23.3843 19.279C23.2141 19.4534 23.0604 19.5931 22.9225 19.6987C22.7848 19.8043 22.6796 19.8489 22.6068 19.8326C22.5338 19.8163 22.4651 19.8001 22.4 19.7839C22.2867 19.7109 22.1956 19.6115 22.1269 19.4858C22.0579 19.3601 22.0114 19.2018 21.9871 19.0112C21.9629 18.8205 21.9486 18.6564 21.9445 18.5184C21.9408 18.3806 21.9425 18.1858 21.9507 17.9343C21.9591 17.6827 21.9629 17.5125 21.9629 17.4233C21.9629 17.115 21.9689 16.7804 21.981 16.4194C21.9932 16.0585 22.0031 15.7725 22.0114 15.5618C22.0197 15.3509 22.0235 15.1277 22.0235 14.8925C22.0235 14.6572 22.0092 14.4727 21.981 14.3388C21.953 14.2051 21.9102 14.0753 21.8537 13.9494C21.7969 13.8237 21.7138 13.7265 21.6047 13.6574C21.4954 13.5885 21.3595 13.5337 21.1977 13.4931C20.7684 13.3958 20.2218 13.3432 19.5575 13.335C18.0511 13.3188 17.0832 13.4162 16.654 13.6271C16.4839 13.7162 16.33 13.838 16.1924 13.992C16.0466 14.1705 16.0262 14.268 16.1315 14.284C16.6175 14.3569 16.9616 14.5313 17.1641 14.8071L17.2371 14.9532C17.2938 15.0587 17.3505 15.2453 17.4072 15.513C17.4639 15.7806 17.5004 16.0767 17.5165 16.401C17.5569 16.9932 17.5569 17.5002 17.5165 17.922C17.4759 18.3439 17.4376 18.6723 17.4011 18.9076C17.3645 19.1428 17.3099 19.3334 17.2371 19.4794C17.1641 19.6254 17.1155 19.7146 17.0912 19.747C17.0669 19.7794 17.0466 19.7998 17.0306 19.8078C16.9253 19.8483 16.8158 19.8688 16.7025 19.8688C16.589 19.8688 16.4514 19.812 16.2894 19.6984C16.1275 19.5847 15.9595 19.4287 15.7853 19.2299C15.6112 19.0311 15.4148 18.7533 15.196 18.3964C14.9774 18.0395 14.7506 17.6178 14.5157 17.1311L14.3214 16.7781C14.1999 16.551 14.034 16.2204 13.8234 15.7865C13.6127 15.3525 13.4264 14.9326 13.2645 14.527C13.1998 14.3567 13.1026 14.227 12.973 14.1378L12.9122 14.1012C12.8718 14.0688 12.8069 14.0344 12.7179 13.9977C12.6287 13.9611 12.5357 13.9349 12.4384 13.9187L9.1097 13.9429C8.76954 13.9429 8.53874 14.0201 8.41722 14.1742L8.36858 14.2472C8.34429 14.2878 8.33203 14.3526 8.33203 14.4419C8.33203 14.5312 8.35633 14.6407 8.40496 14.7704C8.8909 15.9142 9.41934 17.0174 9.99029 18.08C10.5612 19.1426 11.0574 19.9986 11.4784 20.6471C11.8996 21.2961 12.3288 21.9087 12.7662 22.4844C13.2036 23.0604 13.4931 23.4295 13.6348 23.5917C13.7766 23.7541 13.888 23.8756 13.969 23.9567L14.2727 24.2486C14.4671 24.4434 14.7525 24.6766 15.1292 24.9482C15.5059 25.2201 15.9229 25.4877 16.3805 25.7516C16.8382 26.015 17.3706 26.23 17.9781 26.3962C18.5855 26.5626 19.1768 26.6294 19.7518 26.5972H21.149C21.4323 26.5727 21.647 26.4834 21.7929 26.3294L21.8412 26.2684C21.8737 26.22 21.9042 26.1448 21.9322 26.0436C21.9607 25.9422 21.9748 25.8305 21.9748 25.709C21.9665 25.3603 21.993 25.046 22.0536 24.7661C22.1141 24.4864 22.1832 24.2755 22.2604 24.1334C22.3375 23.9915 22.4246 23.8718 22.5214 23.7747C22.6186 23.6774 22.6877 23.6185 22.7283 23.5982C22.7687 23.5778 22.8009 23.5639 22.8252 23.5556C23.0196 23.4907 23.2483 23.5536 23.5118 23.7444C23.775 23.935 24.022 24.1704 24.2529 24.4501C24.4838 24.7301 24.7611 25.0442 25.085 25.393C25.4091 25.7418 25.6925 26.0011 25.9354 26.1717L26.1783 26.3177C26.3405 26.4152 26.5511 26.5044 26.8103 26.5855C27.0691 26.6666 27.2958 26.6869 27.4904 26.6463L30.6004 26.5977C30.908 26.5977 31.1473 26.5467 31.3171 26.4455C31.4872 26.3441 31.5883 26.2324 31.6209 26.1109C31.6534 25.9893 31.6551 25.8513 31.6271 25.697C31.5983 25.5431 31.5699 25.4355 31.5416 25.3747Z" fill="#008AC4"/>
</svg>
