<?xml version="1.0" encoding="utf-8"?><!DOCTYPE svg PUBLIC "-//W3C//DTD SVG 1.1//EN" "http://www.w3.org/Graphics/SVG/1.1/DTD/svg11.dtd"><svg viewBox="0 0 501 492" xmlns="http://www.w3.org/2000/svg" xmlns:xlink="http://www.w3.org/1999/xlink"><style>:root>svg{display:none}:root>svg:target{display:block}</style><svg fill="none" viewBox="0 0 5 8" id="arrow" xmlns="http://www.w3.org/2000/svg"><path d="M1 1l3 3-3 3" stroke="#008AC4" stroke-width="2" stroke-linecap="round" stroke-linejoin="round"/></svg><svg viewBox="0 0 341.333 341.333" id="burger" xmlns="http://www.w3.org/2000/svg"><path d="M0 277.333h341.333V320H0zM0 149.333h341.333V192H0zM0 21.333h341.333V64H0z"/></svg><svg fill="none" viewBox="0 0 19 15" id="check" xmlns="http://www.w3.org/2000/svg"><path d="M2 9l4 4L17 2" stroke="#fff" stroke-width="3" stroke-linecap="round" stroke-linejoin="round"/></svg><svg fill="none" viewBox="0 0 24 24" id="fb" xmlns="http://www.w3.org/2000/svg"><rect width="24" height="24" rx="12" fill="#414F91"/><path d="M14.774 6.003L13.335 6c-1.617 0-2.662 1.16-2.662 2.953v1.362H9.226c-.125 0-.226.11-.226.245v1.973c0 .135.101.244.226.244h1.447v4.978c0 .136.101.245.227.245h1.887c.125 0 .227-.11.227-.245v-4.978h1.692c.125 0 .226-.11.226-.244V10.56a.256.256 0 00-.066-.173.218.218 0 00-.16-.072h-1.692V9.16c0-.555.122-.837.79-.837h.97c.125 0 .226-.11.226-.245V6.247c0-.135-.101-.244-.226-.244z" fill="#fff"/></svg><svg fill="none" viewBox="0 0 40 40" id="fb-light" xmlns="http://www.w3.org/2000/svg"><rect width="40" height="40" rx="20" fill="#fff"/><path d="M24.623 10.004L22.225 10c-2.695 0-4.436 1.932-4.436 4.922v2.27h-2.412c-.208 0-.377.182-.377.407v3.288c0 .226.169.408.377.408h2.412v8.297c0 .225.168.408.377.408h3.146c.209 0 .378-.183.378-.408v-8.297h2.82c.208 0 .377-.182.377-.408V17.6a.426.426 0 00-.11-.288.363.363 0 00-.267-.12h-2.82v-1.924c0-.924.203-1.394 1.317-1.394h1.616c.208 0 .377-.183.377-.408v-3.053c0-.225-.169-.408-.377-.408z" fill="#008AC4"/></svg><svg fill="none" viewBox="0 0 24 24" id="icon-call" xmlns="http://www.w3.org/2000/svg"><rect width="24" height="24" rx="12" fill="#008AC4"/><path d="M18.993 16.049a.677.677 0 01-.207.593l-1.971 1.957a1.11 1.11 0 01-.349.253c-.143.069-.284.113-.422.133l-.089.008c-.05.005-.114.007-.193.007-.187 0-.491-.032-.911-.096-.42-.065-.934-.223-1.541-.475-.608-.252-1.297-.63-2.068-1.134-.77-.505-1.59-1.197-2.46-2.077a16.245 16.245 0 01-1.72-1.957 13.944 13.944 0 01-1.096-1.728 9.306 9.306 0 01-.623-1.439c-.138-.43-.232-.8-.281-1.112a3.676 3.676 0 01-.06-.734c.01-.178.015-.277.015-.297.02-.138.065-.279.134-.422.069-.144.153-.26.252-.349l1.97-1.972A.653.653 0 017.849 5c.129 0 .242.037.341.111.099.074.183.166.252.275l1.586 3.01a.721.721 0 01.074.52.924.924 0 01-.252.474l-.726.726a.248.248 0 00-.052.097.366.366 0 00-.022.111c.04.208.128.445.266.712.119.237.302.527.549.868.247.34.597.734 1.052 1.179.445.454.84.808 1.186 1.06.345.252.634.438.867.556.232.119.41.19.533.215l.185.037c.02 0 .052-.007.097-.022a.248.248 0 00.096-.052l.845-.86a.908.908 0 01.622-.237c.168 0 .302.03.4.089h.015l2.86 1.69c.208.129.332.292.371.49z" fill="#fff"/></svg><svg fill="none" viewBox="0 0 24 24" id="icon-mail" xmlns="http://www.w3.org/2000/svg"><rect width="24" height="24" rx="12" fill="#008AC4"/><path d="M7.765 16.317c.541.523 1.19.948 1.943 1.238a6.95 6.95 0 002.505.445c1.015 0 1.953-.155 2.794-.474.764-.28.107-1.702-.454-1.47-.619.262-1.373.397-2.234.397a5.23 5.23 0 01-1.837-.31 4 4 0 01-1.402-.87 3.964 3.964 0 01-.91-1.373c-.222-.541-.328-1.16-.328-1.837 0-.638.106-1.247.32-1.789.212-.541.502-1.025.889-1.412a4.033 4.033 0 011.373-.938 4.608 4.608 0 011.789-.338c.609 0 1.17.087 1.673.242.493.154.918.396 1.276.715.358.32.638.706.841 1.17.203.465.3 1.006.3 1.625 0 .358-.039.696-.116 1.015-.077.3-.174.57-.31.783-.125.204-.27.368-.444.484-.203.135-.503.213-.735.135-.29-.097-.232-.503-.213-.744.03-.33.116-.638.184-.958.106-.522.222-1.034.329-1.547.058-.28.125-.57.183-.85a.583.583 0 00-.57-.707h-.426a.58.58 0 00-.56.426 5.21 5.21 0 01-.059.213c-.212-.658-.996-.842-1.615-.832-.812.01-1.556.425-2.098 1.015-.048.058-.106.116-.155.174a3.73 3.73 0 00-.638 1.151c-.154.445-.232.9-.232 1.364 0 .396.058.773.165 1.111.116.349.28.648.493.9.212.251.483.454.802.6.32.144.677.222 1.064.222.29 0 .56-.049.803-.136.232-.087.444-.193.628-.319.145-.096.28-.212.387-.319.068.126.145.232.251.339.271.29.687.435 1.238.435.435 0 .86-.087 1.257-.261a2.979 2.979 0 001.054-.793c.29-.348.532-.774.706-1.277.174-.502.261-1.083.261-1.72 0-.871-.164-1.645-.483-2.292a4.79 4.79 0 00-1.296-1.635 5.588 5.588 0 00-1.837-.976A6.452 6.452 0 0012.213 6c-.841 0-1.644.155-2.389.454a6.245 6.245 0 00-1.953 1.267 5.868 5.868 0 00-1.808 4.293c0 .861.145 1.673.445 2.399.29.735.715 1.373 1.257 1.904zm5.23-4.06a2.927 2.927 0 01-.299.744c-.135.222-.3.406-.512.55-.194.136-.426.204-.716.204a.802.802 0 01-.435-.106.834.834 0 01-.28-.3 1.412 1.412 0 01-.155-.426 2.391 2.391 0 01-.049-.425c0-.27.04-.541.117-.822.077-.27.183-.522.328-.735.145-.213.31-.387.513-.522.184-.126.387-.184.628-.184.194 0 .348.03.465.097a.81.81 0 01.28.261c.077.116.126.252.164.396.039.165.058.339.058.503-.01.242-.038.493-.106.764z" fill="#fff"/></svg><svg fill="none" viewBox="0 0 24 24" id="icon-marker" xmlns="http://www.w3.org/2000/svg"><path d="M11.79 23.406h0a52.405 52.405 0 01-4.136-5.375c-.983-1.473-1.95-3.107-2.668-4.733-.722-1.631-1.178-3.219-1.178-4.606C3.808 4.175 7.483.5 12 .5s8.192 3.675 8.192 8.192c0 1.387-.456 2.975-1.178 4.606-.719 1.626-1.685 3.26-2.668 4.732a52.402 52.402 0 01-4.136 5.376h0a.283.283 0 01-.42 0zM7.127 8.692A4.878 4.878 0 0012 13.565a4.878 4.878 0 004.873-4.873A4.878 4.878 0 0012 3.819a4.878 4.878 0 00-4.873 4.873z" fill="#008AC4" stroke="#008AC4"/></svg><svg fill="none" viewBox="0 0 24 24" id="icon-post" xmlns="http://www.w3.org/2000/svg"><path d="M23.063 20.15H18.67l4.115-4.115a1.004 1.004 0 000-1.42L10.44 2.27a1.004 1.004 0 00-1.42 0l-7.804 7.805a1.004 1.004 0 000 1.42L9.87 20.15H.937a.937.937 0 000 1.874h22.126a.937.937 0 000-1.874zm-4.061-6.478l-6.283-1.337-1.337-6.282 7.62 7.62zM3.346 10.785l5.721-5.721 1.778 8.353a1.027 1.027 0 00.793.792l8.353 1.778-4.163 4.163h-3.117l-9.365-9.365z" fill="#008AC4"/></svg><svg fill="none" viewBox="0 0 24 24" id="inst" xmlns="http://www.w3.org/2000/svg"><rect width="24" height="24" rx="12" fill="#E1306C"/><rect width="24" height="24" rx="12" fill="#E1306C"/><path d="M14.688 6H9.311A3.315 3.315 0 006 9.312v5.376A3.315 3.315 0 009.312 18h5.376A3.315 3.315 0 0018 14.688V9.312A3.315 3.315 0 0014.688 6zm2.247 8.688a2.25 2.25 0 01-2.247 2.247H9.311a2.25 2.25 0 01-2.246-2.247V9.312a2.25 2.25 0 012.247-2.247h5.376a2.25 2.25 0 012.247 2.247v5.376z" fill="#fff"/><path d="M12 9c-1.654 0-3 1.346-3 3s1.346 3 3 3 3-1.346 3-3-1.346-3-3-3zm0 4.967A1.97 1.97 0 0110.033 12 1.97 1.97 0 0112 10.033 1.97 1.97 0 0113.967 12 1.97 1.97 0 0112 13.967z" fill="#fff"/><path d="M15 8a1.004 1.004 0 00-1 1c0 .263.107.52.294.707.185.186.443.293.706.293.264 0 .52-.107.707-.293.187-.186.293-.444.293-.707 0-.264-.106-.522-.293-.707A1.004 1.004 0 0015 8z" fill="#fff"/><defs><linearGradient id="jpaint0_linear" x1="1.5" y1="24" x2="22.5" y2="0" gradientUnits="userSpaceOnUse"><stop offset=".144" stop-color="#FE833E"/><stop offset=".505" stop-color="#E3407D"/><stop offset=".851" stop-color="#6934C4"/></linearGradient></defs></svg><svg fill="none" viewBox="0 0 40 40" id="inst-light" xmlns="http://www.w3.org/2000/svg"><rect width="40" height="40" rx="20" fill="#fff"/><path d="M24.48 10h-8.96A5.526 5.526 0 0010 15.519v8.961A5.525 5.525 0 0015.52 30h8.96A5.526 5.526 0 0030 24.48V15.52a5.526 5.526 0 00-5.52-5.52zm3.746 14.48a3.75 3.75 0 01-3.745 3.745h-8.962a3.749 3.749 0 01-3.745-3.745V15.52a3.749 3.749 0 013.745-3.745h8.962a3.75 3.75 0 013.744 3.745v8.961z" fill="#008AC4"/><path d="M20 15c-2.757 0-5 2.243-5 5s2.243 5 5 5 5-2.243 5-5-2.243-5-5-5zm0 8.278A3.282 3.282 0 0116.722 20 3.282 3.282 0 0120 16.72 3.282 3.282 0 0123.278 20 3.282 3.282 0 0120 23.278z" fill="#008AC4"/><path d="M25 13.333c-.437 0-.867.177-1.177.488-.31.309-.489.74-.489 1.179 0 .438.179.868.49 1.178.308.31.739.488 1.177.488.439 0 .868-.178 1.178-.488.311-.31.488-.74.488-1.178 0-.44-.177-.87-.488-1.18-.309-.31-.739-.487-1.178-.487z" fill="#008AC4"/></svg><svg viewBox="0 0 16636 8669" shape-rendering="geometricPrecision" text-rendering="geometricPrecision" image-rendering="optimizeQuality" fill-rule="evenodd" clip-rule="evenodd" id="logo" xmlns="http://www.w3.org/2000/svg"><defs><style>.lfil0{fill:#fa873d}.lfil1,.lfil2{fill:#008ac4;fill-rule:nonzero}.lfil1{fill:#fa873d}</style></defs><g id="lСлой_x0020_1"><g id="l_377733502288"><path class="lfil0" d="M4492 1495c-1494-191-2859 864-3051 2358-99 778 140 1522 604 2082 187-183 512-497 574-534 89-52 166-110 166-110s-36-214 21-463c57-248 112-319 123-397 14-107 22-334-21-433-52-119-66-207 15-266s234 41 303 200c68 159 61 216 61 216s71-282 154-440c83-157 185-389 225-488 39-100 82-211 189-205s218 68 127 279c-90 211-104 270-119 345-15 74-67 367-79 392-12 24 17 32 29 20 12-13 165-205 257-314 93-108 267-297 303-343s120-179 227-173 158 100 139 186c-19 87-87 162-131 213-44 50-197 312-225 354-28 41-183 274-183 274l21 37s182-110 256-157c73-46 383-303 456-330 126-48 266 107 181 218-76 101-176 178-212 212-37 33-220 214-297 269-77 54-174 192-158 219 13 22 148 33 230 5 115-40 416-119 475-104 83 22 134 158 53 225-81 68-244 125-289 146-44 22-341 131-341 131s-226 135-340 243c-38 67-204 312-321 386-65 42-123 72-123 72s-111 254-163 314c-92 174-257 412-417 626 187 68 383 117 588 143 1494 192 2860-864 3051-2358 191-1493-865-2859-2358-3050z"/><path class="lfil1" d="M5772 355s-55 200-111 400c-64 202-129 404-129 404v2c-46 144-201 224-345 177-145-46-224-200-178-345 6-20 16-40 26-58l210-348 200-364v-1c47-86 155-117 241-70 74 40 108 125 86 203zM2681 8039s45-199 90-399c57-206 113-411 113-411 40-147 192-233 338-193 147 40 233 191 193 338-5 21-13 41-23 59l-11 19-188 342c-90 183-180 365-180 365-43 88-150 125-238 81-75-37-112-120-95-198l1-3zM7975 5829s-50-13-124-31c-18-5-39-10-60-15s-45-14-70-22c-49-16-101-33-153-50-48-16-96-33-142-48-45-16-85-27-120-38-70-21-116-35-116-35l-9-3c-142-44-222-195-179-337 44-143 195-223 337-179 20 6 40 15 57 25 0 0 47 27 116 67 34 21 76 44 116 69 41 26 84 53 127 80 41 25 81 49 118 72 20 12 36 23 56 33s38 20 55 29c68 35 113 59 113 59h1c85 44 119 149 74 235-38 73-121 108-197 89zM402 2649s45 9 114 23c34 7 74 16 116 24 42 7 87 16 132 24 48 11 96 21 141 31s87 23 123 33c72 20 120 34 120 34 146 41 231 193 190 340-42 146-194 231-340 190-23-7-45-16-64-27l-10-6s-37-22-92-55c-28-16-60-37-96-55-36-19-75-39-114-59-42-20-85-40-125-59-41-19-76-37-107-53-63-31-104-52-104-52-88-44-124-151-80-239 37-73 118-110 195-94h1zM7483 1775s-35 34-87 85c-53 51-122 118-192 186-149 132-298 265-298 265-113 100-287 90-388-23s-90-287 23-388c17-15 35-28 55-38l2-1 336-174c84-48 168-97 231-133s105-61 105-61c85-49 194-20 243 65 42 72 27 161-30 217zM759 6510s35-37 86-92c13-14 27-29 42-45s28-32 43-50c29-34 60-71 92-108 36-40 72-80 106-117 32-38 71-70 100-99 61-57 102-95 102-95 111-104 286-98 389 13 104 111 98 286-13 389-16 15-33 28-51 38l-17 9s-39 22-98 55c-29 18-64 34-100 60-37 25-76 51-115 78-42 30-85 61-125 90-19 14-39 29-57 41s-35 23-51 33c-63 42-104 70-104 70-82 54-193 32-247-50-46-70-37-160 18-219v-1zM6685 7398l-288-288-284-312c-103-112-95-286 17-388 112-103 286-95 388 17 15 16 27 33 38 51l6 12 190 344 212 348c51 83 24 193-60 244-71 43-161 30-218-26l-1-2zM1672 839s39 36 96 91c29 27 63 59 99 90 36 32 74 66 113 100 41 39 81 77 119 112 39 35 72 74 102 105 59 64 98 107 98 107 103 112 96 286-16 389s-286 95-389-16c-14-16-26-32-35-49l-10-16s-23-42-59-104c-18-31-36-68-64-107-26-39-54-80-82-122-31-45-63-89-92-130-31-42-56-80-78-113-43-66-73-111-73-111-54-81-32-191 50-246 70-46 162-36 220 19l1 1zM8263 3694s-49 12-122 31c-18 5-38 10-59 16-20 6-45 10-70 15-50 9-103 20-156 30-50 9-99 18-145 27-48 8-88 17-124 24-71 15-118 25-118 25l-7 1c-149 31-294-65-325-213-31-149 65-294 214-325 21-5 44-6 65-6 0 0 52 2 131 5 38 2 86 2 132 5 47 3 98 6 148 9 47 2 93 5 137 7 22 1 42 3 64 2s42-1 61-1c76-1 126-2 126-2 99-2 179 76 181 175 1 83-55 154-133 175zM122 4666l107-35c32-11 71-23 109-38l60-21c21-8 42-15 62-23 46-14 92-29 136-43 43-13 84-22 119-32 71-18 118-30 118-30 148-37 297 52 335 200 37 148-52 297-200 335-24 6-48 8-71 8h-11s-42-1-104-2c-31 0-68-3-107-1-40 2-82 3-124 5-46 4-91 7-134 11-44 4-83 5-117 7-67 4-112 6-112 6-98 5-182-70-188-168-4-82 48-154 122-179zM4808 8164s-14-47-34-116c-19-70-46-163-72-257l-92-388c-35-148 56-296 204-331s296 56 331 204c5 22 8 45 7 67v7s-3 187-6 375c2 96 5 193 7 265 2 73 4 121 4 121 3 98-75 180-173 183-83 2-154-52-176-129v-1zM3577 119s17 46 41 114c6 18 13 36 20 56 7 21 16 38 24 57 9 19 18 39 27 59 9 21 18 39 27 62 20 49 39 99 57 145 10 23 17 46 23 69 7 23 12 45 18 65 22 81 36 136 36 136 39 147-48 298-195 337s-298-48-337-195c-6-22-9-44-10-65v-25s-1-41-2-103v-50c0-18-1-37-4-58-5-41-11-85-16-129-9-51-18-103-26-151-4-24-9-49-10-69-2-20-4-40-6-58-7-73-11-121-11-121-10-98 62-185 160-194 83-8 158 42 184 117v1z"/><path class="lfil2" d="M10322 3524c-69 484-474 630-875 506 1-4 2-8 2-13 19-380 33-760 39-1140 452-85 911 110 834 647zm-252-1567c64 334-301 499-578 539 1-269-3-539-12-809 254-71 529-43 590 270zm365 780c-70-74-151-129-238-169 175-165 277-392 237-679-81-583-705-714-1176-519-48 19-80 52-99 89-35 30-57 76-55 137 29 801 12 1603-27 2404-87 78-108 226 25 291 347 170 719 240 1077 62 286-141 465-461 508-766 44-310-35-620-252-850zM11507 2841c155-114 491-161 442 119-55 318-384 400-655 327-18-5-35-6-51-6 37-176 127-340 264-440zm789 1313c165-174-98-439-264-264-283 297-668 176-779-198-4-11-6-23-9-34 472 102 981-119 1071-636 93-531-422-756-861-574-523 217-697 888-546 1393 187 629 948 776 1388 313zM13000 3991c-6-1-11-2-16-3 13-400 6-800-13-1201 914-337 1059 1543 29 1204zm-98 1049c29-223 49-446 63-669 682 183 1170-328 1127-1019-20-314-150-634-404-830-292-225-652-178-967-32-31 14-53 33-69 54-38 30-63 77-59 142 42 786 36 1572-64 2354-31 238 343 235 373 0zM15744 4027c-519 180-317-1017-198-1298 743-183 832 1078 198 1298zm-1091 206c12-239 28-480 38-721 119-16 239-14 359-1 14 603 254 1147 942 818 960-460 588-2308-584-1950-38 12-67 32-87 57-35 13-65 40-87 83-76 152-136 378-165 622-124-12-247-14-370-4-1-203-11-405-37-607-31-235-405-238-373 0 73 564 19 1138-10 1703-12 241 361 240 374 0zM11601 5214c-18 419-44 837-59 1255-6 3-13 4-19 8-341 174-593 171-681-233-71-328-11-703 69-1024 59-234-301-333-360-99-110 442-178 963-18 1401 172 474 602 503 998 356-3 234-2 467 8 700 10 240 383 241 373 0-33-789 28-1576 62-2364 11-241-363-240-373 0zM13447 5939c3-240-371-240-373 0-6 441 28 881 17 1321-2 2-4 3-6 4-126 105-287 181-446 101-156-79-147-311-153-457-14-307 7-625 57-928 39-235-321-336-360-99-40 240-60 482-70 725-9 236-29 535 67 756 174 397 546 468 882 336-22 185-69 376-179 503-145 168-381 117-474-65-110-215-432-26-323 188 266 520 954 412 1201-61 168-320 173-751 181-1103 9-407-26-814-21-1221zM14611 7205c-65 146-168 225-330 192-189-39-220-348-232-498-37-432 134-935 647-681 19 10 38 15 56 18-1 399-68 803-141 969zm-775-2192c-203 128-16 451 188 323 443-278 639 41 703 495-609-202-1039 251-1057 905-9 303 52 610 240 852 178 228 535 236 768 104 247-141 337-468 387-725 83-420 93-868 21-1290-111-658-642-1046-1250-664zM9747 7250c-73 279-397 174-471-40-46-130-62-271-56-411 47-1 95-5 141-13 11 1 23 1 35 0 292-28 422 195 351 464zm-178-1173c226-64 18 246-56 298-71 50-154 70-238 76 10-32 19-64 30-95 46-129 130-242 264-279zm262 479c75-74 137-166 181-274 130-322-186-590-480-548-637 92-698 946-621 1439 84 543 756 838 1101 329 223-329 101-745-181-946zM16037 7333c-230 236-401-194-436-359-50-241-32-672 197-826 21-14 37-31 50-49 2 0 3 1 5 0 553-11 446 965 184 1234zm-184-1607c-63 1-110 29-140 68-32-2-68 7-103 31-682 461-430 2364 564 1868 718-358 592-1986-321-1967z"/></g></g></svg><svg viewBox="0 0 492.004 492.004" id="next" xmlns="http://www.w3.org/2000/svg"><path d="M382.678 226.804L163.73 7.86C158.666 2.792 151.906 0 144.698 0s-13.968 2.792-19.032 7.86l-16.124 16.12c-10.492 10.504-10.492 27.576 0 38.064L293.398 245.9l-184.06 184.06c-5.064 5.068-7.86 11.824-7.86 19.028 0 7.212 2.796 13.968 7.86 19.04l16.124 16.116c5.068 5.068 11.824 7.86 19.032 7.86s13.968-2.792 19.032-7.86L382.678 265c5.076-5.084 7.864-11.872 7.848-19.088.016-7.244-2.772-14.028-7.848-19.108z"/></svg><svg fill="none" viewBox="0 0 24 24" id="vk" xmlns="http://www.w3.org/2000/svg"><rect width="24" height="24" rx="12" fill="#497BAB"/><path d="M18.926 15.225a.964.964 0 00-.048-.091c-.243-.438-.707-.976-1.392-1.614l-.014-.014-.008-.008-.007-.007h-.007a8.422 8.422 0 01-.59-.599c-.152-.194-.185-.391-.103-.591.058-.151.277-.47.656-.956.2-.258.357-.465.474-.62.84-1.12 1.205-1.836 1.093-2.147l-.043-.073c-.03-.044-.105-.084-.226-.12a1.146 1.146 0 00-.467-.019l-2.099.015a.272.272 0 00-.146.003l-.095.022-.036.019-.029.022a.325.325 0 00-.08.076.499.499 0 00-.073.128 11.926 11.926 0 01-.78 1.643c-.18.301-.345.563-.496.784-.15.222-.277.385-.379.49a2.654 2.654 0 01-.277.251c-.082.064-.146.09-.19.08a5.403 5.403 0 01-.123-.028.486.486 0 01-.164-.18.802.802 0 01-.084-.284 3.16 3.16 0 01-.022-.646c.005-.151.008-.253.008-.307 0-.185.003-.386.01-.602l.019-.515c.005-.126.007-.26.007-.401 0-.142-.009-.252-.026-.333a1.14 1.14 0 00-.076-.233.393.393 0 00-.15-.175.84.84 0 00-.244-.099 4.843 4.843 0 00-.984-.095c-.903-.01-1.484.049-1.742.175a.982.982 0 00-.277.22c-.087.106-.1.165-.036.175.291.043.498.148.62.313l.043.088c.034.063.068.175.102.336.034.16.056.338.066.533.024.355.024.66 0 .912-.025.254-.048.45-.07.592a1.185 1.185 0 01-.186.503.125.125 0 01-.036.037.544.544 0 01-.197.036c-.068 0-.15-.034-.248-.102a1.753 1.753 0 01-.302-.28 3.761 3.761 0 01-.354-.501 8.727 8.727 0 01-.408-.76l-.116-.211a18.231 18.231 0 01-.3-.595c-.126-.26-.237-.512-.335-.756a.481.481 0 00-.174-.233l-.037-.022a.772.772 0 00-.284-.11l-1.997.015c-.204 0-.343.046-.416.139l-.03.043A.236.236 0 005 8.665c0 .054.015.12.044.197a24.1 24.1 0 00.951 1.986c.343.638.64 1.151.893 1.54.253.39.51.757.772 1.103.263.345.437.567.522.664.085.098.152.17.2.22l.182.174c.117.117.288.257.514.42.226.163.477.324.751.482.275.158.594.287.959.387.364.1.719.14 1.064.12h.838c.17-.014.299-.068.386-.16l.03-.037a.484.484 0 00.054-.135.741.741 0 00.026-.2c-.005-.21.01-.398.047-.566.036-.168.078-.295.124-.38a.934.934 0 01.28-.321.482.482 0 01.059-.026c.117-.038.254 0 .412.114.158.114.306.255.444.423.139.168.306.357.5.566.194.21.364.365.51.467l.146.088c.097.058.223.112.379.16.155.05.291.061.408.037l1.866-.03c.185 0 .328-.03.43-.09.102-.061.163-.128.182-.201a.565.565 0 00.004-.249.922.922 0 00-.051-.193z" fill="#fff"/></svg><svg fill="none" viewBox="0 0 40 40" id="vk-light" xmlns="http://www.w3.org/2000/svg"><rect width="40" height="40" rx="20" fill="#fff"/><path d="M31.542 25.375a1.6 1.6 0 00-.08-.152c-.404-.73-1.178-1.627-2.32-2.69l-.024-.024-.012-.012-.012-.012h-.013c-.518-.495-.846-.828-.983-.998-.252-.324-.308-.653-.17-.986.096-.251.461-.782 1.093-1.594.332-.43.595-.774.79-1.034 1.4-1.866 2.008-3.058 1.822-3.577l-.073-.121c-.048-.073-.174-.14-.376-.201-.203-.06-.462-.07-.778-.03l-3.499.024a.454.454 0 00-.243.006l-.158.037-.06.03-.049.037a.54.54 0 00-.134.127.836.836 0 00-.12.213c-.382.982-.815 1.894-1.3 2.738-.3.503-.576.939-.827 1.308-.251.369-.462.64-.632.815a4.42 4.42 0 01-.462.42c-.137.105-.242.15-.315.134a8.775 8.775 0 01-.207-.05.808.808 0 01-.273-.297 1.337 1.337 0 01-.14-.475 5.234 5.234 0 01-.042-.493c-.004-.137-.003-.332.006-.584.008-.251.012-.422.012-.51 0-.309.006-.644.018-1.005l.03-.857c.009-.211.012-.434.012-.67 0-.235-.014-.42-.042-.553a1.901 1.901 0 00-.127-.39.656.656 0 00-.25-.292 1.402 1.402 0 00-.406-.164c-.43-.097-.976-.15-1.64-.158-1.507-.016-2.475.081-2.904.292-.17.09-.324.211-.462.365-.145.178-.166.276-.06.292.485.073.83.247 1.032.523l.073.146c.057.106.114.292.17.56.057.268.093.564.11.888.04.592.04 1.1 0 1.521-.041.422-.08.75-.116.986a1.98 1.98 0 01-.164.571 2.423 2.423 0 01-.146.268.21.21 0 01-.06.06.907.907 0 01-.328.062c-.114 0-.252-.057-.414-.17a2.92 2.92 0 01-.504-.47 6.27 6.27 0 01-.589-.833 14.552 14.552 0 01-.68-1.265l-.195-.353a30.403 30.403 0 01-.498-.991c-.21-.435-.397-.854-.559-1.26a.801.801 0 00-.291-.39l-.06-.036a.832.832 0 00-.195-.103 1.292 1.292 0 00-.28-.08l-3.328.025c-.34 0-.571.077-.693.231l-.048.073a.394.394 0 00-.037.195c0 .09.024.199.073.328a40.189 40.189 0 001.585 3.31c.571 1.063 1.067 1.919 1.488 2.567.422.65.85 1.262 1.288 1.837.438.576.727.945.869 1.108.142.162.253.284.334.365l.304.292c.194.194.48.428.856.7.377.271.794.539 1.252.803.457.263.99.478 1.597.644a5.517 5.517 0 001.774.201h1.397c.283-.024.498-.114.644-.268l.048-.06a.805.805 0 00.091-.225c.029-.102.043-.213.043-.335a4.016 4.016 0 01.079-.943c.06-.28.13-.49.206-.633a1.556 1.556 0 01.468-.535.798.798 0 01.097-.042c.195-.065.423-.002.687.188.263.191.51.426.74.706.232.28.51.594.833.943.324.349.607.608.85.779l.243.146c.162.097.373.186.632.267.26.082.486.102.68.061l3.11-.048c.308 0 .547-.051.717-.152.17-.102.271-.214.304-.335a.945.945 0 00.006-.414 1.524 1.524 0 00-.085-.322z" fill="#008AC4"/></svg><svg fill="none" viewBox="0 0 24 24" id="youtube" xmlns="http://www.w3.org/2000/svg"><rect width="24" height="24" rx="12" fill="#E90000"/><path fill-rule="evenodd" clip-rule="evenodd" d="M18.755 15.495c-.171.796-.78 1.382-1.513 1.47-1.736.207-3.493.208-5.243.207-1.75.001-3.506 0-5.242-.207-.733-.088-1.342-.674-1.513-1.47C5 14.362 5 13.125 5 11.959c0-1.167.003-2.404.247-3.537.171-.795.78-1.382 1.513-1.47 1.736-.207 3.493-.208 5.243-.207 1.749-.001 3.506 0 5.242.207.733.088 1.342.674 1.513 1.47.244 1.133.242 2.37.242 3.537 0 1.166 0 2.403-.245 3.536zm-8.562-1.215l4.451-2.465-4.45-2.482v4.947z" fill="#fff"/></svg></svg>