<?xml version="1.0" encoding="utf-8"?><svg viewBox="0 0 492 492" xmlns="http://www.w3.org/2000/svg" xmlns:xlink="http://www.w3.org/1999/xlink"><style>:root>svg{display:none}:root>svg:target{display:block}</style><svg fill="none" viewBox="0 0 18 12" id="burger" xmlns="http://www.w3.org/2000/svg"><rect width="8" height="2" rx="1" fill="#133A4B"/><rect y="5" width="18" height="2" rx="1" fill="#133A4B"/><rect y="10" width="14" height="2" rx="1" fill="#133A4B"/></svg><svg fill="none" viewBox="0 0 19 15" id="check" xmlns="http://www.w3.org/2000/svg"><path d="M2 9l4 4L17 2" stroke="#fff" stroke-width="3" stroke-linecap="round" stroke-linejoin="round"/></svg><svg fill="none" viewBox="0 0 24 24" id="fb" xmlns="http://www.w3.org/2000/svg"><rect width="24" height="24" rx="12" fill="#414F91"/><path d="M14.774 6.003L13.335 6c-1.617 0-2.662 1.16-2.662 2.953v1.362H9.226c-.125 0-.226.11-.226.245v1.973c0 .135.101.244.226.244h1.447v4.978c0 .136.101.245.227.245h1.887c.125 0 .227-.11.227-.245v-4.978h1.692c.125 0 .226-.11.226-.244V10.56a.256.256 0 00-.066-.173.218.218 0 00-.16-.072h-1.692V9.16c0-.555.122-.837.79-.837h.97c.125 0 .226-.11.226-.245V6.247c0-.135-.101-.244-.226-.244z" fill="#fff"/></svg><svg fill="none" viewBox="0 0 24 24" id="inst" xmlns="http://www.w3.org/2000/svg"><rect width="24" height="24" rx="12" fill="#E1306C"/><rect width="24" height="24" rx="12" fill="#E1306C"/><path d="M14.688 6H9.311A3.315 3.315 0 006 9.312v5.376A3.315 3.315 0 009.312 18h5.376A3.315 3.315 0 0018 14.688V9.312A3.315 3.315 0 0014.688 6zm2.247 8.688a2.25 2.25 0 01-2.247 2.247H9.311a2.25 2.25 0 01-2.246-2.247V9.312a2.25 2.25 0 012.247-2.247h5.376a2.25 2.25 0 012.247 2.247v5.376z" fill="#fff"/><path d="M12 9c-1.654 0-3 1.346-3 3s1.346 3 3 3 3-1.346 3-3-1.346-3-3-3zm0 4.967A1.97 1.97 0 0110.033 12 1.97 1.97 0 0112 10.033 1.97 1.97 0 0113.967 12 1.97 1.97 0 0112 13.967z" fill="#fff"/><path d="M15 8a1.004 1.004 0 00-1 1c0 .263.107.52.294.707.185.186.443.293.706.293.264 0 .52-.107.707-.293.187-.186.293-.444.293-.707 0-.264-.106-.522-.293-.707A1.004 1.004 0 0015 8z" fill="#fff"/><defs><linearGradient id="dpaint0_linear" x1="1.5" y1="24" x2="22.5" y2="0" gradientUnits="userSpaceOnUse"><stop offset=".144" stop-color="#FE833E"/><stop offset=".505" stop-color="#E3407D"/><stop offset=".851" stop-color="#6934C4"/></linearGradient></defs></svg><svg viewBox="0 0 492.004 492.004" id="next" xmlns="http://www.w3.org/2000/svg"><path d="M382.678 226.804L163.73 7.86C158.666 2.792 151.906 0 144.698 0s-13.968 2.792-19.032 7.86l-16.124 16.12c-10.492 10.504-10.492 27.576 0 38.064L293.398 245.9l-184.06 184.06c-5.064 5.068-7.86 11.824-7.86 19.028 0 7.212 2.796 13.968 7.86 19.04l16.124 16.116c5.068 5.068 11.824 7.86 19.032 7.86s13.968-2.792 19.032-7.86L382.678 265c5.076-5.084 7.864-11.872 7.848-19.088.016-7.244-2.772-14.028-7.848-19.108z"/></svg><svg fill="none" viewBox="0 0 24 24" id="vk" xmlns="http://www.w3.org/2000/svg"><rect width="24" height="24" rx="12" fill="#497BAB"/><path d="M18.926 15.225a.964.964 0 00-.048-.091c-.243-.438-.707-.976-1.392-1.614l-.014-.014-.008-.008-.007-.007h-.007a8.422 8.422 0 01-.59-.599c-.152-.194-.185-.391-.103-.591.058-.151.277-.47.656-.956.2-.258.357-.465.474-.62.84-1.12 1.205-1.836 1.093-2.147l-.043-.073c-.03-.044-.105-.084-.226-.12a1.146 1.146 0 00-.467-.019l-2.099.015a.272.272 0 00-.146.003l-.095.022-.036.019-.029.022a.325.325 0 00-.08.076.499.499 0 00-.073.128 11.926 11.926 0 01-.78 1.643c-.18.301-.345.563-.496.784-.15.222-.277.385-.379.49a2.654 2.654 0 01-.277.251c-.082.064-.146.09-.19.08a5.403 5.403 0 01-.123-.028.486.486 0 01-.164-.18.802.802 0 01-.084-.284 3.16 3.16 0 01-.022-.646c.005-.151.008-.253.008-.307 0-.185.003-.386.01-.602l.019-.515c.005-.126.007-.26.007-.401 0-.142-.009-.252-.026-.333a1.14 1.14 0 00-.076-.233.393.393 0 00-.15-.175.84.84 0 00-.244-.099 4.843 4.843 0 00-.984-.095c-.903-.01-1.484.049-1.742.175a.982.982 0 00-.277.22c-.087.106-.1.165-.036.175.291.043.498.148.62.313l.043.088c.034.063.068.175.102.336.034.16.056.338.066.533.024.355.024.66 0 .912-.025.254-.048.45-.07.592a1.185 1.185 0 01-.186.503.125.125 0 01-.036.037.544.544 0 01-.197.036c-.068 0-.15-.034-.248-.102a1.753 1.753 0 01-.302-.28 3.761 3.761 0 01-.354-.501 8.727 8.727 0 01-.408-.76l-.116-.211a18.231 18.231 0 01-.3-.595c-.126-.26-.237-.512-.335-.756a.481.481 0 00-.174-.233l-.037-.022a.772.772 0 00-.284-.11l-1.997.015c-.204 0-.343.046-.416.139l-.03.043A.236.236 0 005 8.665c0 .054.015.12.044.197a24.1 24.1 0 00.951 1.986c.343.638.64 1.151.893 1.54.253.39.51.757.772 1.103.263.345.437.567.522.664.085.098.152.17.2.22l.182.174c.117.117.288.257.514.42.226.163.477.324.751.482.275.158.594.287.959.387.364.1.719.14 1.064.12h.838c.17-.014.299-.068.386-.16l.03-.037a.484.484 0 00.054-.135.741.741 0 00.026-.2c-.005-.21.01-.398.047-.566.036-.168.078-.295.124-.38a.934.934 0 01.28-.321.482.482 0 01.059-.026c.117-.038.254 0 .412.114.158.114.306.255.444.423.139.168.306.357.5.566.194.21.364.365.51.467l.146.088c.097.058.223.112.379.16.155.05.291.061.408.037l1.866-.03c.185 0 .328-.03.43-.09.102-.061.163-.128.182-.201a.565.565 0 00.004-.249.922.922 0 00-.051-.193z" fill="#fff"/></svg><svg fill="none" viewBox="0 0 24 24" id="youtube" xmlns="http://www.w3.org/2000/svg"><rect width="24" height="24" rx="12" fill="#E90000"/><path fill-rule="evenodd" clip-rule="evenodd" d="M18.755 15.495c-.171.796-.78 1.382-1.513 1.47-1.736.207-3.493.208-5.243.207-1.75.001-3.506 0-5.242-.207-.733-.088-1.342-.674-1.513-1.47C5 14.362 5 13.125 5 11.959c0-1.167.003-2.404.247-3.537.171-.795.78-1.382 1.513-1.47 1.736-.207 3.493-.208 5.243-.207 1.749-.001 3.506 0 5.242.207.733.088 1.342.674 1.513 1.47.244 1.133.242 2.37.242 3.537 0 1.166 0 2.403-.245 3.536zm-8.562-1.215l4.451-2.465-4.45-2.482v4.947z" fill="#fff"/></svg></svg>