<?xml version="1.0" encoding="utf-8"?><!DOCTYPE svg PUBLIC "-//W3C//DTD SVG 1.1//EN" "http://www.w3.org/Graphics/SVG/1.1/DTD/svg11.dtd"><svg viewBox="0 0 501 492" xmlns="http://www.w3.org/2000/svg" xmlns:xlink="http://www.w3.org/1999/xlink"><style>:root>svg{display:none}:root>svg:target{display:block}</style><svg fill="none" viewBox="0 0 5 8" id="arrow" xmlns="http://www.w3.org/2000/svg"><path d="M1 1l3 3-3 3" stroke="#008AC4" stroke-width="2" stroke-linecap="round" stroke-linejoin="round"/></svg><svg viewBox="0 0 341.333 341.333" id="burger" xmlns="http://www.w3.org/2000/svg"><path d="M0 277.333h341.333V320H0zM0 149.333h341.333V192H0zM0 21.333h341.333V64H0z"/></svg><svg fill="none" viewBox="0 0 19 15" id="check" xmlns="http://www.w3.org/2000/svg"><path d="M2 9l4 4L17 2" stroke="#fff" stroke-width="3" stroke-linecap="round" stroke-linejoin="round"/></svg><svg fill="none" viewBox="0 0 24 24" id="fb" xmlns="http://www.w3.org/2000/svg"><rect width="24" height="24" rx="12" fill="#414F91"/><path d="M14.774 6.003L13.335 6c-1.617 0-2.662 1.16-2.662 2.953v1.362H9.226c-.125 0-.226.11-.226.245v1.973c0 .135.101.244.226.244h1.447v4.978c0 .136.101.245.227.245h1.887c.125 0 .227-.11.227-.245v-4.978h1.692c.125 0 .226-.11.226-.244V10.56a.256.256 0 00-.066-.173.218.218 0 00-.16-.072h-1.692V9.16c0-.555.122-.837.79-.837h.97c.125 0 .226-.11.226-.245V6.247c0-.135-.101-.244-.226-.244z" fill="#fff"/></svg><svg fill="none" viewBox="0 0 40 40" id="fb-light" xmlns="http://www.w3.org/2000/svg"><rect width="40" height="40" rx="20" fill="#fff"/><path d="M24.623 10.004L22.225 10c-2.695 0-4.436 1.932-4.436 4.922v2.27h-2.412c-.208 0-.377.182-.377.407v3.288c0 .226.169.408.377.408h2.412v8.297c0 .225.168.408.377.408h3.146c.209 0 .378-.183.378-.408v-8.297h2.82c.208 0 .377-.182.377-.408V17.6a.426.426 0 00-.11-.288.363.363 0 00-.267-.12h-2.82v-1.924c0-.924.203-1.394 1.317-1.394h1.616c.208 0 .377-.183.377-.408v-3.053c0-.225-.169-.408-.377-.408z" fill="#008AC4"/></svg><svg fill="none" viewBox="0 0 24 24" id="icon-call" xmlns="http://www.w3.org/2000/svg"><rect width="24" height="24" rx="12" fill="#008AC4"/><path d="M18.993 16.049a.677.677 0 01-.207.593l-1.971 1.957a1.11 1.11 0 01-.349.253c-.143.069-.284.113-.422.133l-.089.008c-.05.005-.114.007-.193.007-.187 0-.491-.032-.911-.096-.42-.065-.934-.223-1.541-.475-.608-.252-1.297-.63-2.068-1.134-.77-.505-1.59-1.197-2.46-2.077a16.245 16.245 0 01-1.72-1.957 13.944 13.944 0 01-1.096-1.728 9.306 9.306 0 01-.623-1.439c-.138-.43-.232-.8-.281-1.112a3.676 3.676 0 01-.06-.734c.01-.178.015-.277.015-.297.02-.138.065-.279.134-.422.069-.144.153-.26.252-.349l1.97-1.972A.653.653 0 017.849 5c.129 0 .242.037.341.111.099.074.183.166.252.275l1.586 3.01a.721.721 0 01.074.52.924.924 0 01-.252.474l-.726.726a.248.248 0 00-.052.097.366.366 0 00-.022.111c.04.208.128.445.266.712.119.237.302.527.549.868.247.34.597.734 1.052 1.179.445.454.84.808 1.186 1.06.345.252.634.438.867.556.232.119.41.19.533.215l.185.037c.02 0 .052-.007.097-.022a.248.248 0 00.096-.052l.845-.86a.908.908 0 01.622-.237c.168 0 .302.03.4.089h.015l2.86 1.69c.208.129.332.292.371.49z" fill="#fff"/></svg><svg fill="none" viewBox="0 0 24 24" id="icon-mail" xmlns="http://www.w3.org/2000/svg"><rect width="24" height="24" rx="12" fill="#008AC4"/><path d="M7.765 16.317c.541.523 1.19.948 1.943 1.238a6.95 6.95 0 002.505.445c1.015 0 1.953-.155 2.794-.474.764-.28.107-1.702-.454-1.47-.619.262-1.373.397-2.234.397a5.23 5.23 0 01-1.837-.31 4 4 0 01-1.402-.87 3.964 3.964 0 01-.91-1.373c-.222-.541-.328-1.16-.328-1.837 0-.638.106-1.247.32-1.789.212-.541.502-1.025.889-1.412a4.033 4.033 0 011.373-.938 4.608 4.608 0 011.789-.338c.609 0 1.17.087 1.673.242.493.154.918.396 1.276.715.358.32.638.706.841 1.17.203.465.3 1.006.3 1.625 0 .358-.039.696-.116 1.015-.077.3-.174.57-.31.783-.125.204-.27.368-.444.484-.203.135-.503.213-.735.135-.29-.097-.232-.503-.213-.744.03-.33.116-.638.184-.958.106-.522.222-1.034.329-1.547.058-.28.125-.57.183-.85a.583.583 0 00-.57-.707h-.426a.58.58 0 00-.56.426 5.21 5.21 0 01-.059.213c-.212-.658-.996-.842-1.615-.832-.812.01-1.556.425-2.098 1.015-.048.058-.106.116-.155.174a3.73 3.73 0 00-.638 1.151c-.154.445-.232.9-.232 1.364 0 .396.058.773.165 1.111.116.349.28.648.493.9.212.251.483.454.802.6.32.144.677.222 1.064.222.29 0 .56-.049.803-.136.232-.087.444-.193.628-.319.145-.096.28-.212.387-.319.068.126.145.232.251.339.271.29.687.435 1.238.435.435 0 .86-.087 1.257-.261a2.979 2.979 0 001.054-.793c.29-.348.532-.774.706-1.277.174-.502.261-1.083.261-1.72 0-.871-.164-1.645-.483-2.292a4.79 4.79 0 00-1.296-1.635 5.588 5.588 0 00-1.837-.976A6.452 6.452 0 0012.213 6c-.841 0-1.644.155-2.389.454a6.245 6.245 0 00-1.953 1.267 5.868 5.868 0 00-1.808 4.293c0 .861.145 1.673.445 2.399.29.735.715 1.373 1.257 1.904zm5.23-4.06a2.927 2.927 0 01-.299.744c-.135.222-.3.406-.512.55-.194.136-.426.204-.716.204a.802.802 0 01-.435-.106.834.834 0 01-.28-.3 1.412 1.412 0 01-.155-.426 2.391 2.391 0 01-.049-.425c0-.27.04-.541.117-.822.077-.27.183-.522.328-.735.145-.213.31-.387.513-.522.184-.126.387-.184.628-.184.194 0 .348.03.465.097a.81.81 0 01.28.261c.077.116.126.252.164.396.039.165.058.339.058.503-.01.242-.038.493-.106.764z" fill="#fff"/></svg><svg fill="none" viewBox="0 0 24 24" id="icon-marker" xmlns="http://www.w3.org/2000/svg"><path d="M11.79 23.406h0a52.405 52.405 0 01-4.136-5.375c-.983-1.473-1.95-3.107-2.668-4.733-.722-1.631-1.178-3.219-1.178-4.606C3.808 4.175 7.483.5 12 .5s8.192 3.675 8.192 8.192c0 1.387-.456 2.975-1.178 4.606-.719 1.626-1.685 3.26-2.668 4.732a52.402 52.402 0 01-4.136 5.376h0a.283.283 0 01-.42 0zM7.127 8.692A4.878 4.878 0 0012 13.565a4.878 4.878 0 004.873-4.873A4.878 4.878 0 0012 3.819a4.878 4.878 0 00-4.873 4.873z" fill="#008AC4" stroke="#008AC4"/></svg><svg fill="none" viewBox="0 0 24 24" id="icon-post" xmlns="http://www.w3.org/2000/svg"><path d="M23.063 20.15H18.67l4.115-4.115a1.004 1.004 0 000-1.42L10.44 2.27a1.004 1.004 0 00-1.42 0l-7.804 7.805a1.004 1.004 0 000 1.42L9.87 20.15H.937a.937.937 0 000 1.874h22.126a.937.937 0 000-1.874zm-4.061-6.478l-6.283-1.337-1.337-6.282 7.62 7.62zM3.346 10.785l5.721-5.721 1.778 8.353a1.027 1.027 0 00.793.792l8.353 1.778-4.163 4.163h-3.117l-9.365-9.365z" fill="#008AC4"/></svg><svg viewBox="0 0 112 112" id="icon-program-1" xmlns="http://www.w3.org/2000/svg"><path d="M112 23.19C112 10.403 99.44 0 84 0 65.49 0 51.744 14.806 57.195 29.867H29.867A18.687 18.687 0 0011.508 45.24c-1.387-.587-2.272-.44-5.908-.44A5.6 5.6 0 000 50.4v39.2a11.211 11.211 0 009.333 11.032v5.768a5.6 5.6 0 005.6 5.6H22.4a5.6 5.6 0 005.6-5.6v-5.6h56v5.6a5.6 5.6 0 005.6 5.6h7.467a5.6 5.6 0 005.6-5.6v-5.768A11.21 11.21 0 00112 89.6V50.4a5.6 5.6 0 00-5.6-5.6c-3.453 0-4.515-.151-5.915.442a18.774 18.774 0 00-.747-2.887C107.134 38.175 112 31.145 112 23.19zM84 3.733c13.38 0 24.267 8.729 24.267 19.457 0 10.727-10.887 19.456-24.267 19.456-4.973 0-6.09-1.085-7.295-.437l-12.073 6.47 2.381-10.28a1.867 1.867 0 00-.612-1.842C51.746 24.128 62.881 3.733 84 3.733zM54.133 85.867H16.8A1.867 1.867 0 0114.933 84v-3.733a5.6 5.6 0 015.6-5.6h28a5.6 5.6 0 015.6 5.6v5.6zM24.267 106.4a1.867 1.867 0 01-1.867 1.867h-7.467a1.867 1.867 0 01-1.866-1.867v-5.6h11.2v5.6zm74.666 0a1.867 1.867 0 01-1.866 1.867H89.6a1.867 1.867 0 01-1.867-1.867v-5.6h11.2v5.6zm3.734-57.867h3.733c1.031 0 1.867.836 1.867 1.867v39.2a7.467 7.467 0 01-7.467 7.467H11.2A7.467 7.467 0 013.733 89.6V50.4c0-1.03.836-1.867 1.867-1.867h3.733c1.031 0 1.867.836 1.867 1.867V84a5.6 5.6 0 005.6 5.6h78.4a5.6 5.6 0 005.6-5.6V50.4c0-1.03.836-1.867 1.867-1.867zm-44.8 37.334v-5.6a5.6 5.6 0 015.6-5.6h28a5.6 5.6 0 015.6 5.6V84c0 1.03-.836 1.867-1.867 1.867H57.867zm39.2-13.019a9.237 9.237 0 00-5.6-1.915h-28A9.333 9.333 0 0056 74.667a9.333 9.333 0 00-7.467-3.734h-28a9.237 9.237 0 00-5.6 1.915V48.534c.01-8.243 6.69-14.924 14.934-14.933h29.12a23.57 23.57 0 004.134 5.04l-3.048 13.207a1.866 1.866 0 001.815 2.286c.658 0-.518.529 15.993-8.32a32.934 32.934 0 0018.467-1.842c.986 3.095.719 2.412.719 28.878z"/><path d="M84 29.867a5.6 5.6 0 100-11.2 5.6 5.6 0 000 11.2zm0-7.467a1.867 1.867 0 110 3.733 1.867 1.867 0 010-3.733zM69.067 29.867a5.6 5.6 0 100-11.2 5.6 5.6 0 000 11.2zm0-7.467a1.867 1.867 0 110 3.733 1.867 1.867 0 010-3.733zM98.933 29.867a5.6 5.6 0 100-11.2 5.6 5.6 0 000 11.2zm0-7.467a1.867 1.867 0 110 3.733 1.867 1.867 0 010-3.733z"/></svg><svg viewBox="0 0 70 80" id="icon-program-2" xmlns="http://www.w3.org/2000/svg"><path d="M21 54.65c3.476-2.346 5.766-6.32 5.766-10.82 0-7.194-5.852-13.046-13.045-13.046S.676 36.636.676 43.83c0 4.5 2.29 8.474 5.766 10.82C2.728 55.71 0 59.132 0 63.18v15.536C0 79.426.574 80 1.283 80H26.16c.708 0 1.282-.574 1.282-1.283V63.181c0-4.05-2.728-7.471-6.442-8.531zm-4.32 4l-1.559-1.775h3.116l-1.558 1.774zm-4.973-1.775l3.092 3.52-2.895 2.16-1.395-5.68h1.198zm9.454.559c.163.074.323.154.478.24l-.456 4.678-2.623-1.956 2.601-2.962zM3.242 43.83c0-5.779 4.7-10.48 10.48-10.48 5.778 0 10.479 4.701 10.479 10.48 0 5.778-4.701 10.479-10.48 10.479-5.778 0-10.479-4.701-10.479-10.48zM2.566 63.18c0-3.142 2.31-5.754 5.32-6.229l1.988 8.094a1.283 1.283 0 002.013.722l3.51-2.617v14.283H8.9V64.717a1.283 1.283 0 00-2.566 0v12.717H2.566V63.181zm22.31 14.253h-6.914V63.151l3.51 2.617a1.282 1.282 0 002.044-.903l.478-4.898c.56.942.883 2.04.883 3.214v14.253z"/><path d="M20.828 66.784a1.294 1.294 0 00-1.216-.792 1.294 1.294 0 00-1.204.94 1.295 1.295 0 00.523 1.41c.45.298 1.057.281 1.487-.045a1.29 1.29 0 00.41-1.513zM13.263 41.442a1.295 1.295 0 00-1.185-.792c-.515 0-.986.318-1.184.792a1.295 1.295 0 00.351 1.466c.424.36 1.049.405 1.52.107a1.291 1.291 0 00.498-1.573zM19.284 42.424c.204.483.69.804 1.217.79a1.295 1.295 0 001.212-.97 1.297 1.297 0 00-.47-1.334 1.293 1.293 0 00-1.528-.015 1.293 1.293 0 00-.43 1.529c.031.077-.033-.079 0 0zM52.375 29.962a1.282 1.282 0 001.972-1.082v-2.983h1.305a3.99 3.99 0 003.986-3.985V8.498a3.99 3.99 0 00-3.986-3.985h-13.29v-.528A3.99 3.99 0 0038.376 0H14.832a3.99 3.99 0 00-3.985 3.986v13.41a3.99 3.99 0 003.985 3.986h1.305v2.985a1.283 1.283 0 001.973 1.081l6.381-4.066h3.632v.53a3.99 3.99 0 003.985 3.985h13.884l6.383 4.066zM24.117 18.816c-.244 0-.483.07-.69.2l-4.724 3.012v-1.93c0-.708-.574-1.282-1.283-1.282h-2.588c-.783 0-1.42-.637-1.42-1.42V3.986c0-.783.637-1.42 1.42-1.42h23.544c.783 0 1.42.637 1.42 1.42v.528h-7.688a3.991 3.991 0 00-3.762 2.672h-9.79a1.283 1.283 0 000 2.566h9.567v2.145h-9.567a1.283 1.283 0 000 2.566h9.567v4.353h-4.006zm6.571 3.096V8.498c0-.782.637-1.42 1.42-1.42h23.544c.783 0 1.42.638 1.42 1.42v13.412c0 .783-.637 1.42-1.42 1.42h-2.588c-.709 0-1.283.574-1.283 1.283v1.928l-4.725-3.01a1.283 1.283 0 00-.69-.201H32.108a1.42 1.42 0 01-1.42-1.42z"/><path d="M35.833 14.266h16.094a1.283 1.283 0 100-2.566H35.833a1.283 1.283 0 100 2.566zM53.21 17.694c0-.709-.575-1.283-1.283-1.283H35.833a1.283 1.283 0 100 2.566h16.094c.709 0 1.283-.575 1.283-1.284zM62.968 54.65c3.477-2.346 5.767-6.32 5.767-10.82 0-7.194-5.852-13.046-13.045-13.046-7.194 0-13.046 5.852-13.046 13.046 0 4.5 2.29 8.474 5.767 10.82-3.715 1.06-6.443 4.482-6.443 8.531v15.536c0 .709.574 1.283 1.283 1.283h24.877c.709 0 1.283-.574 1.283-1.283V63.181c0-4.05-2.728-7.471-6.443-8.531zm-2.705 2.225a5.43 5.43 0 01-4.574 2.523 5.43 5.43 0 01-4.574-2.523h9.148zM45.21 43.83c0-5.779 4.701-10.48 10.48-10.48 5.778 0 10.48 4.701 10.48 10.48 0 5.778-4.702 10.479-10.48 10.479-5.779 0-10.48-4.701-10.48-10.48zm-.676 19.351a6.315 6.315 0 013.916-5.834 8.007 8.007 0 007.24 4.617 8.007 8.007 0 007.239-4.618 6.316 6.316 0 013.916 5.835v4.554h-4.494v-3.018a1.283 1.283 0 10-2.565 0v12.717H44.534V63.181zm17.817 14.253v-7.133h4.494v7.133h-4.494z"/><path d="M56.148 42.424c.226.534.795.865 1.373.777a1.296 1.296 0 001.055-.953 1.296 1.296 0 00-.531-1.383 1.3 1.3 0 00-1.62.16c-.358.368-.474.92-.277 1.399.032.077-.033-.079 0 0zM50.2 41.681c-.03-.164-.1-.32-.19-.462-.647-.947-2.164-.613-2.335.525-.157 1.034.989 1.823 1.9 1.304a1.292 1.292 0 00.625-1.367zM55.942 46.328c-.4-.4-1.05-.4-1.451 0a1.804 1.804 0 01-1.284.532c-.484 0-.94-.19-1.283-.532a1.026 1.026 0 10-1.451 1.451 3.855 3.855 0 002.734 1.131c.99 0 1.981-.377 2.735-1.13.401-.401.401-1.051 0-1.452z"/></svg><svg viewBox="0 0 98 86" id="icon-program-3" xmlns="http://www.w3.org/2000/svg"><path d="M91.333 14.32h-3.754a4.982 4.982 0 00-4.713-3.387h-6.773a4.982 4.982 0 00-4.713 3.387h-5.553V9.134c0-4.61-3.75-8.36-8.36-8.36H40.532c-4.61 0-8.36 3.75-8.36 8.36v5.186H26.62a4.982 4.982 0 00-4.713-3.387h-6.773a4.982 4.982 0 00-4.713 3.387H6.667A6.675 6.675 0 000 20.987v57.572a6.675 6.675 0 006.667 6.668h84.666A6.675 6.675 0 0098 78.559V20.987a6.675 6.675 0 00-6.667-6.667zm-15.24-.212h6.773c.992 0 1.8.807 1.8 1.8 0 .991-.808 1.798-1.8 1.798h-6.773c-.99 0-1.794-.803-1.799-1.79v-.009-.008c.005-.988.81-1.791 1.799-1.791zm-54.186 6.773a4.982 4.982 0 004.713-3.386h44.76a4.982 4.982 0 004.713 3.386h1.8v61.17H20.107v-61.17h1.8zm13.44-11.747a5.191 5.191 0 015.186-5.186h16.934a5.191 5.191 0 015.185 5.186v5.186H35.348V9.134zm-20.213 4.974h6.773c.992 0 1.8.807 1.8 1.8 0 .991-.808 1.798-1.8 1.798h-6.773c-.99 0-1.796-.804-1.799-1.793v-.006-.006a1.801 1.801 0 011.799-1.793zM3.174 78.559V20.987a3.496 3.496 0 013.493-3.492h3.754a4.982 4.982 0 004.713 3.386h1.799v61.17H6.667a3.496 3.496 0 01-3.492-3.492zm91.651 0a3.496 3.496 0 01-3.492 3.493H81.067v-61.17h1.8a4.982 4.982 0 004.712-3.387h3.754a3.496 3.496 0 013.492 3.492v57.572z"/><path d="M33.76 58.134h6.88v6.879a4.98 4.98 0 004.973 4.974h6.774a4.98 4.98 0 004.974-4.974v-6.88h6.879a4.98 4.98 0 004.974-4.973v-6.773a4.98 4.98 0 00-4.974-4.974h-6.88v-6.88a4.98 4.98 0 00-4.973-4.974h-6.774a4.98 4.98 0 00-4.974 4.974v6.88H33.76a4.98 4.98 0 00-4.974 4.974v6.773a4.98 4.98 0 004.974 4.974zm-1.799-11.748c0-.992.807-1.799 1.8-1.799h8.466c.877 0 1.587-.71 1.587-1.587v-8.467c0-.992.807-1.799 1.8-1.799h6.773c.992 0 1.799.807 1.799 1.8V43c0 .877.71 1.587 1.587 1.587h8.467c.992 0 1.799.807 1.799 1.8v6.773c0 .992-.807 1.799-1.8 1.799h-8.466c-.877 0-1.587.71-1.587 1.587v8.467c0 .992-.807 1.799-1.8 1.799h-6.773c-.992 0-1.799-.807-1.799-1.8v-8.466c0-.877-.71-1.587-1.587-1.587H33.76c-.992 0-1.799-.807-1.799-1.8v-6.773z"/></svg><svg viewBox="0 0 112 102" id="icon-program-4" xmlns="http://www.w3.org/2000/svg"><path d="M29.227 67.683a9.15 9.15 0 00-5.65-1.961 9.056 9.056 0 00-7.09 3.384 8.917 8.917 0 00-1.93 6.632 8.94 8.94 0 003.37 6.05 9.146 9.146 0 005.648 1.963 9.05 9.05 0 007.092-3.389 8.908 8.908 0 001.928-6.625 8.944 8.944 0 00-3.368-6.054zm-1.782 10.088a4.935 4.935 0 01-3.87 1.845 4.927 4.927 0 01-3.084-1.07 4.837 4.837 0 01-1.825-3.272 4.81 4.81 0 011.041-3.576 4.94 4.94 0 013.87-1.841c1.133 0 2.2.37 3.086 1.07a4.835 4.835 0 011.823 3.273 4.8 4.8 0 01-1.041 3.571zM65.583 46.508a9.046 9.046 0 003.922-.89 8.972 8.972 0 004.636-5.166 8.9 8.9 0 00-.4-6.873c-1.504-3.099-4.715-5.102-8.18-5.102a9.05 9.05 0 00-3.928.892 8.961 8.961 0 00-4.637 5.163 8.892 8.892 0 00.4 6.875c1.509 3.099 4.722 5.101 8.187 5.101zm-4.684-10.611a4.857 4.857 0 012.514-2.796 4.953 4.953 0 012.148-.489c1.892 0 3.642 1.088 4.46 2.773a4.795 4.795 0 01.216 3.703 4.866 4.866 0 01-2.513 2.799 4.937 4.937 0 01-2.142.486c-1.893 0-3.647-1.09-4.468-2.775a4.79 4.79 0 01-.215-3.701zM43.084 31.897c.665.15 1.345.227 2.022.227 4.257 0 7.893-2.88 8.844-7.005a8.921 8.921 0 00-1.157-6.782 9.015 9.015 0 00-5.677-4.012 9.189 9.189 0 00-2.03-.229c-4.254 0-7.887 2.882-8.835 7.007a8.9 8.9 0 001.15 6.782 9.002 9.002 0 005.683 4.012zm-2.803-9.866c.514-2.237 2.49-3.8 4.804-3.8.372 0 .747.043 1.116.127a4.908 4.908 0 013.093 2.182 4.807 4.807 0 01.625 3.654c-.506 2.199-2.53 3.795-4.813 3.795-.37 0-.745-.043-1.113-.126a4.896 4.896 0 01-3.092-2.18 4.795 4.795 0 01-.62-3.652zM26.655 37.055A8.954 8.954 0 0030.02 31a8.916 8.916 0 00-1.927-6.628 9.071 9.071 0 00-7.097-3.383c-2.04 0-4.044.695-5.645 1.958a8.932 8.932 0 00-3.367 6.045 8.924 8.924 0 001.93 6.638 9.065 9.065 0 007.098 3.387 9.124 9.124 0 005.643-1.962zm-9.519-4.017a4.816 4.816 0 01-1.043-3.582 4.827 4.827 0 011.82-3.264 4.932 4.932 0 013.084-1.069c1.519 0 2.932.672 3.875 1.84a4.811 4.811 0 011.039 3.574 4.846 4.846 0 01-1.824 3.277 4.905 4.905 0 01-3.075 1.068 4.946 4.946 0 01-3.876-1.844z"/><path d="M111.209 16.824c-.357-.36-.995-.79-2-.79-1.18 0-4.313 0-23.342 16.192l-1.156.987c-3.4-8.869-9.373-16.776-17.07-22.495C58.815 4.16 48.305.692 37.249.689h-.008c-7.462 0-16.532 2.607-23.671 6.805C4.817 12.64-.002 19.521 0 26.87c.003 8.873 5.007 12.584 9.027 15.565 3.28 2.432 5.869 4.352 5.87 8.56.001 4.209-2.587 6.127-5.864 8.557C5.013 62.53.011 66.24.013 75.113c.003 7.347 4.825 14.23 13.579 19.38 7.145 4.203 16.22 6.816 23.682 6.818h.015c13.543 0 26.275-5.228 35.85-14.72 9.454-9.372 14.712-21.793 14.85-35.03 3.21-3.653 6.32-7.284 9.159-10.705 4.857-5.853 8.592-10.683 11.101-14.354 3.323-4.863 4.779-7.845 2.96-9.678zm-40.98 66.83c-8.797 8.72-20.494 13.522-32.94 13.522h-.013c-13.338-.004-33.124-9.27-33.128-22.065-.002-6.79 3.568-9.437 7.348-12.239 3.532-2.62 7.537-5.588 7.536-11.879-.003-6.29-4.008-9.26-7.542-11.88-3.781-2.805-7.353-5.453-7.355-12.245-.002-7.856 7.223-13.277 11.53-15.81 6.443-3.787 14.911-6.234 21.576-6.234h.007c10.162.003 19.819 3.189 27.927 9.213 7.478 5.556 13.186 13.355 16.193 22.069-8.968 7.83-18.678 16.858-25.91 24.113-12.012 1.555-13.648 9.56-14.845 15.44-1.018 5.008-1.68 7.43-5.544 7.74a2.067 2.067 0 00-.626 3.97c.249.103 6.16 2.518 13.067 2.519h.002c4.813 0 8.942-1.167 12.271-3.468 4.102-2.835 6.884-7.33 8.282-13.358 4.725-4.78 10.124-10.545 15.463-16.483-1.229 10.223-5.842 19.682-13.3 27.075zM63.91 72.671c-2.19 8.682-7.703 13.082-16.4 13.082h-.001c-2.293 0-4.49-.313-6.336-.703 2.206-2.249 2.895-5.633 3.49-8.565 1.137-5.585 2.211-10.87 11-12.126l8.247 8.312zm28.55-32.652c-8.195 9.764-18.116 20.73-26.282 29.066l-1.264-1.274-5.579-5.623c7.405-7.37 16.903-16.158 25.765-23.85 1.033-.896 2.06-1.781 3.071-2.644 10.285-8.771 15.675-12.588 18.424-14.25-1.642 2.766-5.424 8.197-14.135 18.575z"/></svg><svg viewBox="0 0 118 117" id="icon-program-5" xmlns="http://www.w3.org/2000/svg"><path d="M95.292 70.607l.204-1.43a11.653 11.653 0 00-6.645-12.276l-12.268-5.725a7.713 7.713 0 01-2.398-1.744l-5.227-5.62a30.593 30.593 0 00-3.96-3.572l-11.013-8.317-1.054-11.596a9.22 9.22 0 00-2.658-5.674l-.232-.233a9.193 9.193 0 00-9.926-2.037l-2.856 1.143a7.58 7.58 0 00-1.202.61L23.363 1.443a1.937 1.937 0 00-2.74 0L1.442 20.624a1.938 1.938 0 00-.063 2.674L11.887 34.84l-.17.17a6.789 6.789 0 000 9.59 6.76 6.76 0 004.795 1.983l.074-.002a6.76 6.76 0 001.981 4.868 6.76 6.76 0 004.796 1.983l.072-.001a6.77 6.77 0 006.777 6.852l.074-.002a6.781 6.781 0 0010.173 5.942l2.752 3.022.289 23.457a6.777 6.777 0 0010.714 5.522 6.778 6.778 0 004.424 3.066 6.768 6.768 0 005.263-1.128 6.78 6.78 0 008.661 2.542v1.623a6.782 6.782 0 0012.885 2.951l8.988 9.069a1.943 1.943 0 001.377.574h.068a1.942 1.942 0 001.4-.672l19.375-22.487a1.937 1.937 0 00-.122-2.66L95.292 70.608zM41.554 15.98A5.322 5.322 0 0147.3 17.16l.233.232a5.338 5.338 0 011.538 3.286l.648 7.12-3.033-3.033-.073-.072a1.936 1.936 0 00-1.76-.527h-4.799a3.652 3.652 0 01-1.356-7.042l2.856-1.143zM14.457 41.858a2.91 2.91 0 010-4.11l6.85-6.85a2.906 2.906 0 114.11 4.11l-6.85 6.85a2.91 2.91 0 01-4.11 0zm6.85 6.85a2.91 2.91 0 010-4.11l6.85-6.85a2.906 2.906 0 114.11 4.11l-6.85 6.85a2.91 2.91 0 01-4.11 0zm8.906 7.702a2.906 2.906 0 01-2.055-4.962l6.85-6.85a2.906 2.906 0 114.11 4.11l-6.85 6.85a2.887 2.887 0 01-2.055.85v.002zm6.85 6.85a2.906 2.906 0 01-2.055-4.961l6.85-6.85a2.907 2.907 0 014.11 4.11l-6.85 6.85a2.888 2.888 0 01-2.055.85zm45.187 41.067a2.908 2.908 0 01-4.961 2.055 2.908 2.908 0 01-.852-2.055V85.92a1.937 1.937 0 10-3.875 0v10.656a2.907 2.907 0 01-5.812 0V83.983a1.937 1.937 0 10-3.875 0v10.656a2.907 2.907 0 01-5.813 0V82.045a1.938 1.938 0 00-3.875 0v10.656a2.907 2.907 0 01-5.812 0l-.298-24.245a1.937 1.937 0 00-.505-1.278l-3.214-3.53 5.349-5.35a6.777 6.777 0 00-4.866-11.572l.002-.072a6.773 6.773 0 00-6.854-6.777 6.765 6.765 0 00-6.85-6.85 6.777 6.777 0 00-11.571-4.868l-3.937 3.936-9.141-10.04L21.994 5.553l11.42 11.42a7.527 7.527 0 006.64 11.068h4.428l6.282 6.283c.057.056.118.11.183.159l.02.017 11.698 8.83a26.71 26.71 0 013.457 3.12l5.227 5.62a11.57 11.57 0 003.596 2.616l12.267 5.725a7.798 7.798 0 014.448 8.218l-.107.746h-7.366a1.937 1.937 0 00-1.937 1.938v33.014zm13.463 7.803l-9.588-9.674V73.251h6.326l20.072 19.367-16.81 19.512z"/><path d="M73.13 36.113a1.938 1.938 0 000 2.74l5.812 5.813a1.938 1.938 0 002.74-2.74l-5.812-5.813a1.937 1.937 0 00-2.74 0zM65.38 28.363a1.938 1.938 0 000 2.74l1.937 1.938a1.938 1.938 0 002.74-2.74l-1.937-1.938a1.937 1.937 0 00-2.74 0z"/></svg><svg viewBox="0 0 120 128" id="icon-program-6" xmlns="http://www.w3.org/2000/svg"><path d="M60 32.93a2.042 2.042 0 002.043-2.042V2.043a2.042 2.042 0 10-4.085 0v28.845c0 1.129.914 2.043 2.042 2.043zM68.181 32.93a2.042 2.042 0 002.043-2.042V2.043a2.042 2.042 0 10-4.086 0v28.845c0 1.129.915 2.043 2.043 2.043z"/><path d="M53.861 37.542V7.976a2.042 2.042 0 10-4.085 0v31.456c0 1.128.914 2.043 2.042 2.043 5.288 0 9.59 4.302 9.59 9.59a2.042 2.042 0 104.085 0c0-6.846-5.057-12.534-11.632-13.523zM76.362 8.9a2.042 2.042 0 00-2.043 2.043v34.22c0 5.096-2.743 9.85-7.16 12.405a2.043 2.043 0 102.046 3.536c.163-.095.325-.192.485-.292v65.145a2.043 2.043 0 104.085 0v-68.6a18.459 18.459 0 004.63-12.194v-34.22a2.042 2.042 0 00-2.043-2.042zM52.84 57.568a14.375 14.375 0 01-7.16-12.405V22.884a2.042 2.042 0 10-4.085 0v22.279c0 6.148 3.106 11.907 8.18 15.305v65.489a2.043 2.043 0 104.085 0V59.336c0-.73-.388-1.403-1.02-1.768zM19.094 66.302a2.043 2.043 0 002.042-2.043V35.414a2.042 2.042 0 10-4.085 0v28.845c0 1.128.915 2.043 2.043 2.043zM27.275 66.302a2.042 2.042 0 002.043-2.043V35.414a2.042 2.042 0 10-4.086 0v28.845c0 1.128.915 2.043 2.043 2.043z"/><path d="M12.956 70.913V41.347a2.042 2.042 0 10-4.086 0v31.456c0 1.128.915 2.043 2.043 2.043 5.288 0 9.59 4.302 9.59 9.59a2.042 2.042 0 104.085 0c0-6.846-5.058-12.534-11.633-13.523zM35.456 42.272a2.042 2.042 0 00-2.042 2.042v34.22c0 5.096-2.744 9.85-7.16 12.404a2.043 2.043 0 102.045 3.537c.164-.095.325-.193.485-.292v31.774a2.043 2.043 0 104.085 0V90.729a18.459 18.459 0 004.63-12.195v-34.22a2.043 2.043 0 00-2.043-2.042zM11.935 90.939a14.376 14.376 0 01-7.16-12.405V56.255a2.042 2.042 0 10-4.086 0v22.279c0 6.148 3.106 11.907 8.18 15.305v32.118a2.043 2.043 0 104.086 0v-33.25c0-.73-.389-1.403-1.02-1.768zM100.906 49.961a2.042 2.042 0 002.042-2.042V19.073a2.042 2.042 0 10-4.085 0V47.92c0 1.128.915 2.042 2.043 2.042zM92.725 17.03a2.042 2.042 0 00-2.043 2.043V47.92a2.042 2.042 0 104.085 0V19.073a2.042 2.042 0 00-2.042-2.043z"/><path d="M111.129 56.463V25.007a2.042 2.042 0 10-4.085 0v29.566c-6.575.989-11.632 6.677-11.632 13.523a2.042 2.042 0 104.085 0c0-5.288 4.302-9.59 9.59-9.59a2.043 2.043 0 002.042-2.043zM93.747 74.598a14.376 14.376 0 01-7.16-12.404v-34.22a2.042 2.042 0 10-4.086 0v34.22c0 4.542 1.697 8.872 4.63 12.194v51.569a2.043 2.043 0 104.085 0V77.843c.16.099.321.196.485.291a2.042 2.042 0 102.046-3.536zM117.268 37.872a2.042 2.042 0 00-2.043 2.043v22.278c0 5.097-2.744 9.85-7.16 12.405a2.043 2.043 0 00-1.02 1.768v49.591a2.043 2.043 0 104.085 0V77.498c5.074-3.398 8.18-9.157 8.18-15.305V39.915a2.042 2.042 0 00-2.042-2.043z"/></svg><svg viewBox="0 0 160 115" id="icon-program-7" xmlns="http://www.w3.org/2000/svg"><path d="M152.647 0c-4.055 0-7.354 3.3-7.354 7.354V20.04H14.708V7.354c0-4.055-3.3-7.354-7.354-7.354C3.299 0 0 3.3 0 7.354V110.06a4.854 4.854 0 004.849 4.849h5.01a4.854 4.854 0 004.848-4.849V97.374h130.585v12.687a4.854 4.854 0 004.849 4.849h5.01a4.854 4.854 0 004.849-4.849V7.354C160 3.299 156.701 0 152.647 0zM10.02 110.061a.161.161 0 01-.161.161h-5.01a.161.161 0 01-.161-.161v-5.171h5.332v5.171zm0-9.859H4.688V7.354a2.67 2.67 0 012.666-2.666 2.67 2.67 0 012.666 2.666v92.848zm94.869-75.474h10.343v57.938h-10.343V24.728zm-15.03 0h10.343v57.938H89.859V24.728zm-15.03 0h10.343v57.938H74.829V24.728zm-15.03 0H70.14v57.938H59.8V24.728zm-15.03 0H55.11v57.938H44.768V24.728zm-30.061 0H25.05v45.251a2.344 2.344 0 104.688 0V24.728H40.08v57.938H29.738v-2.665a2.344 2.344 0 00-4.688 0v2.665H14.707V24.728zm130.584 67.959H14.708v-5.333h130.584v5.333zm-10.342-10.02V37.414a2.344 2.344 0 10-4.688 0v45.251H119.92V24.728h10.342v2.665a2.344 2.344 0 004.688 0v-2.665h10.343v57.938H134.95zm20.363 27.394a.16.16 0 01-.161.161h-5.01a.161.161 0 01-.162-.161v-5.171h5.333v5.171zm0-9.859h-5.333V7.354a2.67 2.67 0 012.667-2.666 2.67 2.67 0 012.666 2.666v92.848z"/></svg><svg viewBox="0 0 133 111" id="icon-program-8" xmlns="http://www.w3.org/2000/svg"><path d="M131.19 76.488a6.168 6.168 0 00-8.546-.2 83.138 83.138 0 01-15.084 10.988l-4.47-12.945a14.644 14.644 0 01.433-10.68c2.495-5.41 3.047-11.535 1.554-17.247-.048-.184-.148-.567-1.129-3.108a4.79 4.79 0 012.55-6.12 4.776 4.776 0 016.13 2.074l.809 1.465a6.684 6.684 0 004.119 3.24 6.682 6.682 0 005.194-.692c4.326-2.545 5.957-8.054 3.712-12.543l-6.296-12.591a21.473 21.473 0 00-5.995-7.31l-.018-.014a4.736 4.736 0 01-1.825-3.603l-.135-4.562a2.198 2.198 0 00-3.39-1.782L98.122 7.762c-8.984 5.807-15.302 15.16-17.335 25.662l-.56 2.894a5.57 5.57 0 01-7.268 4.215l-9.153-3.12a24.36 24.36 0 00-12.25-.897l-.148.028a5.009 5.009 0 01-5.312-2.517c-3.406-6.199-9.048-10.605-15.887-12.408-6.84-1.802-13.92-.748-19.94 2.966L7.445 26.33a2.198 2.198 0 00-1.033 2.089l.263 2.63a22.51 22.51 0 0013.673 18.519 2.198 2.198 0 002.868-1.15l3.144-7.228a4.644 4.644 0 016.09-2.408 4.592 4.592 0 012.517 2.668 4.593 4.593 0 01-.209 3.662 25.345 25.345 0 00-1.942 17.362 5.748 5.748 0 01-.802 4.6 5.748 5.748 0 01-3.927 2.523l-4.3.685a2.198 2.198 0 00-1.755 1.52L18.59 82.92a83.322 83.322 0 01-8.232-6.632 6.168 6.168 0 00-8.546.2 6.128 6.128 0 00-1.81 4.505 6.253 6.253 0 002.02 4.453 94.97 94.97 0 0028.527 18.043c11.45 4.647 23.547 7.004 35.952 7.004 12.406 0 24.501-2.357 35.952-7.004a94.967 94.967 0 0028.526-18.043 6.25 6.25 0 002.02-4.453 6.128 6.128 0 00-1.809-4.505zM22.42 85.41l3.406-11.002 2.95-.47a10.232 10.232 0 006.9-4.434 10.233 10.233 0 001.408-8.079 20.943 20.943 0 011.605-14.348 8.947 8.947 0 00.407-7.134 8.947 8.947 0 00-4.905-5.197c-4.561-1.97-9.883.134-11.864 4.69l-2.225 5.118a18.117 18.117 0 01-9.053-13.943l-.127-1.263 1.657-1.023c4.983-3.076 10.846-3.948 16.51-2.455 5.663 1.492 10.335 5.14 13.155 10.274a9.397 9.397 0 009.968 4.721l.145-.027a19.948 19.948 0 0110.032.735l9.152 3.12a9.966 9.966 0 0013.002-7.54l.561-2.894c1.807-9.333 7.421-17.645 15.405-22.805l7.406-4.787.02.664a9.122 9.122 0 003.519 6.943l.022.017a17.053 17.053 0 014.759 5.803l6.296 12.59a5.201 5.201 0 01-2.009 6.79c-.55.322-1.19.408-1.805.24a2.323 2.323 0 01-1.432-1.126l-.809-1.465a9.151 9.151 0 00-11.745-3.972 9.178 9.178 0 00-4.884 11.727c.826 2.14.961 2.578.977 2.637 1.237 4.73.777 9.806-1.294 14.295l-.041.092a19.02 19.02 0 00-.554 13.863l4.699 13.61a82.422 82.422 0 01-6.025 2.71l-9.664-20.678a7.05 7.05 0 00-7.086-4.005 69.103 69.103 0 01-25.38-2.053 2.198 2.198 0 00-2.416.914l-3.205 4.881a14.631 14.631 0 01-3.676 3.842 14.667 14.667 0 01-4.8 2.285 19.133 19.133 0 00-10.536 7.263l-2.95 4.085a82.67 82.67 0 01-5.668-3.269l.192.06zm71.057 8.216A83.178 83.178 0 0166.5 98.111a83.02 83.02 0 01-34.6-7.528l2.51-3.474a14.726 14.726 0 018.11-5.59c2.242-.601 4.34-1.6 6.235-2.967a19.015 19.015 0 004.777-4.993l2.34-3.564a73.494 73.494 0 0025.443 1.78 2.62 2.62 0 012.647 1.493l9.515 20.359zm34.532-11.422a90.58 90.58 0 01-27.21 17.211c-10.923 4.434-22.463 6.682-34.299 6.682-11.836 0-23.376-2.248-34.299-6.682a90.578 90.578 0 01-27.21-17.21 1.812 1.812 0 01-.595-1.308 1.77 1.77 0 01.523-1.302 1.798 1.798 0 011.275-.531c.427 0 .854.154 1.192.464 16.162 14.818 37.156 22.978 59.114 22.978s42.952-8.16 59.114-22.978a1.78 1.78 0 012.467.067c.348.348.534.81.523 1.302a1.812 1.812 0 01-.595 1.307z"/></svg><svg viewBox="0 0 32 45" id="icon-question" xmlns="http://www.w3.org/2000/svg"><path d="M3.8 10.08c-.8.2-1.54.06-2.22-.42C.9 9.14.56 8.46.56 7.62v-1.8c0-1 .3-1.88.9-2.64.64-.8 1.44-1.28 2.4-1.44C7.98.98 11.92.6 15.68.6c4.92 0 8.76.98 11.52 2.94s4.14 4.52 4.14 7.68c0 1.48-.2 2.8-.6 3.96-.36 1.16-.98 2.22-1.86 3.18-.84.96-1.58 1.7-2.22 2.22-.6.48-1.52 1.14-2.76 1.98-1.04.76-1.8 1.32-2.28 1.68-.48.32-1.06.84-1.74 1.56-.68.68-1.2 1.36-1.56 2.04-1.12 2.16-2.54 3.24-4.26 3.24h-2.58c-.96 0-1.76-.34-2.4-1.02-.64-.68-.84-1.46-.6-2.34.36-1.36 1-2.66 1.92-3.9.92-1.28 1.74-2.22 2.46-2.82.72-.64 1.76-1.46 3.12-2.46 1.08-.8 1.88-1.44 2.4-1.92.56-.48 1.08-1.08 1.56-1.8s.72-1.46.72-2.22c0-2.64-2.16-3.96-6.48-3.96-3.16 0-6.62.48-10.38 1.44zM10.94 36h3.6c.92 0 1.72.34 2.4 1.02.68.68 1.02 1.48 1.02 2.4v2.16c0 .92-.34 1.72-1.02 2.4-.68.68-1.48 1.02-2.4 1.02h-3.6c-.92 0-1.72-.34-2.4-1.02-.64-.68-.96-1.48-.96-2.4v-2.16c0-.92.32-1.72.96-2.4.68-.68 1.48-1.02 2.4-1.02z"/></svg><svg viewBox="0 0 44 32" id="icon-tab-1" xmlns="http://www.w3.org/2000/svg"><g clip-path="url(#asclip0)" fill-rule="evenodd" clip-rule="evenodd"><path d="M29.56 4.103c-.625 0-1.136.504-1.136 1.121v5.405l-.45-.196-.183-.067-.214-.083V2.808c0-.843-.58-1.528-1.288-1.528-.717 0-1.297.685-1.297 1.528v7.287h-.838V1.528c0-.843-.58-1.528-1.296-1.528-.71 0-1.289.685-1.289 1.528v8.612l-.252.052-.183.046-.404.105V3.214c0-.843-.58-1.528-1.296-1.528-.71 0-1.289.685-1.289 1.528v8.582c0 .354.03 1.302.069 2.108l-.572.564-2.104-2.439a1.544 1.544 0 00-1.274-.655c-.312 0-.617.098-.884.279-.336.233-.564.58-.633.986-.076.399.015.805.252 1.137l6.039 7.234c.122.173.8.752.953.88V32h9.302V21.695c.8-.708 1.304-1.702 1.304-2.77v-.023c0-.015.099-2.371.099-4.795V5.224c0-.617-.51-1.121-1.136-1.121z"/><path d="M29.018 15.394v-.045c0-1.227-1.044-2.228-2.317-2.228-.58 0-1.137.21-1.564.587-.13.113-.244.233-.335.369a2.25 2.25 0 00-.343-.37 2.365 2.365 0 00-1.563-.586c-1.274 0-2.318 1-2.318 2.228v.045c-.016.73.297 1.513.907 2.25.694.844 1.746 1.62 3.126 2.304l.19.098.184-.098c1.388-.685 2.44-1.46 3.126-2.303.61-.745.923-1.52.907-2.251z" fill="#FEFEFE"/><path d="M43.132 3.132a.846.846 0 00-.854.835v4.05l-.335-.143c-.046-.023-.092-.038-.138-.053l-.16-.06v-5.6c0-.633-.434-1.145-.968-1.145-.534-.007-.968.512-.968 1.144v5.458h-.626V1.197c0-.632-.434-1.144-.968-1.144s-.968.512-.968 1.144v6.451l-.191.038c-.046.015-.092.022-.137.037l-.305.076V2.462c0-.633-.435-1.145-.969-1.145s-.968.512-.968 1.145V8.89c0 .264.03.979.053 1.581l-.427.421-1.578-1.829a1.155 1.155 0 00-.953-.489c-.236 0-.465.075-.663.21-.252.174-.42.437-.473.738-.054.302.015.603.19.851l4.522 5.42c.091.128.602.565.717.662v7.942h6.969v-8.092c.595-.527.976-1.272.976-2.078v-.015c0-.007.068-1.776.068-3.59V3.966a.844.844 0 00-.846-.835z"/><path d="M42.347 11.585v-.03c0-.926-.778-1.671-1.731-1.671-.435 0-.854.158-1.175.444-.099.083-.183.173-.251.27a2.14 2.14 0 00-.252-.27 1.764 1.764 0 00-1.174-.444c-.953 0-1.738.745-1.738 1.67v.031c-.008.55.22 1.137.678 1.686.519.632 1.312 1.212 2.349 1.732l.137.067.137-.067c1.037-.52 1.83-1.1 2.349-1.732.457-.557.686-1.136.67-1.686z" fill="#FEFEFE"/><path d="M12.633 3.132a.844.844 0 00-.846.835v4.05l-.344-.143a.662.662 0 00-.13-.053l-.16-.06v-5.6c0-.633-.434-1.145-.968-1.145-.533-.007-.968.512-.968 1.144v5.458h-.633V1.197c0-.632-.434-1.144-.968-1.144s-.969.512-.969 1.144v6.451l-.19.038c-.038.015-.084.022-.13.037l-.305.076V2.462c0-.633-.434-1.145-.968-1.145s-.968.512-.968 1.145V8.89c0 .264.022.979.053 1.581l-.435.421-1.57-1.829a1.166 1.166 0 00-1.617-.278 1.139 1.139 0 00-.48.737c-.054.302.015.603.19.851l4.53 5.42c.091.128.594.565.716.662v7.942h6.962v-8.092c.602-.527.976-1.272.976-2.078v-.015c.007-.007.076-1.776.076-3.59V3.966a.846.846 0 00-.854-.835z"/><path d="M11.855 11.585v-.03c0-.926-.778-1.671-1.739-1.671-.427 0-.846.158-1.174.444a1.644 1.644 0 00-.244.27 1.778 1.778 0 00-1.426-.715c-.96 0-1.738.746-1.738 1.672v.03c-.015.55.221 1.137.679 1.686.518.632 1.303 1.212 2.34 1.732l.145.067.137-.067c1.037-.52 1.823-1.1 2.349-1.732.45-.557.686-1.136.67-1.686z" fill="#FEFEFE"/></g><defs><clipPath id="asclip0"><path fill="#fff" d="M0 0h44v32H0z"/></clipPath></defs></svg><svg viewBox="0 0 46 32" id="icon-tab-2" xmlns="http://www.w3.org/2000/svg"><path fill-rule="evenodd" clip-rule="evenodd" d="M35.11 30.823a1.874 1.874 0 00-1.016-2.46l-8.44-3.507.593-.564a7.47 7.47 0 00.23-.229l.257-.269 11.68 4.854c1.317.547 2.763.108 3.225-.98.461-1.086-.234-2.415-1.55-2.962L28.71 19.977l.545-1.283 13.376 5.558c1.317.547 2.764.108 3.225-.98.462-1.086-.234-2.415-1.55-2.962L30.86 14.724l.08-.424c.018-.102.034-.202.049-.304l.098-.689 11.133 4.626c1.316.547 2.763.108 3.225-.978.461-1.087-.235-2.416-1.551-2.963L35.8 10.63 29.6 12.76c-.048.133-.29.715-.377.834l-2.908 4.673a1.093 1.093 0 01-.717.433 1.099 1.099 0 01-1.207-.72 1.078 1.078 0 01.152-.993l.905-1.542s-1.827.71-2.28.863l-5.826 1.972c-.572.194-1.171-.032-1.335-.505-.163-.472.17-1.014.742-1.208l4.84-1.639-.165-.245a3.019 3.019 0 01-.07-.11l-.097-.156-5.845 1.979c-.573.193-1.171-.033-1.335-.506-.163-.472.17-1.014.742-1.208l5.815-1.97-.193-.557-4.946 1.675c-.573.193-1.171-.033-1.335-.506-.164-.472.17-1.014.742-1.208l5.078-1.72.005-.156c.001-.046.004-.09.007-.136l.027-.344-3.67 1.242a.808.808 0 01-1.021-.495.795.795 0 01.5-1.011l6.03-2.042a97.986 97.986 0 013.279-1.038l.002-.001a2.16 2.16 0 01-.032-.012l4.042-1.313a2.587 2.587 0 001.843-1.513 2.545 2.545 0 00-.985-3.142 2.592 2.592 0 00-1.95-.352L15.514 3.808c-.342.073-1.693.726-1.987.884L6.025 1.575 0 15.76l7.804 3.244c.592 1.677 1.809 3.09 3.488 3.787l.033.016c.022.01 3.64 1.685 7.429 3.26l13.868 5.762a1.91 1.91 0 002.487-1.005z"/><path fill-rule="evenodd" clip-rule="evenodd" d="M21.858 7.455l-6.03 2.041a.795.795 0 00-.5 1.012.808.808 0 001.022.495l3.669-1.242-.027.344a2.92 2.92 0 00-.007.136l-.005.156-5.078 1.72c-.573.194-.905.736-.742 1.208.164.473.762.7 1.335.506l4.946-1.675.194.558-5.816 1.969c-.573.194-.905.736-.742 1.208.164.473.762.7 1.335.506l5.845-1.98.096.157.071.11.165.245-4.84 1.639c-.572.193-.905.736-.742 1.208.164.472.763.7 1.335.505l5.826-1.972c.453-.153 2.28-.862 2.28-.862l-.905 1.541a1.078 1.078 0 00.24 1.517c.236.17.526.24.815.196.29-.045.544-.198.717-.433l2.908-4.673c.088-.119.329-.702.377-.834l6.201-2.132-5.306-2.205c-.991-.412-4.976-1.87-5.356-2.008h-.002c-.01.003-1.632.482-3.28 1.04z" fill="#FEFEFE"/></svg><svg viewBox="0 0 34 34" id="icon-tab-3" xmlns="http://www.w3.org/2000/svg"><path d="M20.972 7.708c.272.592.499 1.232.64 1.91 4.634.76 7.91 2.63 7.91 4.816 0 2.86-5.606 5.178-12.522 5.178S4.477 17.294 4.477 14.434c0-2.186 3.277-4.056 7.911-4.816a8.958 8.958 0 01.64-1.91C5.555 8.85 0 13.138 0 18.255 0 24.245 7.611 29.1 17 29.1s17-4.856 17-10.845c0-5.117-5.555-9.405-13.028-10.547z"/><path d="M17 17.357s3.214-2.788 3.214-6.228S17 4.9 17 4.9s-3.214 2.788-3.214 6.229c0 3.44 3.214 6.228 3.214 6.228z"/></svg><svg viewBox="0 0 46 43" id="icon-tab-4" xmlns="http://www.w3.org/2000/svg"><path fill-rule="evenodd" clip-rule="evenodd" d="M28.874 27.518l-4.218-2.108 14.714-6.558 4.218 2.106-14.714 6.56zm9.82 6.315l-14.977 6.676V26.54l4.82 2.407a.722.722 0 00.61.014l9.546-4.256v9.127zm-15.702-9.247l-14.64-6.525 5.482-2.444c3.536 3.54 8.087 5.698 8.328 5.81a.706.706 0 00.605 0c.247-.115 5.08-2.402 8.656-6.143l6.22 2.772-14.65 6.53zm-.704 15.923L7.313 33.833v-9.114l9.517 4.243a.73.73 0 00.61-.014l4.848-2.421v13.982zM2.389 20.959l4.218-2.107 14.714 6.558-4.217 2.108-14.715-6.56zm0-5.795l8.37-3.731c.176.387.372.77.607 1.144.423.678.908 1.321 1.433 1.933l-6.192 2.76-4.218-2.106zm9.629-10.247c.866-1.855 2.474-3.158 4.2-3.4.424-.06.824-.086 1.203-.086 2.878 0 4.467 1.52 4.54 1.591a.718.718 0 001.008 0c.085-.081 2.112-2.017 5.742-1.506 1.727.241 3.335 1.544 4.201 3.398 1.019 2.183.815 4.699-.56 6.9-2.733 4.372-8.504 7.47-9.888 8.169-1.384-.698-7.153-3.788-9.886-8.163-1.376-2.203-1.58-4.718-.56-6.903zm22.315 6.11l9.277 4.136-4.219 2.108-6.981-3.113c.416-.509.808-1.034 1.154-1.586.313-.501.558-1.02.769-1.544zm11.249 9.328l-4.584-2.29 4.606-2.298a.714.714 0 00-.03-1.292L34.768 9.655c.407-1.803.231-3.653-.56-5.347C33.14 2.02 31.111.407 28.91.1c-3.293-.461-5.505.796-6.444 1.49C21.526.895 19.302-.36 16.02.101c-2.2.309-4.23 1.922-5.298 4.212-.853 1.826-.984 3.834-.447 5.77l-9.85 4.391a.713.713 0 00-.03 1.293L4.99 18.06.396 20.355a.715.715 0 00.029 1.293l5.458 2.433v10.216c0 .281.166.537.424.653l16.405 7.313a.712.712 0 00.582 0l16.404-7.313a.718.718 0 00.425-.654V24.07l5.43-2.421a.715.715 0 00.03-1.293z"/><path fill-rule="evenodd" clip-rule="evenodd" d="M18.381 14.68a.714.714 0 10.595-1.3c-.207-.095-5.049-2.384-4.002-7.008a.713.713 0 00-.54-.855.712.712 0 00-.854.54c-1.306 5.765 4.74 8.596 4.801 8.624z"/></svg><svg viewBox="0 0 46 42" id="icon-tab-5" xmlns="http://www.w3.org/2000/svg"><path fill-rule="evenodd" clip-rule="evenodd" d="M43.728 33.88H36.663a.715.715 0 000 1.43h6.335c.459 0 .837.378.837.837a.839.839 0 01-.837.837h-6.335a.715.715 0 00-.714.715c0 .4.32.72.714.72h4.874a.834.834 0 010 1.669H28.094c-1.125 0-2.127-.624-2.58-1.643a.713.713 0 00-.651-.426H12.407l3.722-6.442c.229.576.554 1.36 1.018 2.405.592 1.344 1.376 2.144 2.336 2.384 1.173.293 2.08-.374 2.18-.454a.702.702 0 00.256-.73c-.005-.038-.634-2.704-.714-5.114h2.815a.72.72 0 00.65-.426c.017-.027 1.185-2.57 3.52-3.19.581-.154 1.2-.426 1.824-.762 0-.005.005-.005.01-.005 0 0 0-.005.006-.005 1.893-1.03 3.807-2.661 4.634-3.402a1.1 1.1 0 01.309.496c.128.495-.107 1.173-.683 1.962-1.802 2.458-2.362 3.034-2.426 3.098a.715.715 0 00.539 1.27h9.864a.837.837 0 010 1.674l-5.604-.006a.72.72 0 00-.714.72c0 .394.32.714.714.714h7.065c.464 0 .838.379.838.837a.839.839 0 01-.838.838zM9.16 37.929a.852.852 0 01.08-.635h.006v-.005l2.8-4.847a.716.716 0 00-1.242-.715l-2.8 4.848c0 .005-.006.005-.006.005l-.725 1.264a.83.83 0 01-1.141.303.815.815 0 01-.39-.506.828.828 0 01.08-.635l.326-.56L9.35 30.89a.704.704 0 00-.261-.976.706.706 0 00-.976.262l-3.167 5.481a.806.806 0 01-.507.39.825.825 0 01-1.024-.592.814.814 0 01.086-.63l.73-1.269v-.005l2.437-4.212a.718.718 0 00-.266-.982.712.712 0 00-.976.267L2.99 32.836a.833.833 0 01-.507.394.848.848 0 01-.634-.085.83.83 0 01-.304-1.141l6.719-11.64c.565-.976 1.62-1.531 2.703-1.414a.701.701 0 00.704-.352l6.164-10.68 3.914 6.777a68.646 68.646 0 00-2.592-.32c-1.46-.16-2.543.118-3.231.827-.842.869-.715 1.994-.699 2.117.038.282.24.512.507.592.032.01 2.42.725 4.49 1.78l-1.243 2.15a.72.72 0 00.038.783c.021.022 1.642 2.288 1.002 4.64-.634 2.34.08 6.249.384 7.694a1.09 1.09 0 01-.576.021c-.496-.128-.97-.672-1.37-1.573-1.216-2.757-1.44-3.546-1.467-3.652a.698.698 0 00-.138-.315.712.712 0 00-.859-.23.703.703 0 00-.378.385L10.69 38.13a.835.835 0 01-1.53-.202zm11.283-15.746l1.024-1.776c.405.267.768.544 1.056.827 1.664 1.68 4 1.892 5.087 1.892h.117l.939 1.632c-.288.128-.576.24-.843.31-2.373.629-3.743 2.67-4.239 3.567h-2.346c.037-.358.09-.693.17-.992.646-2.373-.442-4.58-.965-5.46zM20.24 5.876h.005l2.8 4.847a.714.714 0 00.975.266.722.722 0 00.262-.98L21.488 5.16c-.006 0-.006-.005-.006-.005l-.73-1.27a.814.814 0 01-.086-.629.855.855 0 01.39-.511c.4-.23.911-.091 1.14.309l.326.554v.006l.043.069v.005l3.167 5.482a.716.716 0 00.976.261.706.706 0 00.261-.976L23.807 2.98v-.01a.835.835 0 01.304-1.142c.4-.229.912-.09 1.141.31l.73 1.263L28.42 7.62a.716.716 0 00.98.262.715.715 0 00.262-.976L27.23 2.692l-.005-.005v-.005a.837.837 0 011.45-.832l6.72 11.64c.559.976.522 2.154-.102 3.013l-.032.043c-.022.026-.027.058-.043.085-.027.053-.059.107-.07.165-.005.016 0 .032-.005.043a.708.708 0 00.08.485l5.973 10.345h-7.322a85.53 85.53 0 001.573-2.085c.864-1.179 1.168-2.261.896-3.216-.325-1.162-1.365-1.61-1.482-1.658a.697.697 0 00-.763.144c-.032.027-2.085 1.962-4.17 3.231l-1.173-2.053c-.026-.042-.064-.069-.096-.106-.026-.032-.047-.07-.085-.096-.037-.032-.09-.053-.139-.075-.037-.016-.069-.043-.106-.053-.053-.016-.112-.01-.166-.016-.037 0-.069-.01-.106-.01-.027 0-2.805.271-4.522-1.451-1.706-1.723-5.444-3.061-6.852-3.52a1.08 1.08 0 01.272-.506c.357-.368 1.067-.507 2.048-.4 2.954.32 3.77.517 3.887.55a.752.752 0 00.405.037.725.725 0 00.576-.651.741.741 0 00-.15-.496l-4.926-8.532a.835.835 0 01.304-1.14.832.832 0 011.14.309zM46 33.044c0-1.04-.704-1.92-1.658-2.187a2.258 2.258 0 00-1.434-3.082l-6.229-10.798c.725-1.263.725-2.868-.048-4.207L29.913 1.135a2.267 2.267 0 00-3.797-.202 2.268 2.268 0 00-3.578.533 2.283 2.283 0 00-2.197.042c-.523.304-.901.79-1.056 1.376a2.223 2.223 0 00-.01 1.152 2.222 2.222 0 00-.89.293 2.232 2.232 0 00-1.11 1.696l-6.623 11.47c-1.466 0-2.858.816-3.63 2.154L.301 31.284a2.274 2.274 0 00.827 3.098c.283.165.586.261.896.299a2.258 2.258 0 001.066 2.522c.363.213.741.336 1.19.304a2.267 2.267 0 003.85 1.541 2.284 2.284 0 001.833.933c.518 0 1.019-.198 1.424-.528H24.42c.73 1.269 2.133 2.069 3.674 2.069h13.443a2.272 2.272 0 002.074-3.189 2.27 2.27 0 001.653-2.186c0-.432-.117-.837-.33-1.184A2.26 2.26 0 0046 33.043z"/></svg><svg viewBox="0 0 16578 16116" shape-rendering="geometricPrecision" text-rendering="geometricPrecision" image-rendering="optimizeQuality" fill-rule="evenodd" clip-rule="evenodd" id="icon-tab-6" xmlns="http://www.w3.org/2000/svg"><defs><style>.axfil0{fill:#8eaab6;fill-rule:nonzero}</style></defs><path class="axfil0" d="M2583 4839c8-216 37-399 82-557 45-160 108-294 185-413 77-118 167-218 266-309 98-89 206-169 323-250 116-81 229-150 336-212 106-61 212-117 311-169 91-48 177-94 253-138 76-45 145-89 202-133 69-54 152-119 240-181 90-65 190-130 293-188 112-63 229-117 344-150 119-34 238-47 350-28 96 16 184 30 269 56 87 27 167 65 242 127s138 142 187 252c48 106 83 240 105 412 18 140 39 283 64 427 24 143 52 282 85 414 32 130 69 254 112 369 42 114 91 220 147 315 69 117 167 299 272 505 102 200 211 420 304 622 83 179 156 348 206 483 46 124 74 223 74 279 0 28 7 70 14 116l2 14c22 131 46 283 18 421-31 148-120 274-327 335-179 52-320 48-453 8-129-39-248-111-389-197l-123-75c-177-105-593-233-980-353l-30-9c-246-75-479-147-636-207l-303-112c-206-75-463-169-715-266-251-98-496-199-675-289-106-53-196-111-272-172-85-68-152-139-205-210-65-87-109-176-137-260-34-102-45-198-41-277zm556-3131c297-200 582-377 853-532 300-172 584-318 848-442 307-144 584-256 824-339 291-102 528-163 700-193C7171 64 7726 10 8170 1c446-8 778 27 1142 67l9 1c314 34 653 70 1106 82 1429 34 2170 671 3051 1428 105 93 213 183 320 274 301 253 640 569 973 913 300 310 596 644 855 976 232 297 435 593 586 871 138 255 235 495 271 709 45 263 76 633 89 1063 12 415 7 885-17 1365-21 430-58 869-113 1287-51 381-116 745-198 1065-135 532-523 1458-1207 2424-484 685-1118 1392-1917 1995-646 487-1400 908-2269 1194-765 252-1620 401-2569 401-1754 0-3175-550-4290-1283-2222-1462-3229-3654-3233-3664l-1-3c-200-461-357-960-475-1471C156 9143 73 8574 32 8022c-44-600-42-1183 3-1708 45-539 135-1019 261-1397 117-354 262-669 436-959 175-290 379-555 616-808 234-251 499-487 796-723 297-235 628-471 995-719zm1867-617c-250 118-523 259-816 427-263 151-541 323-830 518-360 243-682 472-967 697-285 226-537 451-757 686-217 232-405 475-565 742-160 266-293 556-401 880-117 351-200 803-243 1315-41 501-44 1060-1 1636 40 532 119 1080 241 1611 112 489 261 965 451 1403 5 9 964 2098 3083 3492 1060 698 2412 1222 4081 1222 904 0 1718-142 2446-381 826-272 1541-671 2155-1134 763-575 1368-1249 1831-1902 651-920 1020-1797 1148-2299 78-307 141-656 189-1022 53-405 90-832 111-1250 23-469 27-927 16-1329-12-410-41-764-85-1014-30-177-114-384-238-608-138-251-325-522-539-796-251-321-538-645-831-947-323-334-651-640-940-883l-322-275c-414-355-795-683-1233-924-435-240-929-396-1572-412-152-4-291-10-419-18 102 9 201 20 292 34 213 31 394 76 516 138l221 109c315 153 798 389 1308 704 511 317 1048 715 1468 1191 231 262 463 527 688 798 222 266 431 531 613 787 188 264 348 521 468 767 121 248 201 486 225 707 21 195 26 451 20 742-7 314-28 666-59 1022-33 372-77 755-128 1108-49 342-105 656-163 909-30 126-55 254-79 381l-12 61c-160 833-317 1656-1563 3011-362 394-684 738-1009 1035-326 298-653 547-1024 749-372 203-785 356-1279 462-492 106-1066 164-1763 177-1211 23-2010-76-2699-289-688-213-1262-539-2024-973l-430-243c-53-30-104-60-153-92-50-31-99-64-149-100-49-36-97-74-143-113-47-39-92-81-136-125-465-467-834-958-1127-1443-292-485-510-964-670-1405-161-440-265-844-334-1179-68-335-101-602-117-768-23-244-18-565 8-925 29-394 84-839 154-1287 76-481 169-966 268-1393 97-417 200-782 297-1039 35-94 90-200 167-317 70-105 157-218 265-338 96-106 208-218 337-333 121-107 256-218 408-332 145-108 327-222 533-338 227-129 482-259 744-384 302-144 618-283 918-408 337-140 656-263 914-354 129-45 254-92 373-139l358-143c558-224 1056-425 1536-444 160-6 379-14 627-19 247-4 520-5 788 2 109 3 217 7 323 13-181-15-344-32-499-49h-6c-350-38-670-73-1094-64-426 8-961 60-1746 195-157 27-375 84-644 178-227 80-489 185-780 321zM2209 3654c-92 102-166 197-224 283-62 93-106 175-132 245-92 245-190 597-284 1003-96 416-187 886-260 1352-68 432-121 863-150 1244-26 343-31 645-10 870 16 157 47 409 112 728 65 317 165 701 317 1121 153 419 360 874 638 1335s628 927 1068 1370c35 34 72 68 110 100 39 33 80 65 122 96 42 30 85 59 129 87s89 55 134 81l432 244c734 418 1287 732 1942 935 656 203 1420 297 2580 276 664-12 1208-67 1673-165 462-98 845-240 1186-426 343-187 649-421 957-704 310-284 622-618 974-1001 586-638 915-1148 1117-1595 201-446 275-834 349-1223l44-224 49-232c57-244 111-549 159-882 49-342 92-715 124-1080 31-352 52-693 58-991 7-276 1-518-18-698s-89-380-195-595c-108-218-255-451-427-693-176-248-380-505-596-764-213-256-446-523-680-788-392-446-902-822-1390-1123-488-302-957-530-1262-678l-227-113c-98-50-266-86-472-111-212-26-460-40-712-47-263-7-531-6-773-2-241 5-458 13-618 19-411 16-879 205-1401 416l-17 6c-233 94-477 193-733 282-250 89-561 209-892 346-295 123-605 260-902 401-255 121-499 246-715 368-193 108-363 215-496 314-140 105-266 208-377 308-121 107-224 210-311 305zm8364 5765c100 61 218 111 345 156 129 45 271 85 413 126l4 1c259 74 524 150 763 267 219 106 479 292 731 473l6 4c164 118 325 234 455 316 125 79 223 130 270 129 76-3 186-30 311-103 96-56 200-139 301-259 90-107 179-242 258-411 71-152 136-333 189-546 232-928-151-1012-253-1034-7-3-28-7-36-9-17-5-481 1-960 7h-61c-499 6-997 12-1088-2-48-7-233-16-470-23-222-7-490-12-736-13-183-1-354 1-483 5-107 4-183 10-208 17-70 22-129 45-177 69-49 25-87 50-115 76-21 20-36 40-45 61-8 20-11 41-9 62 3 29 14 60 29 92 18 38 44 77 74 117 58 76 132 150 210 216 96 83 198 155 282 206zm650 662c-149-42-297-85-438-135 176 102 319 190 386 233 46 30 159 96 308 179l565 315c438 243 883 491 973 559 57 42 134 113 208 199 62 70 123 151 171 233 45 78 82 161 102 243 19 76 24 153 10 226-13 66-31 144-56 229-26 86-60 180-105 280-46 101-103 205-175 311-72 105-159 213-264 318-108 108-219 212-330 306-104 89-207 170-306 237-100 68-198 124-291 165-90 40-176 65-257 73-76 8-154-4-230-30-82-29-163-74-239-129-82-59-160-129-228-198-97-97-176-193-217-249-36-51-138-230-267-473-106-201-231-446-354-700-95-198-188-399-268-584-72-167-135-325-183-461-52-150-112-309-172-466l-22-58c-158-411-307-799-300-1016 3-93 26-168 73-221 50-55 122-84 218-81 68 2 158 26 261 63 104 38 223 91 346 151-38-29-76-60-114-93-95-82-186-174-261-271-50-65-93-134-124-204-30-66-50-134-57-202-9-84 0-167 31-246 29-74 77-144 148-209 51-47 114-91 191-131 32-16 66-32 103-47-33-4-58-8-77-12-118-29-213-66-288-112-79-48-136-107-171-175-39-78-50-159-35-245 14-81 53-167 111-258 44-67 143-153 279-249l119-80-89 39c-183 79-358 127-491 100-107-21-188-72-236-162-28-53-42-119-42-198l-31 26c-26 19-53 36-80 51-26 14-53 27-81 37-67 27-135 41-202 44-68 3-136-6-200-26-65-21-126-52-182-94-54-41-104-92-147-153-20-29-39-60-57-93-16-30-32-64-45-99l-303-768c-62-162-118-307-152-405l-56-143-87-209c-83-200-185-445-276-688-92-242-172-480-210-661-40-192-76-392-104-591-27-186-47-371-58-548-9-167-11-327-2-474 8-138 25-266 53-377 20-80 66-158 135-230 67-70 155-136 261-194 90-50 197-96 315-136 113-38 236-70 367-95 158-29 359-48 577-51 197-3 408 6 615 33 184 23 366 60 533 113 152 48 293 110 414 188 135 88 245 162 331 228 90 69 158 132 208 196 64 80 100 159 114 244 13 84 3 171-24 272-40 154-189 607-337 1060l-206 628c-50 156-92 287-117 371l-162 541c75-171 140-324 183-440 53-142 103-272 156-408l4-9c213-554 465-1209 507-1500 6-44 16-86 29-125 13-43 30-82 49-117 37-68 82-125 134-173 56-51 118-91 184-121 63-28 129-46 194-56 67-9 135-9 200 0 38 5 76 14 113 26 35 11 69 26 101 43 78 42 216 138 377 261 152 116 325 257 486 398 135 117 263 237 365 345 93 98 166 187 207 260 41 70 85 141 125 211 188 316 410 686 343 903-34 109-90 219-162 328-80 121-180 241-288 354-128 133-268 259-401 368-171 140-331 254-438 321-96 60-251 154-430 260l-275 161c128-62 246-118 349-165l581-268c565-261 1108-512 1282-559 80-22 163-41 249-48 88-7 179-1 272 29 94 31 185 84 268 169 82 84 157 198 223 352 59 140 117 305 168 482 50 174 95 358 128 540 32 172 54 343 64 502 9 149 8 289-8 410-39 309-159 464-311 542-119 61-252 72-380 72 262 95 682 393 411 1477-60 242-135 450-218 626-95 201-201 362-310 492-139 163-284 277-421 353-184 104-355 142-477 147-121 5-274-59-444-160-163-96-344-226-527-357l-14-10c-239-171-481-344-665-434-211-102-459-173-701-242l-2-1zm-1222-110c-92-46-179-87-255-119l-93-37c40 176 148 460 262 756l13 36c62 161 125 326 183 493 44 126 104 275 172 434 80 185 171 380 262 568 119 246 240 485 342 679 120 227 211 390 242 432 33 45 97 123 175 203 55 55 117 110 180 156 41 29 81 53 118 69 31 14 60 21 82 19 43-4 95-21 152-48 64-29 136-72 212-124 88-59 181-132 276-213 100-86 203-182 304-283 87-88 159-176 218-263 60-86 106-171 142-251 37-79 64-156 86-227 20-71 35-136 46-192 4-20 0-46-8-74-12-38-32-79-56-121-36-61-81-121-126-173-54-62-109-114-149-144-66-49-484-282-902-514l-598-334c-154-86-272-155-325-188-76-51-258-162-474-283-151-86-320-178-481-257zm-1788 413c29-83 58-162 85-231 28-71 56-136 85-189 45-85 97-152 155-193 66-47 140-63 222-41l18 5c158 40 575 147 684 863 18 126 53 275 99 437 52 183 117 381 188 580 82 228 173 459 262 671 95 225 189 430 269 586 96 190 180 334 250 455l2 4c153 265 248 430 259 650 3 83 6 150-1 213-8 68-27 128-66 191-36 57-86 105-156 152-66 44-152 87-263 133-119 49-338 99-596 140-248 38-533 69-801 80-232 10-456 5-639-21-169-24-307-67-391-132-90-71-166-140-226-213-62-74-109-154-141-245-50 85-108 170-189 241-114 101-268 169-498 164-151-4-452-63-781-168-255-82-529-192-765-325-201-112-377-245-500-395-111-137-178-289-181-455-1-116 10-249 41-390 26-126 68-260 126-397 52-121 118-246 200-371 75-114 164-229 269-343l1299-1414 425-467 190-211c32-39 101-99 184-159 66-46 143-94 219-129 44-20 87-37 130-50 45-13 89-21 133-24 62-2 121 7 174 30 51 23 96 59 132 109 19 27 34 56 47 88 11 31 20 66 25 105 37 298-134 954-241 1360-21 90-47 181-70 271 0 28-5 66-14 114l16-54c47-160 100-326 149-481 76-232 142-428 182-544zm518-235c-23 43-46 97-70 158s-49 131-75 206c-39 112-103 303-175 525-49 151-101 317-151 483-37 125-72 248-102 361-29 112-53 215-69 300-19 99-33 204-45 313-11 105-21 221-31 337-11 143-24 288-41 432-18 146-40 290-73 432-24 106-38 195-40 269-2 71 5 130 23 181 17 48 45 93 83 137 40 46 92 93 156 142 38 31 127 51 245 63 145 15 330 16 526 8 248-11 512-38 739-72 232-36 425-79 522-119 79-33 136-59 176-83 34-19 53-35 62-48 12-20 10-80 5-174v-3c-3-60-23-122-56-193-35-77-87-167-151-277v-1c-75-129-164-282-262-475-81-162-178-374-277-609-92-218-186-456-272-694-75-210-144-421-199-617-50-175-88-337-108-474-58-380-227-485-333-523l-7 15zm-3604 2561c-47 111-81 219-102 319-25 114-35 218-34 307 1 80 44 161 115 240 88 96 217 189 365 272 211 119 456 218 684 292 290 94 551 147 677 150 221 5 310-157 386-296 11-19 52-97 63-110 49-78 36-370 23-696l-12-293c-3-95-4-191-3-284 4-197 29-401 60-588 32-188 69-357 97-485l39-183c0-30 9-79 24-144l62-243c96-367 247-945 230-1183l-18 5c-21 7-44 16-67 27-54 25-107 58-153 90-55 38-96 73-113 93-19 24-95 108-206 230l-1155 1262-566 615c-88 96-164 194-228 291-69 105-124 210-168 312zm-3317-1829c0-84 8-169 33-256 24-87 65-175 129-262 59-80 137-160 242-237 102-76 230-151 389-224l165-73c-67 5-132 8-195 9-226 2-425-21-588-79-170-59-303-154-394-292-40-62-98-168-150-325-36-109-69-243-91-404-18-128-29-277-30-445 0-148 8-312 28-491 23-222 64-433 117-627 57-211 128-403 207-570 91-191 194-353 300-477 112-131 229-223 342-266 340-131 734 21 1565 344l83 32c179 70 389 156 609 251 244 105 510 223 768 340 301 137 590 272 818 383 232 111 402 197 462 235 13 8 34 19 58 31l89 41c76 34 161 73 239 117 82 47 158 101 216 166 76 87 119 183 110 289-9 104-69 212-198 325-106 93-274 197-483 304-206 105-453 214-721 320 141-28 279-55 409-78 253-46 471-80 604-85 54-2 103 0 144 6 46 7 87 19 122 36 56 26 98 61 127 103 30 42 46 91 51 145 4 38 1 77-8 116-9 40-25 80-44 120-32 65-78 133-130 199-62 81-133 158-199 223-117 117-402 439-701 776l-37 43c-318 359-644 728-804 893-79 81-174 192-275 315-99 121-205 257-307 387-95 120-187 237-264 330-82 100-154 185-210 241l-20 20c-285 285-637 637-1079 196-44-44-97-110-158-189-59-78-126-170-198-269l-22-32c-110-149-230-314-352-468l-198-245c-308-380-570-703-570-942zm480-285c-33 46-55 93-67 139-13 47-18 97-18 146 0 101 219 370 478 689l204 251c129 163 253 334 366 489l19 26c72 100 139 192 186 254 53 70 98 125 130 157 79 79 161 75 242 35 94-48 191-144 277-231l20-20c50-51 116-128 191-219 79-98 164-206 251-318l10-12c205-260 425-540 601-721 153-157 457-501 758-840l47-54c315-356 618-699 740-821 56-56 115-119 164-180 26-33 50-65 69-96-233 10-811 127-1341 235l-14 2c-235 48-460 94-641 127-187 35-336 58-417 60-63 2-163 20-287 50-133 32-296 78-471 133-180 57-369 122-548 189-172 65-335 132-472 195-127 58-228 116-307 173-75 55-131 109-170 162zm1452-4020c-375-146-652-253-861-313-197-57-330-70-426-34-61 24-131 84-204 175-75 94-151 219-221 369-70 148-134 319-185 507-47 175-84 364-105 564-18 164-25 312-25 445 0 149 10 281 26 395 18 132 44 240 72 326 39 121 81 198 109 242 45 68 121 116 225 146 112 34 254 47 421 45 188-2 404-24 642-62 238-37 499-90 777-152 274-60 567-140 860-229 304-94 609-200 889-308 269-105 515-212 716-313 188-95 335-184 422-260 30-26 45-45 49-58-56-62-195-126-312-179l-110-51c-32-15-62-32-91-49-52-33-210-113-430-218-221-106-504-239-803-375-251-114-515-231-768-340-219-94-422-178-589-243l-78-30zm10576-1079c-41-13-88-15-136-10-52 6-107 19-160 33-145 40-672 284-1221 538l-582 267c-212 97-498 237-799 391-265 136-541 284-785 424-197 112-372 218-501 305-109 73-182 131-204 164-24 37-40 67-49 91l-6 19c5 8 20 19 47 32 36 17 87 34 153 50 136 33 850 38 1661 32 814-5 1727-22 2257-32h3c174-3 348-6 505-6 87 2 182 3 254-31 66-31 119-98 136-237 13-99 14-217 5-346-9-140-29-292-58-445-31-169-72-339-118-498-46-162-99-313-153-442-42-97-85-167-129-216-40-44-80-70-120-83zm-4286 110c-114 249-227 498-319 714-89 205-152 368-168 447l-9 49c62-7 155-43 260-92 142-66 304-156 447-235l23-13c90-51 174-97 242-131 81-40 185-96 302-160 130-71 279-155 432-243 176-100 360-208 526-305 188-112 345-207 434-262 97-61 243-164 400-293 120-99 247-213 362-334 90-94 173-192 237-287 56-82 99-162 122-237 15-51-157-337-304-583-45-70-88-149-131-222-28-50-86-119-162-198-90-93-204-199-326-305-151-133-312-264-453-372-147-113-271-200-336-235-11-7-24-12-37-16-14-4-30-8-46-10-29-4-60-4-91 0-30 4-59 12-87 24-27 13-53 30-76 51-21 20-40 43-55 71-9 16-16 33-22 51-5 17-10 37-13 59-47 332-306 1002-526 1573l-162 426c-98 261-269 638-440 1015l-24 53zM7505 1596c-62 34-113 69-149 102-31 27-49 52-54 71-22 90-36 196-43 314-7 128-5 270 4 419 9 165 28 340 53 516 27 189 62 380 101 565 68 323 300 884 461 1273l91 220 61 157c37 101 92 244 153 401l298 760c9 22 18 41 27 58l30 50c19 26 39 47 61 64 20 16 42 27 64 34 21 7 44 10 67 9s48-7 73-17l38-18 38-23c187-134 654-1710 812-2244l35-118c24-82 67-215 119-375l206-631c147-448 294-898 333-1042 11-40 15-73 12-101-3-25-13-48-31-70-31-41-83-86-154-140-75-56-171-120-290-198-92-59-205-108-330-146-139-44-294-75-452-94-187-24-378-33-555-30-195 2-375 19-515 45-112 21-216 48-309 79-96 32-182 70-255 110zM3181 4084c-58 88-105 192-140 316-35 127-57 276-64 455-2 39 4 87 22 141 16 45 42 95 79 145 35 48 81 96 140 141 53 42 118 84 195 123 169 84 404 181 647 275 244 95 499 188 703 263l307 112c148 57 351 119 567 186l48 15c206 64 422 130 615 197 195 68 366 136 477 201l128 77c200 123 334 204 526 149 34-11 48-48 51-95 5-65-9-148-21-220l-3-22c-10-63-19-120-19-171 0-21-22-87-60-180-44-111-108-257-182-417-93-199-198-414-297-607-99-194-193-369-262-484-66-112-123-237-173-371-50-132-92-273-128-419-35-143-65-290-90-437-25-146-47-298-67-449-15-121-37-211-64-279-25-62-54-103-87-130-66-56-183-75-322-99h-3c-57-9-125 1-197 24-76 24-158 63-240 109-88 49-177 108-260 168-82 58-159 118-222 168-142 111-311 201-500 302l-17 9c-187 99-395 210-604 354-101 71-194 140-275 212-80 72-151 149-208 238z" id="ax_x0020_1"/></svg><svg viewBox="0 0 46 43" id="icon-tab-7" xmlns="http://www.w3.org/2000/svg"><path d="M45.999 29.702l.001-.03v-.006a.633.633 0 00-.003-.047l-.002-.023-.006-.041-.006-.03-.009-.03-.011-.038-.01-.024a.622.622 0 00-.017-.042l-.003-.006-7.881-16.209v-2.124h.05c.849 0 1.54-.646 1.54-1.44v-.11c0-.71-.545-1.308-1.295-1.421L25.335 6.118V4.871a2.809 2.809 0 00.795-1.946C26.13 1.312 24.726 0 23 0s-3.13 1.312-3.13 2.925c0 .747.301 1.428.795 1.946v1.18L7.645 8.078c-.745.116-1.286.713-1.286 1.42v.113c0 .794.69 1.44 1.54 1.44h.05v2.124L.066 29.384l-.003.007a.704.704 0 00-.018.042l-.009.024a.577.577 0 00-.011.037l-.009.032-.005.029c-.003.014-.006.027-.007.04l-.002.024a.69.69 0 00-.003.047v.007l.001.029.001.023c.047 2.865 3.846 5.102 8.691 5.102 4.845 0 8.645-2.236 8.691-5.101l.002-.024v-.03-.006a.633.633 0 00-.002-.047l-.002-.023-.007-.041-.005-.03-.01-.03-.01-.038-.01-.024a.678.678 0 00-.017-.042l-.003-.006-7.881-16.209v-2.124h11.226v15.133c-.473.246-.794.718-.794 1.259v10.261l-4.72 1.379c-.98.286-1.639 1.123-1.639 2.083v1.136c0 .385.333.697.745.697h17.486c.412 0 .745-.312.745-.697v-1.136c0-.96-.658-1.797-1.638-2.083l-4.72-1.379V27.444c0-.541-.322-1.013-.795-1.259V11.052h11.227v2.124L28.68 29.385l-.003.006a.74.74 0 00-.017.042l-.01.024a.518.518 0 00-.01.037l-.01.032-.005.029-.007.04-.002.024a.685.685 0 00-.002.047V29.702c0 .008 0 .016.002.023.046 2.865 3.846 5.102 8.69 5.102 4.846 0 8.645-2.236 8.692-5.101v-.024zM8.693 15.01l6.791 13.966H1.902l6.791-13.965zm0 18.424c-3.45 0-6.427-1.345-7.073-3.065h14.147c-.646 1.72-3.623 3.065-7.074 3.065zm15.946-5.99V37.52h-3.278V27.444c0-.026.022-.047.05-.047h3.179c.027 0 .05.021.05.047zm-2.483-1.44V5.742a3.322 3.322 0 001.689 0v20.262h-1.69zM23 1.394c.904 0 1.64.687 1.64 1.531 0 .845-.736 1.533-1.64 1.533-.904 0-1.64-.688-1.64-1.533 0-.844.736-1.532 1.64-1.532zM7.9 9.658c-.028 0-.05-.021-.05-.047V9.5c0-.023.017-.042.041-.046l12.775-1.99v2.196H7.9zm23.099 31.508v.44H15.002v-.44c0-.347.238-.65.593-.754l5.134-1.5h4.542l5.134 1.5c.355.104.593.407.593.754zM25.335 7.529l12.774 1.927a.047.047 0 01.042.046v.11c0 .026-.022.047-.05.047H25.336v-2.13zm11.972 7.482l6.79 13.965H30.517l6.79-13.965zm0 18.423c-3.45 0-6.428-1.345-7.074-3.065H44.38c-.646 1.72-3.623 3.065-7.073 3.065z"/></svg><svg fill="none" viewBox="0 0 24 24" id="inst" xmlns="http://www.w3.org/2000/svg"><rect width="24" height="24" rx="12" fill="#E1306C"/><rect width="24" height="24" rx="12" fill="#E1306C"/><path d="M14.688 6H9.311A3.315 3.315 0 006 9.312v5.376A3.315 3.315 0 009.312 18h5.376A3.315 3.315 0 0018 14.688V9.312A3.315 3.315 0 0014.688 6zm2.247 8.688a2.25 2.25 0 01-2.247 2.247H9.311a2.25 2.25 0 01-2.246-2.247V9.312a2.25 2.25 0 012.247-2.247h5.376a2.25 2.25 0 012.247 2.247v5.376z" fill="#fff"/><path d="M12 9c-1.654 0-3 1.346-3 3s1.346 3 3 3 3-1.346 3-3-1.346-3-3-3zm0 4.967A1.97 1.97 0 0110.033 12 1.97 1.97 0 0112 10.033 1.97 1.97 0 0113.967 12 1.97 1.97 0 0112 13.967z" fill="#fff"/><path d="M15 8a1.004 1.004 0 00-1 1c0 .263.107.52.294.707.185.186.443.293.706.293.264 0 .52-.107.707-.293.187-.186.293-.444.293-.707 0-.264-.106-.522-.293-.707A1.004 1.004 0 0015 8z" fill="#fff"/><defs><linearGradient id="azpaint0_linear" x1="1.5" y1="24" x2="22.5" y2="0" gradientUnits="userSpaceOnUse"><stop offset=".144" stop-color="#FE833E"/><stop offset=".505" stop-color="#E3407D"/><stop offset=".851" stop-color="#6934C4"/></linearGradient></defs></svg><svg fill="none" viewBox="0 0 40 40" id="inst-light" xmlns="http://www.w3.org/2000/svg"><rect width="40" height="40" rx="20" fill="#fff"/><path d="M24.48 10h-8.96A5.526 5.526 0 0010 15.519v8.961A5.525 5.525 0 0015.52 30h8.96A5.526 5.526 0 0030 24.48V15.52a5.526 5.526 0 00-5.52-5.52zm3.746 14.48a3.75 3.75 0 01-3.745 3.745h-8.962a3.749 3.749 0 01-3.745-3.745V15.52a3.749 3.749 0 013.745-3.745h8.962a3.75 3.75 0 013.744 3.745v8.961z" fill="#008AC4"/><path d="M20 15c-2.757 0-5 2.243-5 5s2.243 5 5 5 5-2.243 5-5-2.243-5-5-5zm0 8.278A3.282 3.282 0 0116.722 20 3.282 3.282 0 0120 16.72 3.282 3.282 0 0123.278 20 3.282 3.282 0 0120 23.278z" fill="#008AC4"/><path d="M25 13.333c-.437 0-.867.177-1.177.488-.31.309-.489.74-.489 1.179 0 .438.179.868.49 1.178.308.31.739.488 1.177.488.439 0 .868-.178 1.178-.488.311-.31.488-.74.488-1.178 0-.44-.177-.87-.488-1.18-.309-.31-.739-.487-1.178-.487z" fill="#008AC4"/></svg><svg viewBox="0 0 16636 8669" shape-rendering="geometricPrecision" text-rendering="geometricPrecision" image-rendering="optimizeQuality" fill-rule="evenodd" clip-rule="evenodd" id="logo" xmlns="http://www.w3.org/2000/svg"><defs><style>.bbfil0{fill:#fa873d}.bbfil1,.bbfil2{fill:#008ac4;fill-rule:nonzero}.bbfil1{fill:#fa873d}</style></defs><g id="bb_x0020_1"><g id="bb_377733502288"><path class="bbfil0" d="M4492 1495c-1494-191-2859 864-3051 2358-99 778 140 1522 604 2082 187-183 512-497 574-534 89-52 166-110 166-110s-36-214 21-463c57-248 112-319 123-397 14-107 22-334-21-433-52-119-66-207 15-266s234 41 303 200c68 159 61 216 61 216s71-282 154-440c83-157 185-389 225-488 39-100 82-211 189-205s218 68 127 279c-90 211-104 270-119 345-15 74-67 367-79 392-12 24 17 32 29 20 12-13 165-205 257-314 93-108 267-297 303-343s120-179 227-173 158 100 139 186c-19 87-87 162-131 213-44 50-197 312-225 354-28 41-183 274-183 274l21 37s182-110 256-157c73-46 383-303 456-330 126-48 266 107 181 218-76 101-176 178-212 212-37 33-220 214-297 269-77 54-174 192-158 219 13 22 148 33 230 5 115-40 416-119 475-104 83 22 134 158 53 225-81 68-244 125-289 146-44 22-341 131-341 131s-226 135-340 243c-38 67-204 312-321 386-65 42-123 72-123 72s-111 254-163 314c-92 174-257 412-417 626 187 68 383 117 588 143 1494 192 2860-864 3051-2358 191-1493-865-2859-2358-3050z"/><path class="bbfil1" d="M5772 355s-55 200-111 400c-64 202-129 404-129 404v2c-46 144-201 224-345 177-145-46-224-200-178-345 6-20 16-40 26-58l210-348 200-364v-1c47-86 155-117 241-70 74 40 108 125 86 203zM2681 8039s45-199 90-399c57-206 113-411 113-411 40-147 192-233 338-193 147 40 233 191 193 338-5 21-13 41-23 59l-11 19-188 342c-90 183-180 365-180 365-43 88-150 125-238 81-75-37-112-120-95-198l1-3zM7975 5829s-50-13-124-31c-18-5-39-10-60-15s-45-14-70-22c-49-16-101-33-153-50-48-16-96-33-142-48-45-16-85-27-120-38-70-21-116-35-116-35l-9-3c-142-44-222-195-179-337 44-143 195-223 337-179 20 6 40 15 57 25 0 0 47 27 116 67 34 21 76 44 116 69 41 26 84 53 127 80 41 25 81 49 118 72 20 12 36 23 56 33s38 20 55 29c68 35 113 59 113 59h1c85 44 119 149 74 235-38 73-121 108-197 89zM402 2649s45 9 114 23c34 7 74 16 116 24 42 7 87 16 132 24 48 11 96 21 141 31s87 23 123 33c72 20 120 34 120 34 146 41 231 193 190 340-42 146-194 231-340 190-23-7-45-16-64-27l-10-6s-37-22-92-55c-28-16-60-37-96-55-36-19-75-39-114-59-42-20-85-40-125-59-41-19-76-37-107-53-63-31-104-52-104-52-88-44-124-151-80-239 37-73 118-110 195-94h1zM7483 1775s-35 34-87 85c-53 51-122 118-192 186-149 132-298 265-298 265-113 100-287 90-388-23s-90-287 23-388c17-15 35-28 55-38l2-1 336-174c84-48 168-97 231-133s105-61 105-61c85-49 194-20 243 65 42 72 27 161-30 217zM759 6510s35-37 86-92c13-14 27-29 42-45s28-32 43-50c29-34 60-71 92-108 36-40 72-80 106-117 32-38 71-70 100-99 61-57 102-95 102-95 111-104 286-98 389 13 104 111 98 286-13 389-16 15-33 28-51 38l-17 9s-39 22-98 55c-29 18-64 34-100 60-37 25-76 51-115 78-42 30-85 61-125 90-19 14-39 29-57 41s-35 23-51 33c-63 42-104 70-104 70-82 54-193 32-247-50-46-70-37-160 18-219v-1zM6685 7398l-288-288-284-312c-103-112-95-286 17-388 112-103 286-95 388 17 15 16 27 33 38 51l6 12 190 344 212 348c51 83 24 193-60 244-71 43-161 30-218-26l-1-2zM1672 839s39 36 96 91c29 27 63 59 99 90 36 32 74 66 113 100 41 39 81 77 119 112 39 35 72 74 102 105 59 64 98 107 98 107 103 112 96 286-16 389s-286 95-389-16c-14-16-26-32-35-49l-10-16s-23-42-59-104c-18-31-36-68-64-107-26-39-54-80-82-122-31-45-63-89-92-130-31-42-56-80-78-113-43-66-73-111-73-111-54-81-32-191 50-246 70-46 162-36 220 19l1 1zM8263 3694s-49 12-122 31c-18 5-38 10-59 16-20 6-45 10-70 15-50 9-103 20-156 30-50 9-99 18-145 27-48 8-88 17-124 24-71 15-118 25-118 25l-7 1c-149 31-294-65-325-213-31-149 65-294 214-325 21-5 44-6 65-6 0 0 52 2 131 5 38 2 86 2 132 5 47 3 98 6 148 9 47 2 93 5 137 7 22 1 42 3 64 2s42-1 61-1c76-1 126-2 126-2 99-2 179 76 181 175 1 83-55 154-133 175zM122 4666l107-35c32-11 71-23 109-38l60-21c21-8 42-15 62-23 46-14 92-29 136-43 43-13 84-22 119-32 71-18 118-30 118-30 148-37 297 52 335 200 37 148-52 297-200 335-24 6-48 8-71 8h-11s-42-1-104-2c-31 0-68-3-107-1-40 2-82 3-124 5-46 4-91 7-134 11-44 4-83 5-117 7-67 4-112 6-112 6-98 5-182-70-188-168-4-82 48-154 122-179zM4808 8164s-14-47-34-116c-19-70-46-163-72-257l-92-388c-35-148 56-296 204-331s296 56 331 204c5 22 8 45 7 67v7s-3 187-6 375c2 96 5 193 7 265 2 73 4 121 4 121 3 98-75 180-173 183-83 2-154-52-176-129v-1zM3577 119s17 46 41 114c6 18 13 36 20 56 7 21 16 38 24 57 9 19 18 39 27 59 9 21 18 39 27 62 20 49 39 99 57 145 10 23 17 46 23 69 7 23 12 45 18 65 22 81 36 136 36 136 39 147-48 298-195 337s-298-48-337-195c-6-22-9-44-10-65v-25s-1-41-2-103v-50c0-18-1-37-4-58-5-41-11-85-16-129-9-51-18-103-26-151-4-24-9-49-10-69-2-20-4-40-6-58-7-73-11-121-11-121-10-98 62-185 160-194 83-8 158 42 184 117v1z"/><path class="bbfil2" d="M10322 3524c-69 484-474 630-875 506 1-4 2-8 2-13 19-380 33-760 39-1140 452-85 911 110 834 647zm-252-1567c64 334-301 499-578 539 1-269-3-539-12-809 254-71 529-43 590 270zm365 780c-70-74-151-129-238-169 175-165 277-392 237-679-81-583-705-714-1176-519-48 19-80 52-99 89-35 30-57 76-55 137 29 801 12 1603-27 2404-87 78-108 226 25 291 347 170 719 240 1077 62 286-141 465-461 508-766 44-310-35-620-252-850zM11507 2841c155-114 491-161 442 119-55 318-384 400-655 327-18-5-35-6-51-6 37-176 127-340 264-440zm789 1313c165-174-98-439-264-264-283 297-668 176-779-198-4-11-6-23-9-34 472 102 981-119 1071-636 93-531-422-756-861-574-523 217-697 888-546 1393 187 629 948 776 1388 313zM13000 3991c-6-1-11-2-16-3 13-400 6-800-13-1201 914-337 1059 1543 29 1204zm-98 1049c29-223 49-446 63-669 682 183 1170-328 1127-1019-20-314-150-634-404-830-292-225-652-178-967-32-31 14-53 33-69 54-38 30-63 77-59 142 42 786 36 1572-64 2354-31 238 343 235 373 0zM15744 4027c-519 180-317-1017-198-1298 743-183 832 1078 198 1298zm-1091 206c12-239 28-480 38-721 119-16 239-14 359-1 14 603 254 1147 942 818 960-460 588-2308-584-1950-38 12-67 32-87 57-35 13-65 40-87 83-76 152-136 378-165 622-124-12-247-14-370-4-1-203-11-405-37-607-31-235-405-238-373 0 73 564 19 1138-10 1703-12 241 361 240 374 0zM11601 5214c-18 419-44 837-59 1255-6 3-13 4-19 8-341 174-593 171-681-233-71-328-11-703 69-1024 59-234-301-333-360-99-110 442-178 963-18 1401 172 474 602 503 998 356-3 234-2 467 8 700 10 240 383 241 373 0-33-789 28-1576 62-2364 11-241-363-240-373 0zM13447 5939c3-240-371-240-373 0-6 441 28 881 17 1321-2 2-4 3-6 4-126 105-287 181-446 101-156-79-147-311-153-457-14-307 7-625 57-928 39-235-321-336-360-99-40 240-60 482-70 725-9 236-29 535 67 756 174 397 546 468 882 336-22 185-69 376-179 503-145 168-381 117-474-65-110-215-432-26-323 188 266 520 954 412 1201-61 168-320 173-751 181-1103 9-407-26-814-21-1221zM14611 7205c-65 146-168 225-330 192-189-39-220-348-232-498-37-432 134-935 647-681 19 10 38 15 56 18-1 399-68 803-141 969zm-775-2192c-203 128-16 451 188 323 443-278 639 41 703 495-609-202-1039 251-1057 905-9 303 52 610 240 852 178 228 535 236 768 104 247-141 337-468 387-725 83-420 93-868 21-1290-111-658-642-1046-1250-664zM9747 7250c-73 279-397 174-471-40-46-130-62-271-56-411 47-1 95-5 141-13 11 1 23 1 35 0 292-28 422 195 351 464zm-178-1173c226-64 18 246-56 298-71 50-154 70-238 76 10-32 19-64 30-95 46-129 130-242 264-279zm262 479c75-74 137-166 181-274 130-322-186-590-480-548-637 92-698 946-621 1439 84 543 756 838 1101 329 223-329 101-745-181-946zM16037 7333c-230 236-401-194-436-359-50-241-32-672 197-826 21-14 37-31 50-49 2 0 3 1 5 0 553-11 446 965 184 1234zm-184-1607c-63 1-110 29-140 68-32-2-68 7-103 31-682 461-430 2364 564 1868 718-358 592-1986-321-1967z"/></g></g></svg><svg viewBox="0 0 492.004 492.004" id="next" xmlns="http://www.w3.org/2000/svg"><path d="M382.678 226.804L163.73 7.86C158.666 2.792 151.906 0 144.698 0s-13.968 2.792-19.032 7.86l-16.124 16.12c-10.492 10.504-10.492 27.576 0 38.064L293.398 245.9l-184.06 184.06c-5.064 5.068-7.86 11.824-7.86 19.028 0 7.212 2.796 13.968 7.86 19.04l16.124 16.116c5.068 5.068 11.824 7.86 19.032 7.86s13.968-2.792 19.032-7.86L382.678 265c5.076-5.084 7.864-11.872 7.848-19.088.016-7.244-2.772-14.028-7.848-19.108z"/></svg><svg fill="none" viewBox="0 0 34 33" id="title-icon-1" xmlns="http://www.w3.org/2000/svg"><path d="M15.935 0L.001 7.646v3.977h33V7.624L15.936 0zm14.867 9.43H2.2v-.407l13.766-6.605 14.835 6.627v.386zM2.2 26.97h28.6v2.193H2.2v-2.192zM0 30.808h33V33H0v-2.192zM2.75 13.816h2.2v10.962h-2.2V13.816zM28.05 13.816h2.2v10.962h-2.2V13.816zM21.45 13.816h2.2v10.962h-2.2V13.816zM9.35 13.816h2.2v10.962h-2.2V13.816zM15.4 13.816h2.2v10.962h-2.2V13.816z" fill="#FA873D"/></svg><svg fill="none" viewBox="0 0 23 29" id="title-icon-2" xmlns="http://www.w3.org/2000/svg"><path d="M18.375 6.25h-2.75V3.5h2.75a1.375 1.375 0 000-2.75h-11A6.875 6.875 0 00.5 7.625v19.25a1.375 1.375 0 002.75 0V7.625A4.125 4.125 0 017.375 3.5h5.5v2.75h-2.75A4.125 4.125 0 006 10.375v6.779a4.125 4.125 0 001.843 3.437l2.282 1.526v.633a2.75 2.75 0 002.75 2.75v1.375a1.375 1.375 0 002.75 0V25.5a2.75 2.75 0 002.75-2.75v-.633l2.282-1.526a4.126 4.126 0 001.843-3.437v-6.779a4.125 4.125 0 00-4.125-4.125zM17 13.125h2.75V14.5h-1.375a1.375 1.375 0 000 2.75h1.375a1.375 1.375 0 01-.605 1.045l-2.887 1.939a1.375 1.375 0 00-.633 1.141v1.375h-2.75v-1.375a1.376 1.376 0 00-.619-1.141L9.37 18.295a1.375 1.375 0 01-.619-1.141v-6.779A1.375 1.375 0 0110.125 9h8.25a1.375 1.375 0 011.375 1.375H17a1.375 1.375 0 000 2.75z" fill="#FA873D"/></svg><svg fill="none" viewBox="0 0 33 33" id="title-icon-3" xmlns="http://www.w3.org/2000/svg"><path d="M26.125 9.625H22V8.25a5.5 5.5 0 00-11 0v1.375H6.875A1.375 1.375 0 005.5 11v15.125a4.125 4.125 0 004.125 4.125h13.75a4.125 4.125 0 004.125-4.125V11a1.375 1.375 0 00-1.375-1.375zM13.75 8.25a2.75 2.75 0 115.5 0v1.375h-5.5V8.25zm11 17.875a1.375 1.375 0 01-1.375 1.375H9.625a1.375 1.375 0 01-1.375-1.375v-13.75H11v1.375a1.375 1.375 0 002.75 0v-1.375h5.5v1.375a1.375 1.375 0 002.75 0v-1.375h2.75v13.75z" fill="#FA873D"/></svg><svg fill="none" viewBox="0 0 33 31" id="title-icon-4" xmlns="http://www.w3.org/2000/svg"><path d="M20.212 2.094s-1.468.515-3.774.515c-2.307 0-3.775-.515-3.775-.515-.232 0-.462.039-.681.116L2 5.703l1.072 5.672 3.15.356a1.547 1.547 0 011.373 1.584l-.439 15.591H25.72l-.439-15.591a1.547 1.547 0 011.373-1.584l3.15-.356 1.072-5.672-9.982-3.493a2.058 2.058 0 00-.681-.116zM21.42 4a5.156 5.156 0 01-9.966 0" stroke="#FA873D" stroke-width="2.5" stroke-linecap="round" stroke-linejoin="round"/></svg><svg fill="none" viewBox="0 0 24 24" id="vk" xmlns="http://www.w3.org/2000/svg"><rect width="24" height="24" rx="12" fill="#497BAB"/><path d="M18.926 15.225a.964.964 0 00-.048-.091c-.243-.438-.707-.976-1.392-1.614l-.014-.014-.008-.008-.007-.007h-.007a8.422 8.422 0 01-.59-.599c-.152-.194-.185-.391-.103-.591.058-.151.277-.47.656-.956.2-.258.357-.465.474-.62.84-1.12 1.205-1.836 1.093-2.147l-.043-.073c-.03-.044-.105-.084-.226-.12a1.146 1.146 0 00-.467-.019l-2.099.015a.272.272 0 00-.146.003l-.095.022-.036.019-.029.022a.325.325 0 00-.08.076.499.499 0 00-.073.128 11.926 11.926 0 01-.78 1.643c-.18.301-.345.563-.496.784-.15.222-.277.385-.379.49a2.654 2.654 0 01-.277.251c-.082.064-.146.09-.19.08a5.403 5.403 0 01-.123-.028.486.486 0 01-.164-.18.802.802 0 01-.084-.284 3.16 3.16 0 01-.022-.646c.005-.151.008-.253.008-.307 0-.185.003-.386.01-.602l.019-.515c.005-.126.007-.26.007-.401 0-.142-.009-.252-.026-.333a1.14 1.14 0 00-.076-.233.393.393 0 00-.15-.175.84.84 0 00-.244-.099 4.843 4.843 0 00-.984-.095c-.903-.01-1.484.049-1.742.175a.982.982 0 00-.277.22c-.087.106-.1.165-.036.175.291.043.498.148.62.313l.043.088c.034.063.068.175.102.336.034.16.056.338.066.533.024.355.024.66 0 .912-.025.254-.048.45-.07.592a1.185 1.185 0 01-.186.503.125.125 0 01-.036.037.544.544 0 01-.197.036c-.068 0-.15-.034-.248-.102a1.753 1.753 0 01-.302-.28 3.761 3.761 0 01-.354-.501 8.727 8.727 0 01-.408-.76l-.116-.211a18.231 18.231 0 01-.3-.595c-.126-.26-.237-.512-.335-.756a.481.481 0 00-.174-.233l-.037-.022a.772.772 0 00-.284-.11l-1.997.015c-.204 0-.343.046-.416.139l-.03.043A.236.236 0 005 8.665c0 .054.015.12.044.197a24.1 24.1 0 00.951 1.986c.343.638.64 1.151.893 1.54.253.39.51.757.772 1.103.263.345.437.567.522.664.085.098.152.17.2.22l.182.174c.117.117.288.257.514.42.226.163.477.324.751.482.275.158.594.287.959.387.364.1.719.14 1.064.12h.838c.17-.014.299-.068.386-.16l.03-.037a.484.484 0 00.054-.135.741.741 0 00.026-.2c-.005-.21.01-.398.047-.566.036-.168.078-.295.124-.38a.934.934 0 01.28-.321.482.482 0 01.059-.026c.117-.038.254 0 .412.114.158.114.306.255.444.423.139.168.306.357.5.566.194.21.364.365.51.467l.146.088c.097.058.223.112.379.16.155.05.291.061.408.037l1.866-.03c.185 0 .328-.03.43-.09.102-.061.163-.128.182-.201a.565.565 0 00.004-.249.922.922 0 00-.051-.193z" fill="#fff"/></svg><svg fill="none" viewBox="0 0 40 40" id="vk-light" xmlns="http://www.w3.org/2000/svg"><rect width="40" height="40" rx="20" fill="#fff"/><path d="M31.542 25.375a1.6 1.6 0 00-.08-.152c-.404-.73-1.178-1.627-2.32-2.69l-.024-.024-.012-.012-.012-.012h-.013c-.518-.495-.846-.828-.983-.998-.252-.324-.308-.653-.17-.986.096-.251.461-.782 1.093-1.594.332-.43.595-.774.79-1.034 1.4-1.866 2.008-3.058 1.822-3.577l-.073-.121c-.048-.073-.174-.14-.376-.201-.203-.06-.462-.07-.778-.03l-3.499.024a.454.454 0 00-.243.006l-.158.037-.06.03-.049.037a.54.54 0 00-.134.127.836.836 0 00-.12.213c-.382.982-.815 1.894-1.3 2.738-.3.503-.576.939-.827 1.308-.251.369-.462.64-.632.815a4.42 4.42 0 01-.462.42c-.137.105-.242.15-.315.134a8.775 8.775 0 01-.207-.05.808.808 0 01-.273-.297 1.337 1.337 0 01-.14-.475 5.234 5.234 0 01-.042-.493c-.004-.137-.003-.332.006-.584.008-.251.012-.422.012-.51 0-.309.006-.644.018-1.005l.03-.857c.009-.211.012-.434.012-.67 0-.235-.014-.42-.042-.553a1.901 1.901 0 00-.127-.39.656.656 0 00-.25-.292 1.402 1.402 0 00-.406-.164c-.43-.097-.976-.15-1.64-.158-1.507-.016-2.475.081-2.904.292-.17.09-.324.211-.462.365-.145.178-.166.276-.06.292.485.073.83.247 1.032.523l.073.146c.057.106.114.292.17.56.057.268.093.564.11.888.04.592.04 1.1 0 1.521-.041.422-.08.75-.116.986a1.98 1.98 0 01-.164.571 2.423 2.423 0 01-.146.268.21.21 0 01-.06.06.907.907 0 01-.328.062c-.114 0-.252-.057-.414-.17a2.92 2.92 0 01-.504-.47 6.27 6.27 0 01-.589-.833 14.552 14.552 0 01-.68-1.265l-.195-.353a30.403 30.403 0 01-.498-.991c-.21-.435-.397-.854-.559-1.26a.801.801 0 00-.291-.39l-.06-.036a.832.832 0 00-.195-.103 1.292 1.292 0 00-.28-.08l-3.328.025c-.34 0-.571.077-.693.231l-.048.073a.394.394 0 00-.037.195c0 .09.024.199.073.328a40.189 40.189 0 001.585 3.31c.571 1.063 1.067 1.919 1.488 2.567.422.65.85 1.262 1.288 1.837.438.576.727.945.869 1.108.142.162.253.284.334.365l.304.292c.194.194.48.428.856.7.377.271.794.539 1.252.803.457.263.99.478 1.597.644a5.517 5.517 0 001.774.201h1.397c.283-.024.498-.114.644-.268l.048-.06a.805.805 0 00.091-.225c.029-.102.043-.213.043-.335a4.016 4.016 0 01.079-.943c.06-.28.13-.49.206-.633a1.556 1.556 0 01.468-.535.798.798 0 01.097-.042c.195-.065.423-.002.687.188.263.191.51.426.74.706.232.28.51.594.833.943.324.349.607.608.85.779l.243.146c.162.097.373.186.632.267.26.082.486.102.68.061l3.11-.048c.308 0 .547-.051.717-.152.17-.102.271-.214.304-.335a.945.945 0 00.006-.414 1.524 1.524 0 00-.085-.322z" fill="#008AC4"/></svg><svg fill="none" viewBox="0 0 24 24" id="youtube" xmlns="http://www.w3.org/2000/svg"><rect width="24" height="24" rx="12" fill="#E90000"/><path fill-rule="evenodd" clip-rule="evenodd" d="M18.755 15.495c-.171.796-.78 1.382-1.513 1.47-1.736.207-3.493.208-5.243.207-1.75.001-3.506 0-5.242-.207-.733-.088-1.342-.674-1.513-1.47C5 14.362 5 13.125 5 11.959c0-1.167.003-2.404.247-3.537.171-.795.78-1.382 1.513-1.47 1.736-.207 3.493-.208 5.243-.207 1.749-.001 3.506 0 5.242.207.733.088 1.342.674 1.513 1.47.244 1.133.242 2.37.242 3.537 0 1.166 0 2.403-.245 3.536zm-8.562-1.215l4.451-2.465-4.45-2.482v4.947z" fill="#fff"/></svg></svg>