<svg width="743" height="428" viewBox="0 0 743 428" fill="none" xmlns="http://www.w3.org/2000/svg">
<path d="M711.835 255.807C711.835 262.315 711.485 268.856 710.785 275.435C702.457 353.761 636.177 411.499 559.649 411.499C552.474 411.499 545.212 410.995 537.896 409.946L519.16 407.277C460.772 398.937 401.671 396.859 342.845 401.086L238.489 408.568C131.109 416.266 33.0146 347.691 3.43729 244.236C1.1166 236.126 0 227.853 0 219.654C0 197.408 8.29115 175.611 23.7985 158.861L27.1858 155.197C34.0312 170.011 49.0261 180.27 66.4167 180.27C90.2861 180.27 109.631 160.938 109.631 137.085C109.631 118.502 97.8981 102.676 81.4325 96.5891L88.6779 88.7531C119.113 55.881 169.519 51.3427 205.35 78.2649L208.737 80.813C235.223 100.724 269.725 103.759 298.465 89.2069C299.352 88.7531 300.244 88.2993 301.152 87.8454C345.991 65.1452 394.584 53.1039 443.385 51.6758C442.631 54.8151 442.248 58.0961 442.248 61.4645C442.248 85.3139 461.592 104.65 485.462 104.65C509.331 104.65 528.676 85.3139 528.676 61.4645C528.676 60.994 528.676 60.5402 528.642 60.0863C558.828 67.0313 588.268 78.1816 616.045 93.533C675.571 126.426 711.835 188.856 711.835 255.807Z" fill="#FFF8F5"/>
<path d="M300.094 40.5338C300.094 62.8552 281.983 80.9546 259.647 80.9546C237.307 80.9546 219.195 62.8552 219.195 40.5338C219.195 18.2083 237.307 0.108871 259.647 0.108871C281.983 0.108871 300.094 18.2083 300.094 40.5338Z" fill="#FFF8F5"/>
<path d="M679.269 62.343C679.269 74.3885 669.498 84.1523 657.445 84.1523C645.387 84.1523 635.617 74.3885 635.617 62.343C635.617 50.2976 645.387 40.5338 657.445 40.5338C669.498 40.5338 679.269 50.2976 679.269 62.343Z" fill="#FFF8F5"/>
<path d="M742.997 204.257C742.997 208.596 739.48 212.11 735.139 212.11C730.802 212.11 727.281 208.596 727.281 204.257C727.281 199.923 730.802 196.404 735.139 196.404C739.48 196.404 742.997 199.923 742.997 204.257Z" fill="#FFF8F5"/>
<path d="M701.695 415.242C701.695 422.229 553.171 427.891 369.953 427.891C186.735 427.891 38.2109 422.229 38.2109 415.242C38.2109 408.255 186.735 402.593 369.953 402.593C553.171 402.593 701.695 408.255 701.695 415.242Z" fill="#FFE1D2"/>
<path d="M642.876 315.285V263.593H584.192L584.538 315.285H538.774L606.899 171.776H546.107L488.173 290.649L473.449 320.852V363.804H584.192V416.878H642.876V363.804H674.32V315.285H642.876Z" fill="#C2E5F7"/>
<path d="M515.218 363.804H506.801C508.01 350.518 504.06 341 503.143 338.989C502.927 347.42 501.368 355.693 498.473 363.804H473.449V325.215C473.637 323.546 473.762 321.839 473.816 320.102L488.173 290.649C492.352 295.962 496.669 302.981 498.556 309.577C498.985 310.738 499.373 311.917 499.748 313.095L499.789 313.249C500.439 315.381 501.01 317.542 501.464 319.703L501.493 319.803C501.535 320.023 501.577 320.232 501.635 320.452C501.76 321.089 501.902 321.735 501.993 322.38C502.118 323.017 502.214 323.667 502.327 324.304L502.368 324.649L502.393 324.816C502.506 325.565 502.602 326.315 502.685 327.06L502.702 327.201L502.714 327.281V327.226C502.714 327.226 515.134 339.434 515.218 363.804Z" fill="#B0DDF4"/>
<path d="M182.665 171.776L114.536 315.281H160.308L159.962 263.597H218.65V315.281H250.086V363.808H218.65V416.882H159.962V363.808H49.2188V320.852L121.873 171.776H182.665Z" fill="#C2E5F7"/>
<path d="M326.103 303.002C325.733 296.407 325.566 289.3 325.566 281.626C325.566 219.679 336.724 194.268 364.063 194.268C388.27 194.268 399.736 214.762 401.815 263.781C402.065 269.352 402.174 275.293 402.174 281.626C402.174 343.169 391.033 368.95 364.063 368.95C340.136 368.95 328.599 349.211 326.103 303.002ZM364.063 145.033C295.534 145.033 258.199 193.523 258.199 281.626C258.199 310.014 262.082 334.33 269.636 354.253C285.514 396.135 317.621 418.581 364.063 418.581C390.212 418.581 411.881 411.307 428.643 397.313C431.555 394.89 434.313 392.254 436.921 389.415C439.484 386.633 441.909 383.665 444.184 380.492C445.292 378.956 446.358 377.374 447.387 375.741C461.428 353.657 469.028 323.354 469.528 285.644C469.54 284.316 469.553 282.967 469.553 281.626C469.553 193.523 431.83 145.033 364.063 145.033Z" fill="#C2E5F7"/>
<path d="M401.758 394.565C392.637 394.565 385.813 391.975 384.821 383.415C384.613 382.403 384.613 381.325 384.846 380.201C385.075 379.068 386.021 378.281 387.542 377.765C388.079 377.736 388.613 377.702 389.138 377.673H389.154C389.546 377.652 389.938 377.627 390.308 377.598L390.367 377.594C391.908 377.49 393.45 377.34 394.983 377.115H394.996C395.271 377.074 395.533 377.032 395.791 376.986L395.841 376.978C395.929 376.965 396.016 376.949 396.104 376.936C401.916 377.045 409.395 377.894 417.111 378.743C425.377 379.655 433.918 380.563 440.98 380.563C442.089 380.563 443.159 380.542 444.184 380.492C441.909 383.665 439.484 386.633 436.922 389.415C425.769 391.134 412.245 394.565 401.758 394.565Z" fill="#8CCBED"/>
<path d="M447.384 375.746C447.388 375.746 447.388 375.741 447.388 375.741C451.846 368.73 455.654 360.89 458.796 352.246C458.796 352.246 458.796 352.246 458.796 352.242C455.659 360.89 451.85 368.73 447.388 375.746C447.388 375.746 447.388 375.746 447.384 375.746ZM270.033 355.285C269.703 354.74 269.47 354.107 269.324 353.412C269.428 353.695 269.533 353.974 269.637 354.253C269.77 354.598 269.903 354.944 270.033 355.285Z" fill="#C2E5F7"/>
<path d="M372.263 378.231C358.968 378.231 344.732 376.94 334.103 371.936C331.541 371.994 330.066 372.019 330.066 372.019C329.878 372.019 329.695 372.011 329.499 372.002L329.474 371.986C328.458 372.002 327.908 372.019 327.908 372.019C327.716 372.019 327.533 372.011 327.341 372.002C314.388 372.002 300.73 370.141 288.418 366.04C287.281 365.707 286.181 365.253 285.056 364.878C284.656 364.728 284.252 364.57 283.864 364.42L283.585 364.312C282.61 363.925 281.66 363.492 280.694 363.084C279.102 362.351 277.536 361.56 276.036 360.652L275.848 360.536C275.136 360.098 274.453 359.628 273.773 359.145C273.594 359.012 273.423 358.883 273.261 358.745L273.065 358.595C272.811 358.379 272.557 358.162 272.307 357.946L271.865 357.525C271.403 357.105 270.965 356.601 270.615 356.093L270.486 355.902C270.319 355.714 270.169 355.506 270.032 355.285C269.903 354.944 269.769 354.598 269.636 354.253C269.532 353.974 269.428 353.695 269.324 353.412C269.278 353.191 269.236 352.962 269.207 352.725C272.128 354.369 275.84 355.968 280.231 357.417C290.131 360.665 303.488 363.125 319.008 363.475C319.171 363.479 319.333 363.488 319.5 363.488C319.687 363.496 319.875 363.5 320.062 363.5C320.062 363.5 322.341 363.454 326.162 363.371C334.961 367.56 347.665 368.326 357.835 368.709C359.531 369.03 361.31 369.2 363.185 369.2C364.209 369.2 365.259 369.15 366.343 369.046C366.468 369.054 366.593 369.059 366.718 369.067C369.676 369.238 372.509 369.321 375.155 369.321C376.93 369.321 378.621 369.288 380.204 369.209C386.2 368.946 390.729 368.197 392.82 367.093C393.699 366.635 394.149 366.119 394.103 365.545C394.003 364.308 394.099 362.946 392.983 361.543C394.387 361.489 395.712 361.431 396.945 361.373C397.566 361.348 398.157 361.318 398.724 361.293C401.549 361.156 403.765 361.019 405.182 360.89C406.557 360.765 408.228 360.723 410.123 360.723C411.611 360.723 413.24 360.748 414.981 360.773C416.723 360.798 418.573 360.819 420.506 360.819C432.539 360.819 447.717 359.89 458.795 352.246C455.654 360.89 451.846 368.73 447.388 375.741C447.388 375.741 447.388 375.745 447.384 375.745C446.929 375.766 446.45 375.775 445.954 375.775C441.988 375.775 436.738 375.146 431.118 374.513C425.502 373.884 419.519 373.251 414.086 373.251C408.811 373.251 404.061 373.847 400.661 375.608C400.491 375.708 400.316 375.791 400.128 375.854C399.67 376.062 399.187 376.195 398.712 376.353L398.528 376.399L398.337 376.457L397.878 376.57L397.416 376.67L397.012 376.761L396.578 376.849C396.42 376.882 396.262 376.907 396.103 376.936C395.687 376.928 395.283 376.924 394.887 376.924C391.829 376.924 389.3 377.165 387.541 377.765C382.8 378.023 377.605 378.231 372.263 378.231ZM469.353 292.489C467.882 288.371 466.053 284.374 463.866 280.618C463.453 279.906 463.028 279.207 462.587 278.516C461.962 277.525 461.312 276.555 460.633 275.61C463.949 278.462 466.945 281.793 469.524 285.644C469.499 287.651 469.457 289.42 469.403 290.973C469.391 291.481 469.37 291.981 469.353 292.489Z" fill="#8CCBED"/>
<path d="M387.543 377.765C389.301 377.165 391.83 376.924 394.888 376.924C395.284 376.924 395.688 376.928 396.105 376.936C396.017 376.949 395.93 376.965 395.842 376.978L395.792 376.986C395.534 377.032 395.272 377.074 394.997 377.115H394.984C393.451 377.34 391.909 377.49 390.368 377.594L390.309 377.598C389.939 377.627 389.547 377.652 389.155 377.673H389.139C388.614 377.702 388.08 377.736 387.543 377.765Z" fill="#62B2E2"/>
<path d="M469.868 338.964C469.16 340.546 468.364 342.028 467.464 343.398C466.677 344.597 465.831 345.717 464.935 346.758C463.09 348.89 461.027 350.709 458.79 352.242C445.937 361.114 427.558 360.944 414.984 360.769C411.022 360.715 407.639 360.661 405.181 360.89C403.764 361.019 401.548 361.156 398.723 361.293C398.156 361.318 397.564 361.348 396.944 361.373C394.119 361.502 390.807 361.635 387.186 361.756C369.283 362.384 343.63 362.992 329.794 363.292C323.827 363.425 320.061 363.5 320.061 363.5C319.873 363.5 319.686 363.496 319.498 363.488C319.332 363.488 319.169 363.479 319.007 363.475C303.487 363.125 290.129 360.665 280.23 357.417C273.98 355.356 269.106 352.987 265.931 350.63C264.818 349.806 263.919 348.977 263.231 348.17C262.956 347.841 262.719 347.52 262.514 347.208L262.277 346.808C258.448 339.83 266.135 327.193 266.523 326.56L266.531 326.548V326.539L266.535 326.531C262.56 313.874 264.714 306.379 264.714 306.379C270.626 307.849 275.401 313.64 275.401 313.64C276.255 312.591 277.318 311.688 278.518 310.909C279.513 310.247 280.597 309.685 281.722 309.185C282.942 308.64 284.209 308.19 285.451 307.815C287.546 307.174 289.571 306.75 291.184 306.471C293.313 306.113 294.754 306.004 294.754 306.004C294.662 296.382 297.646 292.464 297.646 292.464C301.912 293.826 305.574 303.706 307.108 303.619C308.32 303.556 310.245 300.063 324.911 289.52C325.944 288.775 327.031 288.005 328.19 287.189C331.035 285.207 334.281 283 337.997 280.552C338.489 280.231 338.985 279.907 339.497 279.569C340.301 279.045 341.114 278.52 341.93 278.004C345.089 275.993 348.334 274.023 351.655 272.129C353.155 271.271 354.667 270.43 356.2 269.61C358.7 268.265 361.233 266.97 363.804 265.746C365.046 265.151 366.296 264.572 367.55 264.014C369.787 263.015 372.049 262.057 374.324 261.166C377.395 259.967 380.499 258.876 383.632 257.914C387.007 256.881 390.411 255.995 393.848 255.287L393.902 255.278C394.14 255.224 394.385 255.179 394.623 255.129C399.814 254.092 405.052 253.471 410.31 253.351C410.63 253.334 410.943 253.33 411.264 253.322C414.93 253.276 418.605 253.463 422.284 253.95C427.354 254.591 432.429 255.761 437.462 257.539C448.191 261.328 456.586 269.035 462.585 278.516C464.556 281.622 466.269 284.928 467.723 288.342C468.31 289.708 468.848 291.094 469.348 292.497C471.643 298.909 473.06 305.613 473.593 312.137C474.418 322.064 473.185 331.565 469.868 338.964Z" fill="#FFF1D2"/>
<path d="M467.467 343.398C466.68 344.597 465.834 345.717 464.938 346.758C452.493 361.181 429.745 360.973 414.983 360.773C411.025 360.719 407.638 360.661 405.184 360.89C403.767 361.019 401.55 361.156 398.726 361.293C398.159 361.318 397.567 361.348 396.947 361.373C394.122 361.502 390.809 361.635 387.189 361.756C369.286 362.384 343.633 362.992 329.797 363.292C323.83 363.425 320.064 363.5 320.064 363.5C319.876 363.5 319.689 363.496 319.501 363.488C319.335 363.488 319.172 363.479 319.01 363.475C303.49 363.125 290.132 360.665 280.233 357.417C273.983 355.356 269.109 352.987 265.934 350.63C264.821 349.806 263.921 348.977 263.234 348.17C262.959 347.841 262.721 347.52 262.517 347.208C260.463 340.059 266.688 326.044 266.688 326.044C262.713 313.382 265.625 308.419 265.625 308.419C271.538 309.893 276.312 315.685 276.312 315.685C277.162 314.636 278.229 313.732 279.429 312.953C280.425 312.291 281.508 311.725 282.633 311.23C283.854 310.684 285.12 310.235 286.362 309.86C288.453 309.219 290.478 308.798 292.095 308.519C294.224 308.157 295.661 308.045 295.661 308.045C295.574 298.426 298.244 294.55 298.244 294.55C302.515 295.912 306.481 305.75 308.019 305.663C309.231 305.6 311.156 302.103 325.822 291.565C326.851 290.819 327.942 290.053 329.101 289.233C331.942 287.251 335.188 285.04 338.908 282.596C339.396 282.276 339.896 281.947 340.408 281.614C341.213 281.089 342.021 280.569 342.842 280.048C345.996 278.037 349.245 276.068 352.566 274.173C354.066 273.315 355.578 272.479 357.112 271.65C360.815 269.664 364.607 267.782 368.457 266.058C370.694 265.055 372.961 264.101 375.235 263.21C378.306 262.011 381.406 260.92 384.543 259.958C388.172 258.847 391.839 257.91 395.534 257.173C401.038 256.074 406.596 255.441 412.175 255.366C415.841 255.32 419.516 255.512 423.195 255.995C428.266 256.636 433.34 257.806 438.369 259.584C449.102 263.373 457.497 271.08 463.497 280.56C465.072 283.046 466.484 285.648 467.726 288.342C475.929 307.57 475.933 330.445 467.467 343.398Z" fill="#FFD87B"/>
<path d="M485.874 346.583C485.874 371.111 462.233 381.333 430.644 387.233C402.975 392.408 390.121 388.699 388.575 381.591C388.359 380.584 388.367 379.505 388.592 378.377C390.413 369.292 423.594 373.839 444.509 371.336C465.421 368.838 476.099 361.339 477.462 346.35C478.824 331.357 473.599 321.135 473.599 321.135L473.391 310.876L473.37 309.785C473.37 309.785 485.874 322.051 485.874 346.583Z" fill="#F5C360"/>
<path d="M481.103 341.129C481.103 365.661 457.125 377.207 425.531 383.107C407.108 386.554 389.95 386.633 388.575 381.591C388.359 380.584 388.367 379.505 388.592 378.377C390.413 369.292 423.594 373.839 444.509 371.336C465.421 368.838 476.099 361.339 477.462 346.35C478.824 331.357 473.599 321.135 473.599 321.135L473.391 310.876C473.737 311.459 474.087 312.079 474.441 312.749C477.699 318.866 481.103 328.326 481.103 341.129Z" fill="#FFD87B"/>
<path d="M482.922 346.691C482.922 371.224 459.507 377.249 427.917 383.148C409.493 386.596 395.598 384.731 389.278 381.92C389.257 381.275 389.311 380.596 389.449 379.909C391.269 370.828 424.446 375.371 445.362 372.868C466.273 370.37 476.951 362.871 478.314 347.882C479.68 332.893 473.814 320.727 473.814 320.727L473.381 309.86C481.243 317.908 482.922 333.63 482.922 346.691Z" fill="#FFD87B"/>
<path d="M336.772 306.146C333.297 297.348 328.639 292.327 324.914 289.52C325.947 288.775 327.035 288.005 328.193 287.189C334.972 295.195 336.772 306.146 336.772 306.146Z" fill="#F5C360"/>
<path d="M351.682 300.013C347.683 289.874 342.358 283.945 338 280.552C338.492 280.231 338.987 279.907 339.5 279.569C340.304 279.045 341.116 278.52 341.933 278.004C349.624 287.476 351.682 300.013 351.682 300.013Z" fill="#F5C360"/>
<path d="M366.918 292.747C362.418 281.355 356.256 275.285 351.66 272.129C353.16 271.271 354.672 270.43 356.206 269.61C364.684 279.182 366.918 292.747 366.918 292.747Z" fill="#F5C360"/>
<path d="M388.562 291.023C382.275 275.135 373.408 267.515 367.555 264.014C369.792 263.015 372.054 262.057 374.329 261.166C385.42 272.953 388.458 290.391 388.562 291.023Z" fill="#F5C360"/>
<path d="M413.748 294.775C404.527 271.454 391.062 261.711 383.633 257.914C387.262 256.807 390.932 255.866 394.624 255.129C409.54 270.588 413.602 293.93 413.748 294.775Z" fill="#F5C360"/>
<path d="M431.619 293.505C427.515 271.334 417.936 259.271 411.266 253.322C414.932 253.276 418.607 253.463 422.286 253.95C432.273 271.846 431.619 293.505 431.619 293.505Z" fill="#F5C360"/>
<path d="M319.01 363.475C290.295 362.826 268.997 354.977 263.234 348.17L266.368 345.159C266.368 345.159 266.422 346.75 270.517 347.541C274.609 348.34 270.576 339.363 272.905 336.128C275.234 332.893 280.462 330.507 285.291 335.05C290.12 339.597 291.008 357.792 317.939 355.922L319.01 363.475Z" fill="#F5C360"/>
<path d="M467.469 343.398C466.681 344.597 465.835 345.717 464.94 346.758C452.495 361.181 429.746 360.973 414.984 360.773C411.026 360.719 407.639 360.661 405.185 360.89C403.768 361.019 401.552 361.156 398.727 361.293C398.16 361.318 397.569 361.348 396.948 361.373C394.123 361.502 390.811 361.635 387.19 361.756C369.287 362.384 343.635 362.992 329.798 363.292C323.832 363.425 320.065 363.5 320.065 363.5C319.878 363.5 319.69 363.496 319.503 363.488C319.336 363.488 319.174 363.479 319.011 363.475C303.491 363.125 290.134 360.665 280.234 357.417C283.534 357.717 302.183 359.316 315.807 358.391C330.806 357.367 367.116 324.491 394.39 330.112C421.667 335.733 479.964 316.143 463.261 280.027C463.019 279.515 462.798 279.011 462.59 278.516C475.664 299.138 477.435 328.142 467.469 343.398Z" fill="#F5C360"/>
<path d="M389.344 361.756C363.717 362.655 322.224 363.5 322.224 363.5C322.032 363.5 321.849 363.496 321.657 363.488C314.97 358.416 315.199 347.741 322.849 343.14C327.557 340.313 333.881 337.981 341.485 338.627C358.875 340.109 361.942 354.528 377.17 357.592C383.795 358.929 387.382 360.348 389.344 361.756Z" fill="#F5C360"/>
<path d="M396.947 361.373C394.122 361.502 390.809 361.635 387.189 361.756C369.286 362.384 343.633 362.992 329.796 363.292C321.676 358.729 321.397 346.916 329.559 342.007C334.263 339.18 340.592 336.849 348.195 337.49C365.582 338.972 368.648 353.395 383.876 356.459C391.672 358.029 395.263 359.72 396.947 361.373Z" fill="#F5C360"/>
<path d="M394.104 365.545C394.15 366.119 393.7 366.635 392.821 367.093C390.73 368.197 386.201 368.946 380.205 369.209C376.26 369.396 371.66 369.354 366.719 369.067C356.315 368.463 337.787 368.917 326.134 363.359C319.58 360.232 317.572 352.633 320.367 346.846C321.351 344.805 322.93 342.982 325.125 341.666C329.829 338.839 336.158 336.511 343.762 337.153C361.148 338.626 364.219 353.054 379.443 356.122C379.914 356.218 380.364 356.314 380.805 356.401C394.625 359.407 393.884 362.792 394.104 365.545Z" fill="#FFF1D2"/>
<path d="M392.821 367.093L392.396 367.298C392.246 367.356 392.092 367.427 391.921 367.485C391.675 367.589 391.4 367.681 391.109 367.764C390.913 367.822 390.709 367.885 390.496 367.939C390.038 368.059 389.542 368.176 389.005 368.276C388.834 368.313 388.663 368.347 388.484 368.38C387.259 368.605 385.851 368.788 384.297 368.93C383.718 368.984 383.109 369.034 382.484 369.08C382.097 369.109 381.701 369.138 381.297 369.159C380.943 369.175 380.576 369.2 380.205 369.209C376.26 369.396 371.66 369.354 366.719 369.067C356.315 368.463 337.787 368.917 326.134 363.359C319.58 360.232 317.572 352.633 320.367 346.846C321.28 345.642 322.45 344.572 323.875 343.715C328.583 340.883 334.908 338.552 342.512 339.193C359.902 340.675 362.969 355.098 378.197 358.167C378.664 358.258 379.114 358.354 379.56 358.446C380.33 358.616 381.059 358.787 381.739 358.949C392.575 361.647 392.68 364.591 392.821 367.093Z" fill="#FFD87B"/>
<path d="M468.289 319.207C468.289 330.378 467.039 339.576 464.935 346.758C449.153 365.049 416.792 359.815 405.181 360.89C403.764 361.019 401.547 361.156 398.723 361.293C398.764 359.815 399.331 358.341 399.923 357.196C401.806 353.62 422.084 352.77 420.896 350.043C419.696 347.316 410.672 345.784 410.672 327.726C410.672 327.351 410.672 326.977 410.684 326.606C411.126 312.774 422.03 301.499 435.808 300.142C448.807 298.868 468.289 300.138 468.289 319.207Z" fill="#F5C360"/>
<path d="M473.826 319.211C473.826 319.978 473.813 320.723 473.801 321.472C473.784 322.205 473.759 322.942 473.717 323.662C472.651 345.384 463.914 359.074 456.568 363.962C455.873 364.42 455.164 364.812 454.444 365.128C454.264 365.199 454.098 365.266 453.919 365.336C453.656 365.432 453.394 365.515 453.127 365.599C452.823 365.682 452.531 365.765 452.227 365.819L452.131 365.836C449.773 366.331 447.248 366.681 444.573 366.944L444.411 366.956C435.907 367.747 425.983 367.593 415.696 367.593C412.938 367.593 410.8 367.302 409.167 366.831C402.693 364.962 402.913 361.11 405.463 357.201C408.03 353.283 427.633 352.77 426.441 350.039C425.25 347.312 416.208 345.788 416.208 327.722C416.208 327.347 416.225 326.972 416.238 326.61C416.667 312.77 427.562 301.495 441.344 300.15C447.927 299.496 456.152 299.496 462.668 302.132H462.681C464.389 302.823 465.98 303.681 467.397 304.764C467.784 305.067 468.155 305.388 468.518 305.717C468.822 305.996 469.113 306.275 469.393 306.579C469.668 306.866 469.947 307.187 470.197 307.507C470.43 307.811 470.668 308.115 470.876 308.436L470.984 308.602C471.151 308.852 471.305 309.098 471.455 309.348C471.747 309.847 472.013 310.372 472.247 310.93C472.401 311.259 472.538 311.592 472.651 311.942L472.692 312.037C472.842 312.454 472.984 312.883 473.092 313.328C473.217 313.769 473.313 314.211 473.413 314.669L473.426 314.752C473.48 315.014 473.522 315.293 473.563 315.568C473.605 315.847 473.647 316.139 473.676 316.43C473.772 317.313 473.826 318.241 473.826 319.211Z" fill="#FFF1D2"/>
<path d="M473.824 319.211C473.824 319.977 473.812 320.723 473.799 321.472C473.783 322.205 473.758 322.942 473.716 323.662C472.649 345.384 463.912 359.074 456.567 363.962C455.871 364.42 455.163 364.812 454.442 365.128C454.263 365.199 454.096 365.266 453.917 365.336C453.655 365.432 453.392 365.515 453.126 365.599C452.821 365.682 452.53 365.765 452.226 365.819L452.13 365.836C451.547 366.003 453.834 365.919 452.863 366.057C450.367 366.444 447.568 366.735 444.572 366.944L444.409 366.956C435.477 367.593 424.927 367.593 415.695 367.593C412.936 367.593 410.799 367.302 409.166 366.831C404.549 364.658 405.724 360.39 407.087 357.783C408.97 354.224 429.24 353.366 428.06 350.634C426.856 347.907 417.832 346.383 417.832 328.33C417.832 327.955 417.844 327.568 417.857 327.21C418.286 313.366 429.185 302.103 442.964 300.733C449.009 300.15 456.442 300.109 462.667 302.132H462.679C464.387 302.823 465.979 303.681 467.396 304.763C467.783 305.067 468.154 305.388 468.516 305.717C468.821 305.996 469.112 306.275 469.391 306.579C469.666 306.866 469.945 307.187 470.195 307.507C470.429 307.811 470.666 308.115 470.875 308.436L470.983 308.602C471.15 308.852 471.304 309.098 471.454 309.348C471.745 309.847 472.012 310.372 472.245 310.93C472.399 311.259 472.537 311.592 472.649 311.942L472.691 312.037C472.841 312.454 472.983 312.883 473.091 313.328C473.216 313.769 473.312 314.211 473.412 314.669L473.424 314.752C473.479 315.014 473.52 315.293 473.562 315.568C473.604 315.847 473.645 316.139 473.674 316.43C473.77 317.313 473.824 318.241 473.824 319.211Z" fill="#FFD87B"/>
<path d="M265.931 350.63C264.818 349.806 263.919 348.977 263.231 348.17C262.839 347.703 262.523 347.254 262.277 346.808C258.448 339.83 266.135 327.193 266.523 326.56C266.277 327.189 261.552 339.155 266.364 345.159C267.86 347.025 267.364 348.902 265.931 350.63Z" fill="#F5C360"/>
<path d="M267.647 323.3C267.647 323.3 265.689 314.182 266.455 309.585C266.455 309.585 270.547 310.351 273.272 315.206C273.272 315.206 268.33 320.998 267.647 323.3Z" fill="#F5C360"/>
<path d="M298.331 295.104C298.331 295.104 296.285 302.344 296.71 306.346C296.71 306.346 302.423 305.067 305.318 305.326C305.318 305.326 301.91 298.168 298.331 295.104Z" fill="#F5C360"/>
<path d="M266.395 336.853C266.395 336.853 266.386 336.212 266.732 335.341C266.824 335.129 266.911 334.883 267.053 334.654C267.182 334.417 267.336 334.171 267.519 333.938C267.686 333.688 267.915 333.476 268.136 333.243C268.378 333.035 268.619 332.818 268.899 332.643C269.186 332.473 269.465 332.298 269.778 332.194C270.078 332.06 270.394 331.985 270.703 331.94C271.003 331.869 271.307 331.877 271.586 331.886L271.99 331.911L272.361 331.994C272.59 332.052 272.803 332.09 272.982 332.173C273.157 332.252 273.307 332.331 273.427 332.394C273.665 332.527 273.794 332.61 273.794 332.61C273.794 332.61 273.632 332.635 273.369 332.66C273.236 332.668 273.078 332.689 272.903 332.689C272.732 332.693 272.532 332.756 272.328 332.772C272.119 332.797 271.898 332.835 271.678 332.91C271.453 332.968 271.219 333.01 270.994 333.114L270.648 333.239L270.311 333.405C270.078 333.505 269.861 333.651 269.644 333.784C269.419 333.913 269.219 334.092 269.003 334.238C268.811 334.413 268.594 334.559 268.415 334.746C268.224 334.913 268.044 335.087 267.878 335.262C267.699 335.425 267.549 335.6 267.394 335.749C266.795 336.411 266.395 336.853 266.395 336.853Z" fill="#925227"/>
<path d="M281.289 330.591C281.289 330.591 281.389 330.42 281.618 330.162C281.739 330.041 281.881 329.879 282.068 329.733C282.256 329.575 282.476 329.412 282.735 329.258C282.993 329.104 283.285 328.95 283.61 328.829C283.939 328.709 284.289 328.584 284.668 328.53C285.043 328.438 285.439 328.426 285.843 328.396C286.243 328.413 286.655 328.426 287.055 328.496C287.447 328.588 287.86 328.63 288.222 328.788C288.593 328.925 288.968 329.046 289.289 329.229C289.622 329.4 289.934 329.575 290.218 329.758C290.497 329.954 290.743 330.153 290.972 330.332C291.209 330.503 291.401 330.695 291.563 330.874C291.726 331.04 291.863 331.199 291.976 331.323C292.201 331.577 292.318 331.736 292.318 331.736C292.318 331.736 292.126 331.669 291.813 331.544C291.497 331.428 291.088 331.194 290.564 331.003C290.305 330.899 290.03 330.79 289.747 330.661C289.455 330.553 289.139 330.466 288.83 330.337C288.522 330.199 288.176 330.166 287.851 330.058C287.518 329.941 287.172 329.916 286.835 329.837C286.497 329.775 286.151 329.762 285.814 329.716C285.48 329.733 285.143 329.67 284.822 329.716C284.497 329.733 284.185 329.762 283.885 329.808C283.589 329.858 283.301 329.912 283.043 329.974C281.997 330.241 281.289 330.591 281.289 330.591Z" fill="#925227"/>
<path d="M275.619 336.595C275.161 336.982 275.073 337.669 275.415 338.169C276.102 339.168 277.623 340.683 278.694 340.371C279.76 340.059 280.144 336.836 279.756 336.087C279.369 335.337 277.306 335.175 275.619 336.595Z" fill="#925227"/>
<path d="M279.887 343.798L278.133 339.713L278.758 339.447L280.512 343.531L279.887 343.798Z" fill="#925227"/>
<path d="M275.363 342.22C275.363 342.22 275.859 342.703 276.767 343.207C277.222 343.452 277.784 343.702 278.446 343.835C278.78 343.885 279.134 343.948 279.509 343.894L279.684 343.869L279.805 343.831L280.051 343.752C280.23 343.66 280.45 343.56 280.58 343.444C280.88 343.215 281.13 342.953 281.35 342.686C281.58 342.42 281.763 342.136 281.934 341.862C282.28 341.312 282.546 340.775 282.746 340.3C283.142 339.355 283.304 338.689 283.304 338.689C283.304 338.689 283.213 338.835 283.054 339.085C282.904 339.338 282.667 339.692 282.4 340.117C282.13 340.542 281.805 341.029 281.438 341.524C281.259 341.774 281.055 342.02 280.846 342.257C280.642 342.499 280.413 342.724 280.171 342.898L279.846 343.115L279.613 343.198L279.496 343.236L279.426 343.24C279.138 343.286 278.834 343.273 278.538 343.244C277.951 343.169 277.396 343.007 276.926 342.848C276.455 342.682 276.059 342.532 275.792 342.411C275.522 342.291 275.363 342.22 275.363 342.22Z" fill="#925227"/>
<path d="M375.911 262.948C375.403 262.34 374.878 261.745 374.328 261.166C377.399 259.967 380.503 258.876 383.636 257.914C384.469 258.339 385.373 258.838 386.344 259.425C385.744 259.596 385.144 259.775 384.544 259.958C381.64 260.849 378.761 261.853 375.911 262.948Z" fill="#F9D087"/>
<path d="M404.742 331.065C400.992 331.065 397.492 330.749 394.388 330.112C392.242 329.671 390.043 329.462 387.801 329.462C387.509 329.462 387.218 329.466 386.922 329.475C392.834 309.214 396.671 282.746 381.556 271.334C380.006 268.477 378.139 265.604 375.91 262.948C378.76 261.853 381.639 260.849 384.543 259.958C385.143 259.775 385.743 259.596 386.343 259.425C392.963 263.423 402.45 271.404 410.187 286.797L408.675 330.953C407.342 331.028 406.025 331.065 404.742 331.065Z" fill="#F7BA4C"/>
<path d="M396.359 257.011C395.813 256.39 395.251 255.778 394.676 255.179C402.9 254.1 409.096 253.38 410.3 253.351C410.304 253.351 410.308 253.351 410.312 253.351L410.546 255.403C405.792 255.562 401.055 256.115 396.359 257.011Z" fill="#F9D087"/>
<path d="M410.346 282.163C407.734 274.623 403.355 264.992 396.359 257.011C401.055 256.115 405.792 255.562 410.546 255.403L411.096 260.267L410.346 282.163Z" fill="#F7BA4C"/>
<path d="M368.246 266.154C366.846 265.95 365.363 265.813 363.809 265.746C365.05 265.15 366.3 264.572 367.554 264.014C368.258 264.438 369.008 264.917 369.796 265.467C369.35 265.663 368.904 265.858 368.458 266.058C368.387 266.087 368.317 266.121 368.246 266.154Z" fill="#F9D087"/>
<path d="M371.563 266.787C370.505 266.529 369.4 266.32 368.242 266.154C368.313 266.121 368.384 266.087 368.455 266.058C368.9 265.858 369.346 265.663 369.792 265.467C370.363 265.871 370.959 266.308 371.563 266.787Z" fill="#F7BA4C"/>
<path d="M383.633 257.914C387.008 256.881 390.412 255.995 393.849 255.287L393.866 255.283C390.428 255.995 387.012 256.881 383.633 257.914Z" fill="#F9D087"/>
<path d="M381.558 271.333C378.862 269.297 375.567 267.74 371.567 266.787C370.963 266.308 370.367 265.871 369.796 265.467C369.009 264.917 368.259 264.439 367.555 264.014C369.792 263.015 372.054 262.057 374.329 261.166C374.879 261.745 375.404 262.34 375.913 262.948C378.142 265.604 380.008 268.477 381.558 271.333Z" fill="#EDA43D"/>
<path d="M410.185 286.797C402.448 271.404 392.961 263.423 386.341 259.426C385.37 258.838 384.466 258.339 383.633 257.914C387.012 256.882 390.428 255.995 393.866 255.283L393.903 255.279C394.161 255.245 394.42 255.212 394.674 255.179C395.249 255.778 395.811 256.39 396.357 257.011C403.352 264.992 407.731 274.623 410.344 282.163L410.185 286.797Z" fill="#EDA43D"/>
<path d="M390.579 358.133C388.788 357.567 386.584 357.009 383.876 356.459C381.605 356.006 379.609 355.298 377.797 354.415C379.288 351.067 383.463 341.333 386.921 329.475C387.217 329.466 387.509 329.462 387.8 329.462C390.042 329.462 392.242 329.67 394.388 330.112C397.492 330.749 400.991 331.065 404.741 331.065C406.024 331.065 407.341 331.028 408.674 330.953L408.024 349.873C408.024 349.873 396.233 356.505 390.579 358.133Z" fill="#EDA43D"/>
<path d="M388.615 358.491C388.365 358.491 388.157 358.458 387.994 358.391C386.965 357.946 385.211 357.455 383.415 357.013C382.611 356.809 381.745 356.605 380.807 356.401C380.62 356.364 380.428 356.322 380.236 356.285C379.657 356.16 379.128 356.047 378.682 355.956C378.199 355.843 377.724 355.718 377.266 355.585C377.341 355.423 377.524 355.027 377.799 354.415C379.611 355.298 381.607 356.006 383.878 356.459C386.586 357.009 388.79 357.567 390.581 358.133C389.79 358.362 389.119 358.491 388.615 358.491Z" fill="#EDA43D"/>
<path d="M383.414 357.013C382.318 356.747 381.21 356.493 380.235 356.285C380.426 356.322 380.618 356.364 380.806 356.401C381.743 356.605 382.61 356.809 383.414 357.013ZM378.681 355.956C377.793 355.773 377.227 355.664 377.227 355.664C377.227 355.664 377.239 355.639 377.264 355.585C377.722 355.718 378.197 355.843 378.681 355.956Z" fill="#F9D087"/>
<path d="M467.354 246.976C445.126 246.889 422.898 245.952 400.666 247.363C401.691 257.244 402.187 268.623 402.187 281.618C402.187 319.078 397.308 345.176 387.996 358.391C387.996 358.391 389.329 358.916 391.692 360.294C392.021 360.486 393.083 361.543 393.083 361.543C393.083 361.543 394.321 363.625 394.087 365.707C395.658 366.448 396.946 373.31 396.946 373.31C396.946 373.31 402.962 372.41 403.795 372.573C411.824 372.056 420.594 372.306 427.648 372.056C435.947 371.761 442.918 371.507 450.526 370.553C461.654 348.657 469.554 316.151 469.554 281.618C469.554 269.285 468.812 257.731 467.354 246.976Z" fill="#C2E5F7"/>
<path d="M263.971 286.885L264.875 288.958L262.359 296.811L267.542 294.554L268.679 297.165L259.213 301.283L258.313 299.213L260.83 291.361L256.009 293.459L254.863 290.828L263.971 286.885Z" fill="#925227"/>
<path d="M278.269 261.133L278.502 263.381L273.728 270.105L279.352 269.522L279.648 272.354L269.378 273.419L269.144 271.171L273.915 264.447L268.69 264.992L268.395 262.14L278.269 261.133Z" fill="#925227"/>
<path d="M253.891 246.672L253.712 244.957L257.357 239.827L253.366 240.239L253.137 238.066L260.678 237.296L260.857 239.011L257.211 244.145L260.832 243.77C260.724 244.503 260.615 245.244 260.515 245.985L253.891 246.672Z" fill="#C39F79"/>
<path d="M260.52 245.985C260.62 245.244 260.728 244.503 260.836 243.77L261.507 243.699L261.732 245.86L260.52 245.985Z" fill="#A49278"/>
<path d="M279.512 220.475L273.816 219.071L274.121 217.826L277.97 215.145L275.071 214.429L275.462 212.851L280.933 214.212L280.624 215.461L276.779 218.135L279.899 218.905L279.512 220.475Z" fill="#AAAEA3"/>
<path d="M255.775 210.119L255.363 208.904L257.163 204.578L254.334 205.535L253.809 203.995L259.158 202.196L259.567 203.412L257.767 207.738L260.812 206.709L261.329 208.242L255.775 210.119Z" fill="#F2EBE3"/>
</svg>
